<?xml version="1.0" standalone="no"?>
<!DOCTYPE svg PUBLIC "-//W3C//DTD SVG 1.1//EN" "http://www.w3.org/Graphics/SVG/1.1/DTD/svg11.dtd" >
<svg xmlns="http://www.w3.org/2000/svg" xmlns:xlink="http://www.w3.org/1999/xlink" version="1.1">
<metadata></metadata>
<defs>
<font id="paul_groteskblack" horiz-adv-x="630" >
<font-face units-per-em="1000" ascent="800" descent="-200" />
<missing-glyph horiz-adv-x="210" />
<glyph unicode="&#xfb01;" horiz-adv-x="661" d="M517 547q-43 0 -72.5 29.5t-29.5 72.5q0 42 29.5 71.5t72.5 29.5q42 0 71.5 -29.5t29.5 -71.5q0 -43 -29.5 -72.5t-71.5 -29.5zM81 525q0 95 57 150t154 55h75v-150h-27q-32 0 -50.5 -21t-18.5 -56v-3h71v-137h-71v-363h-190v363h-73v137h73v25zM421 0v500h190v-500h-190 z" />
<glyph unicode="&#xfb02;" horiz-adv-x="661" d="M81 525q0 95 57 150t154 55h75v-150h-27q-32 0 -50.5 -21t-18.5 -56v-3h71v-137h-71v-363h-190v363h-73v137h73v25zM421 730h190v-730h-190v730z" />
<glyph horiz-adv-x="0" />
<glyph horiz-adv-x="333" />
<glyph unicode=" "  horiz-adv-x="210" />
<glyph unicode="&#x09;" horiz-adv-x="210" />
<glyph unicode="&#xa0;" horiz-adv-x="210" />
<glyph unicode="!" horiz-adv-x="310" d="M250 243h-180l-20 467h220zM161 -14q-42 0 -71 29t-29 71t29 71t71 29t71 -29t29 -71t-29 -71t-71 -29z" />
<glyph unicode="&#x22;" horiz-adv-x="489" d="M209 415h-140l-19 285h180zM428 415h-140l-19 285h180z" />
<glyph unicode="#" horiz-adv-x="779" d="M687 382h-82l-17 -109h84l-22 -129h-82l-22 -144h-153l22 144h-91l-22 -144h-153l22 144h-101l21 129h100l17 109h-101l21 129h100l25 163h153l-25 -163h91l25 163h153l-25 -163h84zM343 273h92l17 109h-91z" />
<glyph unicode="$" horiz-adv-x="631" d="M589 202q0 -88 -58 -145t-157 -68v-87h-132v94q-159 36 -207 194l210 26q17 -42 34 -60.5t49 -18.5q55 0 55 45q0 25 -25 42.5t-62.5 27t-81.5 25.5t-81.5 36t-62.5 61t-25 98q0 84 54 136t143 67v91h132v-89q160 -26 198 -182l-203 -30q-23 71 -73 71q-24 0 -38 -15.5 t-14 -34.5q0 -22 25.5 -38t64 -25t83 -25t83 -36t64 -61.5t25.5 -98.5z" />
<glyph unicode="%" horiz-adv-x="943" d="M236 -30l359 734h131l-359 -734h-131zM234 271q-85 0 -134.5 56t-49.5 152t49.5 151.5t134.5 55.5t135 -55.5t50 -151.5t-50 -152t-135 -56zM234 372q21 0 34 29t13 78q0 48 -13 77t-34 29q-20 0 -32.5 -28.5t-12.5 -77.5t12.5 -78t32.5 -29zM718 -19q-85 0 -134.5 56 t-49.5 152t49.5 151.5t134.5 55.5t135 -55.5t50 -151.5t-50 -152t-135 -56zM718 82q20 0 32.5 29t12.5 78t-12.5 77.5t-32.5 28.5q-21 0 -34 -29t-13 -77q0 -49 13 -78t34 -29z" />
<glyph unicode="&#x26;" horiz-adv-x="797" d="M760 0h-234q-16 17 -47 48q-100 -62 -212 -62q-109 0 -170.5 53.5t-61.5 143.5q0 121 138 198q-75 97 -75 164q0 79 60.5 124.5t149.5 45.5t153.5 -47.5t81.5 -134.5l-164 -26q-17 68 -59 68q-18 0 -29.5 -10.5t-11.5 -27.5q0 -30 46 -87.5t173 -186.5q44 54 111 158 l129 -76q-73 -122 -134 -189zM305 131q34 0 73 21q-45 46 -98 103q-45 -34 -45 -72q0 -22 19 -37t51 -15z" />
<glyph unicode="'" horiz-adv-x="270" d="M209 415h-140l-19 285h180z" />
<glyph unicode="(" horiz-adv-x="355" d="M326 721q-104 -198 -104 -413t104 -413h-188q-108 220 -108 413t108 413h188z" />
<glyph unicode=")" horiz-adv-x="370" d="M53 721h188q108 -220 108 -413t-108 -413h-188q104 198 104 413t-104 413z" />
<glyph unicode="*" horiz-adv-x="455" d="M432 515l-133 -29l86 -110l-98 -63l-60 113l-60 -111l-98 63l86 109l-130 28l33 114l121 -49l-12 130h119l-12 -132l125 50z" />
<glyph unicode="+" horiz-adv-x="536" d="M471 383v-150h-124v-145h-158v145h-124v150h124v143h158v-143h124z" />
<glyph unicode="," horiz-adv-x="324" d="M172 210q46 0 79 -33t33 -79q0 -8 -0.5 -14t-4 -16t-7 -19t-13.5 -30t-20 -42.5t-29 -62.5t-39 -84h-121l69 169q-59 32 -59 99q0 46 33 79t79 33z" />
<glyph unicode="-" horiz-adv-x="320" d="M20 214v130h280v-130h-280z" />
<glyph unicode="." horiz-adv-x="314" d="M162 -14q-46 0 -79 33t-33 79t33 79t79 33t79 -33t33 -79t-33 -79t-79 -33z" />
<glyph unicode="/" horiz-adv-x="475" d="M301 730h149l-275 -815h-150z" />
<glyph unicode="0" d="M316 694q131 0 208 -95.5t77 -259.5q0 -163 -77 -258t-208 -95q-132 0 -209 95t-77 258q0 164 77 259.5t209 95.5zM316 548q-40 0 -63 -56t-23 -153q0 -95 23 -151t63 -56q39 0 61.5 56t22.5 151q0 97 -22.5 153t-61.5 56z" />
<glyph unicode="1" d="M287 672h170v-672h-200v518l-154 -13v148z" />
<glyph unicode="2" d="M303 150h266v-150h-529v150q61 50 86.5 70.5t74.5 61.5t70 63t48 52t37.5 52t10.5 41q0 25 -15.5 41.5t-39.5 16.5q-58 0 -71 -107l-191 32q18 101 88.5 161t182.5 60q111 0 178.5 -60t67.5 -151q0 -40 -19 -80.5t-60 -84.5t-81 -80t-104 -88z" />
<glyph unicode="3" d="M439 342q65 -19 102.5 -59.5t37.5 -92.5q0 -94 -69 -149t-187 -55q-114 0 -188.5 56t-92.5 155l187 31q11 -45 33 -70.5t51 -25.5q31 0 48.5 17t17.5 46q0 37 -25.5 57t-75.5 20h-44v135h50q44 0 67 20.5t23 56.5q0 29 -16 46.5t-43 17.5q-58 0 -82 -92l-186 32 q19 96 91 151t183 55q116 0 184.5 -51.5t68.5 -138.5q0 -50 -36 -92.5t-99 -69.5z" />
<glyph unicode="4" d="M599 269v-145h-93v-124h-192v124h-300v145l269 410h223v-410h93zM174 269h140v222z" />
<glyph unicode="5" d="M370 456q101 0 160.5 -59.5t59.5 -162.5q0 -115 -76 -181.5t-206 -66.5q-111 0 -181 49.5t-81 134.5l194 32q8 -35 29.5 -55.5t50.5 -20.5q32 0 51 26t19 71t-19.5 71t-52.5 26q-29 0 -50 -13.5t-28 -36.5h-187l16 414h487v-159h-311l-3 -105q55 36 128 36z" />
<glyph unicode="6" d="M384 440q96 0 152.5 -62t56.5 -165q0 -104 -73 -166t-196 -62q-71 0 -123 19.5t-82.5 50t-48.5 76t-24 88.5t-6 96q0 106 22.5 182t63.5 118t90.5 60.5t110.5 18.5q183 0 244 -176l-185 -24q-21 60 -66 60q-79 0 -89 -163q49 49 153 49zM323 125q70 0 70 87q0 88 -70 88 q-42 0 -56 -22t-14 -66q0 -87 70 -87z" />
<glyph unicode="7" d="M74 684h501v-174l-219 -510h-215l231 509h-298v175z" />
<glyph unicode="8" d="M445 355q67 -17 105.5 -62t38.5 -108q0 -92 -74 -145.5t-201 -53.5q-126 0 -199.5 53.5t-73.5 145.5q0 63 38.5 108t105.5 62q-64 15 -100.5 55t-36.5 93q0 88 72 139.5t194 51.5t194 -51.5t72 -139.5q0 -54 -36.5 -94t-98.5 -54zM314 554q-32 0 -51 -19t-19 -51 q0 -31 18.5 -48.5t51.5 -17.5t51.5 17.5t18.5 48.5q0 32 -19 51t-51 19zM314 126q34 0 54.5 20.5t20.5 55.5t-20.5 55.5t-54.5 20.5t-53.5 -20.5t-19.5 -55.5t19.5 -55.5t53.5 -20.5z" />
<glyph unicode="9" d="M309 694q71 0 123 -19.5t82.5 -49.5t48.5 -75.5t24 -88.5t6 -96q0 -106 -22.5 -182.5t-63.5 -118.5t-90.5 -60.5t-110.5 -18.5q-189 0 -253 175l185 24q24 -59 70 -59q83 0 94 163q-47 -49 -153 -49q-96 0 -152.5 62t-56.5 166t73 165.5t196 61.5zM310 379q42 0 56 22.5 t14 66.5q0 86 -70 86t-70 -86q0 -89 70 -89z" />
<glyph unicode=":" horiz-adv-x="314" d="M162 294q-46 0 -79 33t-33 79t33 79t79 33t79 -33t33 -79t-33 -79t-79 -33zM162 -14q-46 0 -79 33t-33 79t33 79t79 33t79 -33t33 -79t-33 -79t-79 -33z" />
<glyph unicode=";" horiz-adv-x="325" d="M173 287q-47 0 -79.5 32.5t-32.5 79.5t32.5 79.5t79.5 32.5t79.5 -32.5t32.5 -79.5t-32.5 -79.5t-79.5 -32.5zM172 210q46 0 79 -33t33 -79q0 -8 -0.5 -14t-4 -16t-7 -19t-13.5 -30t-20 -42.5t-29 -62.5t-39 -84h-121l69 169q-59 32 -59 99q0 46 33 79t79 33z" />
<glyph unicode="&#x3c;" horiz-adv-x="446" d="M406 545v-146l-220 -83l220 -84v-146l-356 156v149z" />
<glyph unicode="=" horiz-adv-x="551" d="M493 358h-435v135h435v-135zM493 141h-435v135h435v-135z" />
<glyph unicode="&#x3e;" horiz-adv-x="446" d="M50 545l356 -154v-149l-356 -156v146l220 84l-220 83v146z" />
<glyph unicode="?" horiz-adv-x="617" d="M301 728q118 0 186.5 -54t68.5 -146q0 -38 -13.5 -64.5t-33.5 -39.5t-43 -28.5t-43 -30.5t-33.5 -47t-13.5 -77h-171q0 57 15.5 97.5t37.5 62.5t44.5 38.5t38 37.5t15.5 49t-14.5 45t-38.5 17q-28 0 -48.5 -25.5t-29.5 -69.5l-185 31q9 94 79 149t182 55zM297 -14 q-42 0 -71 29t-29 71t29 71t71 29t71 -29t29 -71t-29 -71t-71 -29z" />
<glyph unicode="@" horiz-adv-x="897" d="M686 191q56 0 56 132q0 144 -69 213.5t-192 69.5q-146 0 -231 -90t-85 -241q0 -139 74.5 -215t209.5 -76q146 0 249 75l41 -100q-50 -35 -136 -59.5t-175 -24.5q-176 0 -279 103t-103 293q0 202 116 322.5t313 120.5q175 0 275.5 -97t100.5 -272q0 -118 -45.5 -190 t-123.5 -72q-40 0 -73.5 20t-49.5 57q-39 -80 -131 -80q-79 0 -129 57t-50 152q0 96 51 154t130 58q67 0 105 -44v33h111l1 -240q0 -59 39 -59zM452 175q34 0 53.5 31t19.5 85q0 53 -19.5 84t-53.5 31q-35 0 -55 -31t-20 -84q0 -54 20 -85t55 -31z" />
<glyph unicode="A" horiz-adv-x="718" d="M500 0l-31 115h-223l-30 -115h-209l231 700h239l234 -700h-211zM288 270h139l-70 261z" />
<glyph unicode="B" horiz-adv-x="675" d="M503 372q63 -15 100 -61.5t37 -112.5q0 -91 -72.5 -144.5t-196.5 -53.5h-301v700h291q116 0 184 -48t68 -131q0 -51 -30 -91t-80 -58zM413 494q0 28 -15.5 44t-41.5 16h-86v-118h80q29 0 46 16t17 42zM355 148q34 0 54.5 19.5t20.5 52.5t-21 52t-58 19h-81v-143h85z" />
<glyph unicode="C" horiz-adv-x="727" d="M380 717q128 0 210 -70.5t100 -193.5l-204 -34q-11 61 -39.5 94.5t-70.5 33.5q-56 0 -88 -54t-32 -141q0 -88 32.5 -142t88.5 -54q45 0 74.5 34.5t40.5 97.5l198 -33q-22 -126 -103 -197.5t-207 -71.5q-152 0 -243 100.5t-91 266.5q0 165 90.5 264.5t243.5 99.5z" />
<glyph unicode="D" horiz-adv-x="743" d="M337 700q166 0 263 -94t97 -254q0 -163 -97 -257.5t-263 -94.5h-267v700h267zM330 168q72 0 114.5 49.5t42.5 134.5q0 83 -42.5 131.5t-114.5 48.5h-60v-364h60z" />
<glyph unicode="E" horiz-adv-x="594" d="M270 175h296v-175h-496v700h490v-175h-290v-83h230v-176h-230v-91z" />
<glyph unicode="F" horiz-adv-x="581" d="M560 525h-290v-144h240v-175h-241v-206h-199v700h490v-175z" />
<glyph unicode="G" horiz-adv-x="731" d="M377 379h315v-62q0 -162 -85.5 -246.5t-229.5 -84.5q-157 0 -244 97.5t-87 264.5q0 171 89 269.5t241 98.5q118 0 202 -59t105 -164l-199 -33q-20 86 -101 86q-127 0 -127 -201q0 -189 126 -189q92 0 100 89h-105v134z" />
<glyph unicode="H" horiz-adv-x="750" d="M480 700h200v-700h-200v273h-210v-273h-200v700h200v-252h210v252z" />
<glyph unicode="I" horiz-adv-x="340" d="M270 0h-200v700h200v-700z" />
<glyph unicode="J" horiz-adv-x="407" d="M20 0v175h59q75 0 75 79v446h200v-508q0 -88 -56.5 -140t-150.5 -52h-127z" />
<glyph unicode="K" horiz-adv-x="718" d="M464 0l-148 257l-46 -60v-197h-200v700h200v-257l184 257h231l-222 -289l244 -411h-243z" />
<glyph unicode="L" horiz-adv-x="531" d="M270 175h254v-175h-454v700h200v-525z" />
<glyph unicode="M" horiz-adv-x="989" d="M681 700h238v-700h-190l4 404l-104 -297l-44 -107h-181l-44 110l-100 291v-401h-190v700h248l179 -500z" />
<glyph unicode="N" horiz-adv-x="805" d="M546 700h189v-700h-253l-145 261l-82 157v-418h-185v700h250l167 -309l59 -116v425z" />
<glyph unicode="O" horiz-adv-x="778" d="M388 717q158 0 251 -98.5t93 -266.5q0 -169 -93 -267.5t-251 -98.5t-250 98.5t-92 267.5q0 168 92.5 266.5t249.5 98.5zM388 547q-61 0 -96.5 -52.5t-35.5 -142.5q0 -91 35.5 -143.5t96.5 -52.5q62 0 98 52.5t36 143.5q0 90 -36 142.5t-98 52.5z" />
<glyph unicode="P" horiz-adv-x="657" d="M364 700q127 0 201 -65t74 -175q0 -111 -74 -176.5t-201 -65.5h-94v-218h-200v700h294zM342 375q40 0 63.5 23.5t23.5 61.5t-23.5 60.5t-63.5 22.5h-72v-168h72z" />
<glyph unicode="Q" horiz-adv-x="778" d="M732 352q0 -114 -43.5 -197.5t-123.5 -127.5q51 -19 141 -19v-150q-108 0 -186.5 35t-108.5 94q-8 -1 -23 -1q-158 0 -250 98.5t-92 267.5q0 168 92.5 266.5t249.5 98.5q158 0 251 -98.5t93 -266.5zM256 352q0 -91 35.5 -143.5t96.5 -52.5q62 0 98 52.5t36 143.5 q0 90 -36 142.5t-98 52.5q-61 0 -96.5 -52.5t-35.5 -142.5z" />
<glyph unicode="R" horiz-adv-x="687" d="M439 0l-120 237h-49v-237h-200v700h292q127 0 201 -63.5t74 -171.5q0 -135 -118 -195l143 -270h-223zM270 543v-158h69q40 0 64 21.5t24 58.5q0 36 -23.5 57t-64.5 21h-69z" />
<glyph unicode="S" horiz-adv-x="656" d="M353 -14q-134 0 -219 58.5t-106 148.5l199 34q29 -87 121 -87q76 0 76 50q0 26 -27.5 45.5t-68.5 30.5t-88.5 29t-88.5 39t-68.5 63t-27.5 100q0 107 76.5 163.5t197.5 56.5q117 0 189.5 -56.5t90.5 -144.5l-198 -32q-24 80 -90 80q-33 0 -50 -16t-17 -37q0 -24 27.5 -42 t68.5 -28.5t89 -28t89 -39t68.5 -63.5t27.5 -98q0 -103 -73.5 -164.5t-197.5 -61.5z" />
<glyph unicode="T" horiz-adv-x="622" d="M612 700v-175h-201v-525h-200v525h-201v175h602z" />
<glyph unicode="U" horiz-adv-x="721" d="M658 700v-431q0 -131 -80.5 -207.5t-216.5 -76.5q-137 0 -217.5 76.5t-80.5 207.5v431h200v-432q0 -52 26.5 -82.5t71.5 -30.5t71 30.5t26 82.5v432h200z" />
<glyph unicode="V" horiz-adv-x="685" d="M464 700h214l-203 -700h-265l-203 700h213l122 -533z" />
<glyph unicode="W" horiz-adv-x="1038" d="M817 700h214l-177 -700h-244l-91 433l-91 -433h-244l-177 700h213l86 -518l98 518h229l97 -518z" />
<glyph unicode="X" horiz-adv-x="723" d="M712 0h-235l-120 244l-121 -244h-225l200 361l-190 339h235l111 -218l110 218h225l-190 -339z" />
<glyph unicode="Y" horiz-adv-x="677" d="M462 700h208l-232 -466v-234h-200v234l-231 466h217l119 -250z" />
<glyph unicode="Z" horiz-adv-x="556" d="M258 176h291v-176h-542v175l278 350h-267v175h517v-174z" />
<glyph unicode="[" horiz-adv-x="375" d="M350 577h-110v-535h109v-145h-289v825h290v-145z" />
<glyph unicode="\" horiz-adv-x="495" d="M189 730l276 -815h-150l-275 815h149z" />
<glyph unicode="]" horiz-adv-x="388" d="M73 722h290v-825h-289v145h109v535h-110v145z" />
<glyph unicode="^" horiz-adv-x="702" d="M656 354h-192l-113 194l-113 -194h-192l207 356h194z" />
<glyph unicode="_" horiz-adv-x="500" d="M500 -143h-500v101h500v-101z" />
<glyph unicode="`" horiz-adv-x="600" d="M256 710l90 -148h-150l-150 148h210z" />
<glyph unicode="a" horiz-adv-x="562" d="M293 514q107 0 169 -49t62 -132v-333h-164v71q-46 -85 -161 -85q-79 0 -125 41t-46 109q0 75 56.5 117.5t156.5 42.5q54 0 96 -11v44q0 28 -12.5 44t-34.5 16q-42 0 -59 -55l-180 30q19 71 83 110.5t159 39.5zM271 105q31 0 48.5 20t17.5 54v21q-32 10 -56 10 q-31 0 -48.5 -14.5t-17.5 -39.5q0 -23 15 -37t41 -14z" />
<glyph unicode="b" horiz-adv-x="607" d="M379 514q94 0 148.5 -71.5t54.5 -193.5q0 -121 -54.5 -192t-146.5 -71q-114 0 -166 110v-96h-165v730h190v-283q53 67 139 67zM310 132q33 0 52.5 32t19.5 86t-19.5 86t-52.5 32q-32 0 -51 -32t-19 -86t19 -86t51 -32z" />
<glyph unicode="c" horiz-adv-x="555" d="M285 514q102 0 168 -50.5t84 -139.5l-173 -28q-18 72 -70 72q-32 0 -50.5 -31t-18.5 -86t18.5 -87t52.5 -32q55 0 69 84l174 -27q-17 -98 -83 -150.5t-169 -52.5q-121 0 -191.5 71.5t-70.5 193.5q0 121 70.5 192t189.5 71z" />
<glyph unicode="d" horiz-adv-x="607" d="M367 730h190v-730h-165v96q-52 -110 -166 -110q-92 0 -146.5 71t-54.5 192q0 122 54.5 193.5t148.5 71.5q86 0 139 -67v283zM297 132q32 0 51 32t19 86t-19 86t-51 32q-33 0 -52.5 -32t-19.5 -86t19.5 -86t52.5 -32z" />
<glyph unicode="e" horiz-adv-x="573" d="M316 111q55 0 77 54l155 -26q-20 -71 -84.5 -112t-161.5 -41q-128 0 -202.5 70.5t-74.5 196.5q0 121 70 191t198 70q261 0 261 -307h-326q14 -96 88 -96zM292 389q-56 0 -65 -89h127q-7 89 -62 89z" />
<glyph unicode="f" horiz-adv-x="371" d="M340 580q-32 0 -50.5 -21t-18.5 -56v-3h71v-137h-71v-363h-190v363h-73v137h73v25q0 95 57 150t154 55h75v-150h-27z" />
<glyph unicode="g" horiz-adv-x="593" d="M392 500h165v-427q0 -121 -74.5 -192t-202.5 -71q-94 0 -158 37.5t-85 103.5l179 29q24 -44 69 -44q38 0 60.5 30t22.5 81v33q-54 -74 -147 -74q-90 0 -143 68.5t-53 185.5t53.5 185.5t144.5 68.5q120 0 169 -115v101zM293 152q34 0 54 29.5t20 79.5q0 49 -19.5 78 t-52.5 29q-32 0 -51 -29.5t-19 -79.5t18.5 -78.5t49.5 -28.5z" />
<glyph unicode="h" horiz-adv-x="605" d="M385 514q84 0 132 -53.5t48 -145.5v-315h-190v291q0 34 -17 54.5t-47 20.5q-29 0 -48 -18t-23 -51v-297h-190v730h190v-281q51 65 145 65z" />
<glyph unicode="i" horiz-adv-x="290" d="M146 547q-43 0 -72.5 29.5t-29.5 72.5q0 42 29.5 71.5t72.5 29.5q42 0 71.5 -29.5t29.5 -71.5q0 -43 -29.5 -72.5t-71.5 -29.5zM240 0h-190v500h190v-500z" />
<glyph unicode="j" horiz-adv-x="270" d="M137 547q-43 0 -72.5 29.5t-29.5 72.5q0 42 29.5 71.5t72.5 29.5q42 0 71.5 -29.5t29.5 -71.5q0 -43 -29.5 -72.5t-71.5 -29.5zM230 500v-485q0 -98 -51.5 -151.5t-145.5 -53.5h-68v160h10q65 0 65 78v452h190z" />
<glyph unicode="k" horiz-adv-x="563" d="M358 0l-98 177l-25 -30v-147h-185v730h185v-378l111 148h208l-157 -195l181 -305h-220z" />
<glyph unicode="l" horiz-adv-x="290" d="M50 0v730h190v-730h-190z" />
<glyph unicode="m" horiz-adv-x="900" d="M685 514q81 0 128 -53.5t47 -145.5v-315h-190v301q0 30 -15.5 47.5t-42.5 17.5q-29 0 -46 -20t-17 -55v-291h-189v301q0 30 -16 47.5t-43 17.5q-29 0 -45.5 -20t-16.5 -55l1 -291h-190v500h165v-96q18 52 59 81t100 29q113 0 156 -98q41 98 155 98z" />
<glyph unicode="n" horiz-adv-x="590" d="M375 514q81 0 128 -53.5t47 -145.5v-315h-190v301q0 30 -16 47.5t-43 17.5q-29 0 -45.5 -20.5t-16.5 -54.5l1 -291h-190v500h165v-93q19 51 60.5 79t99.5 28z" />
<glyph unicode="o" horiz-adv-x="601" d="M301 -14q-127 0 -201.5 71t-74.5 193t74.5 193t201.5 71t201 -71t74 -193t-74 -193t-201 -71zM301 132q34 0 54.5 32t20.5 86t-20.5 86t-54.5 32q-35 0 -55.5 -32t-20.5 -86t20.5 -86t55.5 -32z" />
<glyph unicode="p" horiz-adv-x="607" d="M379 514q94 0 148.5 -71.5t54.5 -193.5q0 -121 -54.5 -192t-146.5 -71q-88 0 -141 69v-245h-190v690h165v-95q50 109 164 109zM310 132q33 0 52.5 32t19.5 86t-19.5 86t-52.5 32q-32 0 -51 -32t-19 -86t19 -86t51 -32z" />
<glyph unicode="q" horiz-adv-x="607" d="M392 500h165v-690h-190v245q-53 -69 -141 -69q-92 0 -146.5 71t-54.5 192q0 122 54.5 193.5t148.5 71.5q114 0 164 -109v95zM297 132q32 0 51 32t19 86t-19 86t-51 32q-33 0 -52.5 -32t-19.5 -86t19.5 -86t52.5 -32z" />
<glyph unicode="r" horiz-adv-x="410" d="M376 514h20v-172h-16q-65 0 -102 -33t-39 -95l1 -214h-190v500h155v-147q16 74 61.5 117.5t109.5 43.5z" />
<glyph unicode="s" horiz-adv-x="538" d="M279 -14q-99 0 -167 36t-87 112l168 27q25 -54 78 -54q22 0 35 9t13 23q0 24 -29 38t-70.5 23t-83.5 22.5t-71 45.5t-29 82q0 75 62 119.5t165 44.5q85 0 148.5 -35t86.5 -105l-168 -28q-15 48 -66 48q-40 0 -40 -22q0 -16 21.5 -28t53.5 -19.5t69 -20.5t69 -29t53.5 -48 t21.5 -75q0 -76 -62.5 -121t-170.5 -45z" />
<glyph unicode="t" horiz-adv-x="385" d="M319 153h53v-153h-110q-89 0 -141 44.5t-52 120.5l-1 185h-55l-1 150h56l73 128h116l1 -128h103v-150h-103l1 -138q0 -27 16 -43t44 -16z" />
<glyph unicode="u" horiz-adv-x="586" d="M346 500h190v-500h-165v68q-47 -82 -159 -82q-82 0 -127 49.5t-45 149.5v315h190v-301q0 -30 15.5 -47.5t42.5 -17.5t43 20.5t16 54.5z" />
<glyph unicode="v" horiz-adv-x="568" d="M364 500h199l-150 -500h-258l-150 500h204l77 -322z" />
<glyph unicode="w" horiz-adv-x="852" d="M660 500h187l-123 -500h-247l-49 286l-43 -286h-257l-123 500h192l62 -378l63 378h213l63 -378z" />
<glyph unicode="x" horiz-adv-x="539" d="M549 0h-212l-69 140l-70 -140h-208l160 260l-144 240h211l55 -121l55 121h207l-144 -241z" />
<glyph unicode="y" horiz-adv-x="580" d="M375 500h200l-198 -690h-197l54 200h-90l-139 490h213l66 -327z" />
<glyph unicode="z" horiz-adv-x="446" d="M239 150h197v-150h-426v149l189 201h-178v150h407v-145z" />
<glyph unicode="{" horiz-adv-x="368" d="M283 459q0 -55 -24.5 -96t-66.5 -55q42 -13 66.5 -53.5t24.5 -96.5v-75q0 -19 15 -30.5t40 -12.5v-145h-16q-100 0 -159 49.5t-59 133.5v77q0 34 -18.5 61t-45.5 27v131q27 0 45.5 27t18.5 61v76q0 84 59 133.5t159 49.5h16v-145q-25 -2 -40 -13t-15 -29v-75z" />
<glyph unicode="|" horiz-adv-x="300" d="M230 -190h-160v920h160v-920z" />
<glyph unicode="}" horiz-adv-x="383" d="M289 462q0 -34 18.5 -61t45.5 -27v-131q-27 0 -45.5 -27t-18.5 -61v-77q0 -84 -59 -133.5t-159 -49.5h-16v145q25 1 40 12.5t15 30.5v75q0 56 24.5 96.5t66.5 53.5q-42 14 -66.5 55t-24.5 96v75q0 18 -15 29t-40 13v145h16q100 0 159 -49.5t59 -133.5v-76z" />
<glyph unicode="~" horiz-adv-x="617" d="M442 423h135q0 -95 -46.5 -151t-121.5 -56q-46 0 -99.5 30t-72.5 30q-23 0 -37 -17.5t-14 -46.5l-136 1q0 94 47.5 150.5t123.5 56.5q45 0 100 -29.5t73 -29.5q48 0 48 62z" />
<glyph unicode="&#xa1;" horiz-adv-x="310" d="M161 314q-42 0 -71 29t-29 71t29 71t71 29t71 -29t29 -71t-29 -71t-71 -29zM50 -190l20 457h180l20 -457h-220z" />
<glyph unicode="&#xa2;" horiz-adv-x="606" d="M560 269q-14 -80 -62 -130.5t-123 -66.5v-100h-150v104q-85 23 -132 89.5t-47 165.5t47.5 165t131.5 88v107h150v-104q73 -16 120.5 -63.5t62.5 -119.5l-173 -28q-18 72 -70 72q-32 0 -50.5 -31t-18.5 -86t18.5 -87t52.5 -32q55 0 69 84z" />
<glyph unicode="&#xa3;" horiz-adv-x="644" d="M314 175h323v-175h-566v170h43v100h-44v126h44v67q0 101 70 160t187 59q107 0 171 -48.5t84 -128.5l-206 -34q-14 62 -64 62q-42 0 -42 -56v-81h157v-126h-157v-95z" />
<glyph unicode="&#xa4;" horiz-adv-x="626" d="M518 280q0 -64 -28 -114l73 -81l-85 -79l-76 84q-39 -15 -87 -15q-51 0 -87 16l-77 -85l-85 79l74 83q-26 47 -26 112q0 66 26 113l-74 83l85 79l77 -85q39 15 87 15q49 0 86 -15l77 85l85 -79l-73 -82q28 -48 28 -114zM238 280q0 -45 20.5 -71t56.5 -26q37 0 58 26 t21 71t-21 71t-58 26q-36 0 -56.5 -26t-20.5 -71z" />
<glyph unicode="&#xa5;" horiz-adv-x="688" d="M674 700l-201 -404h64v-79h-95v-39h95v-80h-95v-98h-200v98h-105v80h105v39h-105v79h74l-200 404h217l119 -250l119 250h208z" />
<glyph unicode="&#xa6;" horiz-adv-x="300" d="M70 410v320h160v-320h-160zM230 130v-320h-160v320h160z" />
<glyph unicode="&#xa7;" horiz-adv-x="582" d="M550 261q0 -88 -76 -133q36 -46 36 -113q0 -91 -63 -138.5t-160 -47.5q-185 0 -230 173l191 28q21 -65 55 -65q17 0 26 12t9 24q0 25 -32 45t-77.5 37t-91 40.5t-77.5 68t-32 107.5q0 88 76 133q-36 46 -36 113q0 91 63 138.5t160 47.5q189 0 230 -173l-191 -28 q-17 65 -55 65q-17 0 -26 -12t-9 -24q0 -25 32 -45t77.5 -37t91 -40.5t77.5 -68t32 -107.5zM196 330q0 -20 8.5 -36t29 -29t36 -20.5t49 -21t48.5 -20.5q15 12 15 27q0 21 -9.5 37t-30 29t-39 21.5t-51 22t-50.5 21.5q-6 -13 -6 -31z" />
<glyph unicode="&#xa8;" horiz-adv-x="600" d="M132 566q-34 0 -58 24t-24 58t24 57.5t58 23.5t58 -23.5t24 -57.5t-24 -58t-58 -24zM368 566q-34 0 -58 24t-24 58t24 57.5t58 23.5t58 -23.5t24 -57.5t-24 -58t-58 -24z" />
<glyph unicode="&#xa9;" horiz-adv-x="797" d="M398 -13q-156 0 -254 100.5t-98 260.5q0 164 98 266.5t254 102.5q157 0 255 -102.5t98 -266.5q0 -160 -98 -260.5t-255 -100.5zM398 57q124 0 202 81t78 211q0 133 -77.5 215.5t-202.5 82.5q-124 0 -201.5 -82.5t-77.5 -215.5q0 -130 77.5 -211t201.5 -81zM398 576 q80 0 133 -44.5t60 -118.5l-133 -22q-4 32 -21.5 53t-38.5 21q-30 0 -47 -30t-17 -82q0 -51 17.5 -81t48.5 -30q26 0 42.5 20.5t18.5 55.5l130 -22q-7 -76 -58 -120.5t-131 -44.5q-94 0 -149 59.5t-55 162.5t54 163t146 60z" />
<glyph unicode="&#xaa;" horiz-adv-x="394" d="M209 690q74 0 117 -34.5t43 -92.5v-233h-111v50q-33 -60 -112 -60q-56 0 -88.5 28.5t-32.5 77.5q0 51 39.5 81t106.5 30q43 0 71 -9v32q0 20 -11 32t-29 12q-28 0 -40 -39l-121 20q13 49 57.5 77t110.5 28zM193 402q23 0 36 14.5t13 38.5v15q-25 7 -43 7 q-22 0 -34.5 -10.5t-12.5 -28.5q0 -16 11 -26t30 -10z" />
<glyph unicode="&#xab;" horiz-adv-x="664" d="M346 444l-117 -190l117 -190h-172l-124 190l124 190h172zM624 444l-117 -190l117 -190h-172l-124 190l124 190h172z" />
<glyph unicode="&#xac;" horiz-adv-x="520" d="M50 386h430v-294h-168v144h-262v150z" />
<glyph unicode="&#xad;" horiz-adv-x="290" d="M20 214v130h280v-130h-280z" />
<glyph unicode="&#xae;" horiz-adv-x="615" d="M313 750q116 0 189 -76.5t73 -199.5q0 -120 -73 -195.5t-189 -75.5t-189.5 75t-73.5 196q0 123 73.5 199.5t189.5 76.5zM313 263q89 0 145 58.5t56 152.5q0 96 -56 156t-145 60t-145.5 -60t-56.5 -156q0 -94 56.5 -152.5t145.5 -58.5zM430 529q0 -61 -56 -85l65 -120h-80 l-57 109h-35v-109h-72v303h120q53 0 84 -26t31 -72zM267 569v-81h42q48 0 48 41q0 40 -48 40h-42z" />
<glyph unicode="&#xaf;" horiz-adv-x="600" d="M435 588h-385v110h385v-110z" />
<glyph unicode="&#xb0;" horiz-adv-x="317" d="M161 710q62 0 99 -38.5t37 -103.5t-37 -103t-99 -38q-63 0 -99.5 38t-36.5 103t36.5 103.5t99.5 38.5zM161 635q-27 0 -42.5 -18t-15.5 -49t15.5 -49t42.5 -18t43 18t16 49t-16 49t-43 18z" />
<glyph unicode="&#xb1;" horiz-adv-x="497" d="M333 482h124v-140h-124v-150h-158v150h-124v140h124v148h158v-148zM50 0v140h406v-140h-406z" />
<glyph unicode="&#xb2;" horiz-adv-x="411" d="M199 428h192v-98h-362v98q65 53 92 76t67 61t55.5 63t15.5 46q0 20 -12 33t-32 13q-44 0 -54 -79l-125 21q12 70 60 112t125 42q76 0 122 -41.5t46 -104.5q0 -54 -47 -108t-143 -134z" />
<glyph unicode="&#xb3;" horiz-adv-x="418" d="M299 569q45 -12 72 -41t27 -66q0 -65 -48 -103.5t-128 -38.5q-78 0 -128.5 38.5t-63.5 107.5l122 21q17 -71 64 -71q23 0 37.5 13.5t14.5 35.5q0 27 -20 42.5t-56 15.5h-31v89h35q32 0 50 15.5t18 42.5q0 23 -13 36.5t-34 13.5q-44 0 -62 -67l-122 20q14 67 63 105 t124 38q79 0 126.5 -36t47.5 -97q0 -36 -25.5 -66.5t-69.5 -47.5z" />
<glyph unicode="&#xb4;" horiz-adv-x="600" d="M136 710h210l-150 -148h-150z" />
<glyph unicode="&#xb6;" horiz-adv-x="637" d="M567 -190h-133v756h-73v-756h-133v463q-96 0 -153 59t-57 160q0 100 57 159t153 59h339v-900z" />
<glyph unicode="&#xb7;" horiz-adv-x="314" d="M162 195q-46 0 -79 32.5t-33 79.5t33 79.5t79 32.5t79 -32.5t33 -79.5t-33 -79.5t-79 -32.5z" />
<glyph unicode="&#xb8;" horiz-adv-x="600" d="M160 -40q40 -3 62.5 -23t22.5 -52q0 -35 -25.5 -55t-68.5 -20q-55 0 -105 23l20 54q40 -17 65 -17q41 0 41 21q0 22 -51 22h-36l-1 38l35 64h69z" />
<glyph unicode="&#xb9;" horiz-adv-x="324" d="M193 800h111v-470h-130v370l-107 -9v96z" />
<glyph unicode="&#xba;" horiz-adv-x="425" d="M209 320q-88 0 -139.5 50t-51.5 135t51.5 135t139.5 50t139.5 -50t51.5 -135t-51.5 -135t-139.5 -50zM209 420q26 0 41 23t15 62t-15 62.5t-41 23.5q-25 0 -40.5 -23.5t-15.5 -62.5t15 -62t41 -23z" />
<glyph unicode="&#xbb;" horiz-adv-x="664" d="M222 444l124 -190l-124 -190h-172l117 190l-117 190h172zM500 444l124 -190l-124 -190h-172l117 190l-117 190h172z" />
<glyph unicode="&#xbc;" horiz-adv-x="999" d="M547 704h131l-362 -734h-131zM253 263h-135v298l-99 -8v100l119 12h115v-402zM977 166v-98h-58v-68h-130v68h-192v98l171 241h151v-241h58zM706 166h83v120z" />
<glyph unicode="&#xbd;" horiz-adv-x="979" d="M547 704h131l-362 -734h-131zM253 263h-135v298l-99 -8v100l119 12h115v-402zM791 101h166v-101h-344v101q51 36 80.5 58t63 49.5t49 48t15.5 35.5q0 9 -9 15t-23 6q-33 0 -41 -52l-129 22q12 60 58 96.5t118 36.5q73 0 117 -37t44 -92q0 -44 -42.5 -87.5t-122.5 -98.5z " />
<glyph unicode="&#xbe;" horiz-adv-x="1121" d="M669 704h131l-362 -734h-131zM375 383q0 -52 -45 -86t-120 -34t-122.5 35t-60.5 96l126 21q14 -49 53 -49q34 0 34 29q0 18 -16 30.5t-45 12.5h-28v75h32q26 0 40.5 12.5t14.5 30.5q0 29 -31 29q-35 0 -51 -46l-126 22q13 59 60 93t120 34t118 -31.5t45 -79.5 q0 -64 -89 -99q91 -27 91 -95zM1099 166v-98h-58v-68h-130v68h-192v98l171 241h151v-241h58zM828 166h83v120z" />
<glyph unicode="&#xbf;" horiz-adv-x="596" d="M299 523q42 0 71 -29t29 -71t-29 -71t-71 -29t-71 29t-29 71t29 71t71 29zM295 -219q-118 0 -186.5 54t-68.5 146q0 38 13.5 64.5t33.5 39.5t43 28.5t43 30.5t33.5 47t13.5 77h171q0 -57 -15.5 -97.5t-37.5 -62.5t-44.5 -38.5t-38 -37.5t-15.5 -49t14.5 -45t38.5 -17 q28 0 48.5 25.5t29.5 69.5l185 -31q-9 -94 -79 -149t-182 -55z" />
<glyph unicode="&#xc0;" horiz-adv-x="718" d="M456 726h-150l-125 121h200zM500 0l-31 115h-223l-30 -115h-209l231 700h239l234 -700h-211zM288 270h139l-70 261z" />
<glyph unicode="&#xc1;" horiz-adv-x="718" d="M530 847l-125 -121h-150l75 121h200zM500 0l-31 115h-223l-30 -115h-209l231 700h239l234 -700h-211zM288 270h139l-70 261z" />
<glyph unicode="&#xc2;" horiz-adv-x="718" d="M361 775l-35 -49h-142l111 120h135l107 -120h-142zM500 0l-31 115h-223l-30 -115h-209l231 700h239l234 -700h-211zM288 270h139l-70 261z" />
<glyph unicode="&#xc3;" horiz-adv-x="718" d="M305 760q-32 0 -32 -35l-96 1q0 62 32.5 99t84.5 37q32 0 71.5 -16.5t52.5 -16.5q30 0 30 35h95q0 -62 -31.5 -99t-83.5 -37q-32 0 -71 16t-52 16zM500 0l-31 115h-223l-30 -115h-209l231 700h239l234 -700h-211zM288 270h139l-70 261z" />
<glyph unicode="&#xc4;" horiz-adv-x="718" d="M242 725q-34 0 -58 24t-24 58t24 57.5t58 23.5t58 -23.5t24 -57.5t-24 -58t-58 -24zM478 725q-34 0 -58 24t-24 58t24 57.5t58 23.5t58 -23.5t24 -57.5t-24 -58t-58 -24zM500 0l-31 115h-223l-30 -115h-209l231 700h239l234 -700h-211zM288 270h139l-70 261z" />
<glyph unicode="&#xc5;" horiz-adv-x="718" d="M360 728q-52 0 -81 28.5t-29 78.5t29 78.5t81 28.5q48 0 77 -29t29 -78t-29 -78t-77 -29zM360 890q-55 0 -55 -55t55 -55q24 0 38 14.5t14 40.5t-14 40.5t-38 14.5zM500 0l-31 115h-223l-30 -115h-209l231 700h239l234 -700h-211zM288 270h139l-70 261z" />
<glyph unicode="&#xc6;" horiz-adv-x="1039" d="M715 175h296v-175h-496v116h-233l-46 -116h-229l311 700h687v-175h-290v-83h230v-176h-230v-91zM343 271h172v254h-71z" />
<glyph unicode="&#xc7;" horiz-adv-x="727" d="M377 156q45 0 74.5 34.5t40.5 97.5l198 -33q-20 -117 -90.5 -187t-181.5 -80l-14 -28q40 -3 62.5 -23t22.5 -52q0 -35 -25.5 -55t-68.5 -20q-55 0 -105 23l20 54q40 -17 65 -17q41 0 41 21q0 22 -51 22h-36l-1 38l20 36q-139 11 -220.5 110.5t-81.5 255.5 q0 165 90.5 264.5t243.5 99.5q128 0 210 -70.5t100 -193.5l-204 -34q-11 61 -39.5 94.5t-70.5 33.5q-56 0 -88 -54t-32 -141q0 -88 32.5 -142t88.5 -54z" />
<glyph unicode="&#xc8;" horiz-adv-x="594" d="M402 727h-150l-125 121h200zM270 175h296v-175h-496v700h490v-175h-290v-83h230v-176h-230v-91z" />
<glyph unicode="&#xc9;" horiz-adv-x="594" d="M476 848l-125 -121h-150l75 121h200zM270 175h296v-175h-496v700h490v-175h-290v-83h230v-176h-230v-91z" />
<glyph unicode="&#xca;" horiz-adv-x="594" d="M307 776l-35 -49h-142l111 120h135l107 -120h-142zM270 175h296v-175h-496v700h490v-175h-290v-83h230v-176h-230v-91z" />
<glyph unicode="&#xcb;" horiz-adv-x="594" d="M188 726q-34 0 -58 24t-24 58t24 57.5t58 23.5t58 -23.5t24 -57.5t-24 -58t-58 -24zM424 726q-34 0 -58 24t-24 58t24 57.5t58 23.5t58 -23.5t24 -57.5t-24 -58t-58 -24zM270 175h296v-175h-496v700h490v-175h-290v-83h230v-176h-230v-91z" />
<glyph unicode="&#xcc;" horiz-adv-x="340" d="M191 848l75 -121h-150l-125 121h200zM270 0h-200v700h200v-700z" />
<glyph unicode="&#xcd;" horiz-adv-x="340" d="M140 848h200l-125 -121h-150zM270 0h-200v700h200v-700z" />
<glyph unicode="&#xce;" horiz-adv-x="340" d="M347 727h-142l-34 49l-35 -49h-142l111 120h135zM270 0h-200v700h200v-700z" />
<glyph unicode="&#xcf;" horiz-adv-x="340" d="M52 726q-34 0 -58 24t-24 58t24 57.5t58 23.5t58 -23.5t24 -57.5t-24 -58t-58 -24zM288 726q-34 0 -58 24t-24 58t24 57.5t58 23.5t58 -23.5t24 -57.5t-24 -58t-58 -24zM270 0h-200v700h200v-700z" />
<glyph unicode="&#xd0;" horiz-adv-x="754" d="M337 700q166 0 263 -94t97 -254q0 -163 -97 -257.5t-263 -94.5h-267v298h-57v122h57v280h267zM330 168q72 0 114.5 49.5t42.5 134.5q0 83 -42.5 131.5t-114.5 48.5h-60v-112h142v-122h-142v-130h60z" />
<glyph unicode="&#xd1;" horiz-adv-x="805" d="M352 761q-32 0 -32 -35l-96 1q0 62 32.5 99t84.5 37q32 0 71.5 -16.5t52.5 -16.5q30 0 30 35h95q0 -62 -31.5 -99t-83.5 -37q-32 0 -71 16t-52 16zM546 700h189v-700h-253l-145 261l-82 157v-418h-185v700h250l167 -309l59 -116v425z" />
<glyph unicode="&#xd2;" horiz-adv-x="778" d="M409 865l75 -121h-150l-125 121h200zM388 717q158 0 251 -98.5t93 -266.5q0 -169 -93 -267.5t-251 -98.5t-250 98.5t-92 267.5q0 168 92.5 266.5t249.5 98.5zM388 547q-61 0 -96.5 -52.5t-35.5 -142.5q0 -91 35.5 -143.5t96.5 -52.5q62 0 98 52.5t36 143.5 q0 90 -36 142.5t-98 52.5z" />
<glyph unicode="&#xd3;" horiz-adv-x="778" d="M358 865h200l-125 -121h-150zM388 717q158 0 251 -98.5t93 -266.5q0 -169 -93 -267.5t-251 -98.5t-250 98.5t-92 267.5q0 168 92.5 266.5t249.5 98.5zM388 547q-61 0 -96.5 -52.5t-35.5 -142.5q0 -91 35.5 -143.5t96.5 -52.5q62 0 98 52.5t36 143.5q0 90 -36 142.5 t-98 52.5z" />
<glyph unicode="&#xd4;" horiz-adv-x="778" d="M565 744h-142l-34 49l-35 -49h-142l111 120h135zM388 717q158 0 251 -98.5t93 -266.5q0 -169 -93 -267.5t-251 -98.5t-250 98.5t-92 267.5q0 168 92.5 266.5t249.5 98.5zM388 547q-61 0 -96.5 -52.5t-35.5 -142.5q0 -91 35.5 -143.5t96.5 -52.5q62 0 98 52.5t36 143.5 q0 90 -36 142.5t-98 52.5z" />
<glyph unicode="&#xd5;" horiz-adv-x="778" d="M476 882h95q0 -62 -31.5 -99t-83.5 -37q-32 0 -71 16t-52 16q-32 0 -32 -35l-96 1q0 62 32.5 99t84.5 37q32 0 71.5 -16.5t52.5 -16.5q30 0 30 35zM388 717q158 0 251 -98.5t93 -266.5q0 -169 -93 -267.5t-251 -98.5t-250 98.5t-92 267.5q0 168 92.5 266.5t249.5 98.5z M388 547q-61 0 -96.5 -52.5t-35.5 -142.5q0 -91 35.5 -143.5t96.5 -52.5q62 0 98 52.5t36 143.5q0 90 -36 142.5t-98 52.5z" />
<glyph unicode="&#xd6;" horiz-adv-x="778" d="M270 743q-34 0 -58 24t-24 58t24 57.5t58 23.5t58 -23.5t24 -57.5t-24 -58t-58 -24zM506 743q-34 0 -58 24t-24 58t24 57.5t58 23.5t58 -23.5t24 -57.5t-24 -58t-58 -24zM388 717q158 0 251 -98.5t93 -266.5q0 -169 -93 -267.5t-251 -98.5t-250 98.5t-92 267.5 q0 168 92.5 266.5t249.5 98.5zM388 547q-61 0 -96.5 -52.5t-35.5 -142.5q0 -91 35.5 -143.5t96.5 -52.5q62 0 98 52.5t36 143.5q0 90 -36 142.5t-98 52.5z" />
<glyph unicode="&#xd7;" horiz-adv-x="530" d="M520 485l-158 -170l158 -167l-101 -101l-155 164l-152 -164l-102 102l158 170l-158 167l101 101l155 -164l152 164z" />
<glyph unicode="&#xd8;" horiz-adv-x="778" d="M649 607q83 -97 83 -255q0 -169 -93 -267.5t-251 -98.5q-96 0 -171 39l-64 -86l-99 74l68 91q-76 96 -76 248q0 168 92.5 266.5t249.5 98.5q95 0 166 -36l63 84l97 -70zM256 352q0 -30 5 -62l183 243q-26 14 -56 14q-61 0 -96.5 -52.5t-35.5 -142.5zM388 156 q62 0 98 52.5t36 143.5q0 39 -8 74l-187 -253q28 -17 61 -17z" />
<glyph unicode="&#xd9;" horiz-adv-x="721" d="M382 848l75 -121h-150l-125 121h200zM658 700v-431q0 -131 -80.5 -207.5t-216.5 -76.5q-137 0 -217.5 76.5t-80.5 207.5v431h200v-432q0 -52 26.5 -82.5t71.5 -30.5t71 30.5t26 82.5v432h200z" />
<glyph unicode="&#xda;" horiz-adv-x="721" d="M331 848h200l-125 -121h-150zM658 700v-431q0 -131 -80.5 -207.5t-216.5 -76.5q-137 0 -217.5 76.5t-80.5 207.5v431h200v-432q0 -52 26.5 -82.5t71.5 -30.5t71 30.5t26 82.5v432h200z" />
<glyph unicode="&#xdb;" horiz-adv-x="721" d="M538 727h-142l-34 49l-35 -49h-142l111 120h135zM658 700v-431q0 -131 -80.5 -207.5t-216.5 -76.5q-137 0 -217.5 76.5t-80.5 207.5v431h200v-432q0 -52 26.5 -82.5t71.5 -30.5t71 30.5t26 82.5v432h200z" />
<glyph unicode="&#xdc;" horiz-adv-x="721" d="M243 726q-34 0 -58 24t-24 58t24 57.5t58 23.5t58 -23.5t24 -57.5t-24 -58t-58 -24zM479 726q-34 0 -58 24t-24 58t24 57.5t58 23.5t58 -23.5t24 -57.5t-24 -58t-58 -24zM658 700v-431q0 -131 -80.5 -207.5t-216.5 -76.5q-137 0 -217.5 76.5t-80.5 207.5v431h200v-432 q0 -52 26.5 -82.5t71.5 -30.5t71 30.5t26 82.5v432h200z" />
<glyph unicode="&#xdd;" horiz-adv-x="677" d="M508 848l-125 -121h-150l75 121h200zM462 700h208l-232 -466v-234h-200v234l-231 466h217l119 -250z" />
<glyph unicode="&#xde;" horiz-adv-x="672" d="M371 592q131 0 207 -64.5t76 -175.5t-76.5 -176.5t-206.5 -65.5h-101v-110h-200v700h196v-108h105zM353 267q95 0 95 85q0 83 -95 83h-83v-168h83z" />
<glyph unicode="&#xdf;" horiz-adv-x="583" d="M426 372q61 -19 96.5 -64t35.5 -104q0 -94 -67 -149t-181 -55h-44v145h25q31 0 49 22t18 60q0 39 -17.5 62t-48.5 23h-19v121h19q21 0 34 21.5t13 54.5q0 75 -52 75q-21 0 -34 -18.5t-13 -49.5v-516h-190v519q0 97 65 154t176 57q114 0 181 -52.5t67 -141.5 q0 -53 -30.5 -97t-82.5 -67z" />
<glyph unicode="&#xe0;" horiz-adv-x="562" d="M393 562h-150l-150 148h210zM293 514q107 0 169 -49t62 -132v-333h-164v71q-46 -85 -161 -85q-79 0 -125 41t-46 109q0 75 56.5 117.5t156.5 42.5q54 0 96 -11v44q0 28 -12.5 44t-34.5 16q-42 0 -59 -55l-180 30q19 71 83 110.5t159 39.5zM271 105q31 0 48.5 20t17.5 54 v21q-32 10 -56 10q-31 0 -48.5 -14.5t-17.5 -39.5q0 -23 15 -37t41 -14z" />
<glyph unicode="&#xe1;" horiz-adv-x="562" d="M449 710l-150 -148h-150l90 148h210zM293 514q107 0 169 -49t62 -132v-333h-164v71q-46 -85 -161 -85q-79 0 -125 41t-46 109q0 75 56.5 117.5t156.5 42.5q54 0 96 -11v44q0 28 -12.5 44t-34.5 16q-42 0 -59 -55l-180 30q19 71 83 110.5t159 39.5zM271 105q31 0 48.5 20 t17.5 54v21q-32 10 -56 10q-31 0 -48.5 -14.5t-17.5 -39.5q0 -23 15 -37t41 -14z" />
<glyph unicode="&#xe2;" horiz-adv-x="562" d="M290 636l-54 -74h-147l130 148h142l130 -148h-147zM293 514q107 0 169 -49t62 -132v-333h-164v71q-46 -85 -161 -85q-79 0 -125 41t-46 109q0 75 56.5 117.5t156.5 42.5q54 0 96 -11v44q0 28 -12.5 44t-34.5 16q-42 0 -59 -55l-180 30q19 71 83 110.5t159 39.5zM271 105 q31 0 48.5 20t17.5 54v21q-32 10 -56 10q-31 0 -48.5 -14.5t-17.5 -39.5q0 -23 15 -37t41 -14z" />
<glyph unicode="&#xe3;" horiz-adv-x="562" d="M229 600q-35 0 -35 -39l-106 1q0 68 35.5 109t93.5 41q35 0 79 -18t58 -18q33 0 33 38h105q0 -69 -35 -109.5t-92 -40.5q-35 0 -78 18t-58 18zM293 514q107 0 169 -49t62 -132v-333h-164v71q-46 -85 -161 -85q-79 0 -125 41t-46 109q0 75 56.5 117.5t156.5 42.5 q54 0 96 -11v44q0 28 -12.5 44t-34.5 16q-42 0 -59 -55l-180 30q19 71 83 110.5t159 39.5zM271 105q31 0 48.5 20t17.5 54v21q-32 10 -56 10q-31 0 -48.5 -14.5t-17.5 -39.5q0 -23 15 -37t41 -14z" />
<glyph unicode="&#xe4;" horiz-adv-x="562" d="M172 566q-34 0 -58 24t-24 58t24 57.5t58 23.5t58 -23.5t24 -57.5t-24 -58t-58 -24zM408 566q-34 0 -58 24t-24 58t24 57.5t58 23.5t58 -23.5t24 -57.5t-24 -58t-58 -24zM293 514q107 0 169 -49t62 -132v-333h-164v71q-46 -85 -161 -85q-79 0 -125 41t-46 109 q0 75 56.5 117.5t156.5 42.5q54 0 96 -11v44q0 28 -12.5 44t-34.5 16q-42 0 -59 -55l-180 30q19 71 83 110.5t159 39.5zM271 105q31 0 48.5 20t17.5 54v21q-32 10 -56 10q-31 0 -48.5 -14.5t-17.5 -39.5q0 -23 15 -37t41 -14z" />
<glyph unicode="&#xe5;" horiz-adv-x="562" d="M290 550q-56 0 -87.5 32t-31.5 87t31.5 87t87.5 32q54 0 86 -32t32 -87t-32 -87t-86 -32zM290 730q-28 0 -43.5 -16.5t-15.5 -44.5t15.5 -44.5t43.5 -16.5t43.5 16.5t15.5 44.5t-15.5 44.5t-43.5 16.5zM293 514q107 0 169 -49t62 -132v-333h-164v71q-46 -85 -161 -85 q-79 0 -125 41t-46 109q0 75 56.5 117.5t156.5 42.5q54 0 96 -11v44q0 28 -12.5 44t-34.5 16q-42 0 -59 -55l-180 30q19 71 83 110.5t159 39.5zM271 105q31 0 48.5 20t17.5 54v21q-32 10 -56 10q-31 0 -48.5 -14.5t-17.5 -39.5q0 -23 15 -37t41 -14z" />
<glyph unicode="&#xe6;" horiz-adv-x="889" d="M234 -14q-94 0 -150 41.5t-56 113.5t57.5 116t153.5 44q58 0 106 -15v38q0 32 -16.5 50t-45.5 18q-26 0 -45 -14t-24 -36l-164 27q13 67 70.5 106t144.5 39q119 0 178 -67q65 67 177 67q115 0 182.5 -75t67.5 -226h-334q8 -49 34 -75.5t66 -26.5q55 0 68 54l158 -26 q-18 -71 -85 -112t-157 -41q-124 0 -190 80q-64 -80 -196 -80zM537 306h140q0 38 -17.5 61t-46.5 23t-48.5 -22t-27.5 -62zM275 105q32 0 51 20t19 54v11q-29 13 -63 13q-31 0 -48.5 -13t-17.5 -35t16 -36t43 -14z" />
<glyph unicode="&#xe7;" horiz-adv-x="555" d="M539 189q-14 -82 -63 -133t-127 -65l-16 -31q40 -3 62.5 -23t22.5 -52q0 -35 -25.5 -55t-68.5 -20q-55 0 -105 23l20 54q40 -17 65 -17q41 0 41 21q0 22 -51 22h-36l-1 38l19 35q-116 4 -183.5 75t-67.5 190q0 121 70.5 192t189.5 71q102 0 168 -50.5t84 -139.5l-173 -28 q-18 72 -70 72q-32 0 -50.5 -31t-18.5 -86t18.5 -87t52.5 -32q55 0 69 84z" />
<glyph unicode="&#xe8;" horiz-adv-x="573" d="M393 562h-150l-150 148h210zM316 111q55 0 77 54l155 -26q-20 -71 -84.5 -112t-161.5 -41q-128 0 -202.5 70.5t-74.5 196.5q0 121 70 191t198 70q261 0 261 -307h-326q14 -96 88 -96zM292 389q-56 0 -65 -89h127q-7 89 -62 89z" />
<glyph unicode="&#xe9;" horiz-adv-x="573" d="M449 710l-150 -148h-150l90 148h210zM316 111q55 0 77 54l155 -26q-20 -71 -84.5 -112t-161.5 -41q-128 0 -202.5 70.5t-74.5 196.5q0 121 70 191t198 70q261 0 261 -307h-326q14 -96 88 -96zM292 389q-56 0 -65 -89h127q-7 89 -62 89z" />
<glyph unicode="&#xea;" horiz-adv-x="573" d="M290 636l-54 -74h-147l130 148h142l130 -148h-147zM316 111q55 0 77 54l155 -26q-20 -71 -84.5 -112t-161.5 -41q-128 0 -202.5 70.5t-74.5 196.5q0 121 70 191t198 70q261 0 261 -307h-326q14 -96 88 -96zM292 389q-56 0 -65 -89h127q-7 89 -62 89z" />
<glyph unicode="&#xeb;" horiz-adv-x="573" d="M172 566q-34 0 -58 24t-24 58t24 57.5t58 23.5t58 -23.5t24 -57.5t-24 -58t-58 -24zM408 566q-34 0 -58 24t-24 58t24 57.5t58 23.5t58 -23.5t24 -57.5t-24 -58t-58 -24zM316 111q55 0 77 54l155 -26q-20 -71 -84.5 -112t-161.5 -41q-128 0 -202.5 70.5t-74.5 196.5 q0 121 70 191t198 70q261 0 261 -307h-326q14 -96 88 -96zM292 389q-56 0 -65 -89h127q-7 89 -62 89z" />
<glyph unicode="&#xec;" horiz-adv-x="290" d="M158 710l90 -148h-150l-150 148h210zM240 0h-190v500h190v-500z" />
<glyph unicode="&#xed;" horiz-adv-x="290" d="M94 710h210l-150 -148h-150zM240 0h-190v500h190v-500z" />
<glyph unicode="&#xee;" horiz-adv-x="290" d="M199 562l-54 74l-54 -74h-147l130 148h142l130 -148h-147zM240 0h-190v500h190v-500z" />
<glyph unicode="&#xef;" horiz-adv-x="290" d="M27 566q-34 0 -58 24t-24 58t24 57.5t58 23.5t58 -23.5t24 -57.5t-24 -58t-58 -24zM263 566q-34 0 -58 24t-24 58t24 57.5t58 23.5t58 -23.5t24 -57.5t-24 -58t-58 -24zM240 0h-190v500h190v-500z" />
<glyph unicode="&#xf0;" horiz-adv-x="601" d="M455 605q121 -134 121 -316q0 -148 -73.5 -225.5t-204.5 -77.5q-125 0 -199 66t-74 178q0 106 65 170t166 64q70 0 117 -46q-37 61 -86 107l-86 -41l-28 63l55 26q-28 20 -56 35l111 134q70 -45 118 -85l79 38l30 -64zM300 122q35 0 55.5 29t20.5 79t-20.5 79t-55.5 29 t-55 -29t-20 -79t20 -79t55 -29z" />
<glyph unicode="&#xf1;" horiz-adv-x="590" d="M236 600q-35 0 -35 -39l-106 1q0 68 35.5 109t93.5 41q35 0 79 -18t58 -18q33 0 33 38h105q0 -69 -35 -109.5t-92 -40.5q-35 0 -78 18t-58 18zM375 514q81 0 128 -53.5t47 -145.5v-315h-190v301q0 30 -16 47.5t-43 17.5q-29 0 -45.5 -20.5t-16.5 -54.5l1 -291h-190v500 h165v-93q19 51 60.5 79t99.5 28z" />
<glyph unicode="&#xf2;" horiz-adv-x="601" d="M306 710l90 -148h-150l-150 148h210zM301 -14q-127 0 -201.5 71t-74.5 193t74.5 193t201.5 71t201 -71t74 -193t-74 -193t-201 -71zM301 132q34 0 54.5 32t20.5 86t-20.5 86t-54.5 32q-35 0 -55.5 -32t-20.5 -86t20.5 -86t55.5 -32z" />
<glyph unicode="&#xf3;" horiz-adv-x="601" d="M242 710h210l-150 -148h-150zM301 -14q-127 0 -201.5 71t-74.5 193t74.5 193t201.5 71t201 -71t74 -193t-74 -193t-201 -71zM301 132q34 0 54.5 32t20.5 86t-20.5 86t-54.5 32q-35 0 -55.5 -32t-20.5 -86t20.5 -86t55.5 -32z" />
<glyph unicode="&#xf4;" horiz-adv-x="601" d="M347 562l-54 74l-54 -74h-147l130 148h142l130 -148h-147zM301 -14q-127 0 -201.5 71t-74.5 193t74.5 193t201.5 71t201 -71t74 -193t-74 -193t-201 -71zM301 132q34 0 54.5 32t20.5 86t-20.5 86t-54.5 32q-35 0 -55.5 -32t-20.5 -86t20.5 -86t55.5 -32z" />
<glyph unicode="&#xf5;" horiz-adv-x="601" d="M390 714h105q0 -69 -35 -109.5t-92 -40.5q-35 0 -78 18t-58 18q-35 0 -35 -39l-106 1q0 68 35.5 109t93.5 41q35 0 79 -18t58 -18q33 0 33 38zM301 -14q-127 0 -201.5 71t-74.5 193t74.5 193t201.5 71t201 -71t74 -193t-74 -193t-201 -71zM301 132q34 0 54.5 32t20.5 86 t-20.5 86t-54.5 32q-35 0 -55.5 -32t-20.5 -86t20.5 -86t55.5 -32z" />
<glyph unicode="&#xf6;" horiz-adv-x="601" d="M175 566q-34 0 -58 24t-24 58t24 57.5t58 23.5t58 -23.5t24 -57.5t-24 -58t-58 -24zM411 566q-34 0 -58 24t-24 58t24 57.5t58 23.5t58 -23.5t24 -57.5t-24 -58t-58 -24zM301 -14q-127 0 -201.5 71t-74.5 193t74.5 193t201.5 71t201 -71t74 -193t-74 -193t-201 -71z M301 132q34 0 54.5 32t20.5 86t-20.5 86t-54.5 32q-35 0 -55.5 -32t-20.5 -86t20.5 -86t55.5 -32z" />
<glyph unicode="&#xf7;" horiz-adv-x="525" d="M268 423q-33 0 -56.5 23.5t-23.5 56.5t23.5 56.5t56.5 23.5t56.5 -23.5t23.5 -56.5t-23.5 -56.5t-56.5 -23.5zM50 246v140h435v-140h-435zM268 47q-33 0 -56.5 23.5t-23.5 56.5t23.5 56.5t56.5 23.5t56.5 -23.5t23.5 -56.5t-23.5 -56.5t-56.5 -23.5z" />
<glyph unicode="&#xf8;" horiz-adv-x="601" d="M492 452q84 -72 84 -202q0 -122 -74 -193t-201 -71q-63 0 -112 18l-50 -73l-78 55l45 65q-81 72 -81 199q0 122 74.5 193t201.5 71q60 0 107 -16l54 79l78 -55zM301 368q-35 0 -55.5 -32t-20.5 -86q0 -20 3 -36l97 149q-12 5 -24 5zM301 132q34 0 54.5 32t20.5 86 q0 24 -5 46l-102 -156q16 -8 32 -8z" />
<glyph unicode="&#xf9;" horiz-adv-x="586" d="M393 562h-150l-150 148h210zM346 500h190v-500h-165v68q-47 -82 -159 -82q-82 0 -127 49.5t-45 149.5v315h190v-301q0 -30 15.5 -47.5t42.5 -17.5t43 20.5t16 54.5z" />
<glyph unicode="&#xfa;" horiz-adv-x="586" d="M449 710l-150 -148h-150l90 148h210zM346 500h190v-500h-165v68q-47 -82 -159 -82q-82 0 -127 49.5t-45 149.5v315h190v-301q0 -30 15.5 -47.5t42.5 -17.5t43 20.5t16 54.5z" />
<glyph unicode="&#xfb;" horiz-adv-x="586" d="M290 636l-54 -74h-147l130 148h142l130 -148h-147zM346 500h190v-500h-165v68q-47 -82 -159 -82q-82 0 -127 49.5t-45 149.5v315h190v-301q0 -30 15.5 -47.5t42.5 -17.5t43 20.5t16 54.5z" />
<glyph unicode="&#xfc;" horiz-adv-x="586" d="M172 566q-34 0 -58 24t-24 58t24 57.5t58 23.5t58 -23.5t24 -57.5t-24 -58t-58 -24zM408 566q-34 0 -58 24t-24 58t24 57.5t58 23.5t58 -23.5t24 -57.5t-24 -58t-58 -24zM346 500h190v-500h-165v68q-47 -82 -159 -82q-82 0 -127 49.5t-45 149.5v315h190v-301 q0 -30 15.5 -47.5t42.5 -17.5t43 20.5t16 54.5z" />
<glyph unicode="&#xfd;" horiz-adv-x="580" d="M449 710l-150 -148h-150l90 148h210zM375 500h200l-198 -690h-197l54 200h-90l-139 490h213l66 -327z" />
<glyph unicode="&#xfe;" horiz-adv-x="607" d="M380 514q93 0 147.5 -71.5t54.5 -194.5q0 -121 -54 -191.5t-146 -70.5q-89 0 -142 66v-241h-190v919h190v-281q53 65 140 65zM310 132q34 0 53 31.5t19 86.5t-19 87t-53 32q-32 0 -51 -32t-19 -87t19 -86.5t51 -31.5z" />
<glyph unicode="&#xff;" horiz-adv-x="580" d="M172 566q-34 0 -58 24t-24 58t24 57.5t58 23.5t58 -23.5t24 -57.5t-24 -58t-58 -24zM408 566q-34 0 -58 24t-24 58t24 57.5t58 23.5t58 -23.5t24 -57.5t-24 -58t-58 -24zM375 500h200l-198 -690h-197l54 200h-90l-139 490h213l66 -327z" />
<glyph unicode="&#x152;" horiz-adv-x="1009" d="M685 175h296v-175h-496v25q-53 -28 -116 -28q-149 0 -236 96t-87 259q0 168 87 266.5t236 98.5q64 0 116 -29v12h490v-175h-290v-83h230v-176h-230v-91zM369 167q52 0 82.5 49.5t30.5 135.5q0 90 -30.5 142.5t-82.5 52.5t-82.5 -52.5t-30.5 -142.5q0 -86 30.5 -135.5 t82.5 -49.5z" />
<glyph unicode="&#x153;" horiz-adv-x="931" d="M304 -14q-128 0 -203.5 71.5t-75.5 192.5t75.5 192.5t203.5 71.5q109 0 177 -60q63 60 167 60q124 0 194 -74.5t70 -226.5h-345q18 -102 104 -102q60 0 75 54l158 -26q-19 -70 -87.5 -111.5t-166.5 -41.5q-104 0 -169 60q-68 -60 -177 -60zM568 306h151q0 37 -20 60.5 t-52 23.5q-30 0 -50.5 -22t-28.5 -62zM304 122q37 0 58 34.5t21 93.5t-21 93.5t-58 34.5q-36 0 -57.5 -34.5t-21.5 -93.5t21.5 -93.5t57.5 -34.5z" />
<glyph unicode="&#x178;" horiz-adv-x="677" d="M220 726q-34 0 -58 24t-24 58t24 57.5t58 23.5t58 -23.5t24 -57.5t-24 -58t-58 -24zM456 726q-34 0 -58 24t-24 58t24 57.5t58 23.5t58 -23.5t24 -57.5t-24 -58t-58 -24zM462 700h208l-232 -466v-234h-200v234l-231 466h217l119 -250z" />
<glyph unicode="&#x2c6;" horiz-adv-x="600" d="M305 562l-54 74l-54 -74h-147l130 148h142l130 -148h-147z" />
<glyph unicode="&#x2dc;" horiz-adv-x="600" d="M349 714h105q0 -69 -35 -109.5t-92 -40.5q-35 0 -78 18t-58 18q-35 0 -35 -39l-106 1q0 68 35.5 109t93.5 41q35 0 79 -18t58 -18q33 0 33 38z" />
<glyph unicode="&#x2000;" horiz-adv-x="471" />
<glyph unicode="&#x2001;" horiz-adv-x="942" />
<glyph unicode="&#x2002;" horiz-adv-x="471" />
<glyph unicode="&#x2003;" horiz-adv-x="942" />
<glyph unicode="&#x2004;" horiz-adv-x="314" />
<glyph unicode="&#x2005;" horiz-adv-x="235" />
<glyph unicode="&#x2006;" horiz-adv-x="157" />
<glyph unicode="&#x2007;" horiz-adv-x="157" />
<glyph unicode="&#x2008;" horiz-adv-x="117" />
<glyph unicode="&#x2009;" horiz-adv-x="188" />
<glyph unicode="&#x200a;" horiz-adv-x="52" />
<glyph unicode="&#x2010;" horiz-adv-x="320" d="M20 214v130h280v-130h-280z" />
<glyph unicode="&#x2011;" horiz-adv-x="320" d="M20 214v130h280v-130h-280z" />
<glyph unicode="&#x2012;" horiz-adv-x="320" d="M20 214v130h280v-130h-280z" />
<glyph unicode="&#x2013;" horiz-adv-x="500" d="M480 214h-460v130h460v-130z" />
<glyph unicode="&#x2014;" horiz-adv-x="1000" d="M975 214h-950v130h950v-130z" />
<glyph unicode="&#x2018;" horiz-adv-x="324" d="M215 539q59 -32 59 -99q0 -46 -33 -79t-79 -33t-79 33t-33 79q0 8 0.5 14t4 16t7 19t13.5 30t20 42.5t29 62.5t39 84h121z" />
<glyph unicode="&#x2019;" horiz-adv-x="324" d="M172 713q46 0 79 -32.5t33 -79.5q0 -8 -0.5 -14t-4 -16t-7 -19t-13.5 -30t-20 -42.5t-29 -62.5t-39 -84h-121l69 169q-59 32 -59 99q0 47 33 79.5t79 32.5z" />
<glyph unicode="&#x201a;" horiz-adv-x="324" d="M172 210q46 0 79 -33t33 -79q0 -8 -0.5 -14t-4 -16t-7 -19t-13.5 -30t-20 -42.5t-29 -62.5t-39 -84h-121l69 169q-59 32 -59 99q0 46 33 79t79 33z" />
<glyph unicode="&#x201c;" horiz-adv-x="562" d="M163 711h121l-69 -169q59 -32 59 -99q0 -47 -33 -79.5t-79 -32.5t-79 32.5t-33 79.5q0 8 0.5 14t4 16t7 19t13.5 30t20 42.5t29 62.5t39 84zM453 542q59 -32 59 -99q0 -47 -33 -79.5t-79 -32.5t-79 32.5t-33 79.5q0 8 0.5 14t4 16t7 19t13.5 30t20 42.5t29 62.5t39 84 h121z" />
<glyph unicode="&#x201d;" horiz-adv-x="552" d="M162 711q46 0 79 -32.5t33 -79.5q0 -9 -0.5 -14.5t-3.5 -15.5t-6.5 -19t-12.5 -30t-18 -42.5t-26.5 -62.5t-35.5 -84h-121l62 168q-28 14 -45 40.5t-17 59.5q0 47 33 79.5t79 32.5zM400 711q46 0 79 -32.5t33 -79.5q0 -9 -0.5 -14.5t-3.5 -15.5t-6.5 -19t-12.5 -30 t-18 -42.5t-26.5 -62.5t-35.5 -84h-121l62 168q-28 14 -45 40.5t-17 59.5q0 47 33 79.5t79 32.5z" />
<glyph unicode="&#x201e;" horiz-adv-x="577" d="M172 210q46 0 79 -33t33 -79q0 -8 -0.5 -14t-4 -16t-7 -19t-13.5 -30t-20 -42.5t-29 -62.5t-39 -84h-121l69 169q-59 32 -59 99q0 46 33 79t79 33zM425 210q47 0 79.5 -33t32.5 -79q0 -8 -0.5 -14t-4 -16t-7 -19t-13.5 -30t-20 -42.5t-29 -62.5t-39 -84h-121l69 169 q-59 32 -59 99q0 46 32.5 79t79.5 33z" />
<glyph unicode="&#x2022;" horiz-adv-x="459" d="M234 167q-84 0 -134 48.5t-50 130.5t50 130.5t134 48.5q85 0 135 -48.5t50 -130.5t-50 -130.5t-135 -48.5z" />
<glyph unicode="&#x2026;" horiz-adv-x="954" d="M162 -14q-46 0 -79 33t-33 79t33 79t79 33t79 -33t33 -79t-33 -79t-79 -33zM482 -14q-46 0 -79 33t-33 79t33 79t79 33t79 -33t33 -79t-33 -79t-79 -33zM802 -14q-46 0 -79 33t-33 79t33 79t79 33t79 -33t33 -79t-33 -79t-79 -33z" />
<glyph unicode="&#x202f;" horiz-adv-x="188" />
<glyph unicode="&#x2039;" horiz-adv-x="386" d="M346 444l-117 -190l117 -190h-172l-124 190l124 190h172z" />
<glyph unicode="&#x203a;" horiz-adv-x="386" d="M222 444l124 -190l-124 -190h-172l117 190l-117 190h172z" />
<glyph unicode="&#x205f;" horiz-adv-x="235" />
<glyph unicode="&#x20ac;" horiz-adv-x="707" d="M402 156q31 0 51 22t25 52l192 -33q-18 -97 -87.5 -154t-179.5 -57q-120 0 -198.5 70.5t-101.5 196.5h-57v79h49v20v15h-49v79h57q21 127 99 199t198 72q110 0 181.5 -60t88.5 -163l-193 -33q-4 39 -26 62.5t-52 23.5q-69 0 -93 -101h155l-10 -79h-155v-16v-19h155 l-10 -79h-134q25 -97 95 -97z" />
<glyph unicode="&#x2122;" horiz-adv-x="852" d="M5 617v95h316v-95h-103v-292h-109v292h-104zM679 712h140v-387h-106l2 219l-73 -219h-110l-71 216v-216h-107v387h146l88 -265z" />
<glyph unicode="&#x25fc;" horiz-adv-x="500" d="M0 500h500v-500h-500v500z" />
</font>
</defs>
</svg>
