<?xml version="1.0" standalone="no"?>
<!DOCTYPE svg PUBLIC "-//W3C//DTD SVG 1.1//EN" "http://www.w3.org/Graphics/SVG/1.1/DTD/svg11.dtd" >
<svg xmlns="http://www.w3.org/2000/svg" xmlns:xlink="http://www.w3.org/1999/xlink" version="1.1">
<metadata></metadata>
<defs>
<font id="paul_grotesklight" horiz-adv-x="1069" >
<font-face units-per-em="2048" ascent="1638" descent="-410" />
<missing-glyph horiz-adv-x="430" />
<glyph unicode="&#xfb01;" horiz-adv-x="980" d="M27 942v82h161v211q0 120 66 190t180 70h92v-88h-73q-76 0 -121 -49.5t-45 -134.5v-199h184v-82h-184v-942h-99v942h-161zM686 1350q0 32 21 53.5t55 21.5q31 0 52.5 -21.5t21.5 -53.5q0 -31 -21.5 -53.5t-52.5 -22.5q-33 0 -54.5 22.5t-21.5 53.5zM711 0v1024h100v-1024 h-100z" />
<glyph unicode="&#xfb02;" horiz-adv-x="964" d="M27 942v82h161v211q0 120 66 190t180 70h92v-88h-73q-76 0 -121 -49.5t-45 -134.5v-199h184v-82h-184v-942h-99v942h-161zM694 0v1495h101v-1495h-101z" />
<glyph horiz-adv-x="0" />
<glyph horiz-adv-x="682" />
<glyph unicode=" "  horiz-adv-x="430" />
<glyph unicode="&#x09;" horiz-adv-x="430" />
<glyph unicode="&#xa0;" horiz-adv-x="430" />
<glyph unicode="!" horiz-adv-x="464" d="M170 59q0 33 23.5 56.5t58.5 23.5q32 0 55 -24t23 -56q0 -33 -23 -56t-55 -23q-35 0 -58.5 22.5t-23.5 56.5zM195 1454h108l-6 -1139h-96z" />
<glyph unicode="&#x22;" horiz-adv-x="651" d="M170 1434h100l-14 -496h-74zM416 1434h100l-14 -496h-74z" />
<glyph unicode="#" horiz-adv-x="1478" d="M188 418l13 71h258l61 402h-260l14 70h254l66 419h86l-66 -419h342l64 419h86l-64 -419h248l-12 -70h-246l-63 -402h250l-13 -71h-248l-65 -418h-86l65 418h-340l-65 -418h-86l65 418h-258zM543 489h340l63 402h-340z" />
<glyph unicode="$" horiz-adv-x="1048" d="M76 426l104 14q6 -169 101.5 -265.5t257.5 -96.5q143 0 225 70.5t82 193.5q0 70 -25.5 122.5t-68.5 85t-99 57.5t-118 43.5t-124 38t-118 47.5t-99 65.5t-68.5 97.5t-25.5 139q0 158 101 253t270 104v207h98v-211q156 -19 251 -123t114 -271l-103 -16 q-17 149 -105.5 235.5t-225.5 86.5q-136 0 -214.5 -71t-78.5 -190q0 -63 25.5 -110.5t69 -77t99.5 -52t118 -41t123.5 -39t117.5 -50.5t99.5 -70.5t69 -105t25.5 -148.5q0 -161 -103.5 -259t-281.5 -105v-209h-98v213q-180 20 -283.5 136.5t-111.5 301.5z" />
<glyph unicode="%" horiz-adv-x="1730" d="M170 1026q0 173 77 276t206 103t205.5 -103t76.5 -276t-76.5 -276t-205.5 -103t-206 103t-77 276zM256 1026q0 -145 53 -229t144 -84q92 0 145 84t53 229t-53 229t-145 84q-91 0 -144 -84t-53 -229zM473 -61l752 1503h84l-750 -1503h-86zM1030 358q0 174 77 276.5 t206 102.5t205.5 -102.5t76.5 -276.5q0 -173 -76.5 -275.5t-205.5 -102.5t-206 102.5t-77 275.5zM1114 358q0 -145 53.5 -229t145.5 -84q91 0 143.5 84t52.5 229t-52.5 229.5t-143.5 84.5q-92 0 -145.5 -84.5t-53.5 -229.5z" />
<glyph unicode="&#x26;" horiz-adv-x="1380" d="M94 342q0 269 318 446q-94 117 -138.5 206.5t-44.5 174.5q0 129 92 212t238 83q133 0 220 -74t108 -214l-101 -19q-17 103 -76 158t-151 55q-102 0 -163.5 -58.5t-61.5 -146.5q0 -46 15 -93.5t53.5 -107t75.5 -109t112.5 -131.5t130 -138.5t160.5 -164.5q11 -11 17 -17.5 t16 -16.5l18 -18q95 129 203 327l88 -45q-116 -215 -224 -354q170 -174 283 -297h-131q-161 169 -213 223q-215 -241 -467 -241q-175 0 -276 98.5t-101 261.5zM201 346q0 -121 73.5 -195.5t206.5 -74.5q204 0 389 217q-41 43 -113.5 118.5t-110.5 115.5t-87.5 93.5 t-85.5 94.5q-272 -156 -272 -369z" />
<glyph unicode="'" horiz-adv-x="405" d="M170 1434h100l-14 -496h-74z" />
<glyph unicode="(" horiz-adv-x="485" d="M96 631q0 203 52.5 407t168.5 439h95q-213 -413 -213 -846t213 -846h-95q-116 235 -168.5 439t-52.5 407z" />
<glyph unicode=")" horiz-adv-x="497" d="M96 -215q213 413 213 846t-213 846h94q116 -236 169 -439.5t53 -406.5t-53 -406.5t-169 -439.5h-94z" />
<glyph unicode="*" horiz-adv-x="747" d="M63 1200l21 68l256 -86l-6 272h74l-9 -270l267 84l20 -68l-274 -74l163 -245l-57 -37l-147 246l-146 -242l-57 37l164 243z" />
<glyph unicode="+" horiz-adv-x="1124" d="M168 606v82h350v371h86v-371h352v-82h-352v-373h-86v373h-350z" />
<glyph unicode="," horiz-adv-x="518" d="M170 -287l100 262q-25 9 -40 30.5t-15 49.5q0 34 24.5 58t59.5 24t59.5 -24t24.5 -58q0 -9 -1 -16t-5 -20t-9 -25t-16.5 -39t-23.5 -55t-34.5 -80t-45.5 -107h-78z" />
<glyph unicode="-" horiz-adv-x="655" d="M41 535v73h573v-73h-573z" />
<glyph unicode="." horiz-adv-x="473" d="M170 63q0 34 25.5 59t60.5 25q34 0 58 -25t24 -59q0 -35 -24 -59t-58 -24q-36 0 -61 24t-25 59z" />
<glyph unicode="/" horiz-adv-x="839" d="M94 -174l563 1669h88l-563 -1669h-88z" />
<glyph unicode="0" d="M92 700q0 332 121 527.5t326 195.5t325.5 -195.5t120.5 -527.5q0 -331 -120 -524.5t-326 -193.5t-326.5 193.5t-120.5 524.5zM195 700q0 -289 93 -457.5t251 -168.5t251 168.5t93 457.5q0 290 -93 460.5t-251 170.5t-251 -170.5t-93 -460.5z" />
<glyph unicode="1" d="M283 1253v88l290 33h93v-1374h-103v1284z" />
<glyph unicode="2" d="M104 0v86q307 305 375 378q224 235 297 386q51 105 51 199q0 129 -78.5 204.5t-213.5 75.5q-124 0 -205 -91t-101 -249l-100 17q22 191 132 303t280 112q179 0 284 -102.5t105 -274.5q0 -55 -15.5 -112t-41 -111t-70.5 -118.5t-91.5 -121.5t-117.5 -134.5t-134.5 -143.5 t-155.5 -160q-34 -35 -52 -53h694v-90h-842z" />
<glyph unicode="3" d="M111 346l96 14q38 -138 125.5 -212t212.5 -74q138 0 225.5 77.5t87.5 206.5q0 134 -94 209.5t-256 75.5h-94v94h96q149 0 236.5 83t87.5 222q0 132 -81 209.5t-216 77.5q-250 0 -322 -291l-100 17q85 366 424 366q181 0 289 -99.5t108 -268.5q0 -134 -73 -231t-199 -128 q137 -27 217 -114t80 -222q0 -170 -115 -273t-297 -103q-170 0 -283.5 94.5t-154.5 269.5z" />
<glyph unicode="4" d="M45 371v88l606 930h107v-930h233v-88h-233v-371h-101v371h-612zM152 459h505v780z" />
<glyph unicode="5" d="M121 350l100 17q13 -136 96.5 -216.5t208.5 -80.5q152 0 240 100.5t88 273.5q0 169 -85.5 267t-233.5 98q-114 0 -200 -61t-118 -164h-92l31 817h747v-94h-653l-21 -568q51 77 135.5 119.5t186.5 42.5q187 0 296 -121.5t109 -330.5q0 -217 -117.5 -344.5t-316.5 -127.5 q-167 0 -274.5 101t-126.5 272z" />
<glyph unicode="6" d="M98 590q0 185 24.5 329t66 237.5t101.5 154t126.5 85.5t144.5 25q300 0 375 -348l-94 -12q-31 132 -96.5 200t-186.5 68q-93 0 -162 -49.5t-110.5 -141t-63 -207.5t-24.5 -261q47 116 144 172.5t216 56.5q83 0 151.5 -27t114.5 -72t77.5 -106.5t46 -128t14.5 -137.5 q0 -66 -13.5 -127.5t-45.5 -120.5t-80 -102t-122.5 -69.5t-166.5 -26.5q-106 0 -185 32t-126.5 85t-76.5 133.5t-39 165t-10 192.5zM215 426q0 -167 85.5 -259.5t238.5 -92.5t237 92t84 260q0 170 -85 275.5t-234 105.5q-151 0 -238.5 -105.5t-87.5 -275.5z" />
<glyph unicode="7" d="M129 1309v92h840v-92l-572 -1309h-112l577 1309h-733z" />
<glyph unicode="8" d="M102 369q0 139 79.5 232t215.5 116q-123 19 -194.5 109.5t-71.5 228.5q0 169 109.5 267.5t296.5 98.5q188 0 298.5 -98.5t110.5 -267.5q0 -126 -72 -217t-194 -119q136 -23 215.5 -117t79.5 -233q0 -178 -118.5 -282.5t-319.5 -104.5q-200 0 -317.5 104.5t-117.5 282.5z M205 375q0 -138 89.5 -219.5t242.5 -81.5q155 0 245 81.5t90 219.5q0 135 -90 214t-245 79q-154 0 -243 -79t-89 -214zM233 1049q0 -133 82 -211t222 -78q141 0 224 78t83 211q0 129 -83 204.5t-224 75.5q-140 0 -222 -75.5t-82 -204.5z" />
<glyph unicode="9" d="M98 975q0 66 14 127.5t46.5 119.5t80.5 101.5t121.5 69.5t163.5 26q77 0 140 -16.5t108.5 -45t79 -72.5t55 -93t34 -112.5t17.5 -125.5t5 -137q0 -188 -24 -333.5t-65 -239t-100 -153.5t-124 -84.5t-142 -24.5q-161 0 -257.5 87t-139.5 255l98 14q37 -130 104.5 -197 t192.5 -67q93 0 163 51.5t111 145t61.5 214t22.5 269.5q-42 -129 -140.5 -190.5t-223.5 -61.5q-82 0 -149.5 27t-113.5 72.5t-78 106.5t-46.5 128t-14.5 139zM201 975q0 -169 86 -275t233 -106q153 0 240.5 104.5t87.5 276.5q0 167 -86 260.5t-238 93.5q-153 0 -238 -93 t-85 -261z" />
<glyph unicode=":" horiz-adv-x="473" d="M170 63q0 34 25.5 59t60.5 25q34 0 58 -25t24 -59q0 -35 -24 -59t-58 -24q-36 0 -61 24t-25 59zM170 913q0 34 25.5 59t60.5 25q34 0 58 -25t24 -59q0 -35 -24 -59.5t-58 -24.5q-35 0 -60.5 24.5t-25.5 59.5z" />
<glyph unicode=";" horiz-adv-x="520" d="M170 -287l100 262q-25 9 -40 30.5t-15 49.5q0 34 24.5 58t59.5 24t59.5 -24t24.5 -58q0 -9 -1 -16t-5 -20t-9 -25t-16.5 -39t-23.5 -55t-34.5 -80t-45.5 -107h-78zM215 897q0 34 25.5 59t60.5 25q34 0 58 -25t24 -59q0 -35 -24 -59.5t-58 -24.5q-35 0 -60.5 24.5 t-25.5 59.5z" />
<glyph unicode="&#x3c;" horiz-adv-x="1060" d="M170 602v92l756 385v-88l-688 -344l688 -346v-88z" />
<glyph unicode="=" horiz-adv-x="1101" d="M139 467v76h824v-76h-824zM139 754v77h824v-77h-824z" />
<glyph unicode="&#x3e;" horiz-adv-x="1060" d="M170 213v88l688 346l-688 344v88l756 -385v-92z" />
<glyph unicode="?" horiz-adv-x="1046" d="M104 1077q25 178 136 280.5t282 102.5q184 0 293 -96t109 -260q0 -72 -22 -128t-57.5 -93.5t-78 -72.5t-85 -77t-78 -93.5t-57.5 -134.5t-22 -190h-100q0 110 22 197.5t56.5 143t77 100t84.5 80t76.5 71t56.5 84t22 109.5q0 124 -81 195t-216 71q-124 0 -206.5 -82.5 t-106.5 -224.5zM403 51q0 31 21.5 51.5t52.5 20.5q30 0 51 -21t21 -51q0 -31 -21.5 -52.5t-50.5 -21.5q-31 0 -52.5 21.5t-21.5 52.5z" />
<glyph unicode="@" horiz-adv-x="1714" d="M123 623q0 366 200.5 568t561.5 202q339 0 522.5 -185.5t183.5 -533.5q0 -218 -79 -340.5t-214 -122.5q-82 0 -132 49.5t-62 145.5q-39 -96 -113.5 -148.5t-177.5 -52.5q-150 0 -240 116t-90 312t90.5 312t241.5 116q191 -3 275 -170v145h98v-575q0 -174 123 -174 q88 0 142 102t54 283q0 315 -160 477t-456 162q-323 0 -501.5 -183.5t-178.5 -511.5t168.5 -508t468.5 -180q315 0 502 193l41 -72q-95 -92 -234 -146.5t-315 -54.5q-337 0 -528 203.5t-191 571.5zM586 633q0 -158 68 -251t184 -93q107 0 172.5 80.5t74.5 220.5l2 74 q-7 146 -73.5 229.5t-175.5 83.5q-116 0 -184 -93t-68 -251z" />
<glyph unicode="A" horiz-adv-x="1243" d="M18 0l541 1434h119l547 -1434h-111l-164 444h-659l-162 -444h-111zM324 535h594l-300 806z" />
<glyph unicode="B" horiz-adv-x="1163" d="M188 0v1434h402q198 0 312 -95t114 -258q0 -125 -69.5 -214.5t-188.5 -118.5q143 -22 227 -119t84 -244q0 -177 -119.5 -281t-320.5 -104h-441zM291 92h338q152 0 243 82t91 219q0 141 -99 223t-270 82h-303v-606zM291 791h301q147 0 234 77t87 205q0 126 -85.5 197 t-233.5 71h-303v-550z" />
<glyph unicode="C" horiz-adv-x="1351" d="M123 723q0 337 159 536t435 199q213 0 354 -123t170 -352l-104 -16q-25 196 -140.5 296.5t-283.5 100.5q-225 0 -355.5 -174t-130.5 -469q0 -297 131.5 -471t354.5 -174q174 0 292 106t146 291l102 -16q-31 -231 -178 -353t-358 -122q-272 0 -433 199.5t-161 541.5z" />
<glyph unicode="D" horiz-adv-x="1413" d="M188 0v1434h381q331 0 526 -193t195 -522q0 -331 -194.5 -525t-526.5 -194h-381zM291 92h276q286 0 451.5 168.5t165.5 458.5q0 288 -165.5 456t-449.5 168h-278v-1251z" />
<glyph unicode="E" horiz-adv-x="1062" d="M188 0v1434h781v-93h-678v-567h596v-92h-596v-590h698v-92h-801z" />
<glyph unicode="F" horiz-adv-x="1026" d="M188 0v1434h781v-93h-678v-618h600v-90h-600v-633h-103z" />
<glyph unicode="G" horiz-adv-x="1402" d="M123 711q0 348 160 550.5t432 202.5q130 0 241.5 -46t196 -148.5t111.5 -249.5l-103 -14q-35 176 -157 270t-285 94q-228 0 -360 -177t-132 -480q0 -298 131 -467.5t371 -169.5q207 0 330.5 130t130.5 380h-438v90h546v-39q0 -321 -154 -488t-417 -167q-288 0 -446 193.5 t-158 535.5z" />
<glyph unicode="H" horiz-adv-x="1355" d="M188 0v1434h103v-648h774v648h102v-1434h-102v694h-774v-694h-103z" />
<glyph unicode="I" horiz-adv-x="479" d="M188 0v1434h103v-1434h-103z" />
<glyph unicode="J" horiz-adv-x="591" d="M6 0v92h129q104 0 158.5 57t54.5 166v1119h103v-1141q0 -138 -78 -215.5t-211 -77.5h-156z" />
<glyph unicode="K" horiz-adv-x="1171" d="M188 0v1434h101v-752l667 752h121l-547 -625l613 -809h-127l-559 735l-168 -190v-545h-101z" />
<glyph unicode="L" horiz-adv-x="980" d="M188 0v1434h103v-1342h672v-92h-775z" />
<glyph unicode="M" horiz-adv-x="1697" d="M188 0v1434h125l537 -1321l536 1319h123v-1432h-100l2 1268l-170 -451l-342 -817h-100l-344 821l-168 443v-1264h-99z" />
<glyph unicode="N" horiz-adv-x="1421" d="M188 0v1434h127l594 -930l226 -373v1303h98v-1434h-127l-602 932l-219 368v-1300h-97z" />
<glyph unicode="O" horiz-adv-x="1480" d="M123 725q0 341 166 540t452 199t451.5 -198t165.5 -541q0 -342 -166 -542.5t-451 -200.5q-284 0 -451 201t-167 542zM227 725q0 -297 139.5 -473t374.5 -176q236 0 374 175.5t138 473.5t-138.5 471.5t-373.5 173.5q-236 0 -375 -174.5t-139 -470.5z" />
<glyph unicode="P" horiz-adv-x="1128" d="M188 0v1434h451q204 0 323 -109t119 -295q0 -188 -119 -297.5t-323 -109.5h-348v-623h-103zM291 715h338q160 0 254 84.5t94 230.5q0 143 -94 227t-254 84h-338v-626z" />
<glyph unicode="Q" horiz-adv-x="1484" d="M123 725q0 341 166 540t452 199t451.5 -198t165.5 -541q0 -284 -117.5 -474t-325.5 -247q28 -90 141.5 -143.5t278.5 -53.5v-90q-216 0 -355.5 73.5t-158.5 195.5q-54 -4 -80 -4q-284 0 -451 201t-167 542zM227 725q0 -297 139.5 -473t374.5 -176q236 0 374 175.5 t138 473.5t-138.5 471.5t-373.5 173.5q-236 0 -375 -174.5t-139 -470.5z" />
<glyph unicode="R" horiz-adv-x="1177" d="M188 0v1434h459q204 0 324.5 -106.5t120.5 -287.5q0 -170 -106.5 -274.5t-289.5 -116.5l416 -649h-121l-413 647h-287v-647h-103zM291 739h348q160 0 253 81t93 220q0 138 -93.5 219.5t-252.5 81.5h-348v-602z" />
<glyph unicode="S" horiz-adv-x="1148" d="M76 424l100 14q25 -173 137 -267.5t297 -94.5q163 0 255.5 72t92.5 206q0 71 -28.5 125.5t-77 90t-111.5 63t-132 49.5t-138.5 44.5t-132.5 53.5t-111.5 71.5t-77 102.5t-28.5 142q0 119 61.5 203.5t159.5 123.5t221 39q199 0 322.5 -103t154.5 -284l-98 -18 q-31 149 -127.5 230t-247.5 81q-147 0 -243.5 -72.5t-96.5 -197.5q0 -57 23.5 -103t63.5 -75.5t94 -56t114 -44.5t124 -40.5t124 -44.5t114 -56.5t94 -76t63.5 -103.5t23.5 -138q0 -180 -123 -279t-334 -99q-230 0 -368.5 118t-163.5 324z" />
<glyph unicode="T" horiz-adv-x="1048" d="M12 1341v93h1024v-93h-461v-1341h-102v1341h-461z" />
<glyph unicode="U" horiz-adv-x="1318" d="M170 483v951h102v-953q0 -187 104 -296t283 -109t283.5 109t104.5 296v953h102v-951q0 -232 -132 -366.5t-358 -134.5t-357.5 134.5t-131.5 366.5z" />
<glyph unicode="V" horiz-adv-x="1187" d="M18 1434h113l463 -1338l465 1338h110l-507 -1434h-136z" />
<glyph unicode="W" horiz-adv-x="1878" d="M18 1434h109l375 -1334l377 1334h120l377 -1336l375 1336h107l-420 -1434h-123l-377 1315l-377 -1315h-121z" />
<glyph unicode="X" horiz-adv-x="1210" d="M29 0l499 731l-479 703h123l436 -643l436 643h119l-479 -703l500 -731h-123l-457 668l-457 -668h-118z" />
<glyph unicode="Y" horiz-adv-x="1120" d="M18 1434h115l430 -748l430 748h107l-488 -852v-582h-102v582z" />
<glyph unicode="Z" horiz-adv-x="1001" d="M18 0v90l801 1251h-770v93h895v-91l-799 -1251h836v-92h-963z" />
<glyph unicode="[" horiz-adv-x="507" d="M158 -213v1690h307v-80h-213v-1530h213v-80h-307z" />
<glyph unicode="\" horiz-adv-x="788" d="M76 1495h88l563 -1669h-88z" />
<glyph unicode="]" horiz-adv-x="520" d="M96 -133h213v1530h-213v80h307v-1690h-307v80z" />
<glyph unicode="^" horiz-adv-x="1200" d="M123 725l424 729h102l428 -729h-98l-381 649l-377 -649h-98z" />
<glyph unicode="_" horiz-adv-x="1024" d="M0 -80h1024v-65h-1024v65z" />
<glyph unicode="`" horiz-adv-x="1228" d="M98 1454h117l174 -268h-90z" />
<glyph unicode="a" horiz-adv-x="1005" d="M94 268q0 142 102 227t275 85q178 0 307 -80v178q0 132 -74.5 209.5t-203.5 77.5q-108 0 -178 -55t-89 -154l-98 14q21 129 118 206t249 77q172 0 273.5 -101t101.5 -274v-678h-93v139q-49 -77 -142 -118t-208 -41q-158 0 -249 77t-91 211zM197 276q0 -97 69 -152.5 t193 -55.5q147 0 233 76t86 206v64q-128 84 -295 84q-132 0 -209 -59.5t-77 -162.5z" />
<glyph unicode="b" horiz-adv-x="1114" d="M170 0v1495h100v-655q53 102 141.5 157.5t202.5 55.5q188 0 297 -144t109 -391q0 -246 -109.5 -390t-296.5 -144q-119 0 -209 58.5t-141 168.5v-211h-94zM270 518q0 -204 87.5 -324t236.5 -120t236.5 120t87.5 324t-87.5 324.5t-236.5 120.5t-236.5 -120.5t-87.5 -324.5z " />
<glyph unicode="c" horiz-adv-x="985" d="M94 516q0 247 116 392t312 145q162 0 272.5 -96.5t127.5 -254.5l-97 -14q-15 121 -95 197t-202 76q-152 0 -241.5 -120t-89.5 -325q0 -203 89 -320.5t244 -117.5q123 0 202.5 74t94.5 206l99 -12q-15 -166 -123.5 -263t-274.5 -97q-200 0 -317 142.5t-117 387.5z" />
<glyph unicode="d" horiz-adv-x="1114" d="M94 518q0 247 109 391t297 144q114 0 202.5 -55.5t141.5 -157.5v655h100v-1495h-94v211q-51 -110 -141 -168.5t-209 -58.5q-187 0 -296.5 144t-109.5 390zM197 518q0 -204 87 -324t236 -120t236.5 120t87.5 324t-87.5 324.5t-236.5 120.5t-236 -120.5t-87 -324.5z" />
<glyph unicode="e" horiz-adv-x="1044" d="M94 524q0 243 120 386t323 143q202 0 319 -145t117 -398h-776q5 -199 103 -318.5t265 -119.5q116 0 196.5 61.5t104.5 175.5l97 -14q-30 -153 -139.5 -233t-264.5 -80q-213 0 -339 146t-126 396zM199 592h667q-12 172 -99.5 271.5t-229.5 99.5q-145 0 -234.5 -99 t-103.5 -272z" />
<glyph unicode="f" horiz-adv-x="540" d="M27 942v82h161v211q0 120 66 190t180 70h92v-88h-73q-76 0 -121 -49.5t-45 -134.5v-199h184v-82h-184v-942h-99v942h-161z" />
<glyph unicode="g" horiz-adv-x="1067" d="M94 522q0 245 110.5 388t299.5 143q117 0 207 -59t141 -167l-2 197h94v-995q0 -192 -112 -305t-304 -113q-159 0 -263 79t-132 218l96 14q28 -107 105.5 -165t193.5 -58q146 0 231 89t85 241v174q-53 -102 -140.5 -157.5t-201.5 -55.5q-188 0 -298 144t-110 388zM197 522 q0 -203 87 -322.5t236 -119.5t236.5 119.5t87.5 322.5t-87.5 322t-236.5 119t-236 -119t-87 -322z" />
<glyph unicode="h" horiz-adv-x="1077" d="M170 0v1495h100v-614q43 83 125 127.5t191 44.5q162 0 259 -105.5t97 -283.5v-664h-98v649q0 142 -75.5 227t-201.5 85q-136 0 -216.5 -94t-80.5 -251v-616h-100z" />
<glyph unicode="i" horiz-adv-x="440" d="M145 1350q0 32 21.5 53.5t54.5 21.5q31 0 52.5 -21.5t21.5 -53.5q0 -31 -21.5 -53.5t-52.5 -22.5q-33 0 -54.5 22.5t-21.5 53.5zM170 0v1024h100v-1024h-100z" />
<glyph unicode="j" horiz-adv-x="391" d="M-68 -303h64q74 0 117 54.5t43 148.5v1124h98v-1137q0 -129 -64 -202.5t-174 -73.5h-84v86zM131 1350q0 32 21.5 53.5t54.5 21.5q31 0 52.5 -21.5t21.5 -53.5q0 -31 -21.5 -53.5t-52.5 -22.5q-33 0 -54.5 22.5t-21.5 53.5z" />
<glyph unicode="k" horiz-adv-x="927" d="M170 0v1495h98v-981l475 510h121l-379 -408l439 -616h-117l-395 551l-144 -156v-395h-98z" />
<glyph unicode="l" horiz-adv-x="440" d="M170 0v1495h100v-1495h-100z" />
<glyph unicode="m" horiz-adv-x="1687" d="M170 0v1024h94l-2 -156q41 89 120 137t185 48q113 0 194 -55t118 -154q40 97 126 153t201 56q159 0 251.5 -105t92.5 -284v-664h-98v664q0 137 -70.5 217t-189.5 80q-129 0 -206 -89.5t-77 -242.5v-629h-98v664q0 138 -70 217.5t-192 79.5q-128 0 -203.5 -89.5 t-75.5 -242.5v-629h-100z" />
<glyph unicode="n" horiz-adv-x="1077" d="M170 0v1024h94l-2 -160q43 91 126.5 140t195.5 49q164 0 261 -105.5t97 -285.5v-662h-98v662q0 137 -76.5 218t-204.5 81q-135 0 -214 -90.5t-79 -241.5v-629h-100z" />
<glyph unicode="o" horiz-adv-x="1095" d="M94 518q0 246 122.5 390.5t332.5 144.5q209 0 330.5 -144.5t121.5 -390.5q0 -248 -121.5 -392t-330.5 -144q-211 0 -333 144t-122 392zM197 518q0 -206 94.5 -326t257.5 -120q161 0 255.5 120.5t94.5 325.5q0 204 -94.5 324.5t-255.5 120.5q-162 0 -257 -120.5 t-95 -324.5z" />
<glyph unicode="p" horiz-adv-x="1114" d="M170 -389v1413h94l-2 -199q51 109 140.5 168.5t205.5 59.5q192 0 302 -143.5t110 -391.5t-110 -392t-302 -144q-113 0 -199 55.5t-139 159.5v-586h-100zM270 518q0 -204 87.5 -324t236.5 -120t236.5 120t87.5 324t-87.5 324.5t-236.5 120.5t-236.5 -120.5t-87.5 -324.5z " />
<glyph unicode="q" horiz-adv-x="1114" d="M94 518q0 248 110 391.5t302 143.5q116 0 205.5 -59.5t140.5 -168.5l-2 199h94v-1413h-100v586q-53 -104 -139 -159.5t-199 -55.5q-192 0 -302 144t-110 392zM197 518q0 -204 87 -324t236 -120t236.5 120t87.5 324t-87.5 324.5t-236.5 120.5t-236 -120.5t-87 -324.5z" />
<glyph unicode="r" horiz-adv-x="673" d="M170 0v1024h94l-2 -193q42 102 126.5 159t199.5 57h39v-97h-37q-148 0 -234 -103.5t-86 -283.5v-563h-100z" />
<glyph unicode="s" horiz-adv-x="944" d="M94 303l96 12q16 -123 97.5 -184t199.5 -61q117 0 185.5 54t68.5 140q0 60 -34.5 102t-89 66.5t-121 44t-133 42.5t-121 53.5t-89 84.5t-34.5 129q0 125 94 196t246 71q148 0 241.5 -72.5t114.5 -212.5l-92 -14q-15 103 -83.5 157t-182.5 54q-109 0 -173.5 -45.5 t-64.5 -126.5q0 -50 27 -88t71 -60t100 -43t114.5 -36.5t114.5 -41t100 -56.5t71 -83t27 -119q0 -131 -96.5 -207.5t-260.5 -76.5q-161 0 -270 80.5t-123 240.5z" />
<glyph unicode="t" horiz-adv-x="622" d="M41 936v88h152l26 223h74v-223h266v-88h-266v-670q0 -83 41 -130.5t110 -47.5h131v-88h-161q-101 0 -160 65.5t-59 176.5l-2 694h-152z" />
<glyph unicode="u" horiz-adv-x="1058" d="M135 365v659h101v-662q0 -133 72.5 -210.5t197.5 -77.5q131 0 208 86.5t77 234.5v629h98v-1024h-88l2 186q-38 -97 -123 -150.5t-203 -53.5q-159 0 -250.5 100.5t-91.5 282.5z" />
<glyph unicode="v" horiz-adv-x="923" d="M10 1024h109l344 -936l344 936h106l-385 -1024h-135z" />
<glyph unicode="w" horiz-adv-x="1464" d="M10 1024h111l274 -934l275 934h127l274 -936l272 936h111l-311 -1024h-144l-268 918l-266 -918h-143z" />
<glyph unicode="x" horiz-adv-x="909" d="M16 0l371 526l-348 498h121l295 -438l299 438h116l-348 -498l371 -526h-121l-319 465l-320 -465h-117z" />
<glyph unicode="y" horiz-adv-x="890" d="M10 1024h113l317 -952l334 952h107l-498 -1413h-104l135 389h-45z" />
<glyph unicode="z" horiz-adv-x="811" d="M35 0v84l604 852h-584v88h713v-84l-606 -852h614v-88h-741z" />
<glyph unicode="{" horiz-adv-x="559" d="M66 592v76q65 0 105 67t40 170v256q0 146 84.5 231t226.5 85h10v-80q-105 -1 -166 -64.5t-61 -171.5v-256q0 -233 -149 -276q149 -40 149 -275v-256q0 -107 60.5 -170.5t166.5 -64.5v-80h-10q-142 0 -226.5 84.5t-84.5 228.5v256q0 105 -39.5 172.5t-105.5 67.5z" />
<glyph unicode="|" horiz-adv-x="477" d="M195 -389v1884h86v-1884h-86z" />
<glyph unicode="}" horiz-adv-x="575" d="M51 -137q106 1 167 64.5t61 170.5v256q0 235 149 275q-149 43 -149 276v256q0 107 -61 171t-167 65v80h10q142 0 227 -85.5t85 -230.5v-256q0 -103 40 -170t105 -67v-76q-66 0 -105.5 -67.5t-39.5 -172.5v-256q0 -144 -85 -228.5t-227 -84.5h-10v80z" />
<glyph unicode="~" horiz-adv-x="1316" d="M170 502q5 145 71.5 233t182.5 88q55 0 112.5 -24.5t105 -59.5t93.5 -69.5t96 -59t95 -24.5q77 0 124.5 63t51.5 170h80q-5 -142 -71 -227.5t-177 -85.5q-55 0 -111.5 24.5t-103.5 59t-93.5 69.5t-97.5 59.5t-98 24.5q-79 0 -126 -64t-52 -177h-82z" />
<glyph unicode="&#xa1;" horiz-adv-x="464" d="M170 975q0 32 24 56t58 24q32 0 55 -24t23 -56q0 -34 -23 -57t-55 -23q-34 0 -58 23t-24 57zM197 -389l6 1134h96l6 -1134h-108z" />
<glyph unicode="&#xa2;" horiz-adv-x="1075" d="M123 676q0 226 98 367.5t268 164.5v207h99v-205q149 -11 248 -105.5t114 -242.5l-96 -14q-15 121 -95 196.5t-202 75.5q-153 0 -242.5 -119.5t-89.5 -324.5q0 -203 89.5 -320.5t244.5 -117.5q123 0 202.5 74t94.5 206l98 -12q-15 -159 -114 -255.5t-252 -105.5v-186h-99 v191q-171 25 -268.5 164t-97.5 362z" />
<glyph unicode="&#xa3;" horiz-adv-x="1095" d="M188 0v90h123v518h-121v92h121v318q0 174 96 269t255 95q136 0 225.5 -67.5t111.5 -175.5l-104 -19q-15 75 -79.5 121.5t-160.5 46.5q-112 0 -176.5 -70t-64.5 -206v-312h323v-92h-323v-518h661v-90h-887z" />
<glyph unicode="&#xa4;" horiz-adv-x="1042" d="M59 1034l52 47l155 -174q103 86 256 86t254 -84l156 172l49 -47l-156 -174q88 -111 88 -287q0 -178 -92 -290l156 -170l-49 -47l-154 170q-102 -82 -252 -82q-153 0 -254 84l-155 -172l-50 47l158 174q-88 111 -88 286q0 172 86 285zM209 573q0 -163 83.5 -257.5 t229.5 -94.5q147 0 231.5 94.5t84.5 257.5t-84.5 258t-231.5 95q-146 0 -229.5 -95t-83.5 -258z" />
<glyph unicode="&#xa5;" horiz-adv-x="1148" d="M27 1434h114l430 -748l430 748h107l-485 -848h288v-82h-290v-92h290v-82h-290v-330h-103v330h-297v82h297v92h-297v82h295z" />
<glyph unicode="&#xa6;" horiz-adv-x="477" d="M195 266h86v-655h-86v655zM195 840v655h86v-655h-86z" />
<glyph unicode="&#xa7;" horiz-adv-x="919" d="M76 670q0 185 157 295q-86 86 -86 213q1 134 89 213t225 79q137 -1 218 -87t95 -236l-98 -12q-13 122 -70.5 188t-150.5 68q-95 1 -155 -57.5t-60 -149.5q-1 -52 19 -93.5t54.5 -71t79.5 -55t94.5 -48t99 -47t94.5 -56.5t79.5 -70.5t54.5 -95t19 -125.5q0 -184 -158 -295 q86 -83 86 -215q-1 -134 -87.5 -214.5t-223.5 -78.5q-141 1 -228 87t-104 237l100 12q15 -123 76 -188.5t160 -67.5q95 -1 155 57.5t62 149.5q1 65 -31.5 114.5t-85 82t-116.5 62t-128 63t-117 75.5t-86 110.5t-32 156.5zM168 680q-2 -69 24.5 -122.5t77 -91t101 -63.5 t121 -59.5t112.5 -60.5q134 84 139 227q2 59 -18 107.5t-53 80t-82.5 61.5t-95.5 50.5t-103.5 49t-95.5 54.5q-124 -86 -127 -233z" />
<glyph unicode="&#xa8;" horiz-adv-x="1228" d="M82 1352q0 27 19 46t46 19t45.5 -19t18.5 -46q0 -28 -18 -47t-46 -19t-46.5 19t-18.5 47zM436 1352q0 27 18.5 46t47.5 19q26 0 44.5 -19.5t18.5 -45.5q0 -28 -18.5 -47t-44.5 -19q-29 0 -47.5 19t-18.5 47z" />
<glyph unicode="&#xa9;" horiz-adv-x="1714" d="M123 717q0 164 54 303.5t149.5 238t233 154t298.5 55.5t297.5 -55.5t232 -154t149.5 -238t54 -303.5q0 -332 -203.5 -538t-529.5 -206q-216 0 -383 93t-259.5 262.5t-92.5 388.5zM182 717q0 -308 187.5 -498t488.5 -190q300 0 487 190t187 498q0 203 -85 361.5 t-238.5 246.5t-350.5 88q-300 0 -488 -194t-188 -502zM434 717q0 235 115 374.5t309 139.5q156 0 256.5 -90t112.5 -240l-80 -14q-11 126 -89.5 201t-201.5 75q-155 0 -248.5 -122.5t-93.5 -327.5q0 -201 92 -320t248 -119q125 0 208.5 75t96.5 202l80 -12 q-17 -152 -120.5 -243t-262.5 -91q-195 0 -308.5 139t-113.5 373z" />
<glyph unicode="&#xaa;" horiz-adv-x="741" d="M86 864q0 101 72.5 160t197.5 59q117 0 203 -47v115q0 85 -48.5 133.5t-131.5 48.5q-67 0 -111.5 -36t-56.5 -99l-96 14q14 94 85 147.5t185 53.5q126 0 199 -70.5t73 -191.5v-475h-90v104q-36 -57 -99 -89t-144 -32q-109 0 -173.5 55.5t-64.5 149.5zM184 872 q0 -61 45.5 -98t122.5 -37q95 0 151 50.5t56 136.5v41q-87 53 -186 53q-86 0 -137.5 -40t-51.5 -106z" />
<glyph unicode="&#xab;" horiz-adv-x="952" d="M170 520l254 389h92l-248 -389l248 -389h-92zM469 520l254 389h94l-250 -389l250 -389h-94z" />
<glyph unicode="&#xac;" horiz-adv-x="1130" d="M170 602v82h825v-348h-92v266h-733z" />
<glyph unicode="&#xad;" horiz-adv-x="593" d="M41 535v73h573v-73h-573z" />
<glyph unicode="&#xae;" horiz-adv-x="1355" d="M170 973q0 236 146 386t378 150t378.5 -150t146.5 -386q0 -237 -146 -384t-379 -147q-232 0 -378 147t-146 384zM229 973q0 -213 128.5 -344t336.5 -131t336.5 131t128.5 344q0 214 -129 347.5t-336 133.5t-336 -133.5t-129 -347.5zM481 649v680h226q100 0 158.5 -50.5 t58.5 -139.5q0 -75 -45 -123t-125 -60l178 -307h-64l-180 305h-149v-305h-58zM539 1001h163q75 0 119.5 37.5t44.5 100.5q0 26 -7 48t-23.5 44t-50.5 34.5t-83 12.5h-163v-277z" />
<glyph unicode="&#xaf;" horiz-adv-x="1228" d="M102 1309v67h508v-67h-508z" />
<glyph unicode="&#xb0;" horiz-adv-x="593" d="M86 1235q0 100 60 159.5t161 59.5t160 -59.5t59 -159.5t-59 -159.5t-160 -59.5t-161 59.5t-60 159.5zM145 1235q0 -75 44 -118.5t118 -43.5q73 0 115.5 43.5t42.5 118.5t-42.5 118.5t-115.5 43.5q-74 0 -118 -43.5t-44 -118.5z" />
<glyph unicode="&#xb1;" horiz-adv-x="1095" d="M170 0v78h791v-78h-791zM172 643v78h350v373h86v-373h353v-78h-353v-375h-86v375h-350z" />
<glyph unicode="&#xb2;" horiz-adv-x="806" d="M82 676v72q274 232 352 306q175 166 212 277q13 38 13 74q0 88 -61.5 139t-165.5 51q-95 0 -157.5 -62t-81.5 -171l-89 14q19 135 107.5 215t226.5 80q146 0 231 -73t85 -195q0 -66 -29.5 -130.5t-116 -155.5t-147.5 -147t-217 -191q-22 -19 -33 -29h555v-74h-684z" />
<glyph unicode="&#xb3;" horiz-adv-x="819" d="M88 922l90 14q31 -95 99 -147t163 -52q107 0 175.5 53t68.5 140q0 92 -73 143t-201 51h-76v70h78q116 0 184 57t68 152q0 89 -62.5 140.5t-167.5 51.5q-191 0 -250 -198l-90 12q30 126 115.5 194t226.5 68q147 0 234.5 -70t87.5 -190q0 -91 -59 -159t-160 -91 q110 -19 174.5 -80t64.5 -153q0 -120 -93 -193t-241 -73q-139 0 -231.5 67.5t-124.5 192.5z" />
<glyph unicode="&#xb4;" horiz-adv-x="1228" d="M98 1186l174 268h117l-201 -268h-90z" />
<glyph unicode="&#xb6;" horiz-adv-x="968" d="M47 1057q0 204 112 301.5t316 97.5h305v-1845h-80v1761h-145v-1761h-80v1046q-204 0 -316 98.5t-112 301.5z" />
<glyph unicode="&#xb7;" horiz-adv-x="473" d="M170 608q0 34 25.5 59t60.5 25q34 0 58 -25t24 -59q0 -35 -24 -59.5t-58 -24.5q-35 0 -60.5 24.5t-25.5 59.5z" />
<glyph unicode="&#xb8;" horiz-adv-x="1228" d="M68 -342l18 47q84 -43 145 -43q59 0 94 26t35 70q0 46 -37 70.5t-106 24.5h-53v34l69 131h58l-60 -118h13q88 0 139 -39t51 -105q0 -67 -52 -106t-140 -39t-174 47z" />
<glyph unicode="&#xb9;" horiz-adv-x="546" d="M184 1542v74l238 22h84v-962h-94v889z" />
<glyph unicode="&#xba;" horiz-adv-x="802" d="M61 1038q0 172 89 273.5t241 101.5q151 0 239.5 -101.5t88.5 -273.5q0 -173 -88.5 -274.5t-239.5 -101.5q-152 0 -241 101.5t-89 274.5zM164 1038q0 -134 61 -213.5t166 -79.5q103 0 164 79.5t61 213.5q0 133 -61 212t-164 79q-105 0 -166 -78.5t-61 -212.5z" />
<glyph unicode="&#xbb;" horiz-adv-x="952" d="M170 131l250 389l-250 389h94l254 -389l-254 -389h-94zM471 131l248 389l-248 389h92l254 -389l-254 -389h-92z" />
<glyph unicode="&#xbc;" horiz-adv-x="1673" d="M82 1280v63l182 21h72v-825h-82v759zM342 -61l741 1503h86l-741 -1503h-86zM1028 217v66l365 551h88v-551h139v-66h-139v-217h-82v217h-371zM1104 283h295v452z" />
<glyph unicode="&#xbd;" horiz-adv-x="1658" d="M82 1280v63l182 21h72v-825h-82v759zM342 -61l741 1503h86l-741 -1503h-86zM1063 0v61q213 208 260 259q144 153 169 252q7 27 7 53q0 73 -45.5 117t-122.5 44q-71 0 -116.5 -53t-57.5 -145l-80 12q14 117 82.5 184.5t177.5 67.5q112 0 178 -62t66 -167q0 -38 -10.5 -75 t-38.5 -82t-52.5 -78.5t-79 -92t-88.5 -93.5t-109 -110l-29 -29h415v-63h-526z" />
<glyph unicode="&#xbe;" horiz-adv-x="1824" d="M66 762l79 12q22 -80 72 -124t121 -44q78 0 128 45t50 119q0 77 -55 121.5t-150 44.5h-55v61h59q86 0 136.5 48.5t50.5 128.5q0 76 -46.5 119.5t-123.5 43.5q-140 0 -182 -170l-80 15q24 105 90.5 163t173.5 58q114 0 182 -60t68 -161q0 -78 -45 -136.5t-121 -78.5 q84 -18 132 -68.5t48 -130.5q0 -105 -71.5 -167t-186.5 -62q-107 0 -178 58.5t-96 164.5zM494 -61l741 1503h86l-741 -1503h-86zM1180 217v66l364 551h88v-551h140v-66h-140v-217h-82v217h-370zM1255 283h295v452z" />
<glyph unicode="&#xbf;" horiz-adv-x="1028" d="M104 -61q0 72 22 128t57.5 93.5t78 72.5t85 76.5t78 93t57.5 134.5t22 190h100q0 -110 -22 -197.5t-56.5 -143t-77 -100t-84.5 -79.5t-76.5 -70.5t-56.5 -84t-22 -109.5q0 -125 81 -196t216 -71q124 0 206.5 83t106.5 225l105 -19q-25 -178 -136 -280.5t-282 -102.5 q-183 0 -292.5 96.5t-109.5 260.5zM479 991q0 31 21.5 52.5t50.5 21.5q31 0 52.5 -21.5t21.5 -52.5q0 -30 -21.5 -50.5t-52.5 -20.5q-30 0 -51 20.5t-21 50.5z" />
<glyph unicode="&#xc0;" horiz-adv-x="1243" d="M18 0l541 1434h119l547 -1434h-111l-164 444h-659l-162 -444h-111zM324 535h594l-300 806zM416 1735h116l160 -242h-92z" />
<glyph unicode="&#xc1;" horiz-adv-x="1243" d="M18 0l541 1434h119l547 -1434h-111l-164 444h-659l-162 -444h-111zM324 535h594l-300 806zM543 1493l157 242h115l-182 -242h-90z" />
<glyph unicode="&#xc2;" horiz-adv-x="1243" d="M18 0l541 1434h119l547 -1434h-111l-164 444h-659l-162 -444h-111zM324 535h594l-300 806zM346 1493l234 242h79l232 -242h-92l-181 195l-180 -195h-92z" />
<glyph unicode="&#xc3;" horiz-adv-x="1243" d="M18 0l541 1434h119l547 -1434h-111l-164 444h-659l-162 -444h-111zM313 1511q0 83 43.5 133t110.5 50q43 0 86 -17.5t72 -39t67.5 -39t73.5 -17.5q40 0 65 31t25 86h68q0 -83 -43.5 -132.5t-110.5 -49.5q-43 0 -86 17.5t-72 38.5t-67.5 38.5t-73.5 17.5q-40 0 -65 -31 t-25 -86h-68zM324 535h594l-300 806z" />
<glyph unicode="&#xc4;" horiz-adv-x="1243" d="M18 0l541 1434h119l547 -1434h-111l-164 444h-659l-162 -444h-111zM324 535h594l-300 806zM377 1640q0 26 18.5 45t46.5 19q27 0 45.5 -18.5t18.5 -45.5q0 -28 -18 -46.5t-46 -18.5t-46.5 18.5t-18.5 46.5zM731 1640q0 27 18.5 45.5t47.5 18.5q26 0 44.5 -19t18.5 -45 q0 -28 -18.5 -46.5t-44.5 -18.5q-29 0 -47.5 18.5t-18.5 46.5z" />
<glyph unicode="&#xc5;" horiz-adv-x="1243" d="M18 0l541 1434h119l547 -1434h-111l-164 444h-659l-162 -444h-111zM324 535h594l-300 806zM446 1671q0 76 47 121t125 45q76 0 122 -45t46 -121t-46 -121t-122 -45q-78 0 -125 45t-47 121zM502 1671q0 -54 31 -85.5t85 -31.5q53 0 84 31.5t31 85.5t-31 85.5t-84 31.5 q-54 0 -85 -31.5t-31 -85.5z" />
<glyph unicode="&#xc6;" horiz-adv-x="1738" d="M18 0l670 1434h954v-93h-677v-567h596v-92h-596v-590h698v-92h-801v446h-518l-207 -446h-119zM383 532h479v811h-104z" />
<glyph unicode="&#xc7;" horiz-adv-x="1351" d="M123 723q0 337 159 536t435 199q213 0 354 -123t170 -352l-104 -16q-25 196 -140.5 296.5t-283.5 100.5q-225 0 -355.5 -174t-130.5 -469q0 -297 131.5 -471t354.5 -174q174 0 292 106t146 291l102 -16q-30 -220 -163 -340t-330 -133l-41 -84h12q88 0 139.5 -39 t51.5 -105q0 -67 -52.5 -106t-140.5 -39t-174 47l18 47q84 -43 146 -43q59 0 94 26t35 70q0 46 -37 70.5t-106 24.5h-54v34l49 95q-265 6 -421 205t-156 536z" />
<glyph unicode="&#xc8;" horiz-adv-x="1062" d="M188 0v1434h781v-93h-678v-567h596v-92h-596v-590h698v-92h-801zM365 1735h116l160 -242h-92z" />
<glyph unicode="&#xc9;" horiz-adv-x="1062" d="M188 0v1434h781v-93h-678v-567h596v-92h-596v-590h698v-92h-801zM492 1493l157 242h115l-182 -242h-90z" />
<glyph unicode="&#xca;" horiz-adv-x="1062" d="M188 0v1434h781v-93h-678v-567h596v-92h-596v-590h698v-92h-801zM295 1493l233 242h80l232 -242h-92l-181 195l-180 -195h-92z" />
<glyph unicode="&#xcb;" horiz-adv-x="1062" d="M188 0v1434h781v-93h-678v-567h596v-92h-596v-590h698v-92h-801zM326 1640q0 26 19 45t46 19t45.5 -18.5t18.5 -45.5q0 -28 -18 -46.5t-46 -18.5t-46.5 18.5t-18.5 46.5zM680 1640q0 27 18 45.5t47 18.5q26 0 45 -19t19 -45q0 -28 -18.5 -46.5t-45.5 -18.5 q-29 0 -47 18.5t-18 46.5z" />
<glyph unicode="&#xcc;" horiz-adv-x="479" d="M37 1735h117l159 -242h-92zM188 0v1434h103v-1434h-103z" />
<glyph unicode="&#xcd;" horiz-adv-x="479" d="M164 1493l158 242h114l-182 -242h-90zM188 0v1434h103v-1434h-103z" />
<glyph unicode="&#xce;" horiz-adv-x="479" d="M-33 1493l234 242h80l231 -242h-92l-180 195l-181 -195h-92zM188 0v1434h103v-1434h-103z" />
<glyph unicode="&#xcf;" horiz-adv-x="479" d="M-2 1640q0 26 19 45t46 19t45.5 -18.5t18.5 -45.5q0 -28 -18 -46.5t-46 -18.5t-46.5 18.5t-18.5 46.5zM188 0v1434h103v-1434h-103zM352 1640q0 27 18.5 45.5t47.5 18.5q26 0 44.5 -19t18.5 -45q0 -28 -18.5 -46.5t-44.5 -18.5q-29 0 -47.5 18.5t-18.5 46.5z" />
<glyph unicode="&#xd0;" horiz-adv-x="1427" d="M31 702v72h157v660h381q331 0 526 -193t195 -522q0 -331 -194.5 -525t-526.5 -194h-381v702h-157zM291 92h276q286 0 451.5 168.5t165.5 458.5q0 288 -165.5 456t-449.5 168h-278v-569h260v-72h-260v-610z" />
<glyph unicode="&#xd1;" horiz-adv-x="1421" d="M188 0v1434h127l594 -930l226 -373v1303h98v-1434h-127l-602 932l-219 368v-1300h-97zM408 1511q0 83 43 133t110 50q43 0 86 -17.5t72 -39t67.5 -39t73.5 -17.5q40 0 65 31t25 86h68q0 -83 -43.5 -132.5t-110.5 -49.5q-43 0 -86 17.5t-72 38.5t-67.5 38.5t-73.5 17.5 q-40 0 -65 -31t-25 -86h-67z" />
<glyph unicode="&#xd2;" horiz-adv-x="1480" d="M123 725q0 341 166 540t452 199t451.5 -198t165.5 -541q0 -342 -166 -542.5t-451 -200.5q-284 0 -451 201t-167 542zM227 725q0 -297 139.5 -473t374.5 -176q236 0 374 175.5t138 473.5t-138.5 471.5t-373.5 173.5q-236 0 -375 -174.5t-139 -470.5zM539 1765h116 l160 -241h-92z" />
<glyph unicode="&#xd3;" horiz-adv-x="1480" d="M123 725q0 341 166 540t452 199t451.5 -198t165.5 -541q0 -342 -166 -542.5t-451 -200.5q-284 0 -451 201t-167 542zM227 725q0 -297 139.5 -473t374.5 -176q236 0 374 175.5t138 473.5t-138.5 471.5t-373.5 173.5q-236 0 -375 -174.5t-139 -470.5zM666 1524l157 241h115 l-182 -241h-90z" />
<glyph unicode="&#xd4;" horiz-adv-x="1480" d="M123 725q0 341 166 540t452 199t451.5 -198t165.5 -541q0 -342 -166 -542.5t-451 -200.5q-284 0 -451 201t-167 542zM227 725q0 -297 139.5 -473t374.5 -176q236 0 374 175.5t138 473.5t-138.5 471.5t-373.5 173.5q-236 0 -375 -174.5t-139 -470.5zM469 1524l233 241h80 l232 -241h-92l-181 194l-180 -194h-92z" />
<glyph unicode="&#xd5;" horiz-adv-x="1480" d="M123 725q0 341 166 540t452 199t451.5 -198t165.5 -541q0 -342 -166 -542.5t-451 -200.5q-284 0 -451 201t-167 542zM227 725q0 -297 139.5 -473t374.5 -176q236 0 374 175.5t138 473.5t-138.5 471.5t-373.5 173.5q-236 0 -375 -174.5t-139 -470.5zM436 1542 q0 83 43.5 132.5t110.5 49.5q43 0 86 -17.5t72 -38.5t67.5 -38.5t73.5 -17.5q40 0 65 31t25 86h68q0 -83 -43.5 -133t-110.5 -50q-43 0 -86 17.5t-72 39t-67.5 39t-73.5 17.5q-40 0 -65 -31t-25 -86h-68z" />
<glyph unicode="&#xd6;" horiz-adv-x="1480" d="M123 725q0 341 166 540t452 199t451.5 -198t165.5 -541q0 -342 -166 -542.5t-451 -200.5q-284 0 -451 201t-167 542zM227 725q0 -297 139.5 -473t374.5 -176q236 0 374 175.5t138 473.5t-138.5 471.5t-373.5 173.5q-236 0 -375 -174.5t-139 -470.5zM500 1671 q0 27 19 45.5t46 18.5t45.5 -18.5t18.5 -45.5q0 -28 -18 -46.5t-46 -18.5t-46.5 18.5t-18.5 46.5zM854 1671q0 27 18.5 45.5t47.5 18.5q26 0 44.5 -19t18.5 -45q0 -28 -18.5 -46.5t-44.5 -18.5q-29 0 -47.5 18.5t-18.5 46.5z" />
<glyph unicode="&#xd7;" horiz-adv-x="1118" d="M174 305l328 346l-328 344l57 58l328 -344l326 344l59 -60l-330 -346l330 -344l-57 -57l-328 344l-326 -344z" />
<glyph unicode="&#xd8;" horiz-adv-x="1480" d="M123 725q0 341 166 540t452 199q231 0 381 -129l107 142l65 -52l-110 -149q174 -196 174 -551q0 -342 -166 -542.5t-451 -200.5q-245 0 -407 153l-131 -176l-68 53l141 189q-153 198 -153 524zM227 725q0 -264 113 -438l723 966q-129 117 -322 117q-236 0 -375 -174.5 t-139 -470.5zM395 219q137 -143 346 -143q236 0 374 175.5t138 473.5q0 292 -133 467z" />
<glyph unicode="&#xd9;" horiz-adv-x="1318" d="M170 483v951h102v-953q0 -187 104 -296t283 -109t283.5 109t104.5 296v953h102v-951q0 -232 -132 -366.5t-358 -134.5t-357.5 134.5t-131.5 366.5zM457 1735h116l160 -242h-92z" />
<glyph unicode="&#xda;" horiz-adv-x="1318" d="M170 483v951h102v-953q0 -187 104 -296t283 -109t283.5 109t104.5 296v953h102v-951q0 -232 -132 -366.5t-358 -134.5t-357.5 134.5t-131.5 366.5zM584 1493l157 242h115l-182 -242h-90z" />
<glyph unicode="&#xdb;" horiz-adv-x="1318" d="M170 483v951h102v-953q0 -187 104 -296t283 -109t283.5 109t104.5 296v953h102v-951q0 -232 -132 -366.5t-358 -134.5t-357.5 134.5t-131.5 366.5zM387 1493l234 242h79l232 -242h-92l-181 195l-180 -195h-92z" />
<glyph unicode="&#xdc;" horiz-adv-x="1318" d="M170 483v951h102v-953q0 -187 104 -296t283 -109t283.5 109t104.5 296v953h102v-951q0 -232 -132 -366.5t-358 -134.5t-357.5 134.5t-131.5 366.5zM418 1640q0 26 19 45t46 19t45.5 -18.5t18.5 -45.5q0 -28 -18 -46.5t-46 -18.5t-46.5 18.5t-18.5 46.5zM772 1640 q0 27 18.5 45.5t47.5 18.5q26 0 44.5 -19t18.5 -45q0 -28 -18.5 -46.5t-44.5 -18.5q-29 0 -47.5 18.5t-18.5 46.5z" />
<glyph unicode="&#xdd;" horiz-adv-x="1120" d="M18 1434h115l430 -748l430 748h107l-488 -852v-582h-102v582zM485 1493l158 242h115l-183 -242h-90z" />
<glyph unicode="&#xde;" horiz-adv-x="1153" d="M188 0v1442h103v-289h366q206 0 327.5 -110.5t121.5 -297.5q0 -189 -121 -299t-328 -110h-366v-336h-103zM291 424h360q163 0 255.5 86t92.5 235q0 147 -93 233.5t-255 86.5h-360v-641z" />
<glyph unicode="&#xdf;" horiz-adv-x="1079" d="M170 0v1126q0 166 100 267.5t265 101.5q173 0 280 -106t107 -275q0 -125 -66 -219t-174 -123q137 -25 220 -127t83 -244q0 -181 -127 -291t-336 -110h-106v92h100q165 0 266 87t101 233q0 137 -90.5 222t-237.5 85h-111v92h111q107 0 185.5 85.5t78.5 207.5 q0 134 -79 216.5t-208 82.5q-118 0 -190 -77t-72 -202v-1124h-100z" />
<glyph unicode="&#xe0;" horiz-adv-x="1005" d="M94 268q0 142 102 227t275 85q178 0 307 -80v178q0 132 -74.5 209.5t-203.5 77.5q-108 0 -178 -55t-89 -154l-98 14q21 129 118 206t249 77q172 0 273.5 -101t101.5 -274v-678h-93v139q-49 -77 -142 -118t-208 -41q-158 0 -249 77t-91 211zM197 276q0 -97 69 -152.5 t193 -55.5q147 0 233 76t86 206v64q-128 84 -295 84q-132 0 -209 -59.5t-77 -162.5zM319 1454h117l174 -268h-90z" />
<glyph unicode="&#xe1;" horiz-adv-x="1005" d="M94 268q0 142 102 227t275 85q178 0 307 -80v178q0 132 -74.5 209.5t-203.5 77.5q-108 0 -178 -55t-89 -154l-98 14q21 129 118 206t249 77q172 0 273.5 -101t101.5 -274v-678h-93v139q-49 -77 -142 -118t-208 -41q-158 0 -249 77t-91 211zM197 276q0 -97 69 -152.5 t193 -55.5q147 0 233 76t86 206v64q-128 84 -295 84q-132 0 -209 -59.5t-77 -162.5zM371 1186l174 268h117l-201 -268h-90z" />
<glyph unicode="&#xe2;" horiz-adv-x="1005" d="M94 268q0 142 102 227t275 85q178 0 307 -80v178q0 132 -74.5 209.5t-203.5 77.5q-108 0 -178 -55t-89 -154l-98 14q21 129 118 206t249 77q172 0 273.5 -101t101.5 -274v-678h-93v139q-49 -77 -142 -118t-208 -41q-158 0 -249 77t-91 211zM197 276q0 -97 69 -152.5 t193 -55.5q147 0 233 76t86 206v64q-128 84 -295 84q-132 0 -209 -59.5t-77 -162.5zM207 1190l256 264h82l258 -264h-94l-203 217l-205 -217h-94z" />
<glyph unicode="&#xe3;" horiz-adv-x="1005" d="M94 268q0 142 102 227t275 85q178 0 307 -80v178q0 132 -74.5 209.5t-203.5 77.5q-108 0 -178 -55t-89 -154l-98 14q21 129 118 206t249 77q172 0 273.5 -101t101.5 -274v-678h-93v139q-49 -77 -142 -118t-208 -41q-158 0 -249 77t-91 211zM193 1257q0 85 44 136t113 51 q44 0 87.5 -18t73.5 -39.5t68.5 -39.5t73.5 -18q41 0 66.5 32t25.5 87h70q0 -86 -44.5 -136t-113.5 -50q-44 0 -87.5 17.5t-72.5 38.5t-68 38.5t-75 17.5q-40 0 -66 -32t-26 -85h-69zM197 276q0 -97 69 -152.5t193 -55.5q147 0 233 76t86 206v64q-128 84 -295 84 q-132 0 -209 -59.5t-77 -162.5z" />
<glyph unicode="&#xe4;" horiz-adv-x="1005" d="M94 268q0 142 102 227t275 85q178 0 307 -80v178q0 132 -74.5 209.5t-203.5 77.5q-108 0 -178 -55t-89 -154l-98 14q21 129 118 206t249 77q172 0 273.5 -101t101.5 -274v-678h-93v139q-49 -77 -142 -118t-208 -41q-158 0 -249 77t-91 211zM197 276q0 -97 69 -152.5 t193 -55.5q147 0 233 76t86 206v64q-128 84 -295 84q-132 0 -209 -59.5t-77 -162.5zM262 1352q0 26 19 45.5t47 19.5q27 0 45 -19t18 -46q0 -28 -18 -47t-45 -19q-28 0 -47 19t-19 47zM616 1352q0 27 18.5 46t47.5 19q26 0 44.5 -19.5t18.5 -45.5q0 -28 -18.5 -47t-44.5 -19 q-29 0 -47.5 19t-18.5 47z" />
<glyph unicode="&#xe5;" horiz-adv-x="1005" d="M94 268q0 142 102 227t275 85q178 0 307 -80v178q0 132 -74.5 209.5t-203.5 77.5q-108 0 -178 -55t-89 -154l-98 14q21 129 118 206t249 77q172 0 273.5 -101t101.5 -274v-678h-93v139q-49 -77 -142 -118t-208 -41q-158 0 -249 77t-91 211zM197 276q0 -97 69 -152.5 t193 -55.5q147 0 233 76t86 206v64q-128 84 -295 84q-132 0 -209 -59.5t-77 -162.5zM315 1380q0 85 51.5 135t137.5 50q85 0 135.5 -49.5t50.5 -135.5t-50.5 -135t-135.5 -49q-86 0 -137.5 49.5t-51.5 134.5zM371 1380q0 -62 35.5 -97.5t97.5 -35.5t97.5 35.5t35.5 97.5 t-35.5 97.5t-97.5 35.5t-97.5 -35.5t-35.5 -97.5z" />
<glyph unicode="&#xe6;" horiz-adv-x="1703" d="M94 268q0 141 103 226.5t272 85.5q177 0 311 -80v178q0 132 -75 209.5t-203 77.5q-109 0 -181.5 -55.5t-87.5 -153.5l-98 14q20 129 119 206t248 77q131 0 221.5 -62.5t124.5 -173.5q52 111 144.5 173.5t213.5 62.5q198 0 313 -145t115 -398h-751q6 -204 98.5 -321 t249.5 -117q115 0 194 63.5t99 175.5l96 -16q-26 -148 -131.5 -230.5t-261.5 -82.5q-133 0 -230.5 66t-150.5 188q-40 -118 -150.5 -187t-261.5 -69q-157 0 -248.5 77.5t-91.5 210.5zM197 276q0 -97 69 -151.5t193 -54.5q146 0 233.5 75.5t87.5 204.5v62q-132 86 -297 86 q-131 0 -208.5 -59t-77.5 -163zM885 592h641q-11 172 -96 271.5t-224 99.5q-134 0 -221.5 -102t-99.5 -269z" />
<glyph unicode="&#xe7;" horiz-adv-x="985" d="M94 516q0 247 116 392t312 145q162 0 272.5 -96.5t127.5 -254.5l-97 -14q-15 121 -95 197t-202 76q-152 0 -241.5 -120t-89.5 -325q0 -203 89 -320.5t244 -117.5q123 0 202.5 74t94.5 206l99 -12q-13 -147 -100.5 -240t-225.5 -114l-45 -92h12q88 0 139.5 -39t51.5 -105 q0 -67 -52.5 -106t-140.5 -39t-174 47l19 47q84 -43 145 -43q59 0 94 26t35 70q0 46 -37 70.5t-106 24.5h-54v34l54 99h-13q-200 0 -317 142.5t-117 387.5z" />
<glyph unicode="&#xe8;" horiz-adv-x="1044" d="M94 524q0 243 120 386t323 143q202 0 319 -145t117 -398h-776q5 -199 103 -318.5t265 -119.5q116 0 196.5 61.5t104.5 175.5l97 -14q-30 -153 -139.5 -233t-264.5 -80q-213 0 -339 146t-126 396zM199 592h667q-12 172 -99.5 271.5t-229.5 99.5q-145 0 -234.5 -99 t-103.5 -272zM342 1454h117l174 -268h-90z" />
<glyph unicode="&#xe9;" horiz-adv-x="1044" d="M94 524q0 243 120 386t323 143q202 0 319 -145t117 -398h-776q5 -199 103 -318.5t265 -119.5q116 0 196.5 61.5t104.5 175.5l97 -14q-30 -153 -139.5 -233t-264.5 -80q-213 0 -339 146t-126 396zM199 592h667q-12 172 -99.5 271.5t-229.5 99.5q-145 0 -234.5 -99 t-103.5 -272zM393 1186l174 268h117l-201 -268h-90z" />
<glyph unicode="&#xea;" horiz-adv-x="1044" d="M94 524q0 243 120 386t323 143q202 0 319 -145t117 -398h-776q5 -199 103 -318.5t265 -119.5q116 0 196.5 61.5t104.5 175.5l97 -14q-30 -153 -139.5 -233t-264.5 -80q-213 0 -339 146t-126 396zM199 592h667q-12 172 -99.5 271.5t-229.5 99.5q-145 0 -234.5 -99 t-103.5 -272zM229 1190l256 264h82l258 -264h-94l-203 217l-204 -217h-95z" />
<glyph unicode="&#xeb;" horiz-adv-x="1044" d="M94 524q0 243 120 386t323 143q202 0 319 -145t117 -398h-776q5 -199 103 -318.5t265 -119.5q116 0 196.5 61.5t104.5 175.5l97 -14q-30 -153 -139.5 -233t-264.5 -80q-213 0 -339 146t-126 396zM199 592h667q-12 172 -99.5 271.5t-229.5 99.5q-145 0 -234.5 -99 t-103.5 -272zM285 1352q0 27 19 46t46 19t45.5 -19t18.5 -46q0 -28 -18 -47t-46 -19t-46.5 19t-18.5 47zM639 1352q0 27 18.5 46t47.5 19q26 0 44.5 -19.5t18.5 -45.5q0 -28 -18.5 -47t-44.5 -19q-29 0 -47.5 19t-18.5 47z" />
<glyph unicode="&#xec;" horiz-adv-x="440" d="M37 1454h117l174 -268h-90zM170 0v1024h100v-1024h-100z" />
<glyph unicode="&#xed;" horiz-adv-x="440" d="M88 1186l174 268h117l-201 -268h-90zM170 0v1024h100v-1024h-100z" />
<glyph unicode="&#xee;" horiz-adv-x="440" d="M-76 1190l256 264h82l258 -264h-94l-203 217l-205 -217h-94zM170 0v1024h100v-1024h-100z" />
<glyph unicode="&#xef;" horiz-adv-x="440" d="M-20 1352q0 27 19 46t46 19t45.5 -19t18.5 -46q0 -28 -18 -47t-46 -19t-46.5 19t-18.5 47zM170 0v1024h100v-1024h-100zM334 1352q0 27 18 46t47 19q26 0 45 -19.5t19 -45.5q0 -28 -19 -47t-45 -19q-29 0 -47 19t-18 47z" />
<glyph unicode="&#xf0;" horiz-adv-x="1095" d="M94 494q0 234 118.5 370.5t317.5 136.5q172 0 287 -124q-105 185 -311 378l-221 -114l-23 47l203 104q-78 70 -121 105l59 76q49 -42 150 -134l235 123l23 -49l-217 -113q100 -96 171 -182t126 -182t82.5 -200.5t27.5 -219.5q0 -251 -122 -392.5t-334 -141.5 q-207 0 -329 138t-122 374zM197 494q0 -193 93.5 -304.5t256.5 -111.5t257.5 111.5t94.5 304.5q0 195 -94.5 307t-257.5 112t-256.5 -112t-93.5 -307z" />
<glyph unicode="&#xf1;" horiz-adv-x="1077" d="M170 0v1024h94l-2 -160q43 91 126.5 140t195.5 49q164 0 261 -105.5t97 -285.5v-662h-98v662q0 137 -76.5 218t-204.5 81q-135 0 -214 -90.5t-79 -241.5v-629h-100zM238 1257q0 85 44 136t113 51q44 0 87.5 -18t73.5 -39.5t68.5 -39.5t73.5 -18q41 0 67 32.5t26 86.5h69 q0 -86 -44.5 -136t-113.5 -50q-44 0 -87.5 17.5t-72.5 38.5t-68 38.5t-75 17.5q-40 0 -66 -32t-26 -85h-69z" />
<glyph unicode="&#xf2;" horiz-adv-x="1095" d="M94 518q0 246 122.5 390.5t332.5 144.5q209 0 330.5 -144.5t121.5 -390.5q0 -248 -121.5 -392t-330.5 -144q-211 0 -333 144t-122 392zM197 518q0 -206 94.5 -326t257.5 -120q161 0 255.5 120.5t94.5 325.5q0 204 -94.5 324.5t-255.5 120.5q-162 0 -257 -120.5 t-95 -324.5zM362 1454h117l174 -268h-90z" />
<glyph unicode="&#xf3;" horiz-adv-x="1095" d="M94 518q0 246 122.5 390.5t332.5 144.5q209 0 330.5 -144.5t121.5 -390.5q0 -248 -121.5 -392t-330.5 -144q-211 0 -333 144t-122 392zM197 518q0 -206 94.5 -326t257.5 -120q161 0 255.5 120.5t94.5 325.5q0 204 -94.5 324.5t-255.5 120.5q-162 0 -257 -120.5 t-95 -324.5zM414 1186l174 268h117l-201 -268h-90z" />
<glyph unicode="&#xf4;" horiz-adv-x="1095" d="M94 518q0 246 122.5 390.5t332.5 144.5q209 0 330.5 -144.5t121.5 -390.5q0 -248 -121.5 -392t-330.5 -144q-211 0 -333 144t-122 392zM197 518q0 -206 94.5 -326t257.5 -120q161 0 255.5 120.5t94.5 325.5q0 204 -94.5 324.5t-255.5 120.5q-162 0 -257 -120.5 t-95 -324.5zM250 1190l256 264h82l258 -264h-94l-203 217l-205 -217h-94z" />
<glyph unicode="&#xf5;" horiz-adv-x="1095" d="M94 518q0 246 122.5 390.5t332.5 144.5q209 0 330.5 -144.5t121.5 -390.5q0 -248 -121.5 -392t-330.5 -144q-211 0 -333 144t-122 392zM197 518q0 -206 94.5 -326t257.5 -120q161 0 255.5 120.5t94.5 325.5q0 204 -94.5 324.5t-255.5 120.5q-162 0 -257 -120.5 t-95 -324.5zM236 1257q0 85 44 136t113 51q44 0 87.5 -18t73.5 -39.5t68.5 -39.5t73.5 -18q41 0 66.5 32t25.5 87h70q0 -86 -44.5 -136t-113.5 -50q-44 0 -87.5 17.5t-72.5 38.5t-68 38.5t-75 17.5q-40 0 -66 -32t-26 -85h-69z" />
<glyph unicode="&#xf6;" horiz-adv-x="1095" d="M94 518q0 246 122.5 390.5t332.5 144.5q209 0 330.5 -144.5t121.5 -390.5q0 -248 -121.5 -392t-330.5 -144q-211 0 -333 144t-122 392zM197 518q0 -206 94.5 -326t257.5 -120q161 0 255.5 120.5t94.5 325.5q0 204 -94.5 324.5t-255.5 120.5q-162 0 -257 -120.5 t-95 -324.5zM305 1352q0 26 19.5 45.5t46.5 19.5t45 -19t18 -46q0 -28 -18 -47t-45 -19q-28 0 -47 19t-19 47zM659 1352q0 27 18.5 46t47.5 19q26 0 44.5 -19.5t18.5 -45.5q0 -28 -18.5 -47t-44.5 -19q-29 0 -47.5 19t-18.5 47z" />
<glyph unicode="&#xf7;" horiz-adv-x="1132" d="M170 606v78h827v-78h-827zM512 313q0 31 21.5 51.5t52.5 20.5q30 0 50.5 -20.5t20.5 -51.5t-21 -52t-50 -21q-31 0 -52.5 21t-21.5 52zM512 975q0 29 21.5 50.5t52.5 21.5q29 0 50 -21.5t21 -50.5q0 -32 -21 -54t-50 -22q-31 0 -52.5 22t-21.5 54z" />
<glyph unicode="&#xf8;" horiz-adv-x="1107" d="M94 518q0 246 122.5 390.5t332.5 144.5q174 0 287 -101l116 166l54 -39l-123 -174q118 -146 118 -387q0 -248 -121.5 -392t-330.5 -144q-151 0 -258 75l-94 -135l-56 39l99 139q-146 146 -146 418zM197 518q0 -215 102 -336l481 688q-93 93 -231 93q-162 0 -257 -120.5 t-95 -324.5zM344 139q86 -67 205 -67q161 0 255.5 120.5t94.5 325.5q0 182 -78 303z" />
<glyph unicode="&#xf9;" horiz-adv-x="1058" d="M135 365v659h101v-662q0 -133 72.5 -210.5t197.5 -77.5q131 0 208 86.5t77 234.5v629h98v-1024h-88l2 186q-38 -97 -123 -150.5t-203 -53.5q-159 0 -250.5 100.5t-91.5 282.5zM336 1454h117l174 -268h-90z" />
<glyph unicode="&#xfa;" horiz-adv-x="1058" d="M135 365v659h101v-662q0 -133 72.5 -210.5t197.5 -77.5q131 0 208 86.5t77 234.5v629h98v-1024h-88l2 186q-38 -97 -123 -150.5t-203 -53.5q-159 0 -250.5 100.5t-91.5 282.5zM387 1186l174 268h117l-201 -268h-90z" />
<glyph unicode="&#xfb;" horiz-adv-x="1058" d="M135 365v659h101v-662q0 -133 72.5 -210.5t197.5 -77.5q131 0 208 86.5t77 234.5v629h98v-1024h-88l2 186q-38 -97 -123 -150.5t-203 -53.5q-159 0 -250.5 100.5t-91.5 282.5zM223 1190l256 264h82l258 -264h-94l-203 217l-205 -217h-94z" />
<glyph unicode="&#xfc;" horiz-adv-x="1058" d="M135 365v659h101v-662q0 -133 72.5 -210.5t197.5 -77.5q131 0 208 86.5t77 234.5v629h98v-1024h-88l2 186q-38 -97 -123 -150.5t-203 -53.5q-159 0 -250.5 100.5t-91.5 282.5zM279 1352q0 27 19 46t46 19t45.5 -19t18.5 -46q0 -28 -18 -47t-46 -19t-46.5 19t-18.5 47z M633 1352q0 27 18 46t47 19q26 0 45 -19.5t19 -45.5q0 -28 -19 -47t-45 -19q-29 0 -47 19t-18 47z" />
<glyph unicode="&#xfd;" horiz-adv-x="890" d="M10 1024h113l317 -952l334 952h107l-498 -1413h-104l135 389h-45zM313 1186l174 268h117l-201 -268h-90z" />
<glyph unicode="&#xfe;" horiz-adv-x="1101" d="M170 -389v1868h100l-2 -641q51 104 136.5 159.5t197.5 55.5q189 0 297.5 -143.5t108.5 -391.5t-108.5 -392t-297.5 -144q-109 0 -194.5 55t-137.5 156v-582h-100zM270 518q0 -204 86 -324t232 -120t231.5 120t85.5 324t-85.5 323.5t-231.5 119.5t-232 -119.5t-86 -323.5z " />
<glyph unicode="&#xff;" horiz-adv-x="890" d="M10 1024h113l317 -952l334 952h107l-498 -1413h-104l135 389h-45zM205 1352q0 27 19 46t46 19t45.5 -19t18.5 -46q0 -28 -18 -47t-46 -19t-46.5 19t-18.5 47zM559 1352q0 27 18.5 46t47.5 19q26 0 44.5 -19.5t18.5 -45.5q0 -28 -18.5 -47t-44.5 -19q-29 0 -47.5 19 t-18.5 47z" />
<glyph unicode="&#x152;" horiz-adv-x="2013" d="M123 725q0 341 151 540t410 199q154 0 270 -78.5t183 -224.5v273h780v-93h-678v-567h596v-92h-596v-590h698v-92h-800v291q-67 -146 -183 -225.5t-270 -79.5q-259 0 -410 199.5t-151 539.5zM227 725q0 -297 123.5 -472t333.5 -175q209 0 331 174.5t122 472.5 q0 300 -121.5 473.5t-331.5 173.5q-211 0 -334 -174.5t-123 -472.5z" />
<glyph unicode="&#x153;" horiz-adv-x="1849" d="M94 518q0 247 122.5 391t330.5 144q144 0 247.5 -73.5t153.5 -207.5q48 131 150 206t241 75q203 0 321 -145t118 -398h-774q6 -204 101.5 -321t258.5 -117q119 0 201 63.5t102 175.5l96 -16q-26 -148 -135 -230.5t-270 -82.5q-146 0 -251 75.5t-155 214.5 q-48 -139 -152.5 -214.5t-252.5 -75.5q-208 0 -330.5 144t-122.5 392zM197 518q0 -205 94.5 -325.5t255.5 -120.5q162 0 256 120t94 326t-94 325.5t-256 119.5q-161 0 -255.5 -120t-94.5 -325zM1006 592h665q-12 173 -100 272t-232 99q-140 0 -230.5 -102t-102.5 -269z" />
<glyph unicode="&#x178;" horiz-adv-x="1120" d="M18 1434h115l430 -748l430 748h107l-488 -852v-582h-102v582zM319 1640q0 26 19 45t47 19q27 0 45.5 -18.5t18.5 -45.5q0 -28 -18 -46.5t-46 -18.5t-47 18.5t-19 46.5zM674 1640q0 27 18 45.5t47 18.5q26 0 45 -19t19 -45q0 -28 -18.5 -46.5t-45.5 -18.5q-29 0 -47 18.5 t-18 46.5z" />
<glyph unicode="&#x2c6;" horiz-adv-x="1228" d="M90 1190l256 264h82l258 -264h-94l-203 217l-205 -217h-94z" />
<glyph unicode="&#x2dc;" horiz-adv-x="1228" d="M102 1257q0 85 44.5 136t113.5 51q44 0 87.5 -18t73.5 -39.5t68.5 -39.5t73.5 -18q41 0 66.5 32t25.5 87h70q0 -86 -44.5 -136t-113.5 -50q-44 0 -87.5 17.5t-72.5 38.5t-68 38.5t-75 17.5q-40 0 -66 -32t-26 -85h-70z" />
<glyph unicode="&#x2000;" horiz-adv-x="918" />
<glyph unicode="&#x2001;" horiz-adv-x="1837" />
<glyph unicode="&#x2002;" horiz-adv-x="918" />
<glyph unicode="&#x2003;" horiz-adv-x="1837" />
<glyph unicode="&#x2004;" horiz-adv-x="612" />
<glyph unicode="&#x2005;" horiz-adv-x="459" />
<glyph unicode="&#x2006;" horiz-adv-x="306" />
<glyph unicode="&#x2007;" horiz-adv-x="306" />
<glyph unicode="&#x2008;" horiz-adv-x="229" />
<glyph unicode="&#x2009;" horiz-adv-x="367" />
<glyph unicode="&#x200a;" horiz-adv-x="102" />
<glyph unicode="&#x2010;" horiz-adv-x="655" d="M41 535v73h573v-73h-573z" />
<glyph unicode="&#x2011;" horiz-adv-x="655" d="M41 535v73h573v-73h-573z" />
<glyph unicode="&#x2012;" horiz-adv-x="655" d="M41 535v73h573v-73h-573z" />
<glyph unicode="&#x2013;" horiz-adv-x="1024" d="M41 535v73h942v-73h-942z" />
<glyph unicode="&#x2014;" horiz-adv-x="2031" d="M43 535v73h1946v-73h-1946z" />
<glyph unicode="&#x2018;" horiz-adv-x="509" d="M170 1110q0 8 1 14.5t4.5 19t8.5 25t16 39t23 55.5t33 81t43 108h74l-103 -270q24 -6 39 -26t15 -46q0 -32 -23 -54t-55 -22q-31 0 -53.5 22t-22.5 54z" />
<glyph unicode="&#x2019;" horiz-adv-x="509" d="M170 1038l102 269q-53 21 -53 73q0 32 23 54t55 22t54 -22t22 -54q0 -7 -1 -13.5t-2.5 -14t-6.5 -21t-10.5 -27.5t-16 -41t-22 -54.5t-30.5 -75t-38 -95.5h-76z" />
<glyph unicode="&#x201a;" horiz-adv-x="507" d="M170 -287l102 269q-53 21 -53 73q0 31 23 53.5t55 22.5q31 0 53.5 -22.5t22.5 -53.5q0 -8 -1 -14.5t-2.5 -14t-6.5 -21t-10.5 -27.5t-16 -40.5t-22 -54t-30.5 -74.5t-38 -96h-76z" />
<glyph unicode="&#x201c;" horiz-adv-x="765" d="M170 1112q0 9 1 15.5t4.5 19t8.5 25t16 39.5t23 55.5t33 80t43 107.5h74l-103 -268q25 -7 39.5 -27.5t14.5 -46.5q0 -31 -23 -53.5t-55 -22.5q-31 0 -53.5 22.5t-22.5 53.5zM426 1112q0 8 1 14.5t2.5 14t6.5 21t10.5 27.5t16 40.5t22 54t30.5 74.5t38 96h76l-103 -268 q24 -8 39 -28t15 -46q0 -31 -23 -53.5t-55 -22.5q-31 0 -53.5 22.5t-22.5 53.5z" />
<glyph unicode="&#x201d;" horiz-adv-x="745" d="M170 1036l84 269q-25 8 -40 27.5t-15 45.5q0 32 22.5 54t54.5 22t54 -22t22 -54q0 -7 -1 -13.5t-2 -14t-5 -21t-8.5 -27.5t-14 -41t-18.5 -54.5t-25 -75t-32 -95.5h-76zM426 1036l84 269q-25 8 -40 27.5t-15 45.5q0 32 22.5 54t54.5 22q31 0 53.5 -22t22.5 -54 q0 -8 -1 -15t-4 -19t-7 -24.5t-13 -39.5t-19 -56t-27 -80.5t-35 -107.5h-76z" />
<glyph unicode="&#x201e;" horiz-adv-x="776" d="M170 -287l102 269q-53 21 -53 73q0 31 23 53.5t55 22.5t54 -22.5t22 -53.5q0 -8 -1 -14.5t-2.5 -14t-6.5 -21t-10.5 -27.5t-16 -40.5t-22 -54t-30.5 -74.5t-38 -96h-76zM436 -287l103 269q-24 8 -39 27.5t-15 45.5q0 31 23 53.5t55 22.5q31 0 53.5 -22.5t22.5 -53.5 q0 -9 -1 -15.5t-4.5 -19t-8.5 -25t-15.5 -39.5t-22.5 -55.5t-32.5 -80t-42.5 -107.5h-76z" />
<glyph unicode="&#x2022;" horiz-adv-x="745" d="M170 709q0 98 60 156.5t159 58.5q100 0 160.5 -58.5t60.5 -156.5t-60.5 -156.5t-160.5 -58.5q-99 0 -159 58.5t-60 156.5z" />
<glyph unicode="&#x2026;" horiz-adv-x="1239" d="M170 63q0 34 25.5 59t60.5 25q34 0 58 -25t24 -59q0 -35 -24 -59t-58 -24q-36 0 -61 24t-25 59zM553 63q0 34 25.5 59t60.5 25q34 0 58 -25t24 -59q0 -35 -24 -59t-58 -24q-36 0 -61 24t-25 59zM934 63q0 34 25.5 59t60.5 25q34 0 58 -25t24 -59q0 -35 -24 -59t-58 -24 q-36 0 -61 24t-25 59z" />
<glyph unicode="&#x202f;" horiz-adv-x="367" />
<glyph unicode="&#x2039;" horiz-adv-x="653" d="M170 520l254 389h92l-248 -389l248 -389h-92z" />
<glyph unicode="&#x203a;" horiz-adv-x="653" d="M172 131l248 389l-248 389h92l254 -389l-254 -389h-92z" />
<glyph unicode="&#x205f;" horiz-adv-x="459" />
<glyph unicode="&#x20ac;" horiz-adv-x="1263" d="M123 537v81h113q-5 82 -5 101v53h-108v82h115q25 284 154.5 444t344.5 160q160 0 269 -91t137 -265l-101 -17q-20 134 -103 206.5t-206 72.5q-165 0 -267 -135t-126 -375h534l-14 -82h-526v-55q0 -37 4 -99h522l-16 -81h-500q30 -218 128 -339.5t251 -121.5 q134 0 229.5 88t112.5 227l100 -16q-23 -176 -142.5 -284.5t-295.5 -108.5q-200 0 -325.5 147t-159.5 408h-119z" />
<glyph unicode="&#x2122;" horiz-adv-x="1513" d="M6 1382v66h576v-66h-252v-661h-72v661h-252zM659 721v727h95l282 -641l283 641h94v-727h-72v610l-266 -610h-76l-266 610v-610h-74z" />
<glyph unicode="&#x25fc;" horiz-adv-x="1024" d="M0 0v1024h1024v-1024h-1024z" />
</font>
</defs>
</svg>
