<?xml version="1.0" encoding="UTF-8"?>
<svg width="55px" height="33px" viewBox="0 0 55 33" version="1.1" xmlns="http://www.w3.org/2000/svg" xmlns:xlink="http://www.w3.org/1999/xlink">
    <title>Group 86</title>
    <defs>
        <polygon id="path-1" points="0 32.5450513 54.862641 32.5450513 54.862641 0 0 0"></polygon>
    </defs>
    <g id="Webpages" stroke="none" stroke-width="1" fill="none" fill-rule="evenodd">
        <g id="eSIM-SIM-only" transform="translate(-893.000000, -967.000000)">
            <g id="Group-12" transform="translate(42.000000, 743.000000)">
                <g id="Group-86" transform="translate(851.000000, 224.000000)">
                    <path d="M14.4321128,17.1276769 C14.4433949,17.0707026 14.4493179,17.0140103 14.4493179,16.9567538 L14.4493179,16.7855487 C14.4493179,16.4095744 14.3150615,16.0959333 14.0473949,15.8449077 C13.7791641,15.5941641 13.3944462,15.4686513 12.8926769,15.4686513 C12.584959,15.4686513 12.3082667,15.5230872 12.0634462,15.6311128 C11.8177795,15.7397026 11.6042667,15.8736769 11.4217795,16.0330359 C11.2392923,16.192959 11.0909333,16.3695231 10.9772667,16.5632923 C10.8630359,16.7573436 10.7832154,16.9454718 10.7378051,17.1276769 L14.4321128,17.1276769 Z M10.5496769,18.8039077 C10.5381128,18.8496 10.5324718,18.9009333 10.5324718,18.9579077 C10.5324718,19.1970872 10.5863436,19.4111641 10.6949333,19.5992923 C10.803241,19.7874205 10.9456769,19.9470615 11.1225231,20.0779333 C11.2993692,20.2093692 11.4987795,20.3089333 11.7213179,20.3774718 C11.9435744,20.4457282 12.1745744,20.4801385 12.4137538,20.4801385 C12.8469846,20.4801385 13.2288821,20.4003179 13.5597282,20.2406769 C13.8902923,20.0810359 14.1867282,19.8644205 14.4493179,19.5905487 L16.1766,20.9418564 C15.6294205,21.5231641 15.0193436,21.9422923 14.3466513,22.198959 C13.6736769,22.4556256 12.9496513,22.5836769 12.1745744,22.5836769 C11.5814205,22.5836769 11.0311385,22.5007538 10.5240103,22.3357538 C10.0163179,22.1704718 9.57462564,21.9253692 9.19836923,21.6001641 C8.82211282,21.2755231 8.52567692,20.8733179 8.30906154,20.3946769 C8.0921641,19.9154718 7.98413846,19.3682923 7.98413846,18.7525744 C7.98413846,18.0229077 8.11247179,17.3414718 8.36885641,16.7088308 C8.62552308,16.0759077 8.97893333,15.5259077 9.42936923,15.0582667 C9.87952308,14.5906256 10.4185231,14.2231128 11.0455231,13.9548821 C11.6725231,13.6872154 12.3627026,13.553241 13.1152154,13.553241 C13.6736769,13.553241 14.1841897,13.6330615 14.6459077,13.7927026 C15.1076256,13.9523436 15.5036256,14.1833436 15.8344718,14.4851385 C16.1653179,14.7874974 16.4217026,15.1609333 16.6041897,15.6054462 C16.7863949,16.050241 16.8777795,16.5632923 16.8777795,17.1448821 C16.8777795,17.3502154 16.8577538,17.6094205 16.8179846,17.9230615 C16.7779333,18.2367026 16.7237795,18.5303179 16.6555231,18.8039077 L10.5496769,18.8039077 Z" id="Fill-1" fill="#6038CD"></path>
                    <path d="M24.8056205,13.3648872 C24.5545949,13.0458872 24.2268513,12.792041 23.8221077,12.6039128 C23.4173641,12.4157846 23.0267231,12.3215795 22.6504667,12.3215795 C22.4564154,12.3215795 22.2598256,12.3387846 22.0604154,12.3729128 C21.8607231,12.407041 21.6813385,12.472759 21.5216974,12.5697846 C21.3620564,12.6665282 21.2280821,12.792041 21.1197744,12.946041 C21.0111846,13.100041 20.9573128,13.2966308 20.9573128,13.5360923 C20.9573128,13.7411436 20.9999026,13.9123487 21.0856462,14.0491436 C21.1711077,14.1859385 21.2963385,14.3055282 21.4619026,14.4081949 C21.6269026,14.5108615 21.8237744,14.6047846 22.0519538,14.6905282 C22.2798513,14.7759897 22.5365179,14.8645538 22.8216718,14.9556564 C23.2320564,15.0924513 23.6596462,15.2436308 24.104441,15.4089128 C24.5489538,15.5741949 24.9534154,15.7936308 25.3186718,16.0675026 C25.6833641,16.3410923 25.9857231,16.6804 26.2251846,17.0848615 C26.4646462,17.4898872 26.5842359,17.9944769 26.5842359,18.5986308 C26.5842359,19.2941692 26.4561846,19.8957846 26.1995179,20.4031949 C25.9428513,20.9106051 25.5979026,21.3294513 25.1646718,21.6602974 C24.731159,21.9908615 24.2353128,22.2359641 23.6768513,22.3956051 C23.1181077,22.5549641 22.542159,22.6350667 21.9492872,22.6350667 C21.0825436,22.6350667 20.2445692,22.4838872 19.4350821,22.1818103 C18.6253128,21.8797333 17.9526205,21.4493231 17.4170051,20.8905795 L19.3324154,18.940759 C19.6288513,19.3057333 20.0192103,19.6106308 20.5040564,19.8557333 C20.9886205,20.1011179 21.4703641,20.2235282 21.9492872,20.2235282 C22.1659026,20.2235282 22.3768769,20.2006821 22.5822103,20.1549897 C22.7872615,20.1095795 22.9669282,20.0354 23.1209282,19.9327333 C23.2746462,19.8300667 23.3970564,19.6932718 23.4887231,19.5223487 C23.5798256,19.3511436 23.6252359,19.1460923 23.6252359,18.9063487 C23.6252359,18.6784513 23.5682615,18.4846821 23.4543128,18.325041 C23.3403641,18.1654 23.1779026,18.0201436 22.9669282,17.8889897 C22.7556718,17.7578359 22.4936462,17.6382462 22.1800051,17.5296564 C21.8663641,17.4213487 21.5101333,17.3045795 21.1113128,17.1790667 C20.7234923,17.0538359 20.3441333,16.9054769 19.9738,16.7342718 C19.6031846,16.5633487 19.2726205,16.3439128 18.9818256,16.0759641 C18.6910308,15.8080154 18.4572103,15.4830923 18.2806462,15.1009128 C18.1035179,14.7190154 18.0155179,14.2541949 18.0155179,13.7070154 C18.0155179,13.0343231 18.1523128,12.4586564 18.4259026,11.9794513 C18.6997744,11.5008103 19.0588256,11.1073487 19.5036205,10.7993487 C19.9481333,10.4916308 20.4499026,10.2665538 21.0086462,10.1238359 C21.5671077,9.9814 22.1314923,9.91004103 22.7018,9.91004103 C23.3860564,9.91004103 24.0841333,10.0358359 24.797159,10.2862974 C25.5096205,10.5373231 26.1338,10.9079385 26.6696974,11.3981436 L24.8056205,13.3648872 Z" id="Fill-3" fill="#6038CD"></path>
                    <mask id="mask-2" fill="white">
                        <use xlink:href="#path-1"></use>
                    </mask>
                    <g id="Clip-6"></g>
                    <polygon id="Fill-5" fill="#6038CD" mask="url(#mask-2)" points="28.2186667 22.3271795 31.1607436 22.3271795 31.1607436 10.2178718 28.2186667 10.2178718"></polygon>
                    <polygon id="Fill-7" fill="#6038CD" mask="url(#mask-2)" points="44.0050769 22.3271795 44.0736154 13.7584615 44.0222821 13.7584615 40.8751538 22.3271795 38.8229487 22.3271795 35.7612821 13.7584615 35.7099487 13.7584615 35.7784872 22.3271795 33.0245385 22.3271795 33.0245385 10.2178718 37.1859231 10.2178718 39.9432564 17.9830256 40.0115128 17.9830256 42.6486923 10.2178718 46.8786154 10.2178718 46.8786154 22.3271795"></polygon>
                    <path d="M48.5358077,31.8990128 C48.5358077,31.5422179 48.8249103,31.2531154 49.1817051,31.2531154 C49.5385,31.2531154 49.8276026,31.5422179 49.8276026,31.8990128 C49.8276026,32.2558077 49.5385,32.5451923 49.1817051,32.5451923 C48.8249103,32.5451923 48.5358077,32.2558077 48.5358077,31.8990128" id="Fill-8" fill="#6038CD" mask="url(#mask-2)"></path>
                    <path d="M46.3620103,31.8990128 C46.3620103,31.5422179 46.6511128,31.2531154 47.0079077,31.2531154 C47.3649846,31.2531154 47.6540872,31.5422179 47.6540872,31.8990128 C47.6540872,32.2558077 47.3649846,32.5451923 47.0079077,32.5451923 C46.6511128,32.5451923 46.3620103,32.2558077 46.3620103,31.8990128" id="Fill-9" fill="#6038CD" mask="url(#mask-2)"></path>
                    <path d="M44.188241,31.8990128 C44.188241,31.5422179 44.4773436,31.2531154 44.8344205,31.2531154 C45.1912154,31.2531154 45.4803179,31.5422179 45.4803179,31.8990128 C45.4803179,32.2558077 45.1912154,32.5451923 44.8344205,32.5451923 C44.4773436,32.5451923 44.188241,32.2558077 44.188241,31.8990128" id="Fill-10" fill="#6038CD" mask="url(#mask-2)"></path>
                    <path d="M42.0147256,31.8990128 C42.0147256,31.5422179 42.3038282,31.2531154 42.6606231,31.2531154 C43.0174179,31.2531154 43.3065205,31.5422179 43.3065205,31.8990128 C43.3065205,32.2558077 43.0174179,32.5451923 42.6606231,32.5451923 C42.3038282,32.5451923 42.0147256,32.2558077 42.0147256,31.8990128" id="Fill-11" fill="#6038CD" mask="url(#mask-2)"></path>
                    <path d="M39.8409564,31.8990128 C39.8409564,31.5422179 40.130059,31.2531154 40.4868538,31.2531154 C40.8439308,31.2531154 41.1330333,31.5422179 41.1330333,31.8990128 C41.1330333,32.2558077 40.8439308,32.5451923 40.4868538,32.5451923 C40.130059,32.5451923 39.8409564,32.2558077 39.8409564,31.8990128" id="Fill-12" fill="#6038CD" mask="url(#mask-2)"></path>
                    <path d="M37.6674692,31.8990128 C37.6674692,31.5422179 37.9565718,31.2531154 38.3133667,31.2531154 C38.6701615,31.2531154 38.9592641,31.5422179 38.9592641,31.8990128 C38.9592641,32.2558077 38.6701615,32.5451923 38.3133667,32.5451923 C37.9565718,32.5451923 37.6674692,32.2558077 37.6674692,31.8990128" id="Fill-13" fill="#6038CD" mask="url(#mask-2)"></path>
                    <path d="M35.4936718,31.8990128 C35.4936718,31.5422179 35.7827744,31.2531154 36.1395692,31.2531154 C36.4963641,31.2531154 36.7854667,31.5422179 36.7854667,31.8990128 C36.7854667,32.2558077 36.4963641,32.5451923 36.1395692,32.5451923 C35.7827744,32.5451923 35.4936718,32.2558077 35.4936718,31.8990128" id="Fill-14" fill="#6038CD" mask="url(#mask-2)"></path>
                    <path d="M33.3199026,31.8990128 C33.3199026,31.5422179 33.6090051,31.2531154 33.9660821,31.2531154 C34.3228769,31.2531154 34.6119795,31.5422179 34.6119795,31.8990128 C34.6119795,32.2558077 34.3228769,32.5451923 33.9660821,32.5451923 C33.6090051,32.5451923 33.3199026,32.2558077 33.3199026,31.8990128" id="Fill-15" fill="#6038CD" mask="url(#mask-2)"></path>
                    <path d="M31.1463872,31.8990128 C31.1463872,31.5422179 31.4354897,31.2531154 31.7922846,31.2531154 C32.1490795,31.2531154 32.4381821,31.5422179 32.4381821,31.8990128 C32.4381821,32.2558077 32.1490795,32.5451923 31.7922846,32.5451923 C31.4354897,32.5451923 31.1463872,32.2558077 31.1463872,31.8990128" id="Fill-16" fill="#6038CD" mask="url(#mask-2)"></path>
                    <path d="M28.9726179,31.8990128 C28.9726179,31.5422179 29.2617205,31.2531154 29.6185154,31.2531154 C29.9755923,31.2531154 30.2646949,31.5422179 30.2646949,31.8990128 C30.2646949,32.2558077 29.9755923,32.5451923 29.6185154,32.5451923 C29.2617205,32.5451923 28.9726179,32.2558077 28.9726179,31.8990128" id="Fill-17" fill="#6038CD" mask="url(#mask-2)"></path>
                    <path d="M26.7989897,31.8990128 C26.7989897,31.5422179 27.0880923,31.2531154 27.4448872,31.2531154 C27.8016821,31.2531154 28.0910667,31.5422179 28.0910667,31.8990128 C28.0910667,32.2558077 27.8016821,32.5451923 27.4448872,32.5451923 C27.0880923,32.5451923 26.7989897,32.2558077 26.7989897,31.8990128" id="Fill-18" fill="#6038CD" mask="url(#mask-2)"></path>
                    <path d="M24.6253333,31.8990128 C24.6253333,31.5422179 24.9144359,31.2531154 25.2712308,31.2531154 C25.6280256,31.2531154 25.9174103,31.5422179 25.9174103,31.8990128 C25.9174103,32.2558077 25.6280256,32.5451923 25.2712308,32.5451923 C24.9144359,32.5451923 24.6253333,32.2558077 24.6253333,31.8990128" id="Fill-19" fill="#6038CD" mask="url(#mask-2)"></path>
                    <path d="M22.4517051,31.8990128 C22.4517051,31.5422179 22.7408077,31.2531154 23.0976026,31.2531154 C23.4543974,31.2531154 23.7437821,31.5422179 23.7437821,31.8990128 C23.7437821,32.2558077 23.4543974,32.5451923 23.0976026,32.5451923 C22.7408077,32.5451923 22.4517051,32.2558077 22.4517051,31.8990128" id="Fill-20" fill="#6038CD" mask="url(#mask-2)"></path>
                    <path d="M20.2779359,31.8990128 C20.2779359,31.5422179 20.5670385,31.2531154 20.9241154,31.2531154 C21.2806282,31.2531154 21.5700128,31.5422179 21.5700128,31.8990128 C21.5700128,32.2558077 21.2806282,32.5451923 20.9241154,32.5451923 C20.5670385,32.5451923 20.2779359,32.2558077 20.2779359,31.8990128" id="Fill-21" fill="#6038CD" mask="url(#mask-2)"></path>
                    <path d="M18.1042795,31.8990128 C18.1042795,31.5422179 18.3933821,31.2531154 18.750459,31.2531154 C19.1069718,31.2531154 19.3963564,31.5422179 19.3963564,31.8990128 C19.3963564,32.2558077 19.1069718,32.5451923 18.750459,32.5451923 C18.3933821,32.5451923 18.1042795,32.2558077 18.1042795,31.8990128" id="Fill-22" fill="#6038CD" mask="url(#mask-2)"></path>
                    <path d="M15.9306513,31.8990128 C15.9306513,31.5422179 16.2197538,31.2531154 16.5765487,31.2531154 C16.9333436,31.2531154 17.2227282,31.5422179 17.2227282,31.8990128 C17.2227282,32.2558077 16.9333436,32.5451923 16.5765487,32.5451923 C16.2197538,32.5451923 15.9306513,32.2558077 15.9306513,31.8990128" id="Fill-23" fill="#6038CD" mask="url(#mask-2)"></path>
                    <path d="M54.2164897,6.35010256 C53.8596949,6.35010256 53.5705923,6.061 53.5705923,5.70420513 C53.5705923,5.34741026 53.8596949,5.05802564 54.2164897,5.05802564 C54.5735667,5.05802564 54.8626692,5.34741026 54.8626692,5.70420513 C54.8626692,6.061 54.5735667,6.35010256 54.2164897,6.35010256" id="Fill-24" fill="#6038CD" mask="url(#mask-2)"></path>
                    <path d="M54.2164897,8.4568 C53.8596949,8.4568 53.5705923,8.16769744 53.5705923,7.81090256 C53.5705923,7.45410769 53.8596949,7.16472308 54.2164897,7.16472308 C54.5735667,7.16472308 54.8626692,7.45410769 54.8626692,7.81090256 C54.8626692,8.16769744 54.5735667,8.4568 54.2164897,8.4568" id="Fill-25" fill="#6038CD" mask="url(#mask-2)"></path>
                    <path d="M54.2164897,10.5635256 C53.8596949,10.5635256 53.5705923,10.2744231 53.5705923,9.91762821 C53.5705923,9.56083333 53.8596949,9.27144872 54.2164897,9.27144872 C54.5735667,9.27144872 54.8626692,9.56083333 54.8626692,9.91762821 C54.8626692,10.2744231 54.5735667,10.5635256 54.2164897,10.5635256" id="Fill-26" fill="#6038CD" mask="url(#mask-2)"></path>
                    <path d="M54.2164897,12.6702231 C53.8596949,12.6702231 53.5705923,12.3811205 53.5705923,12.0243256 C53.5705923,11.6675308 53.8596949,11.3781462 54.2164897,11.3781462 C54.5735667,11.3781462 54.8626692,11.6675308 54.8626692,12.0243256 C54.8626692,12.3811205 54.5735667,12.6702231 54.2164897,12.6702231" id="Fill-27" fill="#6038CD" mask="url(#mask-2)"></path>
                    <path d="M54.2164897,14.7769205 C53.8596949,14.7769205 53.5705923,14.4878179 53.5705923,14.1310231 C53.5705923,13.7742282 53.8596949,13.4848436 54.2164897,13.4848436 C54.5735667,13.4848436 54.8626692,13.7742282 54.8626692,14.1310231 C54.8626692,14.4878179 54.5735667,14.7769205 54.2164897,14.7769205" id="Fill-28" fill="#6038CD" mask="url(#mask-2)"></path>
                    <path d="M54.2164897,16.8836462 C53.8596949,16.8836462 53.5705923,16.5945436 53.5705923,16.2377487 C53.5705923,15.8809538 53.8596949,15.5915692 54.2164897,15.5915692 C54.5735667,15.5915692 54.8626692,15.8809538 54.8626692,16.2377487 C54.8626692,16.5945436 54.5735667,16.8836462 54.2164897,16.8836462" id="Fill-29" fill="#6038CD" mask="url(#mask-2)"></path>
                    <path d="M54.2164897,18.9903436 C53.8596949,18.9903436 53.5705923,18.701241 53.5705923,18.3444462 C53.5705923,17.9876513 53.8596949,17.6982667 54.2164897,17.6982667 C54.5735667,17.6982667 54.8626692,17.9876513 54.8626692,18.3444462 C54.8626692,18.701241 54.5735667,18.9903436 54.2164897,18.9903436" id="Fill-30" fill="#6038CD" mask="url(#mask-2)"></path>
                    <path d="M54.2164897,21.0970692 C53.8596949,21.0970692 53.5705923,20.8079667 53.5705923,20.4511718 C53.5705923,20.0943769 53.8596949,19.8049923 54.2164897,19.8049923 C54.5735667,19.8049923 54.8626692,20.0943769 54.8626692,20.4511718 C54.8626692,20.8079667 54.5735667,21.0970692 54.2164897,21.0970692" id="Fill-31" fill="#6038CD" mask="url(#mask-2)"></path>
                    <path d="M54.2164897,23.2037667 C53.8596949,23.2037667 53.5705923,22.9146641 53.5705923,22.5578692 C53.5705923,22.2010744 53.8596949,21.9116897 54.2164897,21.9116897 C54.5735667,21.9116897 54.8626692,22.2010744 54.8626692,22.5578692 C54.8626692,22.9146641 54.5735667,23.2037667 54.2164897,23.2037667" id="Fill-32" fill="#6038CD" mask="url(#mask-2)"></path>
                    <path d="M54.2164897,25.3104641 C53.8596949,25.3104641 53.5705923,25.0213615 53.5705923,24.6645667 C53.5705923,24.3077718 53.8596949,24.0183872 54.2164897,24.0183872 C54.5735667,24.0183872 54.8626692,24.3077718 54.8626692,24.6645667 C54.8626692,25.0213615 54.5735667,25.3104641 54.2164897,25.3104641" id="Fill-33" fill="#6038CD" mask="url(#mask-2)"></path>
                    <path d="M54.2164897,27.4171897 C53.8596949,27.4171897 53.5705923,27.1280872 53.5705923,26.7712923 C53.5705923,26.4144974 53.8596949,26.1251128 54.2164897,26.1251128 C54.5735667,26.1251128 54.8626692,26.4144974 54.8626692,26.7712923 C54.8626692,27.1280872 54.5735667,27.4171897 54.2164897,27.4171897" id="Fill-34" fill="#6038CD" mask="url(#mask-2)"></path>
                    <path d="M0.649479487,8.4568101 C0.292684615,8.45877436 0.00188974359,8.17108205 -9.47170089e-05,7.81428718 C-0.00205897436,7.45777436 0.285633333,7.16697949 0.642428205,7.16471565 C0.999223077,7.16303077 1.29001795,7.45072308 1.29199975,7.8072359 C1.29283846,7.98577436 1.22147949,8.14767179 1.10527436,8.26500513 C0.989069231,8.38262051 0.828017949,8.45595385 0.649479487,8.4568101" id="Fill-35" fill="#6038CD" mask="url(#mask-2)"></path>
                    <path d="M2.09016923,7.02520241 C1.73337436,7.02716667 1.44257949,6.73947436 1.44059503,6.38296154 C1.43863077,6.02616667 1.72632308,5.73537179 2.08311795,5.73338733 C2.43991282,5.73142308 2.73070769,6.01911538 2.73269215,6.37562821 C2.73465641,6.73242308 2.4469641,7.02321795 2.09016923,7.02520241" id="Fill-36" fill="#6038CD" mask="url(#mask-2)"></path>
                    <path d="M3.53085897,5.59373574 C3.1740641,5.5957 2.88326923,5.30800769 2.88128477,4.95121282 C2.87932051,4.59441795 3.16701282,4.30362308 3.52380769,4.30163862 C3.88060256,4.29967436 4.17139744,4.58736667 4.17308974,4.94416154 C4.17534615,5.30095641 3.88765385,5.59175128 3.53085897,5.59373574" id="Fill-37" fill="#6038CD" mask="url(#mask-2)"></path>
                    <path d="M4.97140769,4.16215626 C4.61461282,4.16412051 4.32381795,3.87642821 4.32183349,3.51963333 C4.31986923,3.16283846 4.60756154,2.87204359 4.96435641,2.8700618 C5.32115128,2.86837692 5.61194615,3.15578718 5.61393061,3.51258205 C5.61589487,3.86937692 5.32820256,4.16017179 4.97140769,4.16215626" id="Fill-38" fill="#6038CD" mask="url(#mask-2)"></path>
                    <path d="M6.41209744,2.73054856 C6.05530256,2.73251282 5.76450769,2.44482051 5.76252323,2.08802564 C5.76055897,1.73123077 6.04825128,1.4404359 6.40504615,1.4384541 C6.76184103,1.43676923 7.0526359,1.72417949 7.05462036,2.08097436 C7.05658462,2.43776923 6.76889231,2.7285641 6.41209744,2.73054856" id="Fill-39" fill="#6038CD" mask="url(#mask-2)"></path>
                    <path d="M0.646038462,10.5635256 C0.28924359,10.5635256 -0.000141025641,10.2744231 -0.000141025641,9.91762821 C-0.000141025641,9.56083333 0.28924359,9.27144872 0.646038462,9.27144872 C1.00283333,9.27144872 1.2919359,9.56083333 1.2919359,9.91762821 C1.2919359,10.2744231 1.00283333,10.5635256 0.646038462,10.5635256" id="Fill-40" fill="#6038CD" mask="url(#mask-2)"></path>
                    <path d="M0.646038462,12.6702231 C0.28924359,12.6702231 -0.000141025641,12.3811205 -0.000141025641,12.0243256 C-0.000141025641,11.6675308 0.28924359,11.3781462 0.646038462,11.3781462 C1.00283333,11.3781462 1.2919359,11.6675308 1.2919359,12.0243256 C1.2919359,12.3811205 1.00283333,12.6702231 0.646038462,12.6702231" id="Fill-41" fill="#6038CD" mask="url(#mask-2)"></path>
                    <path d="M0.646038462,14.7769205 C0.28924359,14.7769205 -0.000141025641,14.4878179 -0.000141025641,14.1310231 C-0.000141025641,13.7742282 0.28924359,13.4848436 0.646038462,13.4848436 C1.00283333,13.4848436 1.2919359,13.7742282 1.2919359,14.1310231 C1.2919359,14.4878179 1.00283333,14.7769205 0.646038462,14.7769205" id="Fill-42" fill="#6038CD" mask="url(#mask-2)"></path>
                    <path d="M0.646038462,16.8836462 C0.28924359,16.8836462 -0.000141025641,16.5945436 -0.000141025641,16.2377487 C-0.000141025641,15.8809538 0.28924359,15.5915692 0.646038462,15.5915692 C1.00283333,15.5915692 1.2919359,15.8809538 1.2919359,16.2377487 C1.2919359,16.5945436 1.00283333,16.8836462 0.646038462,16.8836462" id="Fill-43" fill="#6038CD" mask="url(#mask-2)"></path>
                    <path d="M0.646038462,18.9903436 C0.28924359,18.9903436 -0.000141025641,18.701241 -0.000141025641,18.3444462 C-0.000141025641,17.9876513 0.28924359,17.6982667 0.646038462,17.6982667 C1.00283333,17.6982667 1.2919359,17.9876513 1.2919359,18.3444462 C1.2919359,18.701241 1.00283333,18.9903436 0.646038462,18.9903436" id="Fill-44" fill="#6038CD" mask="url(#mask-2)"></path>
                    <path d="M0.646038462,21.0970692 C0.28924359,21.0970692 -0.000141025641,20.8079667 -0.000141025641,20.4511718 C-0.000141025641,20.0943769 0.28924359,19.8049923 0.646038462,19.8049923 C1.00283333,19.8049923 1.2919359,20.0943769 1.2919359,20.4511718 C1.2919359,20.8079667 1.00283333,21.0970692 0.646038462,21.0970692" id="Fill-45" fill="#6038CD" mask="url(#mask-2)"></path>
                    <path d="M0.646038462,23.2037667 C0.28924359,23.2037667 -0.000141025641,22.9146641 -0.000141025641,22.5578692 C-0.000141025641,22.2010744 0.28924359,21.9116897 0.646038462,21.9116897 C1.00283333,21.9116897 1.2919359,22.2010744 1.2919359,22.5578692 C1.2919359,22.9146641 1.00283333,23.2037667 0.646038462,23.2037667" id="Fill-46" fill="#6038CD" mask="url(#mask-2)"></path>
                    <path d="M0.646038462,25.3104641 C0.28924359,25.3104641 -0.000141025641,25.0213615 -0.000141025641,24.6645667 C-0.000141025641,24.3077718 0.28924359,24.0183872 0.646038462,24.0183872 C1.00283333,24.0183872 1.2919359,24.3077718 1.2919359,24.6645667 C1.2919359,25.0213615 1.00283333,25.3104641 0.646038462,25.3104641" id="Fill-47" fill="#6038CD" mask="url(#mask-2)"></path>
                    <path d="M0.646038462,27.4171897 C0.28924359,27.4171897 -0.000141025641,27.1280872 -0.000141025641,26.7712923 C-0.000141025641,26.4144974 0.28924359,26.1251128 0.646038462,26.1251128 C1.00283333,26.1251128 1.2919359,26.4144974 1.2919359,26.7712923 C1.2919359,27.1280872 1.00283333,27.4171897 0.646038462,27.4171897" id="Fill-48" fill="#6038CD" mask="url(#mask-2)"></path>
                    <path d="M13.7569949,31.8990128 C13.7569949,31.5422179 14.0460974,31.2531154 14.4028923,31.2531154 C14.7596872,31.2531154 15.0490718,31.5422179 15.0490718,31.8990128 C15.0490718,32.2558077 14.7596872,32.5451923 14.4028923,32.5451923 C14.0460974,32.5451923 13.7569949,32.2558077 13.7569949,31.8990128" id="Fill-49" fill="#6038CD" mask="url(#mask-2)"></path>
                    <path d="M11.5832256,31.8990128 C11.5832256,31.5422179 11.8723282,31.2531154 12.2294051,31.2531154 C12.5859179,31.2531154 12.8753026,31.5422179 12.8753026,31.8990128 C12.8753026,32.2558077 12.5859179,32.5451923 12.2294051,32.5451923 C11.8723282,32.5451923 11.5832256,32.2558077 11.5832256,31.8990128" id="Fill-50" fill="#6038CD" mask="url(#mask-2)"></path>
                    <path d="M9.40959744,31.8990128 C9.40959744,31.5422179 9.6987,31.2531154 10.0557769,31.2531154 C10.4122897,31.2531154 10.7016744,31.5422179 10.7016744,31.8990128 C10.7016744,32.2558077 10.4122897,32.5451923 10.0557769,32.5451923 C9.6987,32.5451923 9.40959744,32.2558077 9.40959744,31.8990128" id="Fill-51" fill="#6038CD" mask="url(#mask-2)"></path>
                    <path d="M7.23594103,31.8990128 C7.23594103,31.5422179 7.52504359,31.2531154 7.88183846,31.2531154 C8.23863333,31.2531154 8.52801795,31.5422179 8.52801795,31.8990128 C8.52801795,32.2558077 8.23863333,32.5451923 7.88183846,32.5451923 C7.52504359,32.5451923 7.23594103,32.2558077 7.23594103,31.8990128" id="Fill-52" fill="#6038CD" mask="url(#mask-2)"></path>
                    <path d="M5.06231282,31.8990128 C5.06231282,31.5422179 5.35141538,31.2531154 5.70821026,31.2531154 C6.06500513,31.2531154 6.35438974,31.5422179 6.35438974,31.8990128 C6.35438974,32.2558077 6.06500513,32.5451923 5.70821026,32.5451923 C5.35141538,32.5451923 5.06231282,32.2558077 5.06231282,31.8990128" id="Fill-53" fill="#6038CD" mask="url(#mask-2)"></path>
                    <path d="M48.5358077,0.646828205 C48.5358077,0.290033333 48.8249103,0.000648717949 49.1817051,0.000648717949 C49.5385,0.000648717949 49.8276026,0.290033333 49.8276026,0.646828205 C49.8276026,1.00362308 49.5385,1.29272564 49.1817051,1.29272564 C48.8249103,1.29272564 48.5358077,1.00362308 48.5358077,0.646828205" id="Fill-54" fill="#6038CD" mask="url(#mask-2)"></path>
                    <path d="M46.3620103,0.646828205 C46.3620103,0.290033333 46.6511128,0.000648717949 47.0079077,0.000648717949 C47.3649846,0.000648717949 47.6540872,0.290033333 47.6540872,0.646828205 C47.6540872,1.00362308 47.3649846,1.29272564 47.0079077,1.29272564 C46.6511128,1.29272564 46.3620103,1.00362308 46.3620103,0.646828205" id="Fill-55" fill="#6038CD" mask="url(#mask-2)"></path>
                    <path d="M44.188241,0.646828205 C44.188241,0.290033333 44.4773436,0.000648717949 44.8344205,0.000648717949 C45.1912154,0.000648717949 45.4803179,0.290033333 45.4803179,0.646828205 C45.4803179,1.00362308 45.1912154,1.29272564 44.8344205,1.29272564 C44.4773436,1.29272564 44.188241,1.00362308 44.188241,0.646828205" id="Fill-56" fill="#6038CD" mask="url(#mask-2)"></path>
                    <path d="M42.0147256,0.646828205 C42.0147256,0.290033333 42.3038282,0.000648717949 42.6606231,0.000648717949 C43.0174179,0.000648717949 43.3065205,0.290033333 43.3065205,0.646828205 C43.3065205,1.00362308 43.0174179,1.29272564 42.6606231,1.29272564 C42.3038282,1.29272564 42.0147256,1.00362308 42.0147256,0.646828205" id="Fill-57" fill="#6038CD" mask="url(#mask-2)"></path>
                    <path d="M39.8409564,0.646828205 C39.8409564,0.290033333 40.130059,0.000648717949 40.4868538,0.000648717949 C40.8439308,0.000648717949 41.1330333,0.290033333 41.1330333,0.646828205 C41.1330333,1.00362308 40.8439308,1.29272564 40.4868538,1.29272564 C40.130059,1.29272564 39.8409564,1.00362308 39.8409564,0.646828205" id="Fill-58" fill="#6038CD" mask="url(#mask-2)"></path>
                    <path d="M37.6674692,0.646828205 C37.6674692,0.290033333 37.9565718,0.000648717949 38.3133667,0.000648717949 C38.6701615,0.000648717949 38.9592641,0.290033333 38.9592641,0.646828205 C38.9592641,1.00362308 38.6701615,1.29272564 38.3133667,1.29272564 C37.9565718,1.29272564 37.6674692,1.00362308 37.6674692,0.646828205" id="Fill-59" fill="#6038CD" mask="url(#mask-2)"></path>
                    <path d="M35.4936718,0.646828205 C35.4936718,0.290033333 35.7827744,0.000648717949 36.1395692,0.000648717949 C36.4963641,0.000648717949 36.7854667,0.290033333 36.7854667,0.646828205 C36.7854667,1.00362308 36.4963641,1.29272564 36.1395692,1.29272564 C35.7827744,1.29272564 35.4936718,1.00362308 35.4936718,0.646828205" id="Fill-60" fill="#6038CD" mask="url(#mask-2)"></path>
                    <path d="M33.3199026,0.646828205 C33.3199026,0.290033333 33.6090051,0.000648717949 33.9660821,0.000648717949 C34.3228769,0.000648717949 34.6119795,0.290033333 34.6119795,0.646828205 C34.6119795,1.00362308 34.3228769,1.29272564 33.9660821,1.29272564 C33.6090051,1.29272564 33.3199026,1.00362308 33.3199026,0.646828205" id="Fill-61" fill="#6038CD" mask="url(#mask-2)"></path>
                    <path d="M31.1463872,0.646828205 C31.1463872,0.290033333 31.4354897,0.000648717949 31.7922846,0.000648717949 C32.1490795,0.000648717949 32.4381821,0.290033333 32.4381821,0.646828205 C32.4381821,1.00362308 32.1490795,1.29272564 31.7922846,1.29272564 C31.4354897,1.29272564 31.1463872,1.00362308 31.1463872,0.646828205" id="Fill-62" fill="#6038CD" mask="url(#mask-2)"></path>
                    <path d="M28.9726179,0.646828205 C28.9726179,0.290033333 29.2617205,0.000648717949 29.6185154,0.000648717949 C29.9755923,0.000648717949 30.2646949,0.290033333 30.2646949,0.646828205 C30.2646949,1.00362308 29.9755923,1.29272564 29.6185154,1.29272564 C29.2617205,1.29272564 28.9726179,1.00362308 28.9726179,0.646828205" id="Fill-63" fill="#6038CD" mask="url(#mask-2)"></path>
                    <path d="M26.7989897,0.646828205 C26.7989897,0.290033333 27.0880923,0.000648717949 27.4448872,0.000648717949 C27.8016821,0.000648717949 28.0910667,0.290033333 28.0910667,0.646828205 C28.0910667,1.00362308 27.8016821,1.29272564 27.4448872,1.29272564 C27.0880923,1.29272564 26.7989897,1.00362308 26.7989897,0.646828205" id="Fill-64" fill="#6038CD" mask="url(#mask-2)"></path>
                    <path d="M24.6253333,0.646828205 C24.6253333,0.290033333 24.9144359,0.000648717949 25.2712308,0.000648717949 C25.6280256,0.000648717949 25.9174103,0.290033333 25.9174103,0.646828205 C25.9174103,1.00362308 25.6280256,1.29272564 25.2712308,1.29272564 C24.9144359,1.29272564 24.6253333,1.00362308 24.6253333,0.646828205" id="Fill-65" fill="#6038CD" mask="url(#mask-2)"></path>
                    <path d="M22.4517051,0.646828205 C22.4517051,0.290033333 22.7408077,0.000648717949 23.0976026,0.000648717949 C23.4543974,0.000648717949 23.7437821,0.290033333 23.7437821,0.646828205 C23.7437821,1.00362308 23.4543974,1.29272564 23.0976026,1.29272564 C22.7408077,1.29272564 22.4517051,1.00362308 22.4517051,0.646828205" id="Fill-66" fill="#6038CD" mask="url(#mask-2)"></path>
                    <path d="M20.2779359,0.646828205 C20.2779359,0.290033333 20.5670385,0.000648717949 20.9241154,0.000648717949 C21.2806282,0.000648717949 21.5700128,0.290033333 21.5700128,0.646828205 C21.5700128,1.00362308 21.2806282,1.29272564 20.9241154,1.29272564 C20.5670385,1.29272564 20.2779359,1.00362308 20.2779359,0.646828205" id="Fill-67" fill="#6038CD" mask="url(#mask-2)"></path>
                    <path d="M18.1042795,0.646828205 C18.1042795,0.290033333 18.3933821,0.000648717949 18.750459,0.000648717949 C19.1069718,0.000648717949 19.3963564,0.290033333 19.3963564,0.646828205 C19.3963564,1.00362308 19.1069718,1.29272564 18.750459,1.29272564 C18.3933821,1.29272564 18.1042795,1.00362308 18.1042795,0.646828205" id="Fill-68" fill="#6038CD" mask="url(#mask-2)"></path>
                    <path d="M15.9306513,0.646828205 C15.9306513,0.290033333 16.2197538,0.000648717949 16.5765487,0.000648717949 C16.9333436,0.000648717949 17.2227282,0.290033333 17.2227282,0.646828205 C17.2227282,1.00362308 16.9333436,1.29272564 16.5765487,1.29272564 C16.2197538,1.29272564 15.9306513,1.00362308 15.9306513,0.646828205" id="Fill-69" fill="#6038CD" mask="url(#mask-2)"></path>
                    <path d="M13.7569949,0.646828205 C13.7569949,0.290033333 14.0460974,0.000648717949 14.4028923,0.000648717949 C14.7596872,0.000648717949 15.0490718,0.290033333 15.0490718,0.646828205 C15.0490718,1.00362308 14.7596872,1.29272564 14.4028923,1.29272564 C14.0460974,1.29272564 13.7569949,1.00362308 13.7569949,0.646828205" id="Fill-70" fill="#6038CD" mask="url(#mask-2)"></path>
                    <path d="M11.5832256,0.646828205 C11.5832256,0.290033333 11.8723282,0.000648717949 12.2294051,0.000648717949 C12.5859179,0.000648717949 12.8753026,0.290033333 12.8753026,0.646828205 C12.8753026,1.00362308 12.5859179,1.29272564 12.2294051,1.29272564 C11.8723282,1.29272564 11.5832256,1.00362308 11.5832256,0.646828205" id="Fill-71" fill="#6038CD" mask="url(#mask-2)"></path>
                    <path d="M9.40959744,0.646828205 C9.40959744,0.290033333 9.6987,0.000648717949 10.0557769,0.000648717949 C10.4122897,0.000648717949 10.7016744,0.290033333 10.7016744,0.646828205 C10.7016744,1.00362308 10.4122897,1.29272564 10.0557769,1.29272564 C9.6987,1.29272564 9.40959744,1.00362308 9.40959744,0.646828205" id="Fill-72" fill="#6038CD" mask="url(#mask-2)"></path>
                    <path d="M7.23594103,0.646828205 C7.23594103,0.290033333 7.52504359,0.000648717949 7.88183846,0.000648717949 C8.23863333,0.000648717949 8.52801795,0.290033333 8.52801795,0.646828205 C8.52801795,1.00362308 8.23863333,1.29272564 7.88183846,1.29272564 C7.52504359,1.29272564 7.23594103,1.00362308 7.23594103,0.646828205" id="Fill-73" fill="#6038CD" mask="url(#mask-2)"></path>
                    <path d="M50.7092949,31.8598923 C50.7092949,31.5030974 50.9983974,31.2137128 51.3554744,31.2137128 C51.7122692,31.2137128 52.0013718,31.5030974 52.0013718,31.8598923 C52.0013718,32.2166872 51.7122692,32.5057897 51.3554744,32.5057897 C50.9983974,32.5057897 50.7092949,32.2166872 50.7092949,31.8598923" id="Fill-74" fill="#6038CD" mask="url(#mask-2)"></path>
                    <path d="M52.6668718,30.8392615 C52.6668718,30.4824667 52.9559744,30.1930821 53.3127692,30.1930821 C53.6695641,30.1930821 53.9586667,30.4824667 53.9586667,30.8392615 C53.9586667,31.1960564 53.6695641,31.485159 53.3127692,31.485159 C52.9559744,31.485159 52.6668718,31.1960564 52.6668718,30.8392615" id="Fill-75" fill="#6038CD" mask="url(#mask-2)"></path>
                    <path d="M53.5455179,28.8779897 C53.5455179,28.5211949 53.8346205,28.2318103 54.1914154,28.2318103 C54.5484923,28.2318103 54.8375949,28.5211949 54.8375949,28.8779897 C54.8375949,29.2347846 54.5484923,29.5238872 54.1914154,29.5238872 C53.8346205,29.5238872 53.5455179,29.2347846 53.5455179,28.8779897" id="Fill-76" fill="#6038CD" mask="url(#mask-2)"></path>
                    <path d="M50.7092949,31.8598923 C50.7092949,31.5030974 50.9983974,31.2137128 51.3554744,31.2137128 C51.7122692,31.2137128 52.0013718,31.5030974 52.0013718,31.8598923 C52.0013718,32.2166872 51.7122692,32.5057897 51.3554744,32.5057897 C50.9983974,32.5057897 50.7092949,32.2166872 50.7092949,31.8598923" id="Fill-77" fill="#6038CD" mask="url(#mask-2)"></path>
                    <path d="M52.6668718,30.8392615 C52.6668718,30.4824667 52.9559744,30.1930821 53.3127692,30.1930821 C53.6695641,30.1930821 53.9586667,30.4824667 53.9586667,30.8392615 C53.9586667,31.1960564 53.6695641,31.485159 53.3127692,31.485159 C52.9559744,31.485159 52.6668718,31.1960564 52.6668718,30.8392615" id="Fill-78" fill="#6038CD" mask="url(#mask-2)"></path>
                    <path d="M53.5455179,28.8779897 C53.5455179,28.5211949 53.8346205,28.2318103 54.1914154,28.2318103 C54.5484923,28.2318103 54.8375949,28.5211949 54.8375949,28.8779897 C54.8375949,29.2347846 54.5484923,29.5238872 54.1914154,29.5238872 C53.8346205,29.5238872 53.5455179,29.2347846 53.5455179,28.8779897" id="Fill-79" fill="#6038CD" mask="url(#mask-2)"></path>
                    <path d="M50.7092949,0.646010256 C50.7092949,1.00280513 50.9983974,1.29218974 51.3554744,1.29218974 C51.7122692,1.29218974 52.0013718,1.00280513 52.0013718,0.646010256 C52.0013718,0.289215385 51.7122692,0.000112820513 51.3554744,0.000112820513 C50.9983974,0.000112820513 50.7092949,0.289215385 50.7092949,0.646010256" id="Fill-80" fill="#6038CD" mask="url(#mask-2)"></path>
                    <path d="M52.6668718,1.66664103 C52.6668718,2.0234359 52.9559744,2.31282051 53.3127692,2.31282051 C53.6695641,2.31282051 53.9586667,2.0234359 53.9586667,1.66664103 C53.9586667,1.30984615 53.6695641,1.02074359 53.3127692,1.02074359 C52.9559744,1.02074359 52.6668718,1.30984615 52.6668718,1.66664103" id="Fill-81" fill="#6038CD" mask="url(#mask-2)"></path>
                    <path d="M53.5455179,3.62791282 C53.5455179,3.98470769 53.8346205,4.27409231 54.1914154,4.27409231 C54.5484923,4.27409231 54.8375949,3.98470769 54.8375949,3.62791282 C54.8375949,3.27111795 54.5484923,2.98201538 54.1914154,2.98201538 C53.8346205,2.98201538 53.5455179,3.27111795 53.5455179,3.62791282" id="Fill-82" fill="#6038CD" mask="url(#mask-2)"></path>
                    <path d="M4.1371,31.8612744 C4.1371,31.5044795 3.84799744,31.2150949 3.49092051,31.2150949 C3.13440769,31.2150949 2.84502308,31.5044795 2.84502308,31.8612744 C2.84502308,32.2180692 3.13440769,32.5071718 3.49092051,32.5071718 C3.84799744,32.5071718 4.1371,32.2180692 4.1371,31.8612744" id="Fill-83" fill="#6038CD" mask="url(#mask-2)"></path>
                    <path d="M2.17955128,30.8406436 C2.17955128,30.4838487 1.89044872,30.1944641 1.53365385,30.1944641 C1.17685897,30.1944641 0.887474359,30.4838487 0.887474359,30.8406436 C0.887474359,31.1974385 1.17685897,31.4868231 1.53365385,31.4868231 C1.89044872,31.4868231 2.17955128,31.1974385 2.17955128,30.8406436" id="Fill-84" fill="#6038CD" mask="url(#mask-2)"></path>
                    <path d="M1.30087692,28.8793436 C1.30087692,28.5225487 1.01177436,28.2331641 0.654979487,28.2331641 C0.298184615,28.2331641 0.0088,28.5225487 0.0088,28.8793436 C0.0088,29.2361385 0.298184615,29.5255231 0.654979487,29.5255231 C1.01177436,29.5255231 1.30087692,29.2361385 1.30087692,28.8793436" id="Fill-85" fill="#6038CD" mask="url(#mask-2)"></path>
                </g>
            </g>
        </g>
    </g>
</svg>