<svg xmlns="http://www.w3.org/2000/svg" width="29" height="29" viewBox="0 0 29 29">
    <g fill="#FEFEFE" fill-rule="evenodd">
        <path d="M14.311.92c-3.577 0-6.94 1.393-9.47 3.922a13.305 13.305 0 0 0-3.92 9.47c0 3.576 1.392 6.939 3.92 9.468a13.305 13.305 0 0 0 9.47 3.923c3.577 0 6.94-1.393 9.47-3.923a13.305 13.305 0 0 0 3.922-9.469c0-3.577-1.393-6.94-3.922-9.47A13.305 13.305 0 0 0 14.31.92m0 27.703a14.218 14.218 0 0 1-10.12-4.192A14.22 14.22 0 0 1 0 14.311c0-3.823 1.489-7.417 4.191-10.12a14.22 14.22 0 0 1 10.12-4.19 14.22 14.22 0 0 1 10.12 4.19 14.218 14.218 0 0 1 4.192 10.12 14.22 14.22 0 0 1-4.192 10.12 14.218 14.218 0 0 1-10.12 4.192"/>
        <path d="M12.311 22.019h3.186V14.31h2.124l.281-2.656h-2.405l.003-1.33c0-.693.066-1.064 1.06-1.064h1.328V6.604h-2.126c-2.553 0-3.45 1.289-3.45 3.456v1.595H10.72v2.656h1.591v7.708z"/>
    </g>
</svg>
