<svg xmlns="http://www.w3.org/2000/svg" xmlns:xlink="http://www.w3.org/1999/xlink" width="29" height="31" viewBox="0 0 29 31">
    <defs>
        <path id="a" d="M0 .385h28.623v29.21H0z"/>
    </defs>
    <g fill="none" fill-rule="evenodd">
        <g transform="translate(0 .52)">
            <mask id="b" fill="#fff">
                <use xlink:href="#a"/>
            </mask>
            <path fill="#FEFEFE" d="M14.311 1.324c-3.577 0-6.94 1.421-9.47 4.002C2.313 7.907.92 11.34.92 14.99c0 3.65 1.392 7.082 3.922 9.663 2.53 2.581 5.892 4.003 9.47 4.003 3.576 0 6.94-1.422 9.468-4.003 2.53-2.581 3.923-6.013 3.923-9.663 0-3.65-1.393-7.083-3.923-9.664-2.529-2.58-5.892-4.002-9.469-4.002m0 28.27c-3.822 0-7.417-1.519-10.12-4.277C1.49 22.558 0 18.891 0 14.99S1.489 7.42 4.192 4.663C6.894 1.904 10.489.385 14.312.385c3.822 0 7.416 1.52 10.12 4.278 2.702 2.758 4.19 6.426 4.19 10.327 0 3.9-1.488 7.568-4.19 10.327-2.704 2.758-6.298 4.278-10.12 4.278" mask="url(#b)"/>
        </g>
        <path fill="#FEFEFE" d="M19.69 12.393a.579.579 0 0 1-.572.584H17.37a.579.579 0 0 1-.573-.584V10.61a.58.58 0 0 1 .573-.585h1.748a.58.58 0 0 1 .572.585v1.783zm-.572 8.61H9.505c-.38 0-.573-.196-.573-.583v-6.414l1.397.31-.043.144c-.115.383-.174.78-.174 1.183 0 2.292 1.888 4.158 4.209 4.158 2.321 0 4.21-1.866 4.21-4.158 0-.402-.06-.8-.174-1.183l-.044-.143 1.376-.312.001 6.415c0 .387-.192.584-.572.584zm-4.796-8.429c1.623 0 2.943 1.307 2.943 2.914 0 1.607-1.32 2.914-2.943 2.914-1.622 0-2.942-1.307-2.942-2.914 0-1.607 1.32-2.914 2.942-2.914zm5.233-4.056H9.068c-.92 0-1.613.708-1.613 1.646v10.702c0 .938.693 1.645 1.613 1.645h10.486c.92 0 1.613-.707 1.613-1.645V10.164c0-.45-.165-.867-.464-1.172a1.591 1.591 0 0 0-1.148-.474z"/>
    </g>
</svg>
