<?xml version="1.0" encoding="UTF-8"?>
<svg width="15px" height="28px" viewBox="0 0 15 28" version="1.1" xmlns="http://www.w3.org/2000/svg" xmlns:xlink="http://www.w3.org/1999/xlink">
    <title>Fill 1</title>
    <g id="Webpages" stroke="none" stroke-width="1" fill="none" fill-rule="evenodd">
        <g id="nu---Home---Desktop" transform="translate(-389.000000, -2316.000000)" fill="#25CE79">
            <g id="Group-57" transform="translate(43.000000, 1888.000000)">
                <g id="Group-15-Copy-2" transform="translate(342.000000, 426.000000)">
                    <path d="M1.3398082,8.806916 C2.67819105,10.0035178 4.27381734,10.3689601 5.86368938,10.7361004 C8.0613427,11.2436067 10.2952195,11.6075397 12.4109926,12.4325676 C14.385079,13.2022226 16.0860742,14.3273208 17.2771104,16.1266099 C17.9542257,17.1494521 18.3379684,18.2894547 18.6236058,19.4702087 C18.7172775,19.8570644 18.5550264,20.0122406 18.1805283,20.0595009 C16.5891469,20.2601452 15.0136133,20.1329856 13.4512863,19.8243312 C12.0329098,19.5440707 10.6508513,19.139292 9.36048342,18.4656669 C9.30926113,18.4388766 9.24737932,18.4324621 9.04777274,18.3766175 C9.38321744,18.9401571 9.78790185,19.2670175 10.2040004,19.5682197 C11.6512425,20.6157769 13.3179008,21.1046998 15.0491765,21.3962801 C17.2730541,21.7707783 19.4556143,21.5582482 21.5948761,20.8580216 C23.0675878,20.3759849 24.4332326,19.6851914 25.6899239,18.777057 C26.119795,18.4664216 26.2062974,18.4992491 26.3802457,18.988738 C26.6552236,19.7625437 26.3276084,20.6450198 25.5718202,21.0995116 C23.3293592,22.4479879 20.904743,23.2311325 18.2928777,23.4398892 C18.0945918,23.455737 17.8554601,23.5502577 17.7214143,23.6904351 C15.5882841,25.9219536 13.0059447,26.2352303 10.2232442,25.3425663 C7.06755476,24.3301949 4.74651515,22.2324392 3.03514345,19.4307779 C1.38235194,16.7251466 0.756741917,13.7848173 1.06558499,10.640542 C1.12359918,10.0500235 1.23972191,9.46516491 1.3398082,8.806916" id="Fill-1" transform="translate(13.732990, 17.306916) rotate(-300.000000) translate(-13.732990, -17.306916) "></path>
                </g>
            </g>
        </g>
    </g>
</svg>