<svg id="Padlock" xmlns="http://www.w3.org/2000/svg" xmlns:xlink="http://www.w3.org/1999/xlink" width="9.586" height="13" viewBox="0 0 9.586 13">
  <defs>
    <clipPath id="clip-path">
      <path id="Clip_2" data-name="Clip 2" d="M0,0H9.586V13H0Z" fill="none"/>
    </clipPath>
  </defs>
  <path id="Clip_2-2" data-name="Clip 2" d="M0,0H9.586V13H0Z" fill="none"/>
  <g id="Padlock-2" data-name="Padlock" clip-path="url(#clip-path)">
    <path id="Fill_1" data-name="Fill 1" d="M8.267,13H1.319A1.31,1.31,0,0,1,0,11.7V5.126a1.3,1.3,0,0,1,.808-1.2,4.018,4.018,0,0,1,1.2-2.779,3.955,3.955,0,0,1,5.574,0,4.015,4.015,0,0,1,1.2,2.779,1.3,1.3,0,0,1,.809,1.2V11.7A1.31,1.31,0,0,1,8.267,13ZM4.793,5.862A1.8,1.8,0,0,0,2.981,7.646a1.779,1.779,0,0,0,.957,1.573v1.422a.328.328,0,0,0,.329.325H5.319a.328.328,0,0,0,.329-.325V9.219a1.778,1.778,0,0,0,.958-1.573A1.8,1.8,0,0,0,4.793,5.862Zm0-4.482A2.619,2.619,0,0,0,2.215,3.827H7.371A2.618,2.618,0,0,0,4.793,1.38Z" fill="#ff4638"/>
  </g>
</svg>
