<?xml version="1.0" encoding="UTF-8"?>
<svg viewBox="0 0 52 31" version="1.1" xmlns="http://www.w3.org/2000/svg" xmlns:xlink="http://www.w3.org/1999/xlink">
    <title>Group 45</title>
    <defs>
        <polygon id="path-1" points="0 0.0541897233 29.8625692 0.0541897233 29.8625692 23.3525692 0 23.3525692"></polygon>
    </defs>
    <g id="Webpages" stroke="none" stroke-width="1" fill="none" fill-rule="evenodd">
        <g id="SE-Phone" transform="translate(-91.000000, -5835.000000)">
            <g id="Group-51" transform="translate(29.000000, 5835.000000)">
                <g id="Group-45" transform="translate(62.000000, 0.000000)">
                    <rect id="Rectangle-Copy" fill="#E9E9E9" x="0" y="0" width="52" height="31" rx="8"></rect>
                    <g id="mastercard" transform="translate(11.000000, 4.000000)">
                        <path d="M5.13865613,20.9740316 C5.05268775,20.8878261 4.95071146,20.82083 4.8326087,20.7729249 C4.71450593,20.7252569 4.58525692,20.7013043 4.44486166,20.7013043 C4.37039526,20.7013043 4.29320158,20.7078261 4.21304348,20.7205138 C4.13300395,20.7333202 4.05450593,20.7559684 3.97766798,20.7883399 C3.90083004,20.82083 3.82778656,20.8656522 3.7583004,20.9228063 C3.68893281,20.9799605 3.62869565,21.0521739 3.57747036,21.1390909 C3.49482213,21.0026087 3.38288538,20.8955336 3.24166008,20.817747 C3.10043478,20.7401976 2.93893281,20.7013043 2.75715415,20.7013043 C2.69608696,20.7013043 2.63288538,20.7068775 2.56754941,20.7180237 C2.50233202,20.7290514 2.43747036,20.7482609 2.373083,20.7756522 C2.30857708,20.8029249 2.24703557,20.8400395 2.1884585,20.8868775 C2.12976285,20.9339526 2.07652174,20.9932411 2.0286166,21.0648617 L2.0286166,20.765336 L1.51316206,20.765336 L1.51316206,23.2183399 L2.03347826,23.2183399 L2.03347826,21.8587352 C2.03347826,21.7546245 2.05007905,21.6618972 2.08316206,21.5809091 C2.11612648,21.4998024 2.16035573,21.4319763 2.21573123,21.3773123 C2.27098814,21.3226482 2.3358498,21.2813834 2.41019763,21.2530435 C2.48454545,21.2249407 2.56387352,21.2109486 2.64818182,21.2109486 C2.82320158,21.2109486 2.95920949,21.2664427 3.0558498,21.3773123 C3.15249012,21.4883004 3.20075099,21.6469565 3.20075099,21.8536364 L3.20075099,23.2183399 L3.72118577,23.2183399 L3.72118577,21.8587352 C3.72118577,21.7546245 3.73766798,21.6618972 3.77075099,21.5809091 C3.80383399,21.4998024 3.84794466,21.4319763 3.90332016,21.3773123 C3.95869565,21.3226482 4.02355731,21.2813834 4.09790514,21.2530435 C4.17225296,21.2249407 4.25158103,21.2109486 4.33577075,21.2109486 C4.51090909,21.2109486 4.64679842,21.2664427 4.74343874,21.3773123 C4.84007905,21.4883004 4.88833992,21.6469565 4.88833992,21.8536364 L4.88833992,23.2183399 L5.4087747,23.2183399 L5.4087747,21.6768379 C5.4087747,21.5334783 5.38529644,21.4020949 5.33822134,21.2825692 C5.29114625,21.1630435 5.22462451,21.0602372 5.13865613,20.9740316" id="Fill-1" fill="#1A1919"></path>
                        <path d="M7.8626087,22.3041107 C7.82679842,22.3998024 7.77640316,22.4825692 7.7115415,22.5525296 C7.64667984,22.6226087 7.56901186,22.6776285 7.47853755,22.7178261 C7.38806324,22.7579051 7.2873913,22.7779447 7.17640316,22.7779447 C7.06031621,22.7779447 6.95667984,22.7570751 6.86537549,22.7152174 C6.77395257,22.6734783 6.69675889,22.6170356 6.63355731,22.5461265 C6.57047431,22.4754545 6.52173913,22.3922134 6.48770751,22.2965217 C6.45343874,22.2009486 6.43636364,22.0994466 6.43636364,21.9918972 C6.43636364,21.8842292 6.45343874,21.7827273 6.48770751,21.6870356 C6.52173913,21.591581 6.57047431,21.5083399 6.63355731,21.4375494 C6.69675889,21.3666403 6.77395257,21.3103162 6.86537549,21.2684585 C6.95667984,21.2267194 7.06031621,21.2057312 7.17640316,21.2057312 C7.2873913,21.2057312 7.38806324,21.2258893 7.47853755,21.2659684 C7.56901186,21.3060474 7.64667984,21.3610672 7.7115415,21.4310277 C7.77640316,21.5011067 7.82679842,21.5838735 7.8626087,21.6794466 C7.89853755,21.7751383 7.91644269,21.8791304 7.91644269,21.9918972 C7.91644269,22.1045455 7.89853755,22.2086561 7.8626087,22.3041107 Z M7.88312253,21.0623715 C7.79774704,20.9531621 7.69197628,20.8656522 7.56557312,20.7999605 C7.43928854,20.7341502 7.28822134,20.7013043 7.11249012,20.7013043 C6.93996047,20.7013043 6.77952569,20.7333202 6.63106719,20.7973518 C6.48249012,20.8613834 6.3527668,20.9505534 6.24177866,21.0648617 C6.13090909,21.1792885 6.04375494,21.3155336 5.98067194,21.4733597 C5.91747036,21.6313043 5.88592885,21.8040711 5.88592885,21.9918972 C5.88592885,22.1797233 5.91747036,22.3524901 5.98067194,22.5103162 C6.04375494,22.6682609 6.13090909,22.8043874 6.24177866,22.9186957 C6.3527668,23.0331225 6.48249012,23.1222925 6.63106719,23.1863241 C6.77952569,23.2503557 6.93996047,23.2823715 7.11249012,23.2823715 C7.28822134,23.2823715 7.43928854,23.2498814 7.56557312,23.1850198 C7.69197628,23.1201581 7.79774704,23.0331225 7.88312253,22.923913 L7.88312253,23.2183399 L8.41826087,23.2183399 L8.41826087,20.765336 L7.88312253,20.765336 L7.88312253,21.0623715 L7.88312253,21.0623715 Z" id="Fill-2" fill="#1A1919"></path>
                        <path d="M10.8782609,21.9879842 C10.7280237,21.8710672 10.5188538,21.7930435 10.2508696,21.7536759 L9.99747036,21.7153755 C9.94102767,21.7067194 9.88814229,21.696996 9.83857708,21.6858498 C9.78913043,21.6748221 9.74644269,21.6598814 9.71063241,21.6410277 C9.67482213,21.6222925 9.64612648,21.5983399 9.62478261,21.5692885 C9.60343874,21.5403557 9.5927668,21.5044269 9.5927668,21.4618577 C9.5927668,21.3748221 9.63332016,21.3043874 9.71442688,21.2505534 C9.7955336,21.1968379 9.90948617,21.1699209 10.0562846,21.1699209 C10.1331225,21.1699209 10.2085375,21.1767984 10.2828854,21.1904348 C10.3571146,21.2040711 10.4275494,21.2211462 10.4941897,21.2416601 C10.5607115,21.2620553 10.6213043,21.2847036 10.6759684,21.3094862 C10.7305138,21.3342688 10.7766403,21.357747 10.8142292,21.3799209 L11.0446245,20.9625296 C10.9166798,20.8805929 10.7672727,20.816917 10.5965217,20.7717391 C10.4258893,20.7265613 10.2441107,20.7037945 10.0511858,20.7037945 C9.89407115,20.7037945 9.75332016,20.7222925 9.62869565,20.7589328 C9.50407115,20.7956917 9.39782609,20.8476285 9.3098419,20.9152174 C9.22197628,20.9825692 9.15450593,21.0648617 9.10754941,21.1622134 C9.06059289,21.2595652 9.0372332,21.3687747 9.0372332,21.4899605 C9.0372332,21.6879842 9.10754941,21.8480632 9.24841897,21.9700791 C9.38928854,22.0920949 9.59620553,22.1718972 9.86940711,22.2096047 L10.125415,22.2428063 C10.2722134,22.2633202 10.3797628,22.296166 10.4480632,22.3413439 C10.5163636,22.3866403 10.5505138,22.4441502 10.5505138,22.5142292 C10.5505138,22.6063636 10.5035573,22.6794071 10.4096443,22.7331225 C10.3157312,22.7868379 10.1766403,22.8137549 9.99225296,22.8137549 C9.89158103,22.8137549 9.80158103,22.806996 9.72213439,22.7932411 C9.64268775,22.7796047 9.57023715,22.7612253 9.50442688,22.7383399 C9.43873518,22.7152174 9.37992095,22.6887747 9.32786561,22.6588933 C9.2756917,22.6290119 9.22754941,22.596996 9.18320158,22.5628458 L8.93478261,22.9648221 C9.02347826,23.0313439 9.11656126,23.0851779 9.21391304,23.1262055 C9.31114625,23.1671146 9.40671937,23.1990119 9.50063241,23.222253 C9.59454545,23.2452569 9.68324111,23.2605534 9.76695652,23.2682609 C9.85055336,23.2759684 9.92395257,23.2797628 9.98715415,23.2797628 C10.163004,23.2797628 10.3204743,23.2601976 10.4595652,23.2209486 C10.5986561,23.1816996 10.7155731,23.1265613 10.8104348,23.0556522 C10.9050593,22.9849802 10.9776285,22.9004348 11.0280237,22.802253 C11.0783004,22.7041897 11.1035573,22.5960474 11.1035573,22.4783004 C11.1035573,22.268419 11.028498,22.1049012 10.8782609,21.9879842" id="Fill-3" fill="#1A1919"></path>
                        <path d="M14.3922925,21.7818972 C14.4059289,21.693083 14.4298814,21.6116206 14.4640316,21.5373913 C14.4980632,21.4631621 14.5420553,21.3991304 14.5957708,21.345415 C14.6497233,21.2914625 14.7136364,21.2501976 14.7878656,21.2211462 C14.8622134,21.1922134 14.946996,21.1776285 15.0425692,21.1776285 C15.2133202,21.1776285 15.3524111,21.2305138 15.4600791,21.3362846 C15.5676285,21.4421739 15.6358103,21.590751 15.6648617,21.7818972 L14.3922925,21.7818972 Z M15.8889723,21.0585771 C15.7873518,20.9450988 15.6652174,20.8571146 15.5228063,20.7947431 C15.3802767,20.7324901 15.2235178,20.7013043 15.0528854,20.7013043 C14.8719368,20.7013043 14.7067589,20.7324901 14.5574704,20.7947431 C14.4080632,20.8571146 14.2796443,20.9450988 14.1720949,21.0585771 C14.0645455,21.1720553 13.98083,21.3081818 13.9210672,21.4669565 C13.8614229,21.6257312 13.8315415,21.8006324 13.8315415,21.9918972 C13.8315415,22.1863636 13.862253,22.3631621 13.9236759,22.5218182 C13.9852174,22.6805929 14.0713043,22.8163636 14.1822925,22.9290119 C14.2932806,23.0416601 14.4254941,23.1288142 14.57917,23.1901186 C14.7328458,23.2516601 14.9018182,23.2823715 15.0862055,23.2823715 C15.272253,23.2823715 15.4494071,23.2567589 15.6175494,23.2055336 C15.7855731,23.1543083 15.9448221,23.0647826 16.0950593,22.9366008 L15.8287352,22.5552569 C15.7264032,22.6370751 15.6132806,22.700751 15.4894862,22.7459289 C15.3656917,22.7912253 15.2423715,22.8137549 15.1194071,22.8137549 C15.0323715,22.8137549 14.9487747,22.8018972 14.8686166,22.7779447 C14.7882213,22.7539921 14.7157708,22.716996 14.6509091,22.6664822 C14.5859289,22.6162055 14.5305534,22.5516996 14.4844269,22.4732016 C14.438419,22.3947036 14.4067589,22.2999605 14.3896838,22.1889723 L16.2024901,22.1889723 C16.2060474,22.1582609 16.2085375,22.1258893 16.2103162,22.0916206 C16.2118577,22.0574704 16.2128063,22.0234387 16.2128063,21.9892885 C16.2128063,21.7981423 16.1842292,21.6234783 16.1270751,21.4656522 C16.0698024,21.3077075 15.9904743,21.1720553 15.8889723,21.0585771 L15.8889723,21.0585771 Z" id="Fill-4" fill="#1A1919"></path>
                        <path d="M22.9784585,22.3041107 C22.9425296,22.3998024 22.8921344,22.4825692 22.8272727,22.5525296 C22.7624111,22.6226087 22.6847431,22.6776285 22.5942688,22.7178261 C22.5037945,22.7579051 22.4031225,22.7779447 22.2921344,22.7779447 C22.1760474,22.7779447 22.0722925,22.7570751 21.9811067,22.7152174 C21.8896838,22.6734783 21.8124901,22.6170356 21.7492885,22.5461265 C21.686087,22.4754545 21.6374704,22.3922134 21.6033202,22.2965217 C21.56917,22.2009486 21.5520949,22.0994466 21.5520949,21.9918972 C21.5520949,21.8842292 21.56917,21.7827273 21.6033202,21.6870356 C21.6374704,21.591581 21.686087,21.5083399 21.7492885,21.4375494 C21.8124901,21.3666403 21.8896838,21.3103162 21.9811067,21.2684585 C22.0722925,21.2267194 22.1760474,21.2057312 22.2921344,21.2057312 C22.4031225,21.2057312 22.5037945,21.2258893 22.5942688,21.2659684 C22.6847431,21.3060474 22.7624111,21.3610672 22.8272727,21.4310277 C22.8921344,21.5011067 22.9425296,21.5838735 22.9784585,21.6794466 C23.0142688,21.7751383 23.0321739,21.8791304 23.0321739,21.9918972 C23.0321739,22.1045455 23.0142688,22.2086561 22.9784585,22.3041107 Z M22.9988538,21.0623715 C22.9134783,20.9531621 22.8075889,20.8656522 22.6813043,20.7999605 C22.5550198,20.7341502 22.4039526,20.7013043 22.2282213,20.7013043 C22.0556917,20.7013043 21.8952569,20.7333202 21.7467984,20.7973518 C21.5982213,20.8613834 21.468498,20.9505534 21.3575099,21.0648617 C21.2465217,21.1792885 21.1594862,21.3155336 21.0964032,21.4733597 C21.0332016,21.6313043 21.0016601,21.8040711 21.0016601,21.9918972 C21.0016601,22.1797233 21.0332016,22.3524901 21.0964032,22.5103162 C21.1594862,22.6682609 21.2465217,22.8043874 21.3575099,22.9186957 C21.468498,23.0331225 21.5982213,23.1222925 21.7467984,23.1863241 C21.8952569,23.2503557 22.0556917,23.2823715 22.2282213,23.2823715 C22.4039526,23.2823715 22.5550198,23.2498814 22.6813043,23.1850198 C22.8075889,23.1201581 22.9134783,23.0331225 22.9988538,22.923913 L22.9988538,23.2183399 L23.5339921,23.2183399 L23.5339921,20.765336 L22.9988538,20.765336 L22.9988538,21.0623715 L22.9988538,21.0623715 Z" id="Fill-5" fill="#1A1919"></path>
                        <path d="M13.1729644,22.7292095 C13.0867589,22.7616996 13.0018577,22.7779447 12.9181423,22.7779447 C12.8634783,22.7779447 12.8127273,22.7694071 12.7657708,22.752332 C12.7188142,22.7352569 12.6779051,22.7084585 12.6429249,22.6716996 C12.6079447,22.6350593 12.5800791,22.5876285 12.5596838,22.5296443 C12.53917,22.4715415 12.5289723,22.401581 12.5289723,22.3195257 L12.5289723,21.2517391 L13.388419,21.2517391 L13.388419,20.765336 L12.5289723,20.765336 L12.5289723,20.0228063 L11.9912253,20.0228063 L11.9912253,20.765336 L11.5022134,20.765336 L11.5022134,21.2517391 L11.9912253,21.2517391 L11.9912253,22.3298419 C11.9912253,22.6558103 12.068419,22.896166 12.2229249,23.0505534 C12.3774308,23.2051779 12.593834,23.2823715 12.8720158,23.2823715 C13.0273518,23.2823715 13.166917,23.258419 13.2907115,23.2106324 C13.3725296,23.1790909 13.448419,23.1430435 13.5194466,23.1032016 L13.3364822,22.6549802 C13.284664,22.6827273 13.2303557,22.7076285 13.1729644,22.7292095" id="Fill-6" fill="#1A1919"></path>
                        <path d="M18.0045059,20.7013043 C17.8542688,20.7013043 17.718498,20.7285771 17.5973123,20.7832411 C17.4760079,20.8379051 17.3746245,20.9694071 17.2926877,21.0872727 L17.2926877,20.765336 L16.8067589,20.765336 L16.8067589,23.2183399 L17.2977866,23.2183399 L17.2977866,21.8689328 C17.2977866,21.7649407 17.3123715,21.6717391 17.3413043,21.5898024 C17.3703557,21.5079842 17.4104348,21.4388538 17.4616601,21.3824111 C17.5128854,21.326087 17.5743083,21.2833992 17.6460474,21.2544664 C17.7177866,21.225415 17.796166,21.2109486 17.8815415,21.2109486 C17.9464032,21.2109486 18.0163636,21.2185375 18.0915415,21.2339526 C18.1298419,21.2417787 18.1656522,21.251502 18.1990909,21.2627668 L18.3572727,20.750751 C18.3144664,20.7372332 18.2709486,20.7256126 18.2260079,20.7180237 C18.1601976,20.7068775 18.0864427,20.7013043 18.0045059,20.7013043" id="Fill-7" fill="#1A1919"></path>
                        <path d="M25.4437945,20.7013043 C25.2935573,20.7013043 25.1579051,20.7285771 25.0366008,20.7832411 C24.915415,20.8379051 24.8137945,20.9694071 24.7319763,21.0872727 L24.7319763,20.765336 L24.2460474,20.765336 L24.2460474,23.2183399 L24.7370751,23.2183399 L24.7370751,21.8689328 C24.7370751,21.7649407 24.7515415,21.6717391 24.7805929,21.5898024 C24.8095257,21.5079842 24.8497233,21.4388538 24.9009486,21.3824111 C24.9520553,21.326087 25.0135968,21.2833992 25.0852174,21.2544664 C25.1569565,21.225415 25.2354545,21.2109486 25.32083,21.2109486 C25.3858103,21.2109486 25.4556522,21.2185375 25.53083,21.2339526 C25.5690119,21.2417787 25.6048221,21.251502 25.6382609,21.2627668 L25.7965613,20.750751 C25.7536364,20.7372332 25.7101186,20.7256126 25.6652964,20.7180237 C25.5994862,20.7068775 25.5256126,20.7013043 25.4437945,20.7013043" id="Fill-8" fill="#1A1919"></path>
                        <path d="M27.9228854,22.3041107 C27.8869565,22.3998024 27.8365613,22.4825692 27.7718182,22.5525296 C27.7069565,22.6226087 27.62917,22.6776285 27.5388142,22.7178261 C27.4482213,22.7579051 27.3475494,22.7779447 27.2366798,22.7779447 C27.1204743,22.7779447 27.0168379,22.7570751 26.9255336,22.7152174 C26.8341107,22.6734783 26.756917,22.6170356 26.6937154,22.5461265 C26.6306324,22.4754545 26.5818972,22.3922134 26.5478656,22.2965217 C26.5135968,22.2009486 26.4966403,22.0994466 26.4966403,21.9918972 C26.4966403,21.8842292 26.5135968,21.7827273 26.5478656,21.6870356 C26.5818972,21.591581 26.6306324,21.5083399 26.6937154,21.4375494 C26.756917,21.3666403 26.8341107,21.3103162 26.9255336,21.2684585 C27.0168379,21.2267194 27.1204743,21.2057312 27.2366798,21.2057312 C27.3475494,21.2057312 27.4482213,21.2258893 27.5388142,21.2659684 C27.62917,21.3060474 27.7069565,21.3610672 27.7718182,21.4310277 C27.8365613,21.5011067 27.8869565,21.5838735 27.9228854,21.6794466 C27.9586957,21.7751383 27.9766008,21.8791304 27.9766008,21.9918972 C27.9766008,22.1045455 27.9586957,22.2086561 27.9228854,22.3041107 Z M27.9432806,19.7683399 L27.9432806,21.0623715 C27.8579051,20.9531621 27.7521344,20.8656522 27.6258498,20.7999605 C27.4995652,20.7341502 27.3483794,20.7013043 27.1726482,20.7013043 C27.0002372,20.7013043 26.8396838,20.7333202 26.6912253,20.7973518 C26.5426482,20.8613834 26.4130435,20.9505534 26.3020553,21.0648617 C26.1910672,21.1792885 26.103913,21.3155336 26.04083,21.4733597 C25.9776285,21.6313043 25.946087,21.8040711 25.946087,21.9918972 C25.946087,22.1797233 25.9776285,22.3524901 26.04083,22.5103162 C26.103913,22.6682609 26.1910672,22.8043874 26.3020553,22.9186957 C26.4130435,23.0331225 26.5426482,23.1222925 26.6912253,23.1863241 C26.8396838,23.2503557 27.0002372,23.2823715 27.1726482,23.2823715 C27.3483794,23.2823715 27.4995652,23.2498814 27.6258498,23.1850198 C27.7521344,23.1201581 27.8579051,23.0331225 27.9432806,22.923913 L27.9432806,23.2183399 L28.4785375,23.2183399 L28.4785375,19.7683399 L27.9432806,19.7683399 L27.9432806,19.7683399 Z" id="Fill-9" fill="#1A1919"></path>
                        <g id="Group-14">
                            <mask id="mask-2" fill="white">
                                <use xlink:href="#path-1"></use>
                            </mask>
                            <g id="Clip-11"></g>
                            <path d="M19.2852569,21.4246245 C19.3534387,21.3554941 19.4345455,21.3017787 19.5284585,21.2633597 C19.6223715,21.2249407 19.7239921,21.2057312 19.8332016,21.2057312 C19.9533202,21.2057312 20.0650198,21.2249407 20.168419,21.2633597 C20.2682609,21.3004743 20.3547036,21.3522925 20.4281028,21.4181028 L20.6857708,20.9896838 C20.5891304,20.9124901 20.4803953,20.8492885 20.3593281,20.7999605 C20.1980632,20.7341502 20.0225692,20.7013043 19.8332016,20.7013043 C19.6437154,20.7013043 19.4682213,20.7341502 19.3069565,20.7999605 C19.1456917,20.8656522 19.0066008,20.9560079 18.8895652,21.0713834 C18.7727668,21.1866403 18.6809881,21.3226482 18.6143478,21.4796443 C18.5478261,21.6368775 18.5143874,21.8075099 18.5143874,21.9918972 C18.5143874,22.176166 18.5478261,22.346917 18.6143478,22.503913 C18.6809881,22.6610277 18.7727668,22.7971542 18.8895652,22.9122925 C19.0066008,23.0275494 19.1456917,23.1181423 19.3069565,23.1837154 C19.4682213,23.2494071 19.6437154,23.2823715 19.8332016,23.2823715 C20.0225692,23.2823715 20.1980632,23.2494071 20.3593281,23.1837154 C20.4803953,23.1343874 20.5891304,23.0711858 20.6857708,22.9941107 L20.4281028,22.5655731 C20.3547036,22.6313834 20.2682609,22.6832016 20.168419,22.7203162 C20.0650198,22.7586166 19.9533202,22.7779447 19.8332016,22.7779447 C19.7239921,22.7779447 19.6223715,22.7586166 19.5284585,22.7203162 C19.4345455,22.6818972 19.3534387,22.6281818 19.2852569,22.5589328 C19.2169565,22.4899209 19.1631225,22.4071542 19.1238735,22.3106324 C19.0846245,22.2142292 19.0650593,22.1078656 19.0650593,21.9918972 C19.0650593,21.8756917 19.0846245,21.7695652 19.1238735,21.6730435 C19.1631225,21.5766403 19.2169565,21.4937549 19.2852569,21.4246245" id="Fill-10" fill="#1A1919" mask="url(#mask-2)"></path>
                            <path d="M29.7841646,23.2449143 L29.7841646,23.3261362 L29.8750947,23.3261362 C29.8939713,23.3261362 29.9082438,23.3230578 29.9183727,23.3173747 C29.9285017,23.3112179 29.9335661,23.3007988 29.9335661,23.2861173 C29.9335661,23.2719094 29.9285017,23.2614902 29.9183727,23.2548599 C29.9082438,23.2484663 29.8939713,23.2449143 29.8750947,23.2449143 L29.7841646,23.2449143 Z M29.8771665,23.1369342 C29.9363286,23.1369342 29.9814483,23.1506685 30.011835,23.1776636 C30.0424519,23.2046586 30.0578755,23.240652 30.0578755,23.2861173 C30.0578755,23.321637 30.0468258,23.3510001 30.0249565,23.3744431 C30.0028571,23.3978862 29.9710891,23.4132781 29.9291923,23.4206188 L30.0631702,23.5797474 L29.9183727,23.5797474 L29.7984372,23.425118 L29.7841646,23.425118 L29.7841646,23.5797474 L29.6633083,23.5797474 L29.6633083,23.1369342 L29.8771665,23.1369342 Z M29.8490818,23.7199321 C29.8974243,23.7199321 29.9430044,23.7104602 29.9853617,23.6915163 C30.0279492,23.6725724 30.0650118,23.6467614 30.0963193,23.61432 C30.1276269,23.5816418 30.1522586,23.5435172 30.1704446,23.4997095 C30.1884004,23.4559018 30.1973783,23.4087789 30.1973783,23.3585776 C30.1973783,23.3088499 30.1884004,23.261727 30.1704446,23.2176825 C30.1522586,23.1734012 30.1276269,23.1352766 30.0963193,23.103072 C30.0650118,23.0708674 30.0279492,23.0452932 29.9853617,23.0263493 C29.9430044,23.0074055 29.8974243,22.9979335 29.8490818,22.9979335 C29.7995882,22.9979335 29.7530873,23.0074055 29.7102696,23.0263493 C29.6672217,23.0452932 29.6299289,23.0708674 29.5983912,23.103072 C29.5666232,23.1352766 29.5415311,23.1734012 29.5235753,23.2176825 C29.5056195,23.261727 29.4966416,23.3088499 29.4966416,23.3585776 C29.4966416,23.4087789 29.5056195,23.4559018 29.5235753,23.4997095 C29.5415311,23.5435172 29.5666232,23.5816418 29.5983912,23.61432 C29.6299289,23.6467614 29.6672217,23.6725724 29.7102696,23.6915163 C29.7530873,23.7104602 29.7995882,23.7199321 29.8490818,23.7199321 Z M29.8490818,22.8589328 C29.9183727,22.8589328 29.9830597,22.8721935 30.0438332,22.8984782 C30.1043764,22.9249996 30.1570928,22.9605194 30.2022125,23.0057479 C30.2473322,23.0512132 30.2827834,23.1037824 30.3085661,23.1641661 C30.3348092,23.2247865 30.3474704,23.2894325 30.3474704,23.3585776 C30.3474704,23.4267756 30.3348092,23.4911848 30.3085661,23.552042 C30.2827834,23.6128992 30.2473322,23.665942 30.2022125,23.7116441 C30.1570928,23.7571095 30.1043764,23.7933396 30.0438332,23.8193875 C29.9830597,23.8456721 29.9183727,23.8589328 29.8490818,23.8589328 C29.7786398,23.8589328 29.7125716,23.8456721 29.6513378,23.8193875 C29.5898737,23.7933396 29.5369271,23.7571095 29.4918074,23.7116441 C29.4466877,23.665942 29.4114667,23.6128992 29.3859142,23.552042 C29.3601315,23.4911848 29.3474704,23.4267756 29.3474704,23.3585776 C29.3474704,23.2894325 29.3601315,23.2247865 29.3859142,23.1641661 C29.4114667,23.1037824 29.4466877,23.0512132 29.4918074,23.0057479 C29.5369271,22.9605194 29.5898737,22.9249996 29.6513378,22.8984782 C29.7125716,22.8721935 29.7786398,22.8589328 29.8490818,22.8589328 L29.8490818,22.8589328 Z" id="Fill-12" fill="#1A1919" mask="url(#mask-2)"></path>
                            <path d="M11.4686561,9.29893281 C11.4686561,6.36011858 12.8415415,3.74359684 14.9790119,2.05031621 C13.4028854,0.801818182 11.4117391,0.0541897233 9.24474308,0.0541897233 C4.13905138,0.0541897233 0,4.19324111 0,9.29893281 C0,14.4046245 4.13905138,18.5437945 9.24474308,18.5437945 C11.4117391,18.5437945 13.4028854,17.796166 14.9790119,16.5475494 C12.8415415,14.8541502 11.4686561,12.237747 11.4686561,9.29893281" id="Fill-13" fill="#D9262C" mask="url(#mask-2)"></path>
                        </g>
                        <path d="M11.4686561,9.29893281 C11.4686561,12.237747 12.8415415,14.8541502 14.9790119,16.5475494 C17.1166008,14.8541502 18.4894862,12.237747 18.4894862,9.29893281 C18.4894862,6.36011858 17.1166008,3.74359684 14.9790119,2.05031621 C12.8415415,3.74359684 11.4686561,6.36011858 11.4686561,9.29893281" id="Fill-15" fill="#E26229"></path>
                        <g id="Group-19" transform="translate(14.940711, 0.000000)" fill="#ED982F">
                            <path d="M15.1762713,14.9543874 L15.1762713,14.2605729 L15.0753623,14.8588547 L14.9639773,14.8588547 L14.8630684,14.2622911 L14.8630684,14.9543874 L14.7581539,14.9543874 L14.7581539,13.9543874 L14.90867,13.9543874 L15.020055,14.5949372 L15.1306697,13.9543874 L15.2811858,13.9543874 L15.2811858,14.9543874 L15.1762713,14.9543874 Z M14.4233827,14.9543874 L14.4233827,14.1698513 L14.2811858,14.1698513 L14.2811858,13.9543874 L14.670494,13.9543874 L14.670494,14.1698513 L14.5284512,14.1698513 L14.5284512,14.9543874 L14.4233827,14.9543874 L14.4233827,14.9543874 Z" id="Fill-16"></path>
                            <path d="M5.77268775,0.0541897233 C3.6056917,0.0541897233 1.61454545,0.801818182 0.0383003953,2.05031621 C2.17588933,3.74359684 3.5487747,6.36011858 3.5487747,9.29893281 C3.5487747,12.237747 2.17588933,14.8541502 0.0383003953,16.5475494 C1.61454545,17.796166 3.6056917,18.5437945 5.77268775,18.5437945 C10.8783794,18.5437945 15.0174308,14.4046245 15.0174308,9.29893281 C15.0174308,4.19324111 10.8783794,0.0541897233 5.77268775,0.0541897233" id="Fill-18"></path>
                        </g>
                    </g>
                </g>
            </g>
        </g>
    </g>
</svg>