<svg xmlns="http://www.w3.org/2000/svg" width="42.778" height="56.61" viewBox="0 0 42.778 56.61">
  <g id="Group_13" data-name="Group 13" transform="translate(0 0)">
    <path id="Fill_1" data-name="Fill 1" d="M39.634,56.61H3.144A3.147,3.147,0,0,1,0,53.466V3.144A3.147,3.147,0,0,1,3.144,0H39.634a3.147,3.147,0,0,1,3.144,3.144V53.466A3.147,3.147,0,0,1,39.634,56.61ZM3.144,1.28A1.866,1.866,0,0,0,1.28,3.144V53.466A1.866,1.866,0,0,0,3.144,55.33H39.634A1.866,1.866,0,0,0,41.5,53.466V3.144A1.866,1.866,0,0,0,39.634,1.28Z" transform="translate(0 0)" fill="#fff"/>
    <path id="Fill_3" data-name="Fill 3" d="M11.284,22.581a11.252,11.252,0,0,1-7.978-3.307A11.339,11.339,0,0,1,.1,12.823,12.533,12.533,0,0,1,1.809,4.855,8.3,8.3,0,0,1,4.855,1.809,12.988,12.988,0,0,1,11.3,0,11.293,11.293,0,0,1,22.478,9.759a12.532,12.532,0,0,1-1.706,7.968,8.3,8.3,0,0,1-3.046,3.046A12.987,12.987,0,0,1,11.284,22.581ZM11.3,1.28A11.705,11.705,0,0,0,5.494,2.918,7.031,7.031,0,0,0,2.918,5.494,11.265,11.265,0,0,0,1.371,12.65,9.995,9.995,0,0,0,11.281,21.3a11.715,11.715,0,0,0,5.806-1.638,7.031,7.031,0,0,0,2.576-2.576A11.265,11.265,0,0,0,21.21,9.931,10,10,0,0,0,11.3,1.28Z" transform="translate(10.098 24.795)" fill="#fff"/>
    <path id="Fill_5" data-name="Fill 5" d="M21.247,1.28H.64A.64.64,0,0,1,.64,0H21.247a.64.64,0,0,1,0,1.28" transform="translate(10.445 35.446)" fill="#fff"/>
    <path id="Fill_7" data-name="Fill 7" d="M.64,20.628a.64.64,0,0,1-.64-.64V.64a.64.64,0,0,1,1.28,0V19.988a.64.64,0,0,1-.64.64" transform="translate(17.074 25.662)" fill="#fff"/>
    <path id="Fill_9" data-name="Fill 9" d="M.64,20.628a.64.64,0,0,1-.64-.64V.64a.64.64,0,0,1,1.28,0V19.988a.64.64,0,0,1-.64.64" transform="translate(24.45 25.662)" fill="#fff"/>
    <path id="Fill_11" data-name="Fill 11" d="M23.024,1.28H.64A.64.64,0,0,1,.64,0H23.024a.64.64,0,1,1,0,1.28" transform="translate(9.57 12.242)" fill="#fff"/>
  </g>
</svg>
