<?xml version="1.0" encoding="UTF-8"?>
<svg viewBox="0 0 52 31" version="1.1" xmlns="http://www.w3.org/2000/svg" xmlns:xlink="http://www.w3.org/1999/xlink">
    <title>Group 47</title>
    <defs>
        <polygon id="path-1" points="0 0.0196299766 16.0647536 0.0196299766 16.0647536 4.64094379 0 4.64094379"></polygon>
        <polygon id="path-3" points="0.0334977034 0.0215752896 13.7797387 0.0215752896 13.7797387 6.28571429 0.0334977034 6.28571429"></polygon>
    </defs>
    <g id="Webpages" stroke="none" stroke-width="1" fill="none" fill-rule="evenodd">
        <g id="SE-Phone" transform="translate(-153.000000, -5835.000000)">
            <g id="Group-51" transform="translate(29.000000, 5835.000000)">
                <g id="Group-47" transform="translate(124.000000, 0.000000)">
                    <rect id="Rectangle-Copy-2" fill="#E9E9E9" x="0" y="0" width="52" height="31" rx="8"></rect>
                    <g id="paypalstacked" transform="translate(14.000000, 4.000000)">
                        <g id="Group-4" transform="translate(0.500852, 16.500000)">
                            <mask id="mask-2" fill="white">
                                <use xlink:href="#path-1"></use>
                            </mask>
                            <g id="Clip-2"></g>
                            <path d="M14.7892568,1.57766276 C14.697268,2.17483138 14.2360733,2.17483138 13.7899626,2.17483138 L13.5361141,2.17483138 L13.7141519,1.05986417 C13.7249374,0.992473068 13.7837102,0.942857143 13.8527214,0.942857143 L13.9690165,0.942857143 C14.2727282,0.942857143 14.5595583,0.942857143 14.7074282,1.11388525 C14.7959,1.21628571 14.8227073,1.36799297 14.7892568,1.57766276 Z M14.5951189,0.0196299766 L12.9126689,0.0196299766 C12.7976243,0.0196299766 12.6996956,0.102400468 12.6817981,0.214770492 L12.0014558,4.48065808 C11.9880131,4.56481967 12.0538199,4.64094379 12.1399471,4.64094379 L13.0031728,4.64094379 C13.0836728,4.64094379 13.1522932,4.58298126 13.1647981,4.50438407 L13.3577636,3.29497658 C13.3756612,3.18260656 13.4735898,3.09983607 13.5886345,3.09983607 L14.1210286,3.09983607 C15.2291932,3.09983607 15.8687383,2.56951756 16.0359126,1.51838642 C16.1111762,1.05870492 16.0389607,0.697482436 15.8212981,0.444611241 C15.5819864,0.166622951 15.1579155,0.0196299766 14.5951189,0.0196299766 L14.5951189,0.0196299766 Z" id="Fill-1" fill="#238EC2" mask="url(#mask-2)"></path>
                            <path d="M2.78959854,1.57766276 C2.69760971,2.17483138 2.23633689,2.17483138 1.79030437,2.17483138 L1.53645583,2.17483138 L1.71449369,1.05986417 C1.72527913,0.992473068 1.78397379,0.942857143 1.85298495,0.942857143 L1.96935825,0.942857143 C2.27299175,0.942857143 2.5599,0.942857143 2.7077699,1.11388525 C2.79624175,1.21628571 2.82304903,1.36799297 2.78959854,1.57766276 Z M2.59538252,0.0196299766 L0.912932524,0.0196299766 C0.797966019,0.0196299766 0.699959223,0.102400468 0.68206165,0.214770492 L0.00171941748,4.48065808 C-0.0116451456,4.56481967 0.0540834951,4.64094379 0.140288835,4.64094379 L0.943569417,4.64094379 C1.05861408,4.64094379 1.15654272,4.5581733 1.17444029,4.44580328 L1.35802718,3.29497658 C1.37600291,3.18260656 1.47393155,3.09983607 1.58897621,3.09983607 L2.12129223,3.09983607 C3.22953495,3.09983607 3.8690801,2.56951756 4.03625437,1.51838642 C4.11143981,1.05870492 4.03930243,0.697482436 3.82156165,0.444611241 C3.58232816,0.166622951 3.15825728,0.0196299766 2.59538252,0.0196299766 L2.59538252,0.0196299766 Z" id="Fill-3" fill="#253667" mask="url(#mask-2)"></path>
                        </g>
                        <path d="M6.9418638,18.8667268 C6.86632393,19.3094674 6.51175676,19.6066825 6.05942765,19.6066825 C5.8327322,19.6066825 5.65123932,19.5343707 5.53451656,19.3974894 C5.41885562,19.2618108 5.37532159,19.0685534 5.41202972,18.8532717 C5.48241225,18.414515 5.84266766,18.1077536 6.28809504,18.1077536 C6.51008821,18.1077536 6.6903676,18.1806667 6.80936565,18.3188259 C6.92912214,18.4579622 6.97614495,18.6525726 6.9418638,18.8667268 Z M8.031352,17.3586274 L7.24963568,17.3586274 C7.18259026,17.3586274 7.12555614,17.4068854 7.11516561,17.4725072 L7.08080862,17.689142 L7.02612564,17.6106664 C6.85684352,17.3670463 6.47952338,17.2857143 6.10273415,17.2857143 C5.23903128,17.2857143 4.5012282,17.9344158 4.3575811,18.8441763 C4.28287551,19.298117 4.3889802,19.7318375 4.64859163,20.034615 C4.88719447,20.3127372 5.2276548,20.4285714 5.63326447,20.4285714 C6.3294296,20.4285714 6.71554756,19.9853046 6.71554756,19.9853046 L6.68065967,20.2006615 C6.66761463,20.2825196 6.73147464,20.3566355 6.81512974,20.3566355 L7.51910673,20.3566355 C7.63074799,20.3566355 7.72577957,20.2762055 7.74314767,20.166911 L8.16582207,17.5144511 C8.17886711,17.4325929 8.1150071,17.3586274 8.031352,17.3586274 L8.031352,17.3586274 Z" id="Fill-5" fill="#253667"></path>
                        <path d="M19.2085302,18.8667268 C19.1330662,19.3094674 18.7784231,19.6066825 18.3261698,19.6066825 C18.0993984,19.6066825 17.9179055,19.5343707 17.8011827,19.3974894 C17.6855218,19.2618108 17.6419877,19.0685534 17.6786959,18.8532717 C17.7490784,18.414515 18.1094097,18.1077536 18.5548372,18.1077536 C18.7768304,18.1077536 18.957034,18.1806667 19.076032,18.3188259 C19.1957885,18.4579622 19.2428114,18.6525726 19.2085302,18.8667268 Z M20.2980944,17.3586274 L19.5163021,17.3586274 C19.4493325,17.3586274 19.3922984,17.4068854 19.3819079,17.4725072 L19.3474751,17.689142 L19.2928679,17.6106664 C19.1235099,17.3670463 18.7461897,17.2857143 18.3694004,17.2857143 C17.5056974,17.2857143 16.7678942,17.9344158 16.6242471,18.8441763 C16.5495415,19.298117 16.6556462,19.7318375 16.9153335,20.034615 C17.1538605,20.3127372 17.4943209,20.4285714 17.8999307,20.4285714 C18.5960959,20.4285714 18.9822898,19.9853046 18.9822898,19.9853046 L18.947326,20.2006615 C18.934281,20.2825196 18.998141,20.3566355 19.0817961,20.3566355 L19.7858491,20.3566355 C19.8974145,20.3566355 19.9924461,20.2762055 20.0098901,20.166911 L20.4324887,17.5144511 C20.4455337,17.4325929 20.3816737,17.3586274 20.2980944,17.3586274 L20.2980944,17.3586274 Z" id="Fill-6" fill="#238EC2"></path>
                        <g id="Group-10" transform="translate(8.934185, 15.714286)">
                            <mask id="mask-4" fill="white">
                                <use xlink:href="#path-3"></use>
                            </mask>
                            <g id="Clip-8"></g>
                            <path d="M3.86479769,1.71302703 L3.03831329,1.71302703 C2.95926243,1.71302703 2.88531676,1.75481853 2.84096532,1.8243861 L1.70090983,3.61233205 L1.21775029,1.89420849 C1.18751792,1.78675676 1.09458728,1.71302703 0.989212717,1.71302703 L0.17676763,1.71302703 C0.0786520231,1.71302703 0.00965202312,1.81580695 0.0412404624,1.91467954 L0.951322543,4.75905019 L0.0953236994,6.0451583 C0.0281583815,6.1460695 0.0959618497,6.28571429 0.212105202,6.28571429 L1.03779191,6.28571429 C1.11604509,6.28571429 1.1893526,6.24485714 1.23386358,6.17639382 L3.98245665,1.95230888 C4.04818613,1.8512278 3.98030289,1.71302703 3.86479769,1.71302703" id="Fill-7" fill="#253667" mask="url(#mask-4)"></path>
                            <path d="M12.7019827,0.15034749 L11.9972254,4.9247722 C11.983585,5.01727413 12.0507503,5.10085714 12.1386555,5.10085714 L12.8474012,5.10085714 C12.9648208,5.10085714 13.0647711,5.00988417 13.0830382,4.88637838 L13.7779838,0.197830116 C13.791704,0.105243243 13.7245387,0.0215752896 13.6365538,0.0215752896 L12.8434127,0.0215752896 C12.7728971,0.0215752896 12.712911,0.0761930502 12.7019827,0.15034749" id="Fill-9" fill="#238EC2" mask="url(#mask-4)"></path>
                        </g>
                        <path d="M16.9976694,3.59316148 C17.1632181,2.49299431 16.9965298,1.74439921 16.4255807,1.06635607 C15.7969669,0.319819719 14.6613746,0 13.2084363,0 L8.99093441,0 C8.69394971,0 8.44110624,0.225196158 8.39483771,0.530921321 L6.63868486,12.1375503 C6.60404045,12.3665472 6.77384367,12.5736105 6.9962973,12.5736105 L9.59994679,12.5736105 L9.42026687,13.7613539 C9.389953,13.9616867 9.53848334,14.1428571 9.73313027,14.1428571 L11.9277325,14.1428571 C12.1874897,14.1428571 12.4086517,13.9458501 12.4491462,13.6784495 L12.470647,13.562209 L12.8841008,10.8298448 L12.9107679,10.678843 C12.9511863,10.4114423 13.1723484,10.2144353 13.4321055,10.2144353 L13.7604678,10.2144353 C15.8865409,10.2144353 17.5512963,9.31412575 18.0377617,6.71059211 C18.2409937,5.62261911 18.1359209,4.71454966 17.5984006,4.07617715 C17.4358149,3.88305006 17.2335706,3.72341734 16.9976694,3.59316148" id="Fill-11" fill="#238EC2"></path>
                        <path d="M17.304919,3.59253795 C17.4753757,2.4925617 17.3037456,1.7440965 16.7158694,1.06617102 C16.0686188,0.31976422 14.8993592,0 13.4033453,0 L9.06080572,0 C8.75501621,0 8.49467662,0.225157079 8.44703635,0.530829189 L6.63881827,12.135444 C6.60314674,12.3644012 6.77798418,12.5714286 7.00703296,12.5714286 L9.68787369,12.5714286 L10.3613303,8.2497427 L10.3404437,8.38520113 C10.3880839,8.07960818 10.6462332,7.85445111 10.9519445,7.85445111 L12.2261065,7.85445111 C14.7285114,7.85445111 16.6879423,6.82556876 17.260486,3.84991687 C17.2774613,3.7618016 17.2919333,3.67645725 17.304919,3.59253795" id="Fill-12" fill="#20274F"></path>
                        <path d="M11.084774,3.60718424 C11.1134051,3.42327429 11.2299634,3.27277373 11.386965,3.196613 C11.4583081,3.16201608 11.5380215,3.14277797 11.6216462,3.14277797 L15.0256177,3.14277797 C15.4288781,3.14277797 15.8048372,3.16945798 16.1486451,3.22550974 C16.2468983,3.24150191 16.3424917,3.25994832 16.4353472,3.28076981 C16.5282027,3.30167047 16.6183202,3.3249462 16.7056216,3.35083451 C16.7492723,3.36365992 16.7921407,3.37719784 16.8343833,3.39136912 C17.0031191,3.44813341 17.1602772,3.51503134 17.304919,3.59253795 C17.4753757,2.4925617 17.3037456,1.7440965 16.7158694,1.06617102 C16.0686188,0.31976422 14.8993592,0 13.4033453,0 L9.06080572,0 C8.75501621,0 8.49467662,0.225157079 8.44703635,0.530829189 L6.63881827,12.135444 C6.60314674,12.3644012 6.77798418,12.5714286 7.00703296,12.5714286 L9.68787369,12.5714286 L11.084774,3.60718424" id="Fill-13" fill="#253667"></path>
                    </g>
                </g>
            </g>
        </g>
    </g>
</svg>