<svg xmlns="http://www.w3.org/2000/svg" width="34" height="42" viewBox="0 0 34 42">
    <g fill="#F9423A" fill-rule="evenodd">
        <path d="M2 0v20H0v16h2v6h30v-6h2V20h-2V9.587L22.416 0H2zm2 2h17v9h9v9H4V2zm19 1.415L28.587 9H23V3.415zM2 34h30V22H2v12zm2 6h26V36H4v4z"/>
        <path d="M10.462 27.875c.253-.21.38-.508.38-.895 0-.393-.127-.695-.38-.905-.253-.21-.624-.314-1.11-.314h-1.32v2.429h1.32c.486 0 .857-.105 1.11-.315m.595-3.125c.457.207.808.5 1.055.881.246.38.37.829.37 1.349 0 .514-.124.962-.37 1.345a2.35 2.35 0 0 1-1.055.88c-.457.204-.995.306-1.615.306h-1.41v1.929h-1.62v-7h3.03c.62 0 1.158.104 1.615.31M17.132 30.11c.7 0 1.258-.195 1.675-.585.416-.39.625-.918.625-1.585 0-.667-.209-1.195-.625-1.585-.417-.39-.975-.585-1.675-.585h-1.48v4.34h1.48zm-3.1-5.67h3.18c.76 0 1.431.145 2.015.435.583.29 1.036.7 1.36 1.225.323.527.485 1.14.485 1.84 0 .7-.162 1.314-.485 1.84a3.27 3.27 0 0 1-1.36 1.226c-.584.29-1.255.434-2.015.434h-3.18v-7zM24.312 25.74v1.851h3.24v1.3h-3.24v2.55h-1.62v-7h5.29v1.3z"/>
    </g>
</svg>
