<?xml version="1.0" encoding="UTF-8"?>
<svg width="26px" height="26px" viewBox="0 0 26 26" version="1.1" xmlns="http://www.w3.org/2000/svg" xmlns:xlink="http://www.w3.org/1999/xlink">
    <title>Icon / Time / White</title>
    <g id="Symbols" stroke="none" stroke-width="1" fill="none" fill-rule="evenodd">
        <g id="More-Reasons-/-Desktop" transform="translate(-286.5, -30.5)" stroke="#FFFFFF">
            <g id="Icon-/-Time-/-White" transform="translate(287, 31)">
                <path d="M4.46549881,2.92375338 C6.63817016,1.0990584 9.44069353,0 12.5,0 C14.9540194,0 17.2427998,0.707257073 19.1738865,1.92896326" id="Stroke-1" stroke-linecap="round" stroke-linejoin="round"></path>
                <path d="M20.4412074,22.1538293 C18.2819673,23.9320454 15.5156728,25 12.5000177,25 C5.59638715,25 0,19.4036208 0,12.5 C0,9.53489276 1.03225747,6.81101639 2.75728147,4.66786133" id="Stroke-3" stroke-linecap="round" stroke-linejoin="round"></path>
                <path d="M19.1738688,1.92889256 C19.5835201,2.16835617 20.0514909,2.48116102 20.536781,2.88657025 C21.0514075,3.31636765 21.4614122,3.7465185 21.7802262,4.12577229 C22.5836233,5.02247954 23.7505461,6.57377953 24.4376574,8.78179299 C24.8031271,9.95631336 25,11.2052353 25,12.500106 C25,13.7940931 24.8033038,15.0421315 24.4383643,16.2161216 C23.8297194,18.1738912 22.8552514,19.5875217 22.1485235,20.4476467" id="Stroke-5" stroke-linecap="round" stroke-linejoin="round"></path>
                <path d="M2.76072763,12.5000353 C2.7442921,11.9140122 2.70117092,8.06227114 5.78769321,5.24013516 C6.29401365,4.77711329 8.58297081,2.78877013 12.0708382,2.81563247 C14.8233481,2.83683958 15.9819647,3.63528721 16.6588259,4.1257016" id="Stroke-7" stroke-width="0.5445" stroke-linecap="round" stroke-linejoin="round"></path>
                <path d="M3.97778764,12.0355997 C3.99599044,11.4896933 4.14903529,8.51433601 6.62426181,6.27080064 C7.08604726,5.8523137 9.04929811,4.17129689 12.0154699,4.19038328 C14.0868772,4.20381445 14.824002,4.57370177 15.4635739,4.97946445" id="Stroke-9" stroke-width="0.5445" stroke-linecap="round" stroke-linejoin="round"></path>
                <path d="M21.4612885,12.5000353 C21.4612885,17.4492443 17.4490746,21.4614525 12.5000353,21.4614525" id="Stroke-11" stroke-width="0.5445" stroke-linecap="round" stroke-linejoin="round"></path>
                <path d="M19.2355286,7.7020684 C18.6846732,7.20971003 17.8390385,7.2572493 17.3466795,7.80810394 L11.8165646,13.8599058 L9.12396491,11.4534292 C8.57310949,10.9612475 7.72747484,11.0086101 7.23511577,11.5594647 C6.7427567,12.1103194 6.79029604,12.9559528 7.34097474,13.4483112 L10.8267214,16.5636355 C10.900593,16.6295542 10.979943,16.6850462 11.0628276,16.7318785 C11.6138597,17.2139868 12.4515417,17.1641501 12.9407197,16.6170067 L19.3415643,9.59091487 C19.8337466,9.04006023 19.786384,8.19442677 19.2355286,7.7020684 Z" id="Stroke-13" stroke-width="0.5445" fill="#FFFFFF"></path>
            </g>
        </g>
    </g>
</svg>
