<?xml version="1.0" encoding="UTF-8"?>
<svg width="52px" height="34px" viewBox="0 0 52 34" version="1.1" xmlns="http://www.w3.org/2000/svg" xmlns:xlink="http://www.w3.org/1999/xlink">
    <title>Group 17</title>
    <g id="Webpages" stroke="none" stroke-width="1" fill="none" fill-rule="evenodd" stroke-linecap="round" stroke-linejoin="round">
        <g id="eSIM-SIM-only" transform="translate(-536.000000, -1214.000000)" stroke-width="0.9828">
            <g id="Group-12" transform="translate(42.000000, 743.000000)">
                <g id="Group-17" transform="translate(495.000000, 471.000000)">
                    <path d="M20.1215032,19.0336419 C18.7944775,20.5157043 17.906272,20.9724606 17.4731029,21.1380624 C17.3942332,21.1682835 17.3318254,21.1862196 17.2721203,21.2044014 C16.4932513,21.4437132 15.5269132,21.2164407 14.9008696,20.5754094 C14.2188064,19.8773757 14.2244575,18.9790965 14.228143,18.8216028 C14.2539415,17.749368 15.0146287,16.9790985 14.9121718,16.9024401 C14.798167,16.8171822 14.1581185,17.9953137 13.213402,18.0272547 C12.6952207,18.0446994 12.2765479,17.7107931 11.746573,17.2879434 C11.2384654,16.8827841 10.8261808,16.5540375 10.6767952,16.0415073 C10.3586137,14.9498622 11.451733,13.7727135 11.3057872,13.6700109 C11.1736006,13.5771363 10.5603334,14.7432285 9.60701742,14.7950712 C8.93699352,14.8314348 8.39547072,14.3048997 8.13994272,14.0557599 C8.08269462,13.999986 7.34829732,13.2646059 7.21463652,12.2009706 C6.97704462,10.3098177 8.76918042,8.407854 10.5895717,7.7909013 C11.0507506,7.6346361 12.4652455,7.1562582 13.3581193,7.9125228 C13.9883398,8.4466746 14.0185609,9.3154698 14.0306002,9.6663294 C14.090551,11.3926176 12.5731078,12.35871 12.5372356,12.3786117 C12.5357614,12.3793488 12.5340415,12.3803316 12.5335501,12.3798402 C12.5136484,12.3680466 12.9052942,11.6705043 14.1959563,11.0230848 C14.4446047,10.8985149 15.6939892,10.5284907 16.5124159,11.1999888 C17.1917764,11.7574821 17.2180663,12.7348767 17.1848968,12.9537954 C16.9119241,14.7589533 16.0183132,15.395562 15.9937432,15.3761517 C15.970156,15.3572328 16.4055364,14.6705013 17.8025866,14.255514 C17.9664685,14.2068654 18.6563941,14.1112881 19.2143788,14.5424916 C19.9937392,15.1447023 19.8291202,16.2768879 19.8210121,16.3265193" id="Stroke-1" stroke="#6038CD"></path>
                    <path d="M24.4979116,13.7113622 C23.0409106,13.8074309 22.3183069,15.7015322 22.4708866,16.9430543 C22.4979136,17.1624644 22.6121641,18.0904733 23.3077408,18.4405958 C23.9718679,18.7745021 24.7337836,18.3649202 25.1060191,18.1649204 C25.4571244,17.9759771 26.999629,17.1469853 26.8389412,15.7030064 C26.7101944,14.5455137 25.5590899,13.6413377 24.4979116,13.7113622 Z" id="Stroke-3" stroke="#FF4638"></path>
                    <path d="M2.15505927,14.7997395 C2.70542727,17.997525 4.79510577,19.9233216 6.54006717,19.7582112 C7.93392327,19.6262703 9.40320927,18.1464192 9.21844287,17.0626365 C9.07446267,16.2169371 8.02163817,16.1985096 6.36168897,14.9636214 C3.90395187,13.1353677 3.77127387,11.3594481 2.76464097,11.4216102 C1.53638667,11.4977772 0.28429947,14.2385607 0.22017177,16.8564942 C0.13687947,20.2476456 2.41844967,21.6515754 1.55383137,24.0373224 C1.04424957,25.4439549 0.10346427,25.4461662 0.00764127,26.3886714 C-0.24592113,28.8835092 5.86562067,33.552792 11.1670896,32.5631124 C14.0218779,32.0299434 17.3754372,29.5862112 23.177397,22.7410092" id="Stroke-5" stroke="#6038CD"></path>
                    <path d="M28.3319373,18.638458 C28.9009785,19.2907915 29.5022064,19.921012 30.162648,20.4807166 C31.4039244,21.5330497 31.8980271,21.6038113 32.1368475,21.6170791 C32.9503602,21.6625336 33.8341431,21.2097085 34.287951,20.4372277 C34.7822994,19.5957052 34.5614151,18.7251901 34.5198918,18.5731018 C34.2373368,17.5384591 33.3137505,16.9733491 33.3948315,16.874332 C33.4852491,16.7640127 34.3896708,17.7541837 35.3139942,17.5583608 C35.8213647,17.4509899 36.1479,17.0259289 36.560676,16.488583 C36.9567444,15.9731044 37.2778743,15.554923 37.2999873,15.021754 C37.3466703,13.8856372 36.0026913,13.0052941 36.1198902,12.8706505 C36.2260326,12.7485376 37.101216,13.7333032 38.0390529,13.5546793 C38.7103053,13.4269153 39.1103049,12.7728619 39.2857347,12.4849015 C39.9348741,11.4185635 39.7002306,10.2618079 39.6668154,10.1094739 C39.2528109,8.21512692 37.091388,7.12274472 35.4036747,6.99154092 C34.8781224,6.95075472 33.4211214,6.83822412 32.7452007,7.77434112 C32.2616631,8.44387362 32.4410241,9.29473272 32.5135056,9.63846702 C32.8695249,11.3283916 34.5746829,11.9018554 34.6142406,11.9124205 C34.6159605,11.9129119 34.6176804,11.9134033 34.6181718,11.9129119 C34.6346337,11.8966957 34.0869684,11.3134039 32.678616,10.9952224 C32.4073632,10.9337974 31.1056446,10.8745837 30.4724757,11.7229858 C29.9469234,12.427162 30.1560141,13.3821979 30.2407806,13.586866 C30.93906,15.2735965 31.9594521,15.6770359 31.9786167,15.6522202 C31.9970442,15.6283873 31.4093298,15.06598 29.953803,14.9989039 C29.7830415,14.9907958 29.0901675,15.0637687 28.6520844,15.616348 C28.4277603,15.8991487 28.3565073,16.1104507 28.3798488,16.2898117 C28.4508561,16.8328087 29.0216172,17.1264202 29.0503641,17.1394423" id="Stroke-7" stroke="#6038CD"></path>
                    <path d="M45.2740825,11.7701357 C45.5077432,15.0062504 43.9416514,17.3777468 42.2079922,17.6364688 C40.8377233,17.8408912 39.1023442,16.7974033 38.9605753,15.6627608 C38.8205263,14.5413859 40.344112,14.1865951 42.0023413,11.6386862 C43.2389494,9.73819665 43.1480404,8.77308705 43.8713812,8.63746065 C45.0674488,8.41264515 46.9490194,10.7531834 47.646316,13.3020752 C48.5414011,16.5740621 46.663516,18.484871 48.0755539,20.5932227 C48.9084769,21.8362189 49.8219895,21.6123863 50.1413995,22.504523 C50.9863618,24.8654542 46.1748187,30.865694 40.7907946,31.1777329 C37.6878493,31.3575854 33.5281483,28.3492345 25.2087463,22.3327787 C25.1885989,22.3182823 24.8271742,22.0362188 24.3384769,21.6492412 C23.8276666,21.2445733 23.3075197,20.8359742 22.8350386,20.3964169 C21.9507643,19.5740591 21.2333203,18.642856 21.0546964,17.4239384 C21.0006424,17.0548969 21.0077677,16.2878216 21.5045731,15.3396653" id="Stroke-9" stroke="#6038CD"></path>
                    <line x1="22.9729746" y1="-7.371e-05" x2="22.9769058" y2="8.10163809" id="Stroke-11" stroke="#FF4638"></line>
                    <line x1="30.5437287" y1="4.08144555" x2="26.3073693" y2="7.76006595" id="Stroke-13" stroke="#FF4638"></line>
                    <line x1="14.4995678" y1="3.32346105" x2="19.6123391" y2="7.73279325" id="Stroke-15" stroke="#FF4638"></line>
                </g>
            </g>
        </g>
    </g>
</svg>