<?xml version="1.0" encoding="UTF-8"?>
<svg width="32px" height="44px" viewBox="0 0 32 44" version="1.1" xmlns="http://www.w3.org/2000/svg" xmlns:xlink="http://www.w3.org/1999/xlink">
    <title>Group 9</title>
    <g id="Webpages" stroke="none" stroke-width="1" fill="none" fill-rule="evenodd">
        <g id="eSIM-SIM-only" transform="translate(-546.000000, -1071.000000)">
            <g id="Group-12" transform="translate(42.000000, 743.000000)">
                <g id="Group-9" transform="translate(505.000000, 329.000000)">
                    <path d="M0.057132,31.34565 C0.126792,21.68262 0.196182,12.01959 0.265572,2.35683 C0.252612,2.20509 0.202932,1.43667 0.763722,0.76356 C1.276992,0.14742 1.956312,0.02538 2.124522,0 C7.235352,0.05454 12.346182,0.10908 17.456742,0.16335 C18.508932,1.28169 19.560852,2.40003 20.612772,3.51864 L25.572672,9.09873" id="Stroke-1" stroke="#6038CD" stroke-width="1.08" stroke-linecap="round" stroke-linejoin="round"></path>
                    <path d="M27.417177,10.787688 C28.280097,11.794518 29.143287,12.801348 30.006207,13.808178 C30.116907,22.228128 30.227607,30.647808 30.338037,39.067758 C30.356397,39.226248 30.447117,40.153428 29.774007,40.959648 C29.076597,41.794758 28.102707,41.849838 27.948267,41.855778 C19.672227,41.877918 11.396187,41.900058 3.120147,41.922198 C2.972997,41.948388 1.864107,42.124428 0.929637,41.324958 C0.001377,40.530618 -0.001863,39.418218 0.000121429646,39.267018 C0.009477,37.968048 0.018927,36.669078 0.028107,35.370378" id="Stroke-3" stroke="#6038CD" stroke-width="1.08" stroke-linecap="round" stroke-linejoin="round"></path>
                    <path d="M23.050656,16.948386 C22.313286,16.200486 21.057246,16.335216 20.340936,17.103636 L15.579756,22.208526 C15.280866,22.529286 14.768136,22.553046 14.440896,22.261446 L12.604626,20.625786 C11.944206,20.037456 10.966806,20.013966 10.355256,20.519946 C10.105506,20.658456 9.501786,21.068856 9.291726,21.883986 C9.044946,22.842216 9.834156,23.790726 10.025046,24.033456 C10.025316,24.033996 10.025856,24.034806 10.026126,24.035076 C10.106316,24.114456 10.186236,24.193836 10.266426,24.272946 C10.320696,24.325596 11.250306,24.968736 11.475756,24.997896 C11.593206,25.013556 10.909296,24.481386 10.974366,24.464376 C11.029176,24.440886 11.119626,24.393366 11.200356,24.300216 C11.247876,24.245406 11.278116,24.190866 11.297016,24.148476 C11.297286,24.148476 11.297286,24.148206 11.297286,24.148206 C11.321856,24.074496 11.345346,23.965956 11.316726,23.847696 C11.256516,23.597946 11.015946,23.512626 10.812906,23.348466 C10.479186,23.078196 10.220256,22.572216 10.300176,22.143726 C10.381176,21.708486 10.792116,21.457926 10.934946,21.379356 C11.223846,21.146616 11.634786,21.154986 11.912076,21.402846 L13.748076,23.038776 C14.493276,23.702706 15.659946,23.648436 16.340616,22.918626 L21.215466,17.691426 C21.483846,17.402256 21.935556,17.370936 22.242006,17.617986 C22.405356,17.749746 22.504446,17.937126 22.521186,18.145836 C22.537926,18.354816 22.470156,18.556236 22.329756,18.712026 L15.631866,26.157006 C15.493356,26.311446 15.302736,26.400006 15.095376,26.407026 C14.892606,26.414586 14.692536,26.338716 14.498136,26.154306 C13.929786,25.728246 12.890556,24.943896 12.322476,24.517836 C12.296016,24.491376 11.254086,23.457816 10.950336,23.508576 C10.804266,23.533146 10.703286,23.609016 10.653606,23.652756 C10.582596,23.756436 10.482156,23.938686 10.521306,24.135786 C10.569906,24.380136 10.809936,24.513246 10.931976,24.592896 C11.514366,24.974406 13.497786,26.673516 13.820436,26.942436 C13.974606,27.070686 14.149026,27.225666 14.419566,27.327726 C14.729796,27.444636 15.050286,27.448416 15.067836,27.448416 C15.089166,27.448416 15.109956,27.448416 15.130746,27.447336 C15.623226,27.430596 16.075746,27.219726 16.405686,26.853606 L23.103576,19.408086 C23.436756,19.036836 23.598216,18.559476 23.558526,18.062406 C23.524236,17.636346 23.346036,17.247816 23.050656,16.948386" id="Fill-5" fill="#5D38CB"></path>
                    <path d="M24.088401,21.088161 C24.113781,21.166191 24.154281,21.294981 24.196401,21.455631 C24.196401,21.455631 24.405651,22.360401 24.405651,23.359131 C24.405651,28.333881 20.219301,32.366871 15.055011,32.366871 C9.890991,32.366871 5.704641,28.333881 5.704641,23.359131 C5.704641,17.888121 10.910511,14.469111 15.055011,14.351121 C16.994961,14.296041 18.566631,14.967801 19.521081,15.492951" id="Stroke-7" stroke="#FF4638" stroke-width="1.08" stroke-linecap="round" stroke-linejoin="round"></path>
                </g>
            </g>
        </g>
    </g>
</svg>