<?xml version="1.0" encoding="UTF-8"?>
<svg width="46px" height="38px" viewBox="0 0 46 38" version="1.1" xmlns="http://www.w3.org/2000/svg" xmlns:xlink="http://www.w3.org/1999/xlink">
    <title>Group 17</title>
    <g id="Webpages" stroke="none" stroke-width="1" fill="none" fill-rule="evenodd">
        <g id="eSIM-SIM-only" transform="translate(-540.000000, -1142.000000)">
            <g id="Group-12" transform="translate(42.000000, 743.000000)">
                <g id="Group-17" transform="translate(499.000000, 400.000000)">
                    <path d="M-5.20291971e-05,21.9389174 L-5.20291971e-05,8.75393842 C-5.20291971e-05,3.91912528 2.88054447,2.60145985e-05 6.43413863,2.60145985e-05 L37.1878166,2.60145985e-05 C40.7411506,2.60145985e-05 43.6220072,3.91912528 43.6220072,8.75393842" id="Stroke-1" stroke="#6038CD" stroke-width="1.04058394" stroke-linecap="round" stroke-linejoin="round"></path>
                    <path d="M43.6219292,14.022623 L43.6219292,26.8205048 C43.6219292,31.6553179 40.7413327,35.5746773 37.1877385,35.5746773 L6.43406058,35.5746773 C2.88072657,35.5746773 -0.000130072993,31.6553179 -0.000130072993,26.8205048" id="Stroke-3" stroke="#6038CD" stroke-width="1.04058394" stroke-linecap="round" stroke-linejoin="round"></path>
                    <path d="M6.26327474,12.3196034 L6.26327474,8.14243927 C6.26327474,7.96397912 6.40791591,7.81933796 6.58637606,7.81933796 L8.27108146,7.81933796 C8.44928146,7.81933796 8.59392263,7.96397912 8.59392263,8.14243927 L8.59392263,8.14868277 C8.59392263,8.44004628 8.94329869,8.57636277 9.15089518,8.37188803 C9.67274803,7.85705912 10.396214,7.57584131 11.2726458,7.57584131 C13.1685898,7.57584131 14.3863331,8.93250263 14.3863331,11.0373438 L14.3863331,16.1934372 C14.3863331,16.3718974 14.241692,16.5162784 14.0632318,16.5162784 L12.0655708,16.5162784 C11.8871107,16.5162784 11.7424695,16.3718974 11.7424695,16.1934372 L11.7424695,11.2459809 C11.7424695,10.3240235 11.1857571,9.73271168 10.3509486,9.73271168 C9.48128058,9.73271168 8.90713839,10.3937426 8.88970861,11.4025888 L8.90609781,16.1921365 C8.9066181,16.3711169 8.76171679,16.5162784 8.5829965,16.5162784 L6.58637606,16.5162784 C6.40791591,16.5162784 6.26327474,16.3718974 6.26327474,16.1934372 L6.26327474,13.9101359" id="Stroke-5" stroke="#6038CD" stroke-width="1.04058394" stroke-linecap="round" stroke-linejoin="round"></path>
                    <path d="M14.3862291,23.255022 L14.3862291,27.432186 C14.3862291,27.6106462 14.2415879,27.7550272 14.0631278,27.7550272 L12.3784224,27.7550272 C12.2002224,27.7550272 12.0555812,27.6106462 12.0555812,27.432186 L12.0555812,27.4259425 C12.0555812,27.134579 11.7062051,26.9980024 11.4988688,27.2027373 C10.9767558,27.717306 10.25355,27.9985239 9.37685799,27.9985239 C7.48091404,27.9985239 6.26317069,26.6421227 6.26317069,24.5372815 L6.26317069,19.3811881 C6.26317069,19.2027279 6.408072,19.0580868 6.586272,19.0580868 L8.58419317,19.0580868 C8.76239317,19.0580868 8.90703434,19.2027279 8.90703434,19.3811881 L8.90703434,24.3286444 C8.90703434,25.2503417 9.46374674,25.8419136 10.2988154,25.8419136 C11.1684834,25.8419136 11.7423654,25.1808827 11.7597952,24.1720366 L11.743406,19.3822287 C11.7428857,19.2035084 11.887787,19.0580868 12.0665073,19.0580868 L14.0631278,19.0580868 C14.2415879,19.0580868 14.3862291,19.2027279 14.3862291,19.3811881 L14.3862291,21.6644894" id="Stroke-7" stroke="#6038CD" stroke-width="1.04058394" stroke-linecap="round" stroke-linejoin="round"></path>
                    <path d="M34.4254825,27.4451673 L22.8599122,27.4451673 C20.7199514,27.4451673 18.9847776,25.7102538 18.9847776,23.5700327 L18.9847776,12.0044625 C18.9847776,9.86424149 20.7199514,8.12932791 22.8599122,8.12932791 L34.4254825,8.12932791 C36.5657035,8.12932791 38.3006171,9.86424149 38.3006171,12.0044625 L38.3006171,23.5700327 C38.3006171,25.7102538 36.5657035,27.4451673 34.4254825,27.4451673 Z" id="Stroke-9" stroke="#FF4638" stroke-width="1.04058394" stroke-linecap="round" stroke-linejoin="round"></path>
                    <path d="M33.0396328,24.9314807 L24.245918,24.9314807 C22.7284865,24.9314807 21.4985163,23.7012504 21.4985163,22.184079 L21.4985163,13.3903642 C21.4985163,11.8731928 22.7284865,10.6432226 24.245918,10.6432226 L33.0396328,10.6432226 C34.5570643,10.6432226 35.7870345,11.8731928 35.7870345,13.3903642 L35.7870345,22.184079 C35.7870345,23.7012504 34.5570643,24.9314807 33.0396328,24.9314807 Z" id="Stroke-11" stroke="#FF4638" stroke-width="1.04058394" stroke-linecap="round" stroke-linejoin="round"></path>
                    <path d="M30.8887458,22.2097294 L26.396805,22.2097294 C25.1946704,22.2097294 24.2204237,21.2352225 24.2204237,20.0330879 L24.2204237,15.5414073 C24.2204237,14.3392727 25.1946704,13.3647659 26.396805,13.3647659 L30.8887458,13.3647659 C32.0908804,13.3647659 33.0653872,14.3392727 33.0653872,15.5414073 L33.0653872,20.0330879 C33.0653872,21.2352225 32.0908804,22.2097294 30.8887458,22.2097294 Z" id="Stroke-13" stroke="#FF4638" stroke-width="1.04058394" stroke-linecap="round" stroke-linejoin="round"></path>
                    <path d="M29.6042749,19.9984885 L27.6812758,19.9984885 C26.9911085,19.9984885 26.4315345,19.4389145 26.4315345,18.7487472 L26.4315345,16.8257481 C26.4315345,16.1355808 26.9911085,15.5760067 27.6812758,15.5760067 L29.6042749,15.5760067 C30.2944422,15.5760067 30.8540163,16.1355808 30.8540163,16.8257481 L30.8540163,18.7487472 C30.8540163,19.4389145 30.2944422,19.9984885 29.6042749,19.9984885" id="Fill-15" fill="#FF4638"></path>
                </g>
            </g>
        </g>
    </g>
</svg>