<?xml version="1.0" encoding="UTF-8"?>
<svg width="16px" height="16px" viewBox="0 0 16 16" version="1.1" xmlns="http://www.w3.org/2000/svg" xmlns:xlink="http://www.w3.org/1999/xlink">
    <title>Icon Copy 3</title>
    <defs>
        <polygon id="path-1" points="0 0 15.36 0 15.36 15.36 0 15.36"></polygon>
        <path d="M13.5836552,2.76873617 C12.7230658,3.54105999 11.7926989,4.56505999 10.7922563,5.84401631 C9.48109493,7.52136051 8.47945952,9.08837274 7.78824461,10.5453512 L7.2333046,10.9207781 C6.77229586,11.2413372 6.45948981,11.4789983 6.29429004,11.6343576 C6.22898544,11.3984857 6.08644846,11.0132184 5.8660827,10.4773628 L5.65555737,9.9895166 C5.35527548,9.28875946 5.0764636,8.77049738 4.81852533,8.43473034 C4.56058707,8.09985789 4.27193477,7.87710658 3.95137566,7.76677461 C4.49200233,7.19603029 4.98760163,6.91065812 5.43847175,6.91065812 C5.82373908,6.91065812 6.25194642,7.43369132 6.72279557,8.48035411 L6.95508911,9.00547467 C7.80136517,7.57921025 8.88738963,6.19230751 10.2143553,4.84595923 C11.2204636,3.82434479 12.2089785,2.98403262 13.180198,2.32263716 C11.785244,0.890408853 9.8371392,0 7.68,0 C3.43848107,0 0,3.43848107 0,7.68 C0,11.9212207 3.43848107,15.36 7.68,15.36 C11.9215189,15.36 15.36,11.9212207 15.36,7.68 C15.36,5.8118113 14.6923425,4.10017472 13.5836552,2.76873617" id="path-3"></path>
    </defs>
    <g id="Webpages" stroke="none" stroke-width="1" fill="none" fill-rule="evenodd">
        <g id="Phones-&amp;-plans-–-Phone-only" transform="translate(-252.000000, -2609.000000)">
            <g id="Group-7" transform="translate(-448.000000, 2574.000000)">
                <g id="Group-11" transform="translate(700.000000, 31.000000)">
                    <g id="Icon-Copy-3" transform="translate(0.000000, 4.000000)">
                        <g id="Fill-1">
                            <mask id="mask-2" fill="white">
                                <use xlink:href="#path-1"></use>
                            </mask>
                            <g id="Mask"></g>
                            <mask id="mask-4" fill="white">
                                <use xlink:href="#path-3"></use>
                            </mask>
                            <use fill="#ffffff" xlink:href="#path-3"></use>
                        </g>
                    </g>
                </g>
            </g>
        </g>
    </g>
</svg>
