<?xml version="1.0" encoding="UTF-8"?>
<svg viewBox="0 0 52 31" version="1.1" xmlns="http://www.w3.org/2000/svg" xmlns:xlink="http://www.w3.org/1999/xlink">
    <title>Group 31</title>
    <defs>
        <path d="M6.00438195,0.0548947368 C5.26772922,0.0548947368 4.83959274,0.307570175 4.55396037,0.910859649 L4.55396037,0.910859649 C3.23501706,3.69618421 1.91593506,6.48150877 0.597546505,9.26701754 L0.597546505,9.26701754 C0.413157953,9.65637719 0.231612548,10.0467193 0.0398734177,10.4556053 L0.0398734177,10.4556053 C1.09204623,10.4556053 2.11467804,10.4576316 3.13724051,10.4497105 L3.13724051,10.4497105 C3.19105228,10.4493421 3.26975894,10.3732632 3.29347496,10.3178772 L3.29347496,10.3178772 C3.46836324,9.90960526 3.63929884,9.49967544 3.7955333,9.08557018 L3.7955333,9.08557018 C3.84781948,8.94704386 3.91605504,8.89681579 4.08775344,8.89804386 L4.08775344,8.89804386 C5.22223886,8.90602632 6.35700165,8.9092193 7.49134838,8.89626316 L7.49134838,8.89626316 C7.71866153,8.89368421 7.78377655,8.9635614 7.82018272,9.14396491 L7.82018272,9.14396491 C7.90783489,9.57851754 8.01885636,10.0094474 8.12231921,10.4498947 L8.12231921,10.4498947 L10.9513902,10.4498947 L10.9513902,10.3759035 C10.8599934,10.0248596 10.7617314,9.67498246 10.6783786,9.32240351 L10.6783786,9.32240351 C10.0279912,6.57005263 9.38079362,3.81708772 8.73193176,1.06442982 L8.73193176,1.06442982 C8.65294772,0.729105263 8.57021904,0.39445614 8.48818382,0.0548947368 L8.48818382,0.0548947368 C7.92690479,0.0548947368 7.374918,0.0548947368 6.82612108,0.0548947368 L6.82612108,0.0548947368 C6.55172262,0.0548947368 6.27801761,0.0548947368 6.00438195,0.0548947368 M6.31588002,2.94411404 C6.32801541,2.94620175 6.34022014,2.94828947 6.35235553,2.95037719 L6.35235553,2.95037719 C6.64977655,4.21320175 6.94726692,5.47596491 7.24877931,6.75592105 L7.24877931,6.75592105 L4.75526912,6.75592105 C5.27930985,5.47596491 5.79759494,4.21000877 6.31588002,2.94411404" id="path-1"></path>
        <linearGradient x1="-225.12645%" y1="51.6533488%" x2="98.1930842%" y2="49.857983%" id="linearGradient-3">
            <stop stop-color="#262860" offset="0%"></stop>
            <stop stop-color="#3D439A" offset="100%"></stop>
        </linearGradient>
        <path d="M5.27457971,0.0571428571 C5.22082319,0.0703896104 5.16776812,0.0894155844 5.11318261,0.0961038961 L5.11318261,0.0961038961 C4.13102609,0.217272727 3.20906667,0.505714286 2.43262609,1.15558442 L2.43262609,1.15558442 C1.54012754,1.90253247 1.10873623,2.86383117 1.23378551,4.04772727 L1.23378551,4.04772727 C1.31732174,4.83844156 1.75776812,5.43331169 2.36592464,5.87948052 L2.36592464,5.87948052 C2.84042319,6.22753247 3.37301449,6.4925974 3.87435942,6.80363636 L3.87435942,6.80363636 C4.19543188,7.00272727 4.53404058,7.18597403 4.81576812,7.43402597 L4.81576812,7.43402597 C5.24441739,7.81149351 5.19926957,8.41538961 4.72853333,8.73675325 L4.72853333,8.73675325 C4.51153043,8.88487013 4.2505913,8.99993506 3.99462609,9.0487013 L3.99462609,9.0487013 C3.01087536,9.23636364 2.06175072,9.0638961 1.1425971,8.68681818 L1.1425971,8.68681818 C0.950272464,8.60785714 0.761965217,8.51844156 0.561478261,8.42928571 L0.561478261,8.42928571 C0.390388406,9.24519481 0.223953623,10.0388961 0.0577101449,10.8313636 L0.0577101449,10.8313636 C0.0929101449,10.8537013 0.112933333,10.8705844 0.135826087,10.8801299 L0.135826087,10.8801299 C0.212666667,10.9122078 0.289507246,10.9450649 0.368388406,10.9714935 L0.368388406,10.9714935 C1.27682899,11.2753896 2.20331594,11.4283766 3.14523478,11.4285714 L3.14523478,11.4285714 L3.15065507,11.4285714 C3.42677101,11.4284416 3.70422609,11.4152597 3.98289275,11.3888312 L3.98289275,11.3888312 C4.86474203,11.3052597 5.71094493,11.0796104 6.45868986,10.5744156 L6.45868986,10.5744156 C7.64796522,9.77103896 8.17156522,8.63551948 7.99505507,7.1938961 L7.99505507,7.1938961 C7.89532174,6.37883117 7.42018551,5.77590909 6.76866667,5.33746753 L6.76866667,5.33746753 C6.21547826,4.96512987 5.61784348,4.66201299 5.04858551,4.31344156 L5.04858551,4.31344156 C4.79823188,4.16006494 4.54768696,3.9937013 4.33629565,3.79097403 L4.33629565,3.79097403 C4.02969855,3.49694805 4.03397101,3.09383117 4.35504348,2.81376623 L4.35504348,2.81376623 C4.54207536,2.65045455 4.78267246,2.52097403 5.0204,2.45350649 L5.0204,2.45350649 C5.60508986,2.28753247 6.20406377,2.33766234 6.78849855,2.46909091 L6.78849855,2.46909091 C7.21587246,2.56506494 7.63157681,2.71467532 8.06653913,2.84448052 L8.06653913,2.84448052 C8.22525797,2.0888961 8.38742029,1.31662338 8.5536,0.52525974 L8.5536,0.52525974 C8.22391884,0.429675325 7.92025507,0.328116883 7.60995942,0.25525974 L7.60995942,0.25525974 C7.27007536,0.17538961 6.92413333,0.122012987 6.5808058,0.0571428571 L6.5808058,0.0571428571 L5.27457971,0.0571428571 Z" id="path-4"></path>
        <linearGradient x1="-74.9336455%" y1="51.1153734%" x2="138.215091%" y2="49.2041103%" id="linearGradient-6">
            <stop stop-color="#262860" offset="0%"></stop>
            <stop stop-color="#3D439A" offset="100%"></stop>
        </linearGradient>
        <path d="M10.8269202,0.214298246 C9.84691938,2.45313158 8.86158463,4.6900614 7.87659181,6.92723684 L7.87659181,6.92723684 C7.85785479,6.96978947 7.82913381,7.0087807 7.78803546,7.07816667 L7.78803546,7.07816667 C7.76170789,6.9615614 7.74187674,6.87915789 7.724439,6.79638596 L7.724439,6.79638596 C7.32679021,4.90288596 6.93276572,3.00883333 6.53012495,1.11619298 L6.53012495,1.11619298 C6.3879561,0.447631579 5.84492444,0.0552631579 5.09270832,0.0550789474 L5.09270832,0.0550789474 C3.50676319,0.0545877193 1.92081807,0.0549561404 0.334941325,0.0549561404 L0.334941325,0.0549561404 C0.00444491347,0.0549561404 0.00444491347,0.0549561404 0,0.366885965 L0,0.366885965 C0.0368585901,0.375175439 0.0759738286,0.384385965 0.115294217,0.392736842 L0.115294217,0.392736842 C1.00331954,0.582105263 1.87383875,0.815008772 2.71249135,1.14658772 L2.71249135,1.14658772 C3.23569185,1.35351754 3.51462727,1.69062281 3.6539924,2.18412281 L3.6539924,2.18412281 C4.41352554,4.87439474 5.19459941,7.55981579 5.96281722,10.248 L5.96281722,10.248 C6.00706121,10.4027982 6.0697003,10.4632807 6.26185732,10.4609542 L6.26185732,10.4609542 C7.16786745,10.4495877 8.07428789,10.4522895 8.98043478,10.4591053 L8.98043478,10.4591053 C9.1460591,10.4602719 9.22941832,10.4218333 9.29752807,10.2752018 L9.29752807,10.2752018 C10.7274909,7.19735088 12.1651127,4.12250877 13.6008881,1.04699123 L13.6008881,1.04699123 C13.751263,0.724868421 13.8995863,0.402008772 14.0563892,0.0634298246 L14.0563892,0.0634298246 C13.9722094,0.0598684211 13.9127159,0.0552017544 13.8532908,0.0552017544 L13.8532908,0.0552017544 C13.5930241,0.0551403509 13.3327573,0.0552631579 13.0724905,0.0554473684 L13.0724905,0.0554473684 C12.4127286,0.055877193 11.7529667,0.0563070175 11.0932731,0.0515789474 L11.0932731,0.0515789474 C11.0913584,0.0515789474 11.089512,0.0515789474 11.0876657,0.0515789474 L11.0876657,0.0515789474 C10.9446079,0.0515789474 10.8797121,0.0935789474 10.8269202,0.214298246" id="path-7"></path>
        <linearGradient x1="14.7491674%" y1="50.0837926%" x2="262.250493%" y2="49.0010442%" id="linearGradient-9">
            <stop stop-color="#262860" offset="0%"></stop>
            <stop stop-color="#3D439A" offset="100%"></stop>
        </linearGradient>
        <path d="M2.48499258,0.00463235294 C1.67922057,3.48575294 0.875519618,6.95841176 0.0660731707,10.4555912 L0.0660731707,10.4555912 L0.307183457,10.4555912 C1.11208696,10.4555912 1.91705726,10.4469441 2.72162672,10.4612118 L2.72162672,10.4612118 C2.94603499,10.4652882 3.02259703,10.4017324 3.06829374,10.2018618 L3.06829374,10.2018618 C3.7260859,7.32510882 4.39369883,4.45014706 5.05877306,1.57481471 L5.05877306,1.57481471 C5.17902757,1.05487941 5.29854719,0.534820588 5.42073913,0.00463235294 L5.42073913,0.00463235294 L2.48499258,0.00463235294 Z" id="path-10"></path>
        <linearGradient x1="-14.6933287%" y1="50.7610462%" x2="151.750695%" y2="48.7840746%" id="linearGradient-12">
            <stop stop-color="#262860" offset="0%"></stop>
            <stop stop-color="#3D439A" offset="100%"></stop>
        </linearGradient>
    </defs>
    <g id="Webpages" stroke="none" stroke-width="1" fill="none" fill-rule="evenodd">
        <g id="SE-Phone" transform="translate(-29.000000, -5835.000000)">
            <g id="Group-51" transform="translate(29.000000, 5835.000000)">
                <g id="Group-31">
                    <rect id="Rectangle" fill="#E9E9E9" x="0" y="0" width="52" height="31" rx="8"></rect>
                    <g id="Group-13" transform="translate(7.000000, 10.000000)">
                        <g id="Group-3" transform="translate(25.043478, 0.750000)">
                            <mask id="mask-2" fill="white">
                                <use xlink:href="#path-1"></use>
                            </mask>
                            <g id="Clip-2"></g>
                            <path d="M6.00438195,0.0548947368 C5.26772922,0.0548947368 4.83959274,0.307570175 4.55396037,0.910859649 L4.55396037,0.910859649 C3.23501706,3.69618421 1.91593506,6.48150877 0.597546505,9.26701754 L0.597546505,9.26701754 C0.413157953,9.65637719 0.231612548,10.0467193 0.0398734177,10.4556053 L0.0398734177,10.4556053 C1.09204623,10.4556053 2.11467804,10.4576316 3.13724051,10.4497105 L3.13724051,10.4497105 C3.19105228,10.4493421 3.26975894,10.3732632 3.29347496,10.3178772 L3.29347496,10.3178772 C3.46836324,9.90960526 3.63929884,9.49967544 3.7955333,9.08557018 L3.7955333,9.08557018 C3.84781948,8.94704386 3.91605504,8.89681579 4.08775344,8.89804386 L4.08775344,8.89804386 C5.22223886,8.90602632 6.35700165,8.9092193 7.49134838,8.89626316 L7.49134838,8.89626316 C7.71866153,8.89368421 7.78377655,8.9635614 7.82018272,9.14396491 L7.82018272,9.14396491 C7.90783489,9.57851754 8.01885636,10.0094474 8.12231921,10.4498947 L8.12231921,10.4498947 L10.9513902,10.4498947 L10.9513902,10.3759035 C10.8599934,10.0248596 10.7617314,9.67498246 10.6783786,9.32240351 L10.6783786,9.32240351 C10.0279912,6.57005263 9.38079362,3.81708772 8.73193176,1.06442982 L8.73193176,1.06442982 C8.65294772,0.729105263 8.57021904,0.39445614 8.48818382,0.0548947368 L8.48818382,0.0548947368 C7.92690479,0.0548947368 7.374918,0.0548947368 6.82612108,0.0548947368 L6.82612108,0.0548947368 C6.55172262,0.0548947368 6.27801761,0.0548947368 6.00438195,0.0548947368 M6.31588002,2.94411404 C6.32801541,2.94620175 6.34022014,2.94828947 6.35235553,2.95037719 L6.35235553,2.95037719 C6.64977655,4.21320175 6.94726692,5.47596491 7.24877931,6.75592105 L7.24877931,6.75592105 L4.75526912,6.75592105 C5.27930985,5.47596491 5.79759494,4.21000877 6.31588002,2.94411404" id="Fill-1" fill="url(#linearGradient-3)" mask="url(#mask-2)"></path>
                        </g>
                        <g id="Group-6" transform="translate(18.000000, 0.000000)">
                            <mask id="mask-5" fill="white">
                                <use xlink:href="#path-4"></use>
                            </mask>
                            <g id="Clip-5"></g>
                            <path d="M5.27457971,0.0571428571 C5.22082319,0.0703896104 5.16776812,0.0894155844 5.11318261,0.0961038961 L5.11318261,0.0961038961 C4.13102609,0.217272727 3.20906667,0.505714286 2.43262609,1.15558442 L2.43262609,1.15558442 C1.54012754,1.90253247 1.10873623,2.86383117 1.23378551,4.04772727 L1.23378551,4.04772727 C1.31732174,4.83844156 1.75776812,5.43331169 2.36592464,5.87948052 L2.36592464,5.87948052 C2.84042319,6.22753247 3.37301449,6.4925974 3.87435942,6.80363636 L3.87435942,6.80363636 C4.19543188,7.00272727 4.53404058,7.18597403 4.81576812,7.43402597 L4.81576812,7.43402597 C5.24441739,7.81149351 5.19926957,8.41538961 4.72853333,8.73675325 L4.72853333,8.73675325 C4.51153043,8.88487013 4.2505913,8.99993506 3.99462609,9.0487013 L3.99462609,9.0487013 C3.01087536,9.23636364 2.06175072,9.0638961 1.1425971,8.68681818 L1.1425971,8.68681818 C0.950272464,8.60785714 0.761965217,8.51844156 0.561478261,8.42928571 L0.561478261,8.42928571 C0.390388406,9.24519481 0.223953623,10.0388961 0.0577101449,10.8313636 L0.0577101449,10.8313636 C0.0929101449,10.8537013 0.112933333,10.8705844 0.135826087,10.8801299 L0.135826087,10.8801299 C0.212666667,10.9122078 0.289507246,10.9450649 0.368388406,10.9714935 L0.368388406,10.9714935 C1.27682899,11.2753896 2.20331594,11.4283766 3.14523478,11.4285714 L3.14523478,11.4285714 L3.15065507,11.4285714 C3.42677101,11.4284416 3.70422609,11.4152597 3.98289275,11.3888312 L3.98289275,11.3888312 C4.86474203,11.3052597 5.71094493,11.0796104 6.45868986,10.5744156 L6.45868986,10.5744156 C7.64796522,9.77103896 8.17156522,8.63551948 7.99505507,7.1938961 L7.99505507,7.1938961 C7.89532174,6.37883117 7.42018551,5.77590909 6.76866667,5.33746753 L6.76866667,5.33746753 C6.21547826,4.96512987 5.61784348,4.66201299 5.04858551,4.31344156 L5.04858551,4.31344156 C4.79823188,4.16006494 4.54768696,3.9937013 4.33629565,3.79097403 L4.33629565,3.79097403 C4.02969855,3.49694805 4.03397101,3.09383117 4.35504348,2.81376623 L4.35504348,2.81376623 C4.54207536,2.65045455 4.78267246,2.52097403 5.0204,2.45350649 L5.0204,2.45350649 C5.60508986,2.28753247 6.20406377,2.33766234 6.78849855,2.46909091 L6.78849855,2.46909091 C7.21587246,2.56506494 7.63157681,2.71467532 8.06653913,2.84448052 L8.06653913,2.84448052 C8.22525797,2.0888961 8.38742029,1.31662338 8.5536,0.52525974 L8.5536,0.52525974 C8.22391884,0.429675325 7.92025507,0.328116883 7.60995942,0.25525974 L7.60995942,0.25525974 C7.27007536,0.17538961 6.92413333,0.122012987 6.5808058,0.0571428571 L6.5808058,0.0571428571 L5.27457971,0.0571428571 Z" id="Fill-4" fill="url(#linearGradient-6)" mask="url(#mask-5)"></path>
                        </g>
                        <g id="Group-9" transform="translate(0.000000, 0.750000)">
                            <mask id="mask-8" fill="white">
                                <use xlink:href="#path-7"></use>
                            </mask>
                            <g id="Clip-8"></g>
                            <path d="M10.8269202,0.214298246 C9.84691938,2.45313158 8.86158463,4.6900614 7.87659181,6.92723684 L7.87659181,6.92723684 C7.85785479,6.96978947 7.82913381,7.0087807 7.78803546,7.07816667 L7.78803546,7.07816667 C7.76170789,6.9615614 7.74187674,6.87915789 7.724439,6.79638596 L7.724439,6.79638596 C7.32679021,4.90288596 6.93276572,3.00883333 6.53012495,1.11619298 L6.53012495,1.11619298 C6.3879561,0.447631579 5.84492444,0.0552631579 5.09270832,0.0550789474 L5.09270832,0.0550789474 C3.50676319,0.0545877193 1.92081807,0.0549561404 0.334941325,0.0549561404 L0.334941325,0.0549561404 C0.00444491347,0.0549561404 0.00444491347,0.0549561404 0,0.366885965 L0,0.366885965 C0.0368585901,0.375175439 0.0759738286,0.384385965 0.115294217,0.392736842 L0.115294217,0.392736842 C1.00331954,0.582105263 1.87383875,0.815008772 2.71249135,1.14658772 L2.71249135,1.14658772 C3.23569185,1.35351754 3.51462727,1.69062281 3.6539924,2.18412281 L3.6539924,2.18412281 C4.41352554,4.87439474 5.19459941,7.55981579 5.96281722,10.248 L5.96281722,10.248 C6.00706121,10.4027982 6.0697003,10.4632807 6.26185732,10.4609542 L6.26185732,10.4609542 C7.16786745,10.4495877 8.07428789,10.4522895 8.98043478,10.4591053 L8.98043478,10.4591053 C9.1460591,10.4602719 9.22941832,10.4218333 9.29752807,10.2752018 L9.29752807,10.2752018 C10.7274909,7.19735088 12.1651127,4.12250877 13.6008881,1.04699123 L13.6008881,1.04699123 C13.751263,0.724868421 13.8995863,0.402008772 14.0563892,0.0634298246 L14.0563892,0.0634298246 C13.9722094,0.0598684211 13.9127159,0.0552017544 13.8532908,0.0552017544 L13.8532908,0.0552017544 C13.5930241,0.0551403509 13.3327573,0.0552631579 13.0724905,0.0554473684 L13.0724905,0.0554473684 C12.4127286,0.055877193 11.7529667,0.0563070175 11.0932731,0.0515789474 L11.0932731,0.0515789474 C11.0913584,0.0515789474 11.089512,0.0515789474 11.0876657,0.0515789474 L11.0876657,0.0515789474 C10.9446079,0.0515789474 10.8797121,0.0935789474 10.8269202,0.214298246" id="Fill-7" fill="url(#linearGradient-9)" mask="url(#mask-8)"></path>
                        </g>
                        <g id="Group-12" transform="translate(12.521739, 0.750000)">
                            <mask id="mask-11" fill="white">
                                <use xlink:href="#path-10"></use>
                            </mask>
                            <g id="Clip-11"></g>
                            <path d="M2.48499258,0.00463235294 C1.67922057,3.48575294 0.875519618,6.95841176 0.0660731707,10.4555912 L0.0660731707,10.4555912 L0.307183457,10.4555912 C1.11208696,10.4555912 1.91705726,10.4469441 2.72162672,10.4612118 L2.72162672,10.4612118 C2.94603499,10.4652882 3.02259703,10.4017324 3.06829374,10.2018618 L3.06829374,10.2018618 C3.7260859,7.32510882 4.39369883,4.45014706 5.05877306,1.57481471 L5.05877306,1.57481471 C5.17902757,1.05487941 5.29854719,0.534820588 5.42073913,0.00463235294 L5.42073913,0.00463235294 L2.48499258,0.00463235294 Z" id="Fill-10" fill="url(#linearGradient-12)" mask="url(#mask-11)"></path>
                        </g>
                    </g>
                </g>
            </g>
        </g>
    </g>
</svg>