<?xml version="1.0" encoding="utf-8"?>
<svg width="206px" height="35px" viewBox="0 0 206 35" version="1.1" xmlns:xlink="http://www.w3.org/1999/xlink" xmlns="http://www.w3.org/2000/svg">
  <path d="M150 8.30124C145.093 6.29694 43.0443 14.8341 35 17.9776C36.8988 17.9776 38.3734 18.0336 39.8434 17.9685C50.1911 17.5106 60.5363 16.9527 70.8859 16.5713C84.0298 16.0876 97.1713 15.8756 110.255 13.8532C121.355 12.1373 132.522 11.045 143.653 9.61069C145.737 9.34274 147.793 8.76523 150 8.30124M47.7939 23.4473C44.5468 23.4473 41.4252 23.3402 38.31 23.468C29.556 23.8259 20.7886 24.2504 12.1097 22.5211C9.01361 21.9039 6.13211 22.2932 3.18503 23.1666C1.72165 23.6003 0.358276 22.6297 0.0615234 21.0962C-0.255585 19.4564 0.680511 17.9558 2.23746 17.5069C15.2924 13.7416 28.5499 11.7293 41.9341 10.6891C49.8685 10.0727 57.7915 9.22986 65.712 8.38776C68.747 8.065 71.7609 7.4631 75.1742 6.92694C71.731 6.92694 68.661 6.77014 65.6063 6.95755C57.398 7.46231 49.1999 8.22794 40.9903 8.67917C31.7186 9.18854 22.4379 9.47766 13.1611 9.83331C12.2479 9.86847 11.3297 9.69641 10.4133 9.62067C10.412 9.45929 10.4107 9.29868 10.4095 9.13806C12.8955 8.67307 15.3714 8.10095 17.8695 7.76215C28.0895 6.37701 38.3056 4.93762 48.5433 3.76666C55.6685 2.95135 62.826 2.5498 69.9684 1.9502C90.57 0.220123 111.198 -0.297668 131.84 0.155884C138.945 0.31192 146.055 0.666046 153.143 1.2626C157.555 1.63354 161.93 2.62323 166.319 3.3544C166.734 3.42325 167.26 3.4791 167.515 3.79495C168.204 4.65158 169.321 5.70703 169.254 6.56824C169.172 7.60306 168.193 9.01721 167.338 9.392C164.91 10.4566 162.373 11.2329 159.83 11.8326C155.83 12.7748 151.79 13.4777 147.769 14.2907C147.519 14.3412 147.279 14.4628 146.993 14.9898C147.766 15.106 148.536 15.2858 149.311 15.3279C158.479 15.8273 167.652 16.2089 176.814 16.8231C183.431 17.2667 190.036 17.9971 196.644 18.6365C197.698 18.7382 198.746 18.9876 199.781 19.2514C200.925 19.5436 201.521 20.5501 201.508 21.8664C201.494 23.2607 200.827 24.2542 199.657 24.6252C199.023 24.8271 198.374 24.9647 197.72 25.5881C199.167 26.0676 200.622 26.5097 202.054 27.0435C202.857 27.3426 203.671 27.6921 204.391 28.1992C206.033 29.3556 206.439 31.3694 205.513 33.2769C204.743 34.8609 202.579 35.6571 201.337 34.3286C199.424 32.2796 197.069 32.1067 194.845 31.5599C182.94 28.6336 170.935 26.6382 158.798 25.5743C142.729 24.1655 126.656 24.0836 110.614 25.3242C96.3343 26.4279 82.1082 28.5082 67.8504 30.047C62.9509 30.5755 58.0291 30.8792 53.1117 31.049C51.6204 31.1002 50.071 30.5059 48.6185 29.9445C46.4445 29.104 45.9599 26.7827 47.3354 24.5135C47.5429 24.1724 47.6639 23.7555 47.7939 23.4473" id="Fill-1" fill="#25CE79" fill-rule="evenodd" stroke="none" />
</svg>