<svg xmlns="http://www.w3.org/2000/svg" width="62.117" height="44.415"><defs><clipPath id="a"><path data-name="Clip 2" d="M0 0h62.117v44.415H0z" transform="translate(0 .085)" fill="none"/></clipPath></defs><g data-name="Group 26"><g data-name="Group 3"><path data-name="Clip 2" d="M0 0h62.117v44.415H0z" fill="none"/><g data-name="Group 3" clip-path="url(#a)" transform="translate(0 -.085)"><path data-name="Fill 1" d="M59.172 44.5H2.945A2.948 2.948 0 0 1 0 41.555V3.03A2.948 2.948 0 0 1 2.945.085h56.227a2.948 2.948 0 0 1 2.945 2.945v38.525a2.948 2.948 0 0 1-2.945 2.945zM2.945 1.685A1.346 1.346 0 0 0 1.6 3.03v38.525A1.346 1.346 0 0 0 2.945 42.9h56.227a1.347 1.347 0 0 0 1.346-1.345V3.03a1.347 1.347 0 0 0-1.346-1.345z" fill="#fff"/></g></g><path data-name="Fill 4" d="M18.091 23.488a6.251 6.251 0 1 1 6.249-6.249 6.258 6.258 0 0 1-6.249 6.249zm0-10.9a4.65 4.65 0 1 0 4.65 4.65 4.656 4.656 0 0 0-4.65-4.65z" fill="#fff"/><path data-name="Fill 6" d="M27.987 33.389a.8.8 0 0 1-.8-.8 9.1 9.1 0 1 0-18.192 0 .8.8 0 1 1-1.6 0 10.7 10.7 0 1 1 21.392 0 .8.8 0 0 1-.8.8" fill="#fff"/><path data-name="Fill 8" d="M52.815 15.174H36.93a.8.8 0 0 1 0-1.6h15.885a.8.8 0 0 1 0 1.6" fill="#fff"/><path data-name="Fill 10" d="M52.815 30.086h-.829a.8.8 0 0 1 0-1.6h.829a.8.8 0 1 1 0 1.6" fill="#fff"/><path data-name="Fill 12" d="M47.934 30.086h-.865a.8.8 0 0 1 0-1.6h.865a.8.8 0 1 1 0 1.6" fill="#fff"/><path data-name="Fill 14" d="M43.125 30.086h-1.081a.8.8 0 0 1 0-1.6h1.081a.8.8 0 0 1 0 1.6" fill="#fff"/><path data-name="Fill 16" d="M38.262 30.086h-1.331a.8.8 0 0 1 0-1.6h1.331a.8.8 0 0 1 0 1.6" fill="#fff"/><path data-name="Fill 18" d="M52.815 22.63h-.829a.8.8 0 0 1 0-1.6h.829a.8.8 0 1 1 0 1.6" fill="#fff"/><path data-name="Fill 20" d="M47.934 22.63h-.865a.8.8 0 0 1 0-1.6h.865a.8.8 0 1 1 0 1.6" fill="#fff"/><path data-name="Fill 22" d="M43.125 22.63h-1.081a.8.8 0 0 1 0-1.6h1.081a.8.8 0 0 1 0 1.6" fill="#fff"/><path data-name="Fill 24" d="M38.262 22.63h-1.331a.8.8 0 0 1 0-1.6h1.331a.8.8 0 0 1 0 1.6" fill="#fff"/></g></svg>