<svg width="55" height="33" xmlns="http://www.w3.org/2000/svg" xmlns:xlink="http://www.w3.org/1999/xlink"><defs><path id="a" d="M0 32.545h54.863V0H0z"/></defs><g fill="none" fill-rule="evenodd"><path d="M14.432 17.128a.876.876 0 0 0 .017-.171v-.171c0-.376-.134-.69-.402-.941-.268-.25-.653-.376-1.154-.376-.308 0-.585.054-.83.162a2.529 2.529 0 0 0-.641.402c-.183.16-.331.337-.445.53a2.14 2.14 0 0 0-.24.565h3.695zm-3.882 1.676a.629.629 0 0 0-.018.154c0 .24.054.453.163.641.108.188.25.348.428.479.176.131.376.23.598.3.223.068.454.102.693.102.433 0 .815-.08 1.146-.24.33-.159.627-.376.89-.65l1.727 1.352c-.548.581-1.158 1-1.83 1.257a6.044 6.044 0 0 1-2.172.385 5.307 5.307 0 0 1-1.651-.248 3.8 3.8 0 0 1-1.326-.736 3.442 3.442 0 0 1-.889-1.205c-.217-.48-.325-1.027-.325-1.642 0-.73.128-1.412.385-2.044a5.13 5.13 0 0 1 1.06-1.65c.45-.468.99-.836 1.617-1.104a5.219 5.219 0 0 1 2.07-.402c.558 0 1.068.08 1.53.24.462.16.858.39 1.188.692.331.302.588.676.77 1.12.182.445.274.958.274 1.54 0 .205-.02.464-.06.778a7.64 7.64 0 0 1-.162.88H10.55zm14.256-5.44a2.644 2.644 0 0 0-.984-.76 2.775 2.775 0 0 0-1.172-.282c-.194 0-.39.017-.59.05-.2.035-.379.1-.538.198-.16.097-.294.222-.402.376-.109.154-.163.35-.163.59a.95.95 0 0 0 .129.513c.085.137.21.257.376.36.165.102.362.196.59.282.228.085.485.174.77.265.41.136.838.288 1.282.453.445.165.85.385 1.215.659.364.273.667.612.906 1.017.24.405.36.91.36 1.514 0 .695-.129 1.297-.385 1.804a3.602 3.602 0 0 1-1.035 1.257 4.44 4.44 0 0 1-1.488.736 6.286 6.286 0 0 1-1.728.24 7.134 7.134 0 0 1-2.514-.454c-.81-.302-1.482-.733-2.018-1.291l1.915-1.95c.297.365.687.67 1.172.915.485.245.966.368 1.445.368.217 0 .428-.023.633-.069.205-.045.385-.12.539-.222a1.12 1.12 0 0 0 .368-.41c.09-.172.136-.377.136-.617a.974.974 0 0 0-.17-.581 1.67 1.67 0 0 0-.488-.436 3.947 3.947 0 0 0-.787-.36c-.314-.108-.67-.224-1.069-.35a10.12 10.12 0 0 1-1.137-.445c-.37-.17-.701-.39-.992-.658a3.045 3.045 0 0 1-.701-.975c-.177-.382-.265-.847-.265-1.394 0-.673.136-1.248.41-1.728a3.574 3.574 0 0 1 1.078-1.18 4.633 4.633 0 0 1 1.505-.675 6.825 6.825 0 0 1 1.693-.214c.684 0 1.382.126 2.095.376a5.4 5.4 0 0 1 1.873 1.112l-1.864 1.967z" fill="#6038CD"/><mask id="b" fill="#fff"><use xlink:href="#a"/></mask><path fill="#6038CD" mask="url(#b)" d="M28.219 22.327h2.942v-12.11h-2.942zm15.786 0l.069-8.569h-.052l-3.147 8.57h-2.052l-3.062-8.57h-.051l.068 8.57h-2.753v-12.11h4.16l2.758 7.765h.069l2.637-7.765h4.23v12.11zm4.53 9.572a.646.646 0 1 1 1.292 0 .646.646 0 0 1-1.291 0m-2.174 0a.646.646 0 1 1 1.292 0 .646.646 0 0 1-1.292 0m-2.174 0a.646.646 0 1 1 1.292 0 .646.646 0 0 1-1.292 0m-2.173 0a.646.646 0 1 1 1.291 0 .646.646 0 0 1-1.291 0m-2.174 0a.646.646 0 1 1 1.292 0 .646.646 0 0 1-1.292 0m-2.174 0a.646.646 0 1 1 1.292 0 .646.646 0 0 1-1.292 0m-2.173 0a.646.646 0 1 1 1.291 0 .646.646 0 0 1-1.291 0m-2.174 0a.646.646 0 1 1 1.292 0 .646.646 0 0 1-1.292 0m-2.174 0a.646.646 0 1 1 1.292 0 .646.646 0 0 1-1.292 0m-2.173 0a.646.646 0 1 1 1.291 0 .646.646 0 0 1-1.291 0m-2.174 0a.646.646 0 1 1 1.292 0 .646.646 0 0 1-1.292 0m-2.174 0a.646.646 0 1 1 1.292 0 .646.646 0 0 1-1.292 0m-2.173 0a.646.646 0 1 1 1.291 0 .646.646 0 0 1-1.291 0m-2.174 0a.646.646 0 1 1 1.292 0 .646.646 0 0 1-1.292 0m-2.174 0a.646.646 0 1 1 1.292 0 .646.646 0 0 1-1.292 0m-2.173 0a.646.646 0 1 1 1.291 0 .646.646 0 0 1-1.291 0M54.216 6.35a.646.646 0 1 1 0-1.291.646.646 0 0 1 0 1.291m0 2.107a.646.646 0 1 1 0-1.292.646.646 0 0 1 0 1.292m0 2.107a.646.646 0 1 1 0-1.292.646.646 0 0 1 0 1.292m0 2.106a.646.646 0 1 1 0-1.291.646.646 0 0 1 0 1.291m0 2.107a.646.646 0 1 1 0-1.292.646.646 0 0 1 0 1.292m0 2.107a.646.646 0 1 1 0-1.292.646.646 0 0 1 0 1.292m0 2.106a.646.646 0 1 1 0-1.291.646.646 0 0 1 0 1.291m0 2.107a.646.646 0 1 1 0-1.292.646.646 0 0 1 0 1.292m0 2.107a.646.646 0 1 1 0-1.292.646.646 0 0 1 0 1.292m0 2.106a.646.646 0 1 1 0-1.291.646.646 0 0 1 0 1.291m0 2.107a.646.646 0 1 1 0-1.291.646.646 0 0 1 0 1.291M.65 8.457a.646.646 0 1 1-.007-1.292.646.646 0 0 1 .007 1.292m1.44-1.432a.646.646 0 1 1-.007-1.292.646.646 0 0 1 .007 1.292m1.44-1.431a.646.646 0 1 1-.006-1.292.646.646 0 0 1 .007 1.292m1.44-1.432a.646.646 0 1 1-.007-1.292.646.646 0 0 1 .007 1.292m1.441-1.431a.646.646 0 1 1-.007-1.293.646.646 0 0 1 .007 1.293M.646 10.564a.646.646 0 1 1 0-1.293.646.646 0 0 1 0 1.293m0 2.106a.646.646 0 1 1 0-1.292.646.646 0 0 1 0 1.292m0 2.107a.646.646 0 1 1 0-1.292.646.646 0 0 1 0 1.292m0 2.107a.646.646 0 1 1 0-1.292.646.646 0 0 1 0 1.292m0 2.106a.646.646 0 1 1 0-1.292.646.646 0 0 1 0 1.292m0 2.107a.646.646 0 1 1 0-1.292.646.646 0 0 1 0 1.292m0 2.107a.646.646 0 1 1 0-1.292.646.646 0 0 1 0 1.292m0 2.106a.646.646 0 1 1 0-1.292.646.646 0 0 1 0 1.292m0 2.107a.646.646 0 1 1 0-1.292.646.646 0 0 1 0 1.292M13.757 31.9a.646.646 0 1 1 1.292 0 .646.646 0 0 1-1.292 0m-2.174 0a.646.646 0 1 1 1.292 0 .646.646 0 0 1-1.292 0m-2.173 0a.646.646 0 1 1 1.291 0 .646.646 0 0 1-1.291 0m-2.174 0a.646.646 0 1 1 1.292 0 .646.646 0 0 1-1.292 0m-2.174 0a.646.646 0 1 1 1.292 0 .646.646 0 0 1-1.292 0M48.536.647a.646.646 0 1 1 1.292 0 .646.646 0 0 1-1.292 0m-2.174 0a.646.646 0 1 1 1.292 0 .646.646 0 0 1-1.292 0m-2.174 0a.646.646 0 1 1 1.292 0 .646.646 0 0 1-1.292 0m-2.173 0a.646.646 0 1 1 1.292 0 .646.646 0 0 1-1.292 0m-2.174 0a.646.646 0 1 1 1.292 0 .646.646 0 0 1-1.292 0m-2.174 0a.646.646 0 1 1 1.293 0 .646.646 0 0 1-1.293 0m-2.173 0a.646.646 0 1 1 1.292 0 .646.646 0 0 1-1.292 0m-2.174 0a.646.646 0 1 1 1.292 0 .646.646 0 0 1-1.292 0m-2.174 0a.646.646 0 1 1 1.292 0 .646.646 0 0 1-1.292 0m-2.173 0a.646.646 0 1 1 1.292 0 .646.646 0 0 1-1.292 0m-2.174 0a.646.646 0 1 1 1.292 0 .646.646 0 0 1-1.292 0m-2.174 0a.646.646 0 1 1 1.292 0 .646.646 0 0 1-1.292 0m-2.173 0a.646.646 0 1 1 1.292 0 .646.646 0 0 1-1.292 0m-2.174 0a.646.646 0 1 1 1.292 0 .646.646 0 0 1-1.292 0m-2.174 0a.646.646 0 1 1 1.292 0 .646.646 0 0 1-1.292 0m-2.173 0a.646.646 0 1 1 1.292 0 .646.646 0 0 1-1.292 0m-2.174 0a.646.646 0 1 1 1.292 0 .646.646 0 0 1-1.292 0m-2.174 0a.646.646 0 1 1 1.292 0 .646.646 0 0 1-1.292 0m-2.173 0a.646.646 0 1 1 1.292 0 .646.646 0 0 1-1.292 0m-2.174 0a.646.646 0 1 1 1.292 0 .646.646 0 0 1-1.292 0M50.709 31.86a.646.646 0 1 1 1.292 0 .646.646 0 0 1-1.292 0m1.958-1.02a.646.646 0 1 1 1.292-.001.646.646 0 0 1-1.292 0m.879-1.961a.646.646 0 1 1 1.292 0 .646.646 0 0 1-1.292 0"/><path d="M50.71 31.86a.646.646 0 1 1 1.291 0 .646.646 0 0 1-1.292 0m1.958-1.02a.646.646 0 1 1 1.292-.001.646.646 0 0 1-1.292 0m.879-1.961a.646.646 0 1 1 1.292 0 .646.646 0 0 1-1.292 0M50.709.646a.646.646 0 1 0 1.292 0 .646.646 0 0 0-1.292 0m1.958 1.02a.646.646 0 1 0 1.292 0 .646.646 0 0 0-1.292 0m.879 1.962a.646.646 0 1 0 1.292 0 .646.646 0 0 0-1.292 0M4.137 31.86a.646.646 0 1 0-1.292 0 .646.646 0 0 0 1.292 0M2.18 30.84a.646.646 0 1 0-1.293 0 .646.646 0 0 0 1.293 0m-.88-1.962a.646.646 0 1 0-1.291 0 .646.646 0 0 0 1.292 0" fill="#6038CD" mask="url(#b)"/></g></svg>