<svg width="15" height="28" xmlns="http://www.w3.org/2000/svg"><path d="M10.898.324c-.367 1.758.114 3.322.591 4.883.66 2.157 1.461 4.273 1.804 6.518.32 2.094.197 4.13-.766 6.061-.547 1.098-1.342 2-2.222 2.838-.288.275-.504.212-.732-.089-.97-1.278-1.647-2.706-2.16-4.213-.467-1.369-.808-2.768-.87-4.222-.002-.058-.027-.115-.079-.316-.32.573-.4 1.087-.454 1.598-.183 1.777.227 3.464.84 5.11.787 2.113 2.063 3.897 3.739 5.4a14.812 14.812 0 0 0 3.85 2.505c.483.217.498.308.161.704-.532.625-1.46.782-2.232.355a16.49 16.49 0 0 1-5.666-5.133c-.113-.164-.315-.324-.503-.37-3-.732-4.562-2.811-5.18-5.668-.7-3.239-.045-6.298 1.526-9.18 1.517-2.785 3.75-4.797 6.628-6.101.54-.245 1.105-.437 1.725-.68" fill="#25CE79" fill-rule="evenodd"/></svg>