<svg xmlns="http://www.w3.org/2000/svg" width="9.586" height="13"><defs><clipPath id="a"><path data-name="Clip 2" d="M0 0h9.586v13H0z" fill="none"/></clipPath></defs><path data-name="Clip 2" d="M0 0h9.586v13H0z" fill="none"/><g data-name="Padlock" clip-path="url(#a)"><path data-name="Fill 1" d="M8.267 13H1.319A1.31 1.31 0 0 1 0 11.7V5.126a1.3 1.3 0 0 1 .808-1.2 4.018 4.018 0 0 1 1.2-2.779 3.955 3.955 0 0 1 5.574 0 4.015 4.015 0 0 1 1.2 2.779 1.3 1.3 0 0 1 .809 1.2V11.7A1.31 1.31 0 0 1 8.267 13zM4.793 5.862a1.8 1.8 0 0 0-1.812 1.784 1.779 1.779 0 0 0 .957 1.573v1.422a.328.328 0 0 0 .329.325h1.052a.328.328 0 0 0 .329-.325V9.219a1.778 1.778 0 0 0 .958-1.573 1.8 1.8 0 0 0-1.813-1.784zm0-4.482a2.619 2.619 0 0 0-2.578 2.447h5.156A2.618 2.618 0 0 0 4.793 1.38z" fill="#fff"/></g></svg>