<svg viewBox="0 0 52 31" xmlns="http://www.w3.org/2000/svg" xmlns:xlink="http://www.w3.org/1999/xlink"><defs><path id="a" d="M0 .054h29.863v23.299H0z"/></defs><g fill="none" fill-rule="evenodd"><rect fill="#E9E9E9" width="52" height="31" rx="8"/><path d="M16.139 24.974a.91.91 0 0 0-.306-.201 1.027 1.027 0 0 0-.388-.072c-.075 0-.152.007-.232.02a1.02 1.02 0 0 0-.235.067.892.892 0 0 0-.22.135.808.808 0 0 0-.18.216.884.884 0 0 0-.336-.321.99.99 0 0 0-.485-.117c-.06 0-.124.006-.19.017a.864.864 0 0 0-.379.169.785.785 0 0 0-.16.178v-.3h-.515v2.453h.52v-1.36a.73.73 0 0 1 .05-.277.553.553 0 0 1 .327-.328.667.667 0 0 1 .238-.042c.175 0 .311.055.408.166.096.111.145.27.145.477v1.364h.52v-1.36a.73.73 0 0 1 .05-.277.555.555 0 0 1 .327-.328.667.667 0 0 1 .238-.042.51.51 0 0 1 .407.166c.097.111.145.27.145.477v1.364h.52v-1.541c0-.144-.023-.275-.07-.394a.896.896 0 0 0-.2-.309m2.725 1.33a.701.701 0 0 1-.686.474.738.738 0 0 1-.312-.063.69.69 0 0 1-.377-.418.896.896 0 0 1-.052-.305c0-.108.017-.21.052-.305a.692.692 0 0 1 .378-.419.74.74 0 0 1 .31-.062.7.7 0 0 1 .686.474c.037.095.054.2.054.312a.88.88 0 0 1-.053.312zm.02-1.242a.959.959 0 0 0-.317-.262.969.969 0 0 0-.454-.099 1.202 1.202 0 0 0-1.131.772c-.064.158-.095.331-.095.519s.031.36.095.518a1.196 1.196 0 0 0 1.132.772.98.98 0 0 0 .453-.097.945.945 0 0 0 .317-.261v.294h.535v-2.453h-.535v.297zm2.995.926c-.15-.117-.36-.195-.627-.234l-.254-.039a2.349 2.349 0 0 1-.158-.03.516.516 0 0 1-.128-.044.246.246 0 0 1-.086-.072.176.176 0 0 1-.032-.107c0-.087.04-.158.121-.211a.616.616 0 0 1 .342-.081c.077 0 .153.007.227.02a1.86 1.86 0 0 1 .393.12c.055.024.1.048.138.07l.23-.417a1.57 1.57 0 0 0-.447-.191 2.123 2.123 0 0 0-.546-.068c-.157 0-.298.018-.422.055a.966.966 0 0 0-.32.156.68.68 0 0 0-.201.247.745.745 0 0 0-.07.328c0 .198.07.358.21.48.141.122.348.202.621.24l.256.033c.147.02.255.053.323.098.068.046.103.103.103.173 0 .092-.047.165-.141.22-.094.053-.233.08-.418.08a1.366 1.366 0 0 1-.488-.075 1.063 1.063 0 0 1-.32-.176l-.25.402c.09.066.183.12.28.161a1.943 1.943 0 0 0 .773.154c.176 0 .333-.02.473-.06.139-.038.256-.093.35-.164a.7.7 0 0 0 .293-.577.586.586 0 0 0-.225-.491m3.514-.206a.914.914 0 0 1 .072-.245.654.654 0 0 1 .132-.192.553.553 0 0 1 .192-.124.698.698 0 0 1 .255-.043c.17 0 .31.053.417.158a.766.766 0 0 1 .205.446h-1.273zm1.497-.723a1.052 1.052 0 0 0-.366-.264 1.162 1.162 0 0 0-.47-.094c-.181 0-.346.031-.496.094-.149.062-.277.15-.385.264a1.2 1.2 0 0 0-.25.408c-.06.159-.09.334-.09.525 0 .194.03.371.092.53a1.146 1.146 0 0 0 .655.668c.154.062.323.092.507.092.186 0 .363-.025.532-.076.168-.052.327-.141.477-.27l-.266-.38a1.197 1.197 0 0 1-.34.19 1.07 1.07 0 0 1-.37.068.871.871 0 0 1-.25-.036.655.655 0 0 1-.385-.305.798.798 0 0 1-.094-.284h1.812a1.544 1.544 0 0 0 .01-.2c0-.19-.028-.366-.085-.523a1.233 1.233 0 0 0-.238-.407zm7.09 1.245a.701.701 0 0 1-.686.474.738.738 0 0 1-.312-.063.69.69 0 0 1-.232-.169.746.746 0 0 1-.146-.25.898.898 0 0 1-.05-.304.9.9 0 0 1 .05-.305.692.692 0 0 1 .378-.419.74.74 0 0 1 .311-.062.7.7 0 0 1 .686.474c.036.095.054.2.054.312a.882.882 0 0 1-.054.312zm.02-1.242a.96.96 0 0 0-.318-.262.969.969 0 0 0-.453-.099 1.202 1.202 0 0 0-1.132.772c-.063.158-.094.331-.094.519s.031.36.094.518a1.196 1.196 0 0 0 1.132.772.98.98 0 0 0 .453-.097.947.947 0 0 0 .318-.261v.294h.535v-2.453h-.535v.297zm-9.826 1.667a.719.719 0 0 1-.255.049.442.442 0 0 1-.152-.026.317.317 0 0 1-.123-.08.39.39 0 0 1-.083-.142.634.634 0 0 1-.031-.21v-1.068h.86v-.487h-.86v-.742h-.538v.742h-.489v.487h.49v1.078c0 .326.076.566.23.72.155.155.372.232.65.232.155 0 .295-.024.419-.071a1.76 1.76 0 0 0 .228-.108l-.183-.448a1.359 1.359 0 0 1-.163.074m4.832-2.028a.98.98 0 0 0-.408.082c-.121.055-.222.186-.304.304v-.322h-.486v2.453h.49v-1.35c0-.103.015-.196.044-.278a.65.65 0 0 1 .12-.208.497.497 0 0 1 .185-.128.621.621 0 0 1 .236-.043 1.048 1.048 0 0 1 .317.052l.158-.512a.974.974 0 0 0-.131-.033 1.333 1.333 0 0 0-.221-.017m7.439 0a.98.98 0 0 0-.407.082c-.122.055-.223.186-.305.304v-.322h-.486v2.453h.491v-1.35c0-.103.015-.196.044-.278a.604.604 0 0 1 .12-.208.497.497 0 0 1 .184-.128.622.622 0 0 1 .236-.043 1.048 1.048 0 0 1 .317.052l.159-.512a.983.983 0 0 0-.132-.033 1.334 1.334 0 0 0-.221-.017m2.479 1.603a.703.703 0 0 1-.686.474.738.738 0 0 1-.311-.063.69.69 0 0 1-.378-.418.895.895 0 0 1-.051-.305c0-.108.017-.21.05-.305a.692.692 0 0 1 .378-.419.74.74 0 0 1 .312-.062.702.702 0 0 1 .686.474c.036.095.054.2.054.312a.882.882 0 0 1-.054.312zm.02-2.536v1.294a.96.96 0 0 0-.317-.262.97.97 0 0 0-.453-.099 1.203 1.203 0 0 0-1.132.772c-.063.158-.095.331-.095.519s.032.36.095.518a1.195 1.195 0 0 0 1.132.772.981.981 0 0 0 .453-.097.946.946 0 0 0 .317-.261v.294h.536v-3.45h-.536z" fill="#1A1919"/><g transform="translate(11 4)"><mask id="b" fill="#fff"><use xlink:href="#a"/></mask><path d="M19.285 21.425a.72.72 0 0 1 .243-.162.797.797 0 0 1 .305-.057c.12 0 .232.019.335.057.1.037.187.09.26.155l.258-.428a1.313 1.313 0 0 0-.327-.19 1.38 1.38 0 0 0-.526-.099c-.19 0-.365.033-.526.099-.161.066-.3.156-.417.271a1.257 1.257 0 0 0-.276.409 1.3 1.3 0 0 0-.1.512c0 .184.034.355.1.512a1.255 1.255 0 0 0 .693.68c.161.065.337.098.526.098a1.353 1.353 0 0 0 .853-.288l-.258-.428a.805.805 0 0 1-.26.154.957.957 0 0 1-.335.058.8.8 0 0 1-.305-.058.719.719 0 0 1-.404-.41.838.838 0 0 1-.059-.318c0-.116.02-.222.059-.319a.753.753 0 0 1 .161-.248m10.5 1.82v.081h.09a.089.089 0 0 0 .043-.009.033.033 0 0 0 .016-.03c0-.015-.005-.026-.016-.032a.08.08 0 0 0-.043-.01h-.09zm.092-.108c.06 0 .104.014.135.04.03.028.046.064.046.11a.124.124 0 0 1-.033.087.167.167 0 0 1-.096.047l.134.159h-.145l-.12-.155h-.014v.155h-.12v-.443h.213zm-.028.583a.35.35 0 0 0 .321-.22.37.37 0 0 0-.074-.397.353.353 0 0 0-.247-.105.34.34 0 0 0-.25.105.37.37 0 0 0-.075.397.357.357 0 0 0 .186.192.34.34 0 0 0 .14.028zm0-.861a.485.485 0 0 1 .353.147.503.503 0 0 1-.158.813.497.497 0 0 1-.696-.46.49.49 0 0 1 .303-.46.497.497 0 0 1 .198-.04z" fill="#1A1919" mask="url(#b)"/><path d="M11.469 9.299a9.226 9.226 0 0 1 3.51-7.249 9.245 9.245 0 1 0 0 14.497 9.226 9.226 0 0 1-3.51-7.248" fill="#D9262C" mask="url(#b)"/></g><path d="M22.469 13.299a9.226 9.226 0 0 0 3.51 7.249 9.226 9.226 0 0 0 3.51-7.25 9.225 9.225 0 0 0-3.51-7.248 9.226 9.226 0 0 0-3.51 7.249" fill="#E26229"/><path d="M41.116 18.954v-.693l-.1.598h-.112l-.1-.597v.692h-.106v-1h.15l.112.64.11-.64h.151v1h-.105zm-.753 0v-.784h-.142v-.216h.39v.216h-.143v.784h-.105zm-8.65-14.9a9.203 9.203 0 0 0-5.735 1.996 9.225 9.225 0 0 1 3.51 7.249 9.226 9.226 0 0 1-3.51 7.249 9.245 9.245 0 1 0 5.734-16.493" fill="#ED982F"/></g></svg>