<svg xmlns="http://www.w3.org/2000/svg" width="42.778" height="56.61"><g data-name="Group 13" fill="#fff"><path data-name="Fill 1" d="M39.634 56.61H3.144A3.147 3.147 0 0 1 0 53.466V3.144A3.147 3.147 0 0 1 3.144 0h36.49a3.147 3.147 0 0 1 3.144 3.144v50.322a3.147 3.147 0 0 1-3.144 3.144zM3.144 1.28A1.866 1.866 0 0 0 1.28 3.144v50.322a1.866 1.866 0 0 0 1.864 1.864h36.49a1.866 1.866 0 0 0 1.866-1.864V3.144a1.866 1.866 0 0 0-1.866-1.864z"/><path data-name="Fill 3" d="M21.382 47.376a11.252 11.252 0 0 1-7.978-3.307 11.339 11.339 0 0 1-3.206-6.451 12.533 12.533 0 0 1 1.709-7.968 8.3 8.3 0 0 1 3.046-3.046 12.988 12.988 0 0 1 6.445-1.809 11.293 11.293 0 0 1 11.178 9.759 12.532 12.532 0 0 1-1.706 7.968 8.3 8.3 0 0 1-3.046 3.046 12.987 12.987 0 0 1-6.442 1.808zm.016-21.301a11.705 11.705 0 0 0-5.806 1.638 7.031 7.031 0 0 0-2.576 2.576 11.265 11.265 0 0 0-1.547 7.156 9.995 9.995 0 0 0 9.91 8.65 11.715 11.715 0 0 0 5.806-1.638 7.031 7.031 0 0 0 2.576-2.576 11.265 11.265 0 0 0 1.547-7.155 10 10 0 0 0-9.91-8.651z"/><path data-name="Fill 5" d="M31.692 36.726H11.085a.64.64 0 0 1 0-1.28h20.607a.64.64 0 0 1 0 1.28"/><path data-name="Fill 7" d="M17.714 46.29a.64.64 0 0 1-.64-.64V26.302a.64.64 0 0 1 1.28 0V45.65a.64.64 0 0 1-.64.64"/><path data-name="Fill 9" d="M25.09 46.29a.64.64 0 0 1-.64-.64V26.302a.64.64 0 0 1 1.28 0V45.65a.64.64 0 0 1-.64.64"/><path data-name="Fill 11" d="M32.594 13.522H10.21a.64.64 0 0 1 0-1.28h22.384a.64.64 0 1 1 0 1.28"/></g></svg>