<svg xmlns="http://www.w3.org/2000/svg"><defs><font id="PaulGrotesk-Regular" horiz-adv-x="0"><font-face font-family="Paul Grotesk" font-weight="400" panose-1="0 0 5 0 0 0 0 0 0 0" ascent="800" descent="-200" x-height="500" cap-height="700" bbox="-377 -251 1108 940" underline-thickness="63" underline-position="-150" stemh="74" stemv="89" unicode-range="U+0020-FB02"/><glyph glyph-name="fi" unicode="fi" horiz-adv-x="521" d="M89 585c0 89 54 145 142 145h52v-72h-35c-47 0-78-33-78-87v-71h86v-62h-86V0H89v438H11v62h78v85zm316 17c-31 0-55 25-55 55 0 31 24 55 55 55 30 0 54-24 54-55 0-30-24-55-54-55zM364 0v500h82V0h-82z"/><glyph glyph-name="fl" unicode="fl" horiz-adv-x="516" d="M89 585c0 89 54 145 142 145h52v-72h-35c-47 0-78-33-78-87v-71h86v-62h-86V0H89v438H11v62h78v85zm270 145h82V0h-82v730z"/><glyph glyph-name=".notdef" horiz-adv-x="665" d="M83 0v710h499V0H83zm85 76h329v558H168V76z"/><glyph glyph-name="A" unicode="A" horiz-adv-x="625" d="M526 0l-65 190H162L98 0H8l254 700h100L617 0h-91zM188 264h248L312 630z"/><glyph glyph-name="Aacute" unicode="Á" horiz-adv-x="625" d="M425 847l-97-119h-69l76 119h90zM526 0l-65 190H162L98 0H8l254 700h100L617 0h-91zM188 264h248L312 630z"/><glyph glyph-name="Abreve" unicode="Ă" horiz-adv-x="625" d="M312 728c-81 0-137 48-142 123h50c5-48 41-78 92-78 50 0 86 30 90 78h50c-5-75-60-123-140-123zM526 0l-65 190H162L98 0H8l254 700h100L617 0h-91zM188 264h248L312 630z"/><glyph glyph-name="uni01CD" unicode="Ǎ" horiz-adv-x="625" d="M343 728h-61L169 847h67l76-87 75 87h68zM526 0l-65 190H162L98 0H8l254 700h100L617 0h-91zM188 264h248L312 630z"/><glyph glyph-name="Acircumflex" unicode="Â" horiz-adv-x="625" d="M312 815l-76-87h-67l113 119h61l112-119h-68zM526 0l-65 190H162L98 0H8l254 700h100L617 0h-91zM188 264h248L312 630z"/><glyph glyph-name="Adieresis" unicode="Ä" horiz-adv-x="625" d="M218 759c-24 0-44 19-44 43 0 25 20 43 44 43s43-18 43-43c0-24-19-43-43-43zm188 0c-25 0-44 19-44 43 0 25 19 43 44 43 23 0 42-18 42-43 0-24-19-43-42-43zM526 0l-65 190H162L98 0H8l254 700h100L617 0h-91zM188 264h248L312 630z"/><glyph glyph-name="Agrave" unicode="À" horiz-adv-x="625" d="M374 728h-69L204 847h93zM526 0l-65 190H162L98 0H8l254 700h100L617 0h-91zM188 264h248L312 630z"/><glyph glyph-name="Amacron" unicode="Ā" horiz-adv-x="625" d="M452 815v-51H172v51h280zM526 0l-65 190H162L98 0H8l254 700h100L617 0h-91zM188 264h248L312 630z"/><glyph glyph-name="Aogonek" unicode="Ą" horiz-adv-x="625" d="M616 0c-53-28-83-59-83-95 0-29 17-42 63-42h19v-53h-27c-90 0-136 29-136 81 0 41 31 79 79 109h-5l-65 190H162L98 0H8l254 700h100L617 0h-1zM188 264h248L312 630z"/><glyph glyph-name="Aring" unicode="Å" horiz-adv-x="625" d="M312 733c-55 0-89 34-89 88s34 87 89 87c53 0 89-33 89-87s-36-88-89-88zm0 144c-35 0-56-21-56-56s21-56 56-56c34 0 55 21 55 56s-21 56-55 56zM526 0l-65 190H162L98 0H8l254 700h100L617 0h-91zM188 264h248L312 630z"/><glyph glyph-name="Atilde" unicode="Ã" horiz-adv-x="625" d="M244 787c-25 0-41-19-41-52l-48 1c0 61 36 100 85 100 62 0 93-51 141-51 24 0 41 20 41 53h46c0-62-35-100-84-100-61 0-93 49-140 49zM526 0l-65 190H162L98 0H8l254 700h100L617 0h-91zM188 264h248L312 630z"/><glyph glyph-name="AE" unicode="Æ" horiz-adv-x="869" d="M515 76h321V0H430v191H189L106 0H8l313 700h507v-76H515V393h269v-76H515V76zM219 262h211v364h-53z"/><glyph glyph-name="B" unicode="B" horiz-adv-x="587" d="M397 367c91-15 148-83 148-177C545 74 456 0 315 0H83v700h214c138 0 222-68 222-173 0-80-48-140-122-160zm-96 257H168V402h131c83 0 134 45 134 114 0 68-51 108-132 108zm13-548c87 0 143 47 143 122 0 78-61 128-157 128H168V76h146z"/><glyph glyph-name="C" unicode="C" horiz-adv-x="671" d="M354 713c144 0 249-85 269-239l-89-15c-18 118-90 175-183 175-129 0-209-111-209-283 0-174 81-283 211-283 98 0 170 64 188 176l86-13C604 69 494-11 355-11 170-11 54 129 54 352c0 220 113 361 300 361z"/><glyph glyph-name="Cacute" unicode="Ć" horiz-adv-x="671" d="M365 862h90l-97-119h-69zm-11-149c144 0 249-85 269-239l-89-15c-18 118-90 175-183 175-129 0-209-111-209-283 0-174 81-283 211-283 98 0 170 64 188 176l86-13C604 69 494-11 355-11 170-11 54 129 54 352c0 220 113 361 300 361z"/><glyph glyph-name="Ccaron" unicode="Č" horiz-adv-x="671" d="M417 862h68L373 743h-61L199 862h67l76-87zm-63-149c144 0 249-85 269-239l-89-15c-18 118-90 175-183 175-129 0-209-111-209-283 0-174 81-283 211-283 98 0 170 64 188 176l86-13C604 69 494-11 355-11 170-11 54 129 54 352c0 220 113 361 300 361z"/><glyph glyph-name="Ccedilla" unicode="Ç" horiz-adv-x="671" d="M627 231C605 79 507-1 380-10l-19-37c59 0 95-27 95-71s-37-72-96-72c-30 0-57 7-88 23l11 30c34-16 50-20 67-20 34 0 49 16 49 41 0 26-20 40-57 40h-24l-1 23 23 42C164-3 54 135 54 352c0 220 113 361 300 361 144 0 249-85 269-239l-89-15c-18 118-90 175-183 175-129 0-209-111-209-283 0-174 81-283 211-283 98 0 170 64 188 176z"/><glyph glyph-name="Ccircumflex" unicode="Ĉ" horiz-adv-x="671" d="M485 743h-68l-75 87-76-87h-67l113 119h61zm-131-30c144 0 249-85 269-239l-89-15c-18 118-90 175-183 175-129 0-209-111-209-283 0-174 81-283 211-283 98 0 170 64 188 176l86-13C604 69 494-11 355-11 170-11 54 129 54 352c0 220 113 361 300 361z"/><glyph glyph-name="Cdotaccent" unicode="Ċ" horiz-adv-x="671" d="M342 769c-31 0-55 25-55 56 0 30 24 54 55 54 30 0 54-24 54-54 0-31-24-56-54-56zm12-56c144 0 249-85 269-239l-89-15c-18 118-90 175-183 175-129 0-209-111-209-283 0-174 81-283 211-283 98 0 170 64 188 176l86-13C604 69 494-11 355-11 170-11 54 129 54 352c0 220 113 361 300 361z"/><glyph glyph-name="D" unicode="D" horiz-adv-x="695" d="M288 700c217 0 354-134 354-349S505 0 288 0H83v700h205zm-2-624c164 0 267 106 267 275 0 168-103 274-267 274H168V76h118z"/><glyph glyph-name="Eth" unicode="Ð" horiz-adv-x="710" d="M288 700c217 0 354-134 354-349S505 0 288 0H83v333H14v55h69v312h205zm-2-624c164 0 267 106 267 275 0 168-103 274-267 274H168V388h135v-55H168V76h118z"/><glyph glyph-name="Dcaron" unicode="Ď" horiz-adv-x="695" d="M370 728h-61L196 847h67l76-87 75 87h68zm-82-28c217 0 354-134 354-349S505 0 288 0H83v700h205zm-2-624c164 0 267 106 267 275 0 168-103 274-267 274H168V76h118z"/><glyph glyph-name="Dcroat" unicode="Đ" horiz-adv-x="710" d="M288 700c217 0 354-134 354-349S505 0 288 0H83v333H14v55h69v312h205zm-2-624c164 0 267 106 267 275 0 168-103 274-267 274H168V388h135v-55H168V76h118z"/><glyph glyph-name="E" unicode="E" horiz-adv-x="522" d="M168 76h321V0H83v700h398v-76H168V393h269v-76H168V76z"/><glyph glyph-name="Eacute" unicode="É" horiz-adv-x="522" d="M389 847l-97-119h-69l76 119h90zM168 76h321V0H83v700h398v-76H168V393h269v-76H168V76z"/><glyph glyph-name="Ebreve" unicode="Ĕ" horiz-adv-x="522" d="M276 728c-81 0-137 48-142 123h50c5-48 41-78 92-78 50 0 86 30 90 78h50c-5-75-60-123-140-123zM168 76h321V0H83v700h398v-76H168V393h269v-76H168V76z"/><glyph glyph-name="Ecaron" unicode="Ě" horiz-adv-x="522" d="M307 728h-61L133 847h67l76-87 75 87h68zM168 76h321V0H83v700h398v-76H168V393h269v-76H168V76z"/><glyph glyph-name="Ecircumflex" unicode="Ê" horiz-adv-x="522" d="M276 815l-76-87h-67l113 119h61l112-119h-68zM168 76h321V0H83v700h398v-76H168V393h269v-76H168V76z"/><glyph glyph-name="Edieresis" unicode="Ë" horiz-adv-x="522" d="M182 759c-24 0-44 19-44 43 0 25 20 43 44 43s43-18 43-43c0-24-19-43-43-43zm188 0c-25 0-44 19-44 43 0 25 19 43 44 43 23 0 42-18 42-43 0-24-19-43-42-43zM168 76h321V0H83v700h398v-76H168V393h269v-76H168V76z"/><glyph glyph-name="Edotaccent" unicode="Ė" horiz-adv-x="522" d="M276 754c-31 0-55 25-55 56 0 30 24 54 55 54 30 0 54-24 54-54 0-31-24-56-54-56zM168 76h321V0H83v700h398v-76H168V393h269v-76H168V76z"/><glyph glyph-name="Egrave" unicode="È" horiz-adv-x="522" d="M338 728h-69L168 847h93zM168 76h321V0H83v700h398v-76H168V393h269v-76H168V76z"/><glyph glyph-name="Emacron" unicode="Ē" horiz-adv-x="522" d="M416 815v-51H136v51h280zM168 76h321V0H83v700h398v-76H168V393h269v-76H168V76z"/><glyph glyph-name="Eogonek" unicode="Ę" horiz-adv-x="522" d="M489 0c-53-28-83-59-83-95 0-29 17-42 63-42h19v-53h-27c-90 0-136 29-136 81 0 41 31 79 79 109H83v700h398v-76H168V393h269v-76H168V76h321V0z"/><glyph glyph-name="F" unicode="F" horiz-adv-x="506" d="M481 624H168V361h272v-76H167V0H83v700h398v-76z"/><glyph glyph-name="G" unicode="G" horiz-adv-x="690" d="M366 342h279v-30C645 96 528-11 357-11 163-11 54 127 54 348c0 227 115 367 299 367 130 0 247-70 275-218l-85-14c-23 102-97 152-188 152-134 0-213-110-213-288 0-172 74-278 217-278 112 0 187 64 195 197H366v76z"/><glyph glyph-name="Gbreve" unicode="Ğ" horiz-adv-x="690" d="M353 745c-81 0-137 48-142 123h50c5-48 41-78 92-78 50 0 86 30 90 78h50c-5-75-60-123-140-123zm13-403h279v-30C645 96 528-11 357-11 163-11 54 127 54 348c0 227 115 367 299 367 130 0 247-70 275-218l-85-14c-23 102-97 152-188 152-134 0-213-110-213-288 0-172 74-278 217-278 112 0 187 64 195 197H366v76z"/><glyph glyph-name="Gcircumflex" unicode="Ĝ" horiz-adv-x="690" d="M353 832l-76-87h-67l113 119h61l112-119h-68zm13-490h279v-30C645 96 528-11 357-11 163-11 54 127 54 348c0 227 115 367 299 367 130 0 247-70 275-218l-85-14c-23 102-97 152-188 152-134 0-213-110-213-288 0-172 74-278 217-278 112 0 187 64 195 197H366v76z"/><glyph glyph-name="Gcommaaccent" unicode="Ģ" horiz-adv-x="690" d="M366 342h279v-30C645 96 528-11 357-11 163-11 54 127 54 348c0 227 115 367 299 367 130 0 247-70 275-218l-85-14c-23 102-97 152-188 152-134 0-213-110-213-288 0-172 74-278 217-278 112 0 187 64 195 197H366v76zM346-45c28 0 49-21 49-49 0-19-9-43-54-152h-49l40 104c-21 7-36 25-35 48 0 29 22 49 49 49z"/><glyph glyph-name="Gdotaccent" unicode="Ġ" horiz-adv-x="690" d="M353 771c-31 0-55 25-55 56 0 30 24 54 55 54 30 0 54-24 54-54 0-31-24-56-54-56zm13-429h279v-30C645 96 528-11 357-11 163-11 54 127 54 348c0 227 115 367 299 367 130 0 247-70 275-218l-85-14c-23 102-97 152-188 152-134 0-213-110-213-288 0-172 74-278 217-278 112 0 187 64 195 197H366v76z"/><glyph glyph-name="H" unicode="H" horiz-adv-x="665" d="M497 700h85V0h-85v322H168V0H83v700h85V398h329v302z"/><glyph glyph-name="Hbar" unicode="Ħ" horiz-adv-x="780" d="M697 586v-47h-57V0h-85v322H226V0h-85v539H83v47h58v114h85V586h329v114h85V586h57zM555 398v141H226V398h329z"/><glyph glyph-name="Hcircumflex" unicode="Ĥ" horiz-adv-x="665" d="M333 815l-76-87h-67l113 119h61l112-119h-68zm164-115h85V0h-85v322H168V0H83v700h85V398h329v302z"/><glyph glyph-name="I" unicode="I" horiz-adv-x="250" d="M168 0H83v700h85V0z"/><glyph glyph-name="Iacute" unicode="Í" horiz-adv-x="250" d="M148 847h90l-97-119H72zM168 0H83v700h85V0z"/><glyph glyph-name="Ibreve" unicode="Ĭ" horiz-adv-x="250" d="M215 851h50c-5-75-60-123-140-123-81 0-137 48-142 123h50c5-48 41-78 92-78 50 0 86 30 90 78zM168 0H83v700h85V0z"/><glyph glyph-name="uni01CF" unicode="Ǐ" horiz-adv-x="250" d="M200 847h68L156 728H95L-18 847h67l76-87zM168 0H83v700h85V0z"/><glyph glyph-name="Icircumflex" unicode="Î" horiz-adv-x="250" d="M268 728h-68l-75 87-76-87h-67L95 847h61zM168 0H83v700h85V0z"/><glyph glyph-name="Idieresis" unicode="Ï" horiz-adv-x="250" d="M31 759c-24 0-44 19-44 43 0 25 20 43 44 43s43-18 43-43c0-24-19-43-43-43zm188 0c-25 0-44 19-44 43 0 25 19 43 44 43 23 0 42-18 42-43 0-24-19-43-42-43zM168 0H83v700h85V0z"/><glyph glyph-name="Idotaccent" unicode="İ" horiz-adv-x="250" d="M125 754c-31 0-55 25-55 56 0 30 24 54 55 54 30 0 54-24 54-54 0-31-24-56-54-56zM168 0H83v700h85V0z"/><glyph glyph-name="Igrave" unicode="Ì" horiz-adv-x="250" d="M110 847l77-119h-69L17 847h93zM168 0H83v700h85V0z"/><glyph glyph-name="Imacron" unicode="Ī" horiz-adv-x="250" d="M265 764H-15v51h280v-51zM168 0H83v700h85V0z"/><glyph glyph-name="Iogonek" unicode="Į" horiz-adv-x="250" d="M168 0c-53-28-83-59-83-95 0-29 17-42 63-42h19v-53h-27C50-190 4-161 4-109 4-68 35-30 83 0v700h85V0z"/><glyph glyph-name="Itilde" unicode="Ĩ" horiz-adv-x="250" d="M235 838h46c0-62-35-100-84-100-61 0-93 49-140 49-25 0-41-19-41-52l-48 1c0 61 36 100 85 100 62 0 93-51 141-51 24 0 41 20 41 53zM168 0H83v700h85V0z"/><glyph glyph-name="J" unicode="J" horiz-adv-x="313" d="M7 0v76h62c64 0 97 36 97 102v522h85V155C251 57 190 0 94 0H7z"/><glyph glyph-name="Jcircumflex" unicode="Ĵ" horiz-adv-x="313" d="M351 728h-68l-75 87-76-87H65l113 119h61zM7 0v76h62c64 0 97 36 97 102v522h85V155C251 57 190 0 94 0H7z"/><glyph glyph-name="K" unicode="K" horiz-adv-x="600" d="M483 0L241 338l-75-88V0H83v700h83V358l292 342h100L302 397 588 0H483z"/><glyph glyph-name="Kcommaaccent" unicode="Ķ" horiz-adv-x="600" d="M302 397L588 0H483L241 338l-75-88V0H83v700h83V358l292 342h100zm-8-442c28 0 49-21 49-49 0-19-9-43-54-152h-49l40 104c-21 7-36 25-35 48 0 29 22 49 49 49z"/><glyph glyph-name="L" unicode="L" horiz-adv-x="478" d="M168 76h302V0H83v700h85V76z"/><glyph glyph-name="Lacute" unicode="Ĺ" horiz-adv-x="478" d="M363 847l-97-119h-69l76 119h90zM168 76h302V0H83v700h85V76z"/><glyph glyph-name="Lcaron" unicode="Ľ" horiz-adv-x="478" d="M361 709l-61-173h-44l35 173h70zM168 76h302V0H83v700h85V76z"/><glyph glyph-name="Lcommaaccent" unicode="Ļ" horiz-adv-x="478" d="M168 76h302V0H83v700h85V76zM274-45c28 0 49-21 49-49 0-19-9-43-54-152h-49l40 104c-21 7-36 25-35 48 0 29 22 49 49 49z"/><glyph glyph-name="Ldot" unicode="Ŀ" horiz-adv-x="478" d="M168 76h302V0H83v700h85V76zm156 266c-35 0-63 28-63 63s28 63 63 63c34 0 62-28 62-63s-28-63-62-63z"/><glyph glyph-name="Lslash" unicode="Ł" horiz-adv-x="500" d="M190 76h302V0H105v276l-72-44v70l72 44v354h85V399l173 105v-69L190 331V76z"/><glyph glyph-name="M" unicode="M" horiz-adv-x="858" d="M673 699h102V0h-81v561l-87-230L468 0h-80L250 332l-87 231V0H83v700h104L430 89z"/><glyph glyph-name="N" unicode="N" horiz-adv-x="711" d="M548 700h80V0H522L263 410 162 584V0H83v700h105l261-420 99-169v589z"/><glyph glyph-name="Nacute" unicode="Ń" horiz-adv-x="711" d="M470 847l-97-119h-69l76 119h90zm78-147h80V0H522L263 410 162 584V0H83v700h105l261-420 99-169v589z"/><glyph glyph-name="Ncaron" unicode="Ň" horiz-adv-x="711" d="M388 728h-61L214 847h67l76-87 75 87h68zm160-28h80V0H522L263 410 162 584V0H83v700h105l261-420 99-169v589z"/><glyph glyph-name="Ncommaaccent" unicode="Ņ" horiz-adv-x="711" d="M548 700h80V0H522L263 410 162 584V0H83v700h105l261-420 99-169v589zM358-45c28 0 49-21 49-49 0-19-9-43-54-152h-49l40 104c-21 7-36 25-35 48 0 29 22 49 49 49z"/><glyph glyph-name="Eng" unicode="Ŋ" horiz-adv-x="712" d="M546 700h83V-21c0-102-63-166-157-166h-67v71h43c70 0 98 45 98 134L164 579V0H83v700h106l357-536v536z"/><glyph glyph-name="Ntilde" unicode="Ñ" horiz-adv-x="711" d="M289 787c-25 0-41-19-41-52l-48 1c0 61 36 100 85 100 62 0 93-51 141-51 24 0 41 20 41 53h46c0-62-35-100-84-100-61 0-93 49-140 49zm259-87h80V0H522L263 410 162 584V0H83v700h105l261-420 99-169v589z"/><glyph glyph-name="O" unicode="O" horiz-adv-x="730" d="M365 714c192 0 311-138 311-361 0-222-119-364-311-364C175-11 54 131 54 353s120 361 311 361zm0-79c-137 0-223-109-223-282 0-174 87-285 223-285 138 0 223 111 223 285s-86 282-223 282z"/><glyph glyph-name="Oacute" unicode="Ó" horiz-adv-x="730" d="M388 861h90l-97-119h-69zm-23-147c192 0 311-138 311-361 0-222-119-364-311-364C175-11 54 131 54 353s120 361 311 361zm0-79c-137 0-223-109-223-282 0-174 87-285 223-285 138 0 223 111 223 285s-86 282-223 282z"/><glyph glyph-name="Obreve" unicode="Ŏ" horiz-adv-x="730" d="M455 865h50c-5-75-60-123-140-123-81 0-137 48-142 123h50c5-48 41-78 92-78 50 0 86 30 90 78zm-90-151c192 0 311-138 311-361 0-222-119-364-311-364C175-11 54 131 54 353s120 361 311 361zm0-79c-137 0-223-109-223-282 0-174 87-285 223-285 138 0 223 111 223 285s-86 282-223 282z"/><glyph glyph-name="uni01D1" unicode="Ǒ" horiz-adv-x="730" d="M440 861h68L396 742h-61L222 861h67l76-87zm-75-147c192 0 311-138 311-361 0-222-119-364-311-364C175-11 54 131 54 353s120 361 311 361zm0-79c-137 0-223-109-223-282 0-174 87-285 223-285 138 0 223 111 223 285s-86 282-223 282z"/><glyph glyph-name="Ocircumflex" unicode="Ô" horiz-adv-x="730" d="M508 742h-68l-75 87-76-87h-67l113 119h61zm-143-28c192 0 311-138 311-361 0-222-119-364-311-364C175-11 54 131 54 353s120 361 311 361zm0-79c-137 0-223-109-223-282 0-174 87-285 223-285 138 0 223 111 223 285s-86 282-223 282z"/><glyph glyph-name="Odieresis" unicode="Ö" horiz-adv-x="730" d="M271 773c-24 0-44 19-44 43 0 25 20 43 44 43s43-18 43-43c0-24-19-43-43-43zm188 0c-25 0-44 19-44 43 0 25 19 43 44 43 23 0 42-18 42-43 0-24-19-43-42-43zm-94-59c192 0 311-138 311-361 0-222-119-364-311-364C175-11 54 131 54 353s120 361 311 361zm0-79c-137 0-223-109-223-282 0-174 87-285 223-285 138 0 223 111 223 285s-86 282-223 282z"/><glyph glyph-name="Ograve" unicode="Ò" horiz-adv-x="730" d="M350 861l77-119h-69L257 861h93zm15-147c192 0 311-138 311-361 0-222-119-364-311-364C175-11 54 131 54 353s120 361 311 361zm0-79c-137 0-223-109-223-282 0-174 87-285 223-285 138 0 223 111 223 285s-86 282-223 282z"/><glyph glyph-name="Ohungarumlaut" unicode="Ő" horiz-adv-x="730" d="M233 774l88 119h82L299 774h-66zm144 0l86 119h82L441 774h-64zm-12-60c192 0 311-138 311-361 0-222-119-364-311-364C175-11 54 131 54 353s120 361 311 361zm0-79c-137 0-223-109-223-282 0-174 87-285 223-285 138 0 223 111 223 285s-86 282-223 282z"/><glyph glyph-name="Omacron" unicode="Ō" horiz-adv-x="730" d="M505 778H225v51h280v-51zm-140-64c192 0 311-138 311-361 0-222-119-364-311-364C175-11 54 131 54 353s120 361 311 361zm0-79c-137 0-223-109-223-282 0-174 87-285 223-285 138 0 223 111 223 285s-86 282-223 282z"/><glyph glyph-name="Oslash" unicode="Ø" horiz-adv-x="730" d="M594 615c53-62 82-151 82-262 0-222-119-364-311-364-76 0-141 23-192 65l-62-83L63 7l68 90c-50 63-77 150-77 256 0 222 120 361 311 361 73 0 136-20 185-57l54 71 48-35zM142 353c0-73 15-135 43-183l314 419c-35 30-81 46-134 46-137 0-223-109-223-282zM365 68c138 0 223 111 223 285 0 78-17 142-48 190L224 122c37-35 85-54 141-54z"/><glyph glyph-name="Otilde" unicode="Õ" horiz-adv-x="730" d="M475 852h46c0-62-35-100-84-100-61 0-93 49-140 49-25 0-41-19-41-52l-48 1c0 61 36 100 85 100 62 0 93-51 141-51 24 0 41 20 41 53zM365 714c192 0 311-138 311-361 0-222-119-364-311-364C175-11 54 131 54 353s120 361 311 361zm0-79c-137 0-223-109-223-282 0-174 87-285 223-285 138 0 223 111 223 285s-86 282-223 282z"/><glyph glyph-name="OE" unicode="Œ" horiz-adv-x="975" d="M621 76h321V0H536v99C491 32 424-6 340-6 164-6 54 133 54 353c0 222 109 361 286 361 84 0 151-38 196-105v91h398v-76H621V393h269v-76H621V76zm-281-6c120 0 195 110 195 283 0 177-75 285-195 285-122 0-198-109-198-285 0-173 76-283 198-283z"/><glyph glyph-name="P" unicode="P" horiz-adv-x="571" d="M320 700c141 0 230-80 230-207 0-130-89-211-230-211H168V0H83v700h237zm-9-342c92 0 150 52 150 135 0 81-58 131-150 131H168V358h143z"/><glyph glyph-name="Thorn" unicode="Þ" horiz-adv-x="583" d="M329 575c143 0 233-81 233-211 0-131-89-212-233-212H168V0H83v709h84V575h162zm-7-351c97 0 153 54 153 140 0 85-56 139-153 139H168V224h154z"/><glyph glyph-name="Q" unicode="Q" horiz-adv-x="735" d="M478 8c24-48 100-76 201-76v-75C526-143 417-91 400-9c-11-1-23-2-35-2C175-11 54 131 54 353s120 361 311 361c192 0 311-138 311-361 0-175-74-300-198-345zM142 353c0-174 87-285 223-285 138 0 223 111 223 285s-86 282-223 282-223-109-223-282z"/><glyph glyph-name="R" unicode="R" horiz-adv-x="595" d="M467 0L268 296H168V0H83v700h239c142 0 230-78 230-203 0-109-70-183-185-198L566 0h-99zM168 624V372h147c91 0 148 48 148 125 0 79-57 127-148 127H168z"/><glyph glyph-name="Racute" unicode="Ŕ" horiz-adv-x="595" d="M410 847l-97-119h-69l76 119h90zM467 0L268 296H168V0H83v700h239c142 0 230-78 230-203 0-109-70-183-185-198L566 0h-99zM168 624V372h147c91 0 148 48 148 125 0 79-57 127-148 127H168z"/><glyph glyph-name="Rcaron" unicode="Ř" horiz-adv-x="595" d="M328 728h-61L154 847h67l76-87 75 87h68zM467 0L268 296H168V0H83v700h239c142 0 230-78 230-203 0-109-70-183-185-198L566 0h-99zM168 624V372h147c91 0 148 48 148 125 0 79-57 127-148 127H168z"/><glyph glyph-name="Rcommaaccent" unicode="Ŗ" horiz-adv-x="595" d="M367 299L566 0h-99L268 296H168V0H83v700h239c142 0 230-78 230-203 0-109-70-183-185-198zM168 624V372h147c91 0 148 48 148 125 0 79-57 127-148 127H168zM298-45c28 0 49-21 49-49 0-19-9-43-54-152h-49l40 104c-21 7-36 25-35 48 0 29 22 49 49 49z"/><glyph glyph-name="S" unicode="S" horiz-adv-x="580" d="M307-11C148-11 51 77 33 204l85 13c18-94 83-149 191-149 90 0 145 39 145 110 0 187-397 102-397 349 0 126 104 188 229 188 139 0 224-78 245-192l-85-14c-19 79-75 127-161 127-79 0-140-40-140-106 0-168 397-91 397-346 0-123-90-195-235-195z"/><glyph glyph-name="Sacute" unicode="Ś" horiz-adv-x="580" d="M310 862h90l-97-119h-69zm-3-873C148-11 51 77 33 204l85 13c18-94 83-149 191-149 90 0 145 39 145 110 0 187-397 102-397 349 0 126 104 188 229 188 139 0 224-78 245-192l-85-14c-19 79-75 127-161 127-79 0-140-40-140-106 0-168 397-91 397-346 0-123-90-195-235-195z"/><glyph glyph-name="Scaron" unicode="Š" horiz-adv-x="580" d="M362 862h68L318 743h-61L144 862h67l76-87zM307-11C148-11 51 77 33 204l85 13c18-94 83-149 191-149 90 0 145 39 145 110 0 187-397 102-397 349 0 126 104 188 229 188 139 0 224-78 245-192l-85-14c-19 79-75 127-161 127-79 0-140-40-140-106 0-168 397-91 397-346 0-123-90-195-235-195z"/><glyph glyph-name="Scedilla" unicode="Ş" horiz-adv-x="580" d="M542 184C542 67 460-4 327-11l-21-41c59 0 95-27 95-71s-37-72-96-72c-30 0-57 7-88 23l11 30c34-16 50-20 67-20 34 0 49 16 49 41 0 26-20 40-57 40h-24l-1 23 25 47C140-4 50 82 33 204l85 13c18-94 83-149 191-149 90 0 145 39 145 110 0 187-397 102-397 349 0 126 104 188 229 188 139 0 224-78 245-192l-85-14c-19 79-75 127-161 127-79 0-140-40-140-106 0-168 397-91 397-346z"/><glyph glyph-name="Scircumflex" unicode="Ŝ" horiz-adv-x="580" d="M430 743h-68l-75 87-76-87h-67l113 119h61zM307-11C148-11 51 77 33 204l85 13c18-94 83-149 191-149 90 0 145 39 145 110 0 187-397 102-397 349 0 126 104 188 229 188 139 0 224-78 245-192l-85-14c-19 79-75 127-161 127-79 0-140-40-140-106 0-168 397-91 397-346 0-123-90-195-235-195z"/><glyph glyph-name="Scommaaccent" unicode="Ș" horiz-adv-x="580" d="M307-11C148-11 51 77 33 204l85 13c18-94 83-149 191-149 90 0 145 39 145 110 0 187-397 102-397 349 0 126 104 188 229 188 139 0 224-78 245-192l-85-14c-19 79-75 127-161 127-79 0-140-40-140-106 0-168 397-91 397-346 0-123-90-195-235-195zm4-39c28 0 49-21 49-49 0-19-9-43-54-152h-49l40 104c-21 7-36 25-35 48 0 29 22 49 49 49z"/><glyph glyph-name="uni1E9E" unicode="ẞ" horiz-adv-x="619" d="M386 400c118-10 192-80 192-190C578 86 478 0 328 0h-71v79h62c102 0 170 53 170 131 0 83-74 124-186 124v66l144 230-279 1V0H83v700h459v-60z"/><glyph glyph-name="T" unicode="T" horiz-adv-x="535" d="M527 700v-76H310V0h-85v624H7v76h520z"/><glyph glyph-name="Tbar" unicode="Ŧ" horiz-adv-x="535" d="M527 624H310V389h141v-55H310V0h-85v334H87v55h138v235H7v76h520v-76z"/><glyph glyph-name="Tcaron" unicode="Ť" horiz-adv-x="535" d="M298 728h-61L124 847h67l76-87 75 87h68zm229-28v-76H310V0h-85v624H7v76h520z"/><glyph glyph-name="uni0162" unicode="Ţ" horiz-adv-x="535" d="M310 0h-23l-24-47c59 0 95-27 95-71s-37-72-96-72c-30 0-57 7-88 23l11 30c34-16 50-20 67-20 34 0 49 16 49 41 0 26-20 40-57 40h-24l-1 23 28 53h-22v624H7v76h520v-76H310V0z"/><glyph glyph-name="uni021A" unicode="Ț" horiz-adv-x="535" d="M7 700h520v-76H310V0h-85v624H7v76zM268-45c28 0 49-21 49-49 0-19-9-43-54-152h-49l40 104c-21 7-36 25-35 48 0 29 22 49 49 49z"/><glyph glyph-name="U" unicode="U" horiz-adv-x="654" d="M580 700V244c0-157-98-255-252-255C172-11 74 87 74 244v456h85V243c0-108 65-175 169-175 102 0 167 67 167 175v457h85z"/><glyph glyph-name="Uacute" unicode="Ú" horiz-adv-x="654" d="M351 847h90l-97-119h-69zm229-147V244c0-157-98-255-252-255C172-11 74 87 74 244v456h85V243c0-108 65-175 169-175 102 0 167 67 167 175v457h85z"/><glyph glyph-name="Ubreve" unicode="Ŭ" horiz-adv-x="654" d="M418 851h50c-5-75-60-123-140-123-81 0-137 48-142 123h50c5-48 41-78 92-78 50 0 86 30 90 78zm162-151V244c0-157-98-255-252-255C172-11 74 87 74 244v456h85V243c0-108 65-175 169-175 102 0 167 67 167 175v457h85z"/><glyph glyph-name="uni01D3" unicode="Ǔ" horiz-adv-x="654" d="M403 847h68L359 728h-61L185 847h67l76-87zm177-147V244c0-157-98-255-252-255C172-11 74 87 74 244v456h85V243c0-108 65-175 169-175 102 0 167 67 167 175v457h85z"/><glyph glyph-name="Ucircumflex" unicode="Û" horiz-adv-x="654" d="M471 728h-68l-75 87-76-87h-67l113 119h61zm109-28V244c0-157-98-255-252-255C172-11 74 87 74 244v456h85V243c0-108 65-175 169-175 102 0 167 67 167 175v457h85z"/><glyph glyph-name="Udieresis" unicode="Ü" horiz-adv-x="654" d="M234 759c-24 0-44 19-44 43 0 25 20 43 44 43s43-18 43-43c0-24-19-43-43-43zm188 0c-25 0-44 19-44 43 0 25 19 43 44 43 23 0 42-18 42-43 0-24-19-43-42-43zm158-59V244c0-157-98-255-252-255C172-11 74 87 74 244v456h85V243c0-108 65-175 169-175 102 0 167 67 167 175v457h85z"/><glyph glyph-name="Ugrave" unicode="Ù" horiz-adv-x="654" d="M313 847l77-119h-69L220 847h93zm267-147V244c0-157-98-255-252-255C172-11 74 87 74 244v456h85V243c0-108 65-175 169-175 102 0 167 67 167 175v457h85z"/><glyph glyph-name="Uhungarumlaut" unicode="Ű" horiz-adv-x="654" d="M196 760l88 119h82L262 760h-66zm144 0l86 119h82L404 760h-64zm240-60V244c0-157-98-255-252-255C172-11 74 87 74 244v456h85V243c0-108 65-175 169-175 102 0 167 67 167 175v457h85z"/><glyph glyph-name="Umacron" unicode="Ū" horiz-adv-x="654" d="M468 764H188v51h280v-51zm112-64V244c0-157-98-255-252-255C172-11 74 87 74 244v456h85V243c0-108 65-175 169-175 102 0 167 67 167 175v457h85z"/><glyph glyph-name="Uogonek" unicode="Ų" horiz-adv-x="654" d="M495 700h85V244c0-128-65-216-172-245-52-28-81-58-81-94 0-29 17-42 63-42h19v-53h-27c-90 0-136 29-136 81 0 37 24 71 63 98C164-3 74 93 74 244v456h85V243c0-108 65-175 169-175 102 0 167 67 167 175v457z"/><glyph glyph-name="Uring" unicode="Ů" horiz-adv-x="654" d="M328 908c53 0 89-33 89-87s-36-88-89-88c-55 0-89 34-89 88s34 87 89 87zm0-31c-35 0-56-21-56-56s21-56 56-56c34 0 55 21 55 56s-21 56-55 56zm252-177V244c0-157-98-255-252-255C172-11 74 87 74 244v456h85V243c0-108 65-175 169-175 102 0 167 67 167 175v457h85z"/><glyph glyph-name="Utilde" unicode="Ũ" horiz-adv-x="654" d="M438 838h46c0-62-35-100-84-100-61 0-93 49-140 49-25 0-41-19-41-52l-48 1c0 61 36 100 85 100 62 0 93-51 141-51 24 0 41 20 41 53zm142-138V244c0-157-98-255-252-255C172-11 74 87 74 244v456h85V243c0-108 65-175 169-175 102 0 167 67 167 175v457h85z"/><glyph glyph-name="V" unicode="V" horiz-adv-x="604" d="M505 700h91L358 0H246L8 700h93L302 73z"/><glyph glyph-name="W" unicode="W" horiz-adv-x="944" d="M846 700h90L737 0H634L472 605 310 0H207L8 700h91L258 80l164 620h100L685 78z"/><glyph glyph-name="Wacute" unicode="Ẃ" horiz-adv-x="944" d="M582 847l-97-119h-69l76 119h90zm264-147h90L737 0H634L472 605 310 0H207L8 700h91L258 80l164 620h100L685 78z"/><glyph glyph-name="Wcircumflex" unicode="Ŵ" horiz-adv-x="944" d="M469 815l-76-87h-67l113 119h61l112-119h-68zm377-115h90L737 0H634L472 605 310 0H207L8 700h91L258 80l164 620h100L685 78z"/><glyph glyph-name="Wdieresis" unicode="Ẅ" horiz-adv-x="944" d="M375 759c-24 0-44 19-44 43 0 25 20 43 44 43s43-18 43-43c0-24-19-43-43-43zm188 0c-25 0-44 19-44 43 0 25 19 43 44 43 23 0 42-18 42-43 0-24-19-43-42-43zm283-59h90L737 0H634L472 605 310 0H207L8 700h91L258 80l164 620h100L685 78z"/><glyph glyph-name="Wgrave" unicode="Ẁ" horiz-adv-x="944" d="M531 728h-69L361 847h93zm315-28h90L737 0H634L472 605 310 0H207L8 700h91L258 80l164 620h100L685 78z"/><glyph glyph-name="X" unicode="X" horiz-adv-x="620" d="M607 0h-99L308 311 108 0H12l234 356L23 700h99l190-296 190 296h95L374 356z"/><glyph glyph-name="Y" unicode="Y" horiz-adv-x="576" d="M481 700h87L331 272V0h-85v272L8 700h93l190-342z"/><glyph glyph-name="Yacute" unicode="Ý" horiz-adv-x="576" d="M402 847l-97-119h-69l76 119h90zm79-147h87L331 272V0h-85v272L8 700h93l190-342z"/><glyph glyph-name="Ycircumflex" unicode="Ŷ" horiz-adv-x="576" d="M289 815l-76-87h-67l113 119h61l112-119h-68zm192-115h87L331 272V0h-85v272L8 700h93l190-342z"/><glyph glyph-name="Ydieresis" unicode="Ÿ" horiz-adv-x="576" d="M195 759c-24 0-44 19-44 43 0 25 20 43 44 43s43-18 43-43c0-24-19-43-43-43zm188 0c-25 0-44 19-44 43 0 25 19 43 44 43 23 0 42-18 42-43 0-24-19-43-42-43zm98-59h87L331 272V0h-85v272L8 700h93l190-342z"/><glyph glyph-name="Ygrave" unicode="Ỳ" horiz-adv-x="576" d="M351 728h-69L181 847h93zm130-28h87L331 272V0h-85v272L8 700h93l190-342z"/><glyph glyph-name="Z" unicode="Z" horiz-adv-x="504" d="M112 76h384V0H8v74l367 550H22v76h456v-74z"/><glyph glyph-name="Zacute" unicode="Ź" horiz-adv-x="504" d="M372 847l-97-119h-69l76 119h90zM112 76h384V0H8v74l367 550H22v76h456v-74z"/><glyph glyph-name="Zcaron" unicode="Ž" horiz-adv-x="504" d="M290 728h-61L116 847h67l76-87 75 87h68zM112 76h384V0H8v74l367 550H22v76h456v-74z"/><glyph glyph-name="Zdotaccent" unicode="Ż" horiz-adv-x="504" d="M259 754c-31 0-55 25-55 56 0 30 24 54 55 54 30 0 54-24 54-54 0-31-24-56-54-56zM112 76h384V0H8v74l367 550H22v76h456v-74z"/><glyph glyph-name="a" unicode="a" horiz-adv-x="507" d="M256 514c117 0 195-71 195-184V0h-76v53c-35-43-95-65-162-65C107-12 41 43 41 132c0 96 74 158 190 158 51 0 102-12 139-32v72c0 69-44 112-115 112-58 0-100-28-114-82l-79 12c16 83 87 142 194 142zM234 61c83 0 136 43 136 111v19c-35 20-80 32-128 32-72 0-116-29-116-82 0-50 40-80 108-80z"/><glyph glyph-name="aacute" unicode="á" horiz-adv-x="507" d="M353 710L242 575h-69l87 135h93zm-97-196c117 0 195-71 195-184V0h-76v53c-35-43-95-65-162-65C107-12 41 43 41 132c0 96 74 158 190 158 51 0 102-12 139-32v72c0 69-44 112-115 112-58 0-100-28-114-82l-79 12c16 83 87 142 194 142zM234 61c83 0 136 43 136 111v19c-35 20-80 32-128 32-72 0-116-29-116-82 0-50 40-80 108-80z"/><glyph glyph-name="abreve" unicode="ă" horiz-adv-x="507" d="M256 574c-90 0-151 53-157 138h56c5-54 45-88 101-88s95 34 100 88h57c-6-85-68-138-157-138zm0-60c117 0 195-71 195-184V0h-76v53c-35-43-95-65-162-65C107-12 41 43 41 132c0 96 74 158 190 158 51 0 102-12 139-32v72c0 69-44 112-115 112-58 0-100-28-114-82l-79 12c16 83 87 142 194 142zM234 61c83 0 136 43 136 111v19c-35 20-80 32-128 32-72 0-116-29-116-82 0-50 40-80 108-80z"/><glyph glyph-name="uni01CE" unicode="ǎ" horiz-adv-x="507" d="M288 575h-65L98 710h69l88-102 90 102h69zm-32-61c117 0 195-71 195-184V0h-76v53c-35-43-95-65-162-65C107-12 41 43 41 132c0 96 74 158 190 158 51 0 102-12 139-32v72c0 69-44 112-115 112-58 0-100-28-114-82l-79 12c16 83 87 142 194 142zM234 61c83 0 136 43 136 111v19c-35 20-80 32-128 32-72 0-116-29-116-82 0-50 40-80 108-80z"/><glyph glyph-name="acircumflex" unicode="â" horiz-adv-x="507" d="M255 676l-88-100H98l125 133h65l126-133h-69zm1-162c117 0 195-71 195-184V0h-76v53c-35-43-95-65-162-65C107-12 41 43 41 132c0 96 74 158 190 158 51 0 102-12 139-32v72c0 69-44 112-115 112-58 0-100-28-114-82l-79 12c16 83 87 142 194 142zM234 61c83 0 136 43 136 111v19c-35 20-80 32-128 32-72 0-116-29-116-82 0-50 40-80 108-80z"/><glyph glyph-name="adieresis" unicode="ä" horiz-adv-x="507" d="M162 613c-24 0-44 20-44 44s20 43 44 43 43-19 43-43-19-44-43-44zm188 0c-25 0-44 20-44 44s19 43 44 43c23 0 42-19 42-43s-19-44-42-44zm-94-99c117 0 195-71 195-184V0h-76v53c-35-43-95-65-162-65C107-12 41 43 41 132c0 96 74 158 190 158 51 0 102-12 139-32v72c0 69-44 112-115 112-58 0-100-28-114-82l-79 12c16 83 87 142 194 142zM234 61c83 0 136 43 136 111v19c-35 20-80 32-128 32-72 0-116-29-116-82 0-50 40-80 108-80z"/><glyph glyph-name="agrave" unicode="à" horiz-adv-x="507" d="M320 575h-69L140 710h93zm-64-61c117 0 195-71 195-184V0h-76v53c-35-43-95-65-162-65C107-12 41 43 41 132c0 96 74 158 190 158 51 0 102-12 139-32v72c0 69-44 112-115 112-58 0-100-28-114-82l-79 12c16 83 87 142 194 142zM234 61c83 0 136 43 136 111v19c-35 20-80 32-128 32-72 0-116-29-116-82 0-50 40-80 108-80z"/><glyph glyph-name="amacron" unicode="ā" horiz-adv-x="507" d="M396 678v-51H116v51h280zM256 514c117 0 195-71 195-184V0h-76v53c-35-43-95-65-162-65C107-12 41 43 41 132c0 96 74 158 190 158 51 0 102-12 139-32v72c0 69-44 112-115 112-58 0-100-28-114-82l-79 12c16 83 87 142 194 142zM234 61c83 0 136 43 136 111v19c-35 20-80 32-128 32-72 0-116-29-116-82 0-50 40-80 108-80z"/><glyph glyph-name="aogonek" unicode="ą" horiz-adv-x="507" d="M256 514c117 0 195-71 195-184V0h-1c-53-28-83-59-83-95 0-29 17-42 63-42h19v-53h-27c-90 0-136 29-136 81 0 44 35 84 89 115v47c-35-43-95-65-162-65C107-12 41 43 41 132c0 96 74 158 190 158 51 0 102-12 139-32v72c0 69-44 112-115 112-58 0-100-28-114-82l-79 12c16 83 87 142 194 142zM234 61c83 0 136 43 136 111v19c-35 20-80 32-128 32-72 0-116-29-116-82 0-50 40-80 108-80z"/><glyph glyph-name="aring" unicode="å" horiz-adv-x="507" d="M256 576c-60 0-98 37-98 97 0 59 38 96 98 96 59 0 97-36 97-96s-38-97-97-97zm0 161c-39 0-63-24-63-64s24-64 63-64 63 24 63 64-24 64-63 64zm0-223c117 0 195-71 195-184V0h-76v53c-35-43-95-65-162-65C107-12 41 43 41 132c0 96 74 158 190 158 51 0 102-12 139-32v72c0 69-44 112-115 112-58 0-100-28-114-82l-79 12c16 83 87 142 194 142zM234 61c83 0 136 43 136 111v19c-35 20-80 32-128 32-72 0-116-29-116-82 0-50 40-80 108-80z"/><glyph glyph-name="atilde" unicode="ã" horiz-adv-x="507" d="M186 655c-25 0-43-21-43-54H92c0 65 38 105 90 105 63 0 96-51 144-51 26 0 43 21 43 53h50c0-65-37-105-88-105-64 0-96 52-145 52zm70-141c117 0 195-71 195-184V0h-76v53c-35-43-95-65-162-65C107-12 41 43 41 132c0 96 74 158 190 158 51 0 102-12 139-32v72c0 69-44 112-115 112-58 0-100-28-114-82l-79 12c16 83 87 142 194 142zM234 61c83 0 136 43 136 111v19c-35 20-80 32-128 32-72 0-116-29-116-82 0-50 40-80 108-80z"/><glyph glyph-name="ae" unicode="æ" horiz-adv-x="849" d="M213-11C107-11 41 43 41 132c0 96 74 158 190 158 50 0 101-12 139-32v72c0 69-44 112-115 112-58 0-100-28-113-81l-80 11c16 83 87 142 194 142 75 0 134-30 165-83 39 52 98 83 173 83 140 0 224-104 224-280H455c7-102 63-169 155-169 62 0 106 32 121 91l80-14C791 43 710-11 605-11c-81 0-146 34-186 93-39-61-117-93-206-93zm243 310h272c-11 87-59 140-134 140-76 0-126-53-138-140zM234 61c83 0 136 43 136 111v19c-34 19-78 32-128 32-72 0-116-29-116-82 0-50 40-80 108-80z"/><glyph glyph-name="b" unicode="b" horiz-adv-x="556" d="M312 514c125 0 202-101 202-262S437-10 312-10c-69 0-124 30-160 83V0H75v730h82V438c36 49 89 76 155 76zM293 66c84 0 136 72 136 186 0 115-52 187-136 187s-136-72-136-187c0-114 52-186 136-186z"/><glyph glyph-name="c" unicode="c" horiz-adv-x="501" d="M263 514c110 0 193-68 208-175l-81-13c-12 63-54 112-124 112-85 0-140-71-140-186 0-114 54-185 142-185 66 0 112 42 124 119l81-13C460 58 379-9 265-9 127-9 41 90 41 252c0 161 86 262 222 262z"/><glyph glyph-name="cacute" unicode="ć" horiz-adv-x="501" d="M258 710h93L240 575h-69zm5-196c110 0 193-68 208-175l-81-13c-12 63-54 112-124 112-85 0-140-71-140-186 0-114 54-185 142-185 66 0 112 42 124 119l81-13C460 58 379-9 265-9 127-9 41 90 41 252c0 161 86 262 222 262z"/><glyph glyph-name="ccaron" unicode="č" horiz-adv-x="501" d="M343 710h69L286 575h-65L96 710h69l88-102zm-80-196c110 0 193-68 208-175l-81-13c-12 63-54 112-124 112-85 0-140-71-140-186 0-114 54-185 142-185 66 0 112 42 124 119l81-13C460 58 379-9 265-9 127-9 41 90 41 252c0 161 86 262 222 262z"/><glyph glyph-name="ccedilla" unicode="ç" horiz-adv-x="501" d="M473 173C462 73 399 9 308-6l-21-41c59 0 95-27 95-71s-37-72-96-72c-30 0-57 7-88 23l11 30c34-16 50-20 67-20 34 0 49 16 49 41 0 26-20 40-57 40h-24l-1 23 24 44h-2C127-9 41 90 41 252c0 161 86 262 222 262 110 0 193-68 208-175l-81-13c-12 63-54 112-124 112-85 0-140-71-140-186 0-114 54-185 142-185 66 0 112 42 124 119z"/><glyph glyph-name="ccircumflex" unicode="ĉ" horiz-adv-x="501" d="M343 576l-90 100-88-100H96l125 133h65l126-133h-69zm-80-62c110 0 193-68 208-175l-81-13c-12 63-54 112-124 112-85 0-140-71-140-186 0-114 54-185 142-185 66 0 112 42 124 119l81-13C460 58 379-9 265-9 127-9 41 90 41 252c0 161 86 262 222 262z"/><glyph glyph-name="cdotaccent" unicode="ċ" horiz-adv-x="501" d="M254 602c-31 0-55 25-55 55 0 31 24 55 55 55 30 0 54-24 54-55 0-30-24-55-54-55zm9-88c110 0 193-68 208-175l-81-13c-12 63-54 112-124 112-85 0-140-71-140-186 0-114 54-185 142-185 66 0 112 42 124 119l81-13C460 58 379-9 265-9 127-9 41 90 41 252c0 161 86 262 222 262z"/><glyph glyph-name="d" unicode="d" horiz-adv-x="556" d="M399 730h82V0h-77v73c-36-53-91-83-160-83C119-10 42 91 42 252s77 262 202 262c66 0 119-27 155-76v292zM263 66c84 0 136 72 136 186 0 115-52 187-136 187s-136-72-136-187c0-114 52-186 136-186z"/><glyph glyph-name="eth" unicode="ð" horiz-adv-x="550" d="M327 628c112-107 182-217 182-368 0-172-90-271-235-271C131-11 41 85 41 239c0 150 87 245 217 245 52 0 96-18 131-55-33 58-79 111-135 162l-100-51-15 32 86 44c-18 15-38 31-58 46l50 62c29-24 57-47 83-70l108 55 14-33zM275 70c92 0 149 65 149 169 0 106-57 173-149 173s-149-67-149-173c0-104 57-169 149-169z"/><glyph glyph-name="dcaron" unicode="ď" horiz-adv-x="627" d="M399 438v292h82V0h-77v73c-36-53-91-83-160-83C119-10 42 91 42 252s77 262 202 262c66 0 119-27 155-76zm184 272h71l-62-173h-45zM263 66c84 0 136 72 136 186 0 115-52 187-136 187s-136-72-136-187c0-114 52-186 136-186z"/><glyph glyph-name="dcroat" unicode="đ" horiz-adv-x="570" d="M553 657v-49h-72V0h-77v73c-36-53-91-83-160-83C119-10 42 91 42 252s77 262 202 262c66 0 119-27 155-76v170H287v49h112v73h82v-73h72zM263 66c84 0 136 72 136 186 0 115-52 187-136 187s-136-72-136-187c0-114 52-186 136-186z"/><glyph glyph-name="e" unicode="e" horiz-adv-x="525" d="M284 65c62 0 108 32 123 91l80-13C467 41 384-11 280-11 134-11 41 93 41 256c0 157 87 258 227 258s226-104 226-280H127c8-101 64-169 157-169zm-16 374c-77 0-128-53-139-140h275c-11 87-60 140-136 140z"/><glyph glyph-name="eacute" unicode="é" horiz-adv-x="525" d="M362 710L251 575h-69l87 135h93zM284 65c62 0 108 32 123 91l80-13C467 41 384-11 280-11 134-11 41 93 41 256c0 157 87 258 227 258s226-104 226-280H127c8-101 64-169 157-169zm-16 374c-77 0-128-53-139-140h275c-11 87-60 140-136 140z"/><glyph glyph-name="ebreve" unicode="ĕ" horiz-adv-x="525" d="M265 574c-90 0-151 53-157 138h56c5-54 45-88 101-88s95 34 100 88h57c-6-85-68-138-157-138zm19-509c62 0 108 32 123 91l80-13C467 41 384-11 280-11 134-11 41 93 41 256c0 157 87 258 227 258s226-104 226-280H127c8-101 64-169 157-169zm-16 374c-77 0-128-53-139-140h275c-11 87-60 140-136 140z"/><glyph glyph-name="ecaron" unicode="ě" horiz-adv-x="525" d="M297 575h-65L107 710h69l88-102 90 102h69zM284 65c62 0 108 32 123 91l80-13C467 41 384-11 280-11 134-11 41 93 41 256c0 157 87 258 227 258s226-104 226-280H127c8-101 64-169 157-169zm-16 374c-77 0-128-53-139-140h275c-11 87-60 140-136 140z"/><glyph glyph-name="ecircumflex" unicode="ê" horiz-adv-x="525" d="M264 676l-88-100h-69l125 133h65l126-133h-69zm20-611c62 0 108 32 123 91l80-13C467 41 384-11 280-11 134-11 41 93 41 256c0 157 87 258 227 258s226-104 226-280H127c8-101 64-169 157-169zm-16 374c-77 0-128-53-139-140h275c-11 87-60 140-136 140z"/><glyph glyph-name="edieresis" unicode="ë" horiz-adv-x="525" d="M171 613c-24 0-44 20-44 44s20 43 44 43 43-19 43-43-19-44-43-44zm188 0c-25 0-44 20-44 44s19 43 44 43c23 0 42-19 42-43s-19-44-42-44zM284 65c62 0 108 32 123 91l80-13C467 41 384-11 280-11 134-11 41 93 41 256c0 157 87 258 227 258s226-104 226-280H127c8-101 64-169 157-169zm-16 374c-77 0-128-53-139-140h275c-11 87-60 140-136 140z"/><glyph glyph-name="edotaccent" unicode="ė" horiz-adv-x="525" d="M265 602c-31 0-55 25-55 55 0 31 24 55 55 55 30 0 54-24 54-55 0-30-24-55-54-55zm19-537c62 0 108 32 123 91l80-13C467 41 384-11 280-11 134-11 41 93 41 256c0 157 87 258 227 258s226-104 226-280H127c8-101 64-169 157-169zm-16 374c-77 0-128-53-139-140h275c-11 87-60 140-136 140z"/><glyph glyph-name="egrave" unicode="è" horiz-adv-x="525" d="M329 575h-69L149 710h93zM284 65c62 0 108 32 123 91l80-13C467 41 384-11 280-11 134-11 41 93 41 256c0 157 87 258 227 258s226-104 226-280H127c8-101 64-169 157-169zm-16 374c-77 0-128-53-139-140h275c-11 87-60 140-136 140z"/><glyph glyph-name="emacron" unicode="ē" horiz-adv-x="525" d="M405 678v-51H125v51h280zM284 65c62 0 108 32 123 91l80-13C467 41 384-11 280-11 134-11 41 93 41 256c0 157 87 258 227 258s226-104 226-280H127c8-101 64-169 157-169zm-16 374c-77 0-128-53-139-140h275c-11 87-60 140-136 140z"/><glyph glyph-name="eogonek" unicode="ę" horiz-adv-x="525" d="M284 65c62 0 108 32 123 91l80-13C471 62 416 13 342-4c-48-27-75-57-75-91 0-29 17-42 63-42h19v-53h-27c-90 0-136 29-136 81 0 37 25 71 65 99C122 4 41 104 41 256c0 157 87 258 227 258s226-104 226-280H127c8-101 64-169 157-169zm-16 374c-77 0-128-53-139-140h275c-11 87-60 140-136 140z"/><glyph glyph-name="f" unicode="f" horiz-adv-x="289" d="M248 658c-47 0-78-33-78-87v-71h86v-62h-86V0H89v438H11v62h78v85c0 89 54 145 142 145h52v-72h-35z"/><glyph glyph-name="g" unicode="g" horiz-adv-x="534" d="M404 500h76V25c0-132-82-215-216-215-109 0-186 55-206 144l81 13c17-53 62-84 125-84 83 0 135 51 135 136v52C363 24 311-3 246-3 120-3 41 97 41 256c0 158 80 258 206 258 68 0 122-29 158-81zM262 73c84 0 137 70 137 184 0 112-53 182-137 182-83 0-136-70-136-182 0-114 53-184 136-184z"/><glyph glyph-name="gbreve" unicode="ğ" horiz-adv-x="534" d="M273 574c-90 0-151 53-157 138h56c5-54 45-88 101-88s95 34 100 88h57c-6-85-68-138-157-138zm131-74h76V25c0-132-82-215-216-215-109 0-186 55-206 144l81 13c17-53 62-84 125-84 83 0 135 51 135 136v52C363 24 311-3 246-3 120-3 41 97 41 256c0 158 80 258 206 258 68 0 122-29 158-81zM262 73c84 0 137 70 137 184 0 112-53 182-137 182-83 0-136-70-136-182 0-114 53-184 136-184z"/><glyph glyph-name="gcircumflex" unicode="ĝ" horiz-adv-x="534" d="M272 676l-88-100h-69l125 133h65l126-133h-69zm132-176h76V25c0-132-82-215-216-215-109 0-186 55-206 144l81 13c17-53 62-84 125-84 83 0 135 51 135 136v52C363 24 311-3 246-3 120-3 41 97 41 256c0 158 80 258 206 258 68 0 122-29 158-81zM262 73c84 0 137 70 137 184 0 112-53 182-137 182-83 0-136-70-136-182 0-114 53-184 136-184z"/><glyph glyph-name="gcommaaccent" unicode="ģ" horiz-adv-x="534" d="M272 545c-28 0-49 21-49 49 0 19 9 43 54 152h49l-40-104c21-7 36-25 35-48 0-29-22-49-49-49zm132-45h76V25c0-132-82-215-216-215-109 0-186 55-206 144l81 13c17-53 62-84 125-84 83 0 135 51 135 136v52C363 24 311-3 246-3 120-3 41 97 41 256c0 158 80 258 206 258 68 0 122-29 158-81zM262 73c84 0 137 70 137 184 0 112-53 182-137 182-83 0-136-70-136-182 0-114 53-184 136-184z"/><glyph glyph-name="gdotaccent" unicode="ġ" horiz-adv-x="534" d="M273 602c-31 0-55 25-55 55 0 31 24 55 55 55 30 0 54-24 54-55 0-30-24-55-54-55zm131-102h76V25c0-132-82-215-216-215-109 0-186 55-206 144l81 13c17-53 62-84 125-84 83 0 135 51 135 136v52C363 24 311-3 246-3 120-3 41 97 41 256c0 158 80 258 206 258 68 0 122-29 158-81zM262 73c84 0 137 70 137 184 0 112-53 182-137 182-83 0-136-70-136-182 0-114 53-184 136-184z"/><glyph glyph-name="h" unicode="h" horiz-adv-x="541" d="M299 514c108 0 182-78 182-198V0h-82v309c0 79-48 128-118 128-76 0-124-57-124-144V0H75v730h82V447c31 44 80 67 142 67z"/><glyph glyph-name="hbar" unicode="ħ" horiz-adv-x="557" d="M315 514c108 0 182-78 182-198V0h-82v309c0 79-48 128-118 128-76 0-124-57-124-144V0H91v608H40v49h51v73h82v-73h131v-49H173V447c31 44 80 67 142 67z"/><glyph glyph-name="i" unicode="i" horiz-adv-x="232" d="M116 602c-31 0-55 25-55 55 0 31 24 55 55 55 30 0 54-24 54-55 0-30-24-55-54-55zM157 0H75v500h82V0z"/><glyph glyph-name="dotlessi" unicode="ı" horiz-adv-x="232" d="M157 0H75v500h82V0z"/><glyph glyph-name="iacute" unicode="í" horiz-adv-x="232" d="M120 710h93L102 575H33zM157 0H75v500h82V0z"/><glyph glyph-name="ibreve" unicode="ĭ" horiz-adv-x="232" d="M216 712h57c-6-85-68-138-157-138-90 0-151 53-157 138h56c5-54 45-88 101-88s95 34 100 88zM157 0H75v500h82V0z"/><glyph glyph-name="uni01D0" unicode="ǐ" horiz-adv-x="232" d="M205 710h69L148 575H83L-42 710h69l88-102zM157 0H75v500h82V0z"/><glyph glyph-name="icircumflex" unicode="î" horiz-adv-x="232" d="M205 576l-90 100-88-100h-69L83 709h65l126-133h-69zM157 0H75v500h82V0z"/><glyph glyph-name="idieresis" unicode="ï" horiz-adv-x="232" d="M22 613c-24 0-44 20-44 44s20 43 44 43 43-19 43-43-19-44-43-44zm188 0c-25 0-44 20-44 44s19 43 44 43c23 0 42-19 42-43s-19-44-42-44zM157 0H75v500h82V0z"/><glyph glyph-name="i.loclTRK" horiz-adv-x="232" d="M116 602c-31 0-55 25-55 55 0 31 24 55 55 55 30 0 54-24 54-55 0-30-24-55-54-55zM157 0H75v500h82V0z"/><glyph glyph-name="igrave" unicode="ì" horiz-adv-x="232" d="M93 710l87-135h-69L0 710h93zM157 0H75v500h82V0z"/><glyph glyph-name="imacron" unicode="ī" horiz-adv-x="232" d="M256 627H-24v51h280v-51zM157 0H75v500h82V0z"/><glyph glyph-name="iogonek" unicode="į" horiz-adv-x="232" d="M116 602c-31 0-55 25-55 55 0 31 24 55 55 55 30 0 54-24 54-55 0-30-24-55-54-55zM75 2v498h82V0h-1c-53-28-83-59-83-95 0-29 17-42 63-42h19v-53h-27C38-190-8-161-8-109-8-67 24-28 75 2z"/><glyph glyph-name="itilde" unicode="ĩ" horiz-adv-x="232" d="M229 708h50c0-65-37-105-88-105-64 0-96 52-145 52-25 0-43-21-43-54h-51c0 65 38 105 90 105 63 0 96-51 144-51 26 0 43 21 43 53zM157 0H75v500h82V0z"/><glyph glyph-name="j" unicode="j" horiz-adv-x="206" d="M106 602c-31 0-55 25-55 55 0 31 24 55 55 55 30 0 54-24 54-55 0-30-24-55-54-55zm40-102V-39c0-95-51-151-136-151h-47v69h26c47 0 75 36 75 94v527h82z"/><glyph glyph-name="uni0237" unicode="ȷ" horiz-adv-x="206" d="M146 500V-39c0-95-51-151-136-151h-47v69h26c47 0 75 36 75 94v527h82z"/><glyph glyph-name="jcircumflex" unicode="ĵ" horiz-adv-x="206" d="M195 576l-90 100-88-100h-69L73 709h65l126-133h-69zm-49-76V-39c0-95-51-151-136-151h-47v69h26c47 0 75 36 75 94v527h82z"/><glyph glyph-name="k" unicode="k" horiz-adv-x="474" d="M388 0L217 249l-61-67V0H75v730h81V276l202 224h95L275 302 481 0h-93z"/><glyph glyph-name="kcommaaccent" unicode="ķ" horiz-adv-x="474" d="M275 302L481 0h-93L217 249l-61-67V0H75v730h81V276l202 224h95zM254-45c28 0 49-21 49-49 0-19-9-43-54-152h-49l40 104c-21 7-36 25-35 48 0 29 22 49 49 49z"/><glyph glyph-name="l" unicode="l" horiz-adv-x="232" d="M75 0v730h82V0H75z"/><glyph glyph-name="lacute" unicode="ĺ" horiz-adv-x="232" d="M127 940h93L109 805H40zM75 0v730h82V0H75z"/><glyph glyph-name="lcaron" unicode="ľ" horiz-adv-x="274" d="M75 0v730h82V0H75zm191 537h-44l35 173h71z"/><glyph glyph-name="lcommaaccent" unicode="ļ" horiz-adv-x="232" d="M75 0v730h82V0H75zm42-45c28 0 49-21 49-49 0-19-9-43-54-152H63l40 104c-21 7-36 25-35 48 0 29 22 49 49 49z"/><glyph glyph-name="ldot" unicode="ŀ" horiz-adv-x="434" d="M75 0v730h82V0H75zm259 302c-35 0-63 28-63 63s28 63 63 63c34 0 62-28 62-63s-28-63-62-63z"/><glyph glyph-name="lslash" unicode="ł" horiz-adv-x="323" d="M293 513v-70l-112-68V0H99v320l-61-36v71l61 37v338h82V445z"/><glyph glyph-name="m" unicode="m" horiz-adv-x="827" d="M590 514c108 0 177-78 177-198V0h-81v312c0 79-45 125-110 125-69 0-114-54-114-141V0h-81v312c0 79-45 125-110 125-70 0-114-54-114-141V0H75v500h76v-60c28 48 76 74 137 74 67 0 120-32 149-87 29 56 84 87 153 87z"/><glyph glyph-name="n" unicode="n" horiz-adv-x="541" d="M298 514c109 0 183-78 183-198V0h-82v310c0 78-48 127-119 127-75 0-123-57-123-143V0H75v500h76v-62c29 49 81 76 147 76z"/><glyph glyph-name="nacute" unicode="ń" horiz-adv-x="541" d="M372 710L261 575h-69l87 135h93zm-74-196c109 0 183-78 183-198V0h-82v310c0 78-48 127-119 127-75 0-123-57-123-143V0H75v500h76v-62c29 49 81 76 147 76z"/><glyph glyph-name="ncaron" unicode="ň" horiz-adv-x="541" d="M307 575h-65L117 710h69l88-102 90 102h69zm-9-61c109 0 183-78 183-198V0h-82v310c0 78-48 127-119 127-75 0-123-57-123-143V0H75v500h76v-62c29 49 81 76 147 76z"/><glyph glyph-name="ncommaaccent" unicode="ņ" horiz-adv-x="541" d="M298 514c109 0 183-78 183-198V0h-82v310c0 78-48 127-119 127-75 0-123-57-123-143V0H75v500h76v-62c29 49 81 76 147 76zM276-45c28 0 49-21 49-49 0-19-9-43-54-152h-49l40 104c-21 7-36 25-35 48 0 29 22 49 49 49z"/><glyph glyph-name="eng" unicode="ŋ" horiz-adv-x="541" d="M299 514c110 0 182-75 182-198V-39c0-95-53-151-142-151h-50v66h30c51 0 80 35 80 94v342c0 78-48 126-119 126-75 0-123-56-123-142V0H75v500h76v-62c29 49 81 76 148 76z"/><glyph glyph-name="ntilde" unicode="ñ" horiz-adv-x="541" d="M205 655c-25 0-43-21-43-54h-51c0 65 38 105 90 105 63 0 96-51 144-51 26 0 43 21 43 53h50c0-65-37-105-88-105-64 0-96 52-145 52zm93-141c109 0 183-78 183-198V0h-82v310c0 78-48 127-119 127-75 0-123-57-123-143V0H75v500h76v-62c29 49 81 76 147 76z"/><glyph glyph-name="o" unicode="o" horiz-adv-x="550" d="M276-11C131-11 41 90 41 252c0 161 90 262 235 262 143 0 233-101 233-262 0-162-90-263-233-263zm0 76c91 0 148 72 148 187s-57 187-148 187c-92 0-150-72-150-187S184 65 276 65z"/><glyph glyph-name="oacute" unicode="ó" horiz-adv-x="550" d="M279 710h93L261 575h-69zm-3-721C131-11 41 90 41 252c0 161 90 262 235 262 143 0 233-101 233-262 0-162-90-263-233-263zm0 76c91 0 148 72 148 187s-57 187-148 187c-92 0-150-72-150-187S184 65 276 65z"/><glyph glyph-name="obreve" unicode="ŏ" horiz-adv-x="550" d="M375 712h57c-6-85-68-138-157-138-90 0-151 53-157 138h56c5-54 45-88 101-88s95 34 100 88zM276-11C131-11 41 90 41 252c0 161 90 262 235 262 143 0 233-101 233-262 0-162-90-263-233-263zm0 76c91 0 148 72 148 187s-57 187-148 187c-92 0-150-72-150-187S184 65 276 65z"/><glyph glyph-name="uni01D2" unicode="ǒ" horiz-adv-x="550" d="M364 710h69L307 575h-65L117 710h69l88-102zM276-11C131-11 41 90 41 252c0 161 90 262 235 262 143 0 233-101 233-262 0-162-90-263-233-263zm0 76c91 0 148 72 148 187s-57 187-148 187c-92 0-150-72-150-187S184 65 276 65z"/><glyph glyph-name="ocircumflex" unicode="ô" horiz-adv-x="550" d="M364 576l-90 100-88-100h-69l125 133h65l126-133h-69zM276-11C131-11 41 90 41 252c0 161 90 262 235 262 143 0 233-101 233-262 0-162-90-263-233-263zm0 76c91 0 148 72 148 187s-57 187-148 187c-92 0-150-72-150-187S184 65 276 65z"/><glyph glyph-name="odieresis" unicode="ö" horiz-adv-x="550" d="M181 613c-24 0-44 20-44 44s20 43 44 43 43-19 43-43-19-44-43-44zm188 0c-25 0-44 20-44 44s19 43 44 43c23 0 42-19 42-43s-19-44-42-44zM276-11C131-11 41 90 41 252c0 161 90 262 235 262 143 0 233-101 233-262 0-162-90-263-233-263zm0 76c91 0 148 72 148 187s-57 187-148 187c-92 0-150-72-150-187S184 65 276 65z"/><glyph glyph-name="ograve" unicode="ò" horiz-adv-x="550" d="M252 710l87-135h-69L159 710h93zm24-721C131-11 41 90 41 252c0 161 90 262 235 262 143 0 233-101 233-262 0-162-90-263-233-263zm0 76c91 0 148 72 148 187s-57 187-148 187c-92 0-150-72-150-187S184 65 276 65z"/><glyph glyph-name="ohungarumlaut" unicode="ő" horiz-adv-x="550" d="M205 575h-66l99 135h82zm143 0h-65l97 135h83zM276-11C131-11 41 90 41 252c0 161 90 262 235 262 143 0 233-101 233-262 0-162-90-263-233-263zm0 76c91 0 148 72 148 187s-57 187-148 187c-92 0-150-72-150-187S184 65 276 65z"/><glyph glyph-name="omacron" unicode="ō" horiz-adv-x="550" d="M415 627H135v51h280v-51zM276-11C131-11 41 90 41 252c0 161 90 262 235 262 143 0 233-101 233-262 0-162-90-263-233-263zm0 76c91 0 148 72 148 187s-57 187-148 187c-92 0-150-72-150-187S184 65 276 65z"/><glyph glyph-name="oslash" unicode="ø" horiz-adv-x="552" d="M446 444c40-46 63-111 63-192 0-162-90-263-233-263-48 0-90 11-125 32l-45-66-38 27 46 67C67 95 41 164 41 252c0 161 90 262 235 262 52 0 97-13 134-38l54 77 39-27zm-170-5c-92 0-150-72-150-187 0-57 14-103 39-135l201 291c-24 20-54 31-90 31zm0-374c91 0 148 72 148 187 0 50-11 92-31 124L194 89c23-15 50-24 82-24z"/><glyph glyph-name="otilde" unicode="õ" horiz-adv-x="550" d="M388 708h50c0-65-37-105-88-105-64 0-96 52-145 52-25 0-43-21-43-54h-51c0 65 38 105 90 105 63 0 96-51 144-51 26 0 43 21 43 53zM276-11C131-11 41 90 41 252c0 161 90 262 235 262 143 0 233-101 233-262 0-162-90-263-233-263zm0 76c91 0 148 72 148 187s-57 187-148 187c-92 0-150-72-150-187S184 65 276 65z"/><glyph glyph-name="oe" unicode="œ" horiz-adv-x="910" d="M276-11C131-11 41 90 41 252c0 161 90 262 235 262 86 0 152-37 191-102 37 64 102 102 186 102 141 0 226-104 226-280H513c8-102 64-169 156-169 63 0 108 32 123 91l80-14C852 43 770-11 665-11c-88 0-156 39-196 106C431 28 363-11 276-11zm0 76c91 0 148 72 148 187s-57 187-148 187c-92 0-150-72-150-187S184 65 276 65zm238 234h275c-11 87-60 140-136 140s-127-53-139-140z"/><glyph glyph-name="p" unicode="p" horiz-adv-x="556" d="M307 514c131 0 207-100 207-262 0-161-76-262-207-262-62 0-114 27-150 76v-256H75v690h77l-1-69c36 53 90 83 156 83zM293 65c84 0 136 72 136 187s-52 187-136 187-136-72-136-187S209 65 293 65z"/><glyph glyph-name="thorn" unicode="þ" horiz-adv-x="554" d="M307 514c130 0 206-100 206-262S437-11 307-11c-62 0-114 27-150 76v-255H75v903h82V439c36 48 87 75 150 75zM293 65c83 0 135 73 135 187s-52 186-135 186c-84 0-136-72-136-186S209 65 293 65z"/><glyph glyph-name="q" unicode="q" horiz-adv-x="556" d="M404 500h77v-690h-82V66c-36-49-88-76-150-76C118-10 42 91 42 252c0 162 76 262 207 262 66 0 120-30 156-83zM263 65c84 0 136 72 136 187s-52 187-136 187-136-72-136-187S179 65 263 65z"/><glyph glyph-name="r" unicode="r" horiz-adv-x="348" d="M306 512h21v-80h-19c-92 0-151-64-151-172V0H75v500h76v-84c29 60 84 96 155 96z"/><glyph glyph-name="racute" unicode="ŕ" horiz-adv-x="348" d="M281 710L170 575h-69l87 135h93zm25-198h21v-80h-19c-92 0-151-64-151-172V0H75v500h76v-84c29 60 84 96 155 96z"/><glyph glyph-name="rcaron" unicode="ř" horiz-adv-x="348" d="M216 575h-65L26 710h69l88-102 90 102h69zm-65-159c29 60 84 96 155 96h21v-80h-19c-92 0-151-64-151-172V0H75v500h76v-84z"/><glyph glyph-name="rcommaaccent" unicode="ŗ" horiz-adv-x="348" d="M306 512h21v-80h-19c-92 0-151-64-151-172V0H75v500h76v-84c29 60 84 96 155 96zM185-45c28 0 49-21 49-49 0-19-9-43-54-152h-49l40 104c-21 7-36 25-35 48 0 29 22 49 49 49z"/><glyph glyph-name="s" unicode="s" horiz-adv-x="483" d="M251-11C146-11 55 35 41 144l81 12c14-65 64-93 128-93 65 0 105 28 105 72 0 118-300 63-300 240 0 88 77 139 181 139 99 0 174-46 191-142l-78-13c-11 54-49 83-114 83-58 0-96-22-96-61 0-111 301-61 301-245 0-91-73-147-189-147z"/><glyph glyph-name="sacute" unicode="ś" horiz-adv-x="483" d="M245 710h93L227 575h-69zm6-721C146-11 55 35 41 144l81 12c14-65 64-93 128-93 65 0 105 28 105 72 0 118-300 63-300 240 0 88 77 139 181 139 99 0 174-46 191-142l-78-13c-11 54-49 83-114 83-58 0-96-22-96-61 0-111 301-61 301-245 0-91-73-147-189-147z"/><glyph glyph-name="scaron" unicode="š" horiz-adv-x="483" d="M330 710h69L273 575h-65L83 710h69l88-102zM251-11C146-11 55 35 41 144l81 12c14-65 64-93 128-93 65 0 105 28 105 72 0 118-300 63-300 240 0 88 77 139 181 139 99 0 174-46 191-142l-78-13c-11 54-49 83-114 83-58 0-96-22-96-61 0-111 301-61 301-245 0-91-73-147-189-147z"/><glyph glyph-name="scedilla" unicode="ş" horiz-adv-x="483" d="M440 136c0-85-64-140-167-146l-19-37c59 0 95-27 95-71s-37-72-96-72c-30 0-57 7-88 23l11 30c34-16 50-20 67-20 34 0 49 16 49 41 0 26-20 40-57 40h-24l-1 23 23 42C136-5 54 41 41 144l81 12c14-65 64-93 128-93 65 0 105 28 105 72 0 118-300 63-300 240 0 88 77 139 181 139 99 0 174-46 191-142l-78-13c-11 54-49 83-114 83-58 0-96-22-96-61 0-111 301-61 301-245z"/><glyph glyph-name="scircumflex" unicode="ŝ" horiz-adv-x="483" d="M330 576l-90 100-88-100H83l125 133h65l126-133h-69zM251-11C146-11 55 35 41 144l81 12c14-65 64-93 128-93 65 0 105 28 105 72 0 118-300 63-300 240 0 88 77 139 181 139 99 0 174-46 191-142l-78-13c-11 54-49 83-114 83-58 0-96-22-96-61 0-111 301-61 301-245 0-91-73-147-189-147z"/><glyph glyph-name="scommaaccent" unicode="ș" horiz-adv-x="483" d="M251-11C146-11 55 35 41 144l81 12c14-65 64-93 128-93 65 0 105 28 105 72 0 118-300 63-300 240 0 88 77 139 181 139 99 0 174-46 191-142l-78-13c-11 54-49 83-114 83-58 0-96-22-96-61 0-111 301-61 301-245 0-91-73-147-189-147zm-9-34c28 0 49-21 49-49 0-19-9-43-54-152h-49l40 104c-21 7-36 25-35 48 0 29 22 49 49 49z"/><glyph glyph-name="germandbls" unicode="ß" horiz-adv-x="540" d="M361 379c84-19 138-89 138-181C499 77 409 0 268 0h-48v76h41c92 0 153 50 153 132 0 77-54 127-138 127h-53v76h53c65 0 110 53 110 122 0 71-47 121-119 121-68 0-110-44-110-113V0H75v543c0 114 74 187 194 187 122 0 202-75 202-187 0-80-43-142-110-164z"/><glyph glyph-name="t" unicode="t" horiz-adv-x="323" d="M241 72h61V0h-86C138 0 89 50 89 129l-1 299H19v72h69l27 114h54V500h124v-72H169l1-276c0-50 28-80 71-80z"/><glyph glyph-name="tbar" unicode="ŧ" horiz-adv-x="323" d="M241 72h61V0h-86C138 0 89 50 89 129v141H30v47h58v111H19v72h69l27 114h54V500h124v-72H169l1-111h112v-47H170V152c0-50 28-80 71-80z"/><glyph glyph-name="tcaron" unicode="ť" horiz-adv-x="343" d="M353 710l-56-152h-45l33 152h68zM170 152c0-50 28-80 71-80h61V0h-86C138 0 89 50 89 129l-1 299H19v72h69l27 114h54V500h124v-72H169z"/><glyph glyph-name="uni0163" unicode="ţ" horiz-adv-x="325" d="M302 0h-76l-24-47c59 0 95-27 95-71s-37-72-96-72c-30 0-57 7-88 23l11 30c34-16 50-20 67-20 34 0 49 16 49 41 0 26-20 40-57 40h-24l-1 23 30 55c-62 11-99 58-99 127l-1 299H19v72h69l27 114h54V500h124v-72H169l1-276c0-50 28-80 71-80h61V0z"/><glyph glyph-name="uni021B" unicode="ț" horiz-adv-x="323" d="M241 72h61V0h-86C138 0 89 50 89 129l-1 299H19v72h69l27 114h54V500h124v-72H169l1-276c0-50 28-80 71-80zM191-45c28 0 49-21 49-49 0-19-9-43-54-152h-49l40 104c-21 7-36 25-35 48 0 29 22 49 49 49z"/><glyph glyph-name="u" unicode="u" horiz-adv-x="533" d="M376 500h81V0h-69v83c-27-59-84-94-159-94C125-11 60 54 60 179v321h81V184c0-73 44-117 114-117 74 0 120 49 122 127z"/><glyph glyph-name="uacute" unicode="ú" horiz-adv-x="533" d="M359 710L248 575h-69l87 135h93zm17-210h81V0h-69v83c-27-59-84-94-159-94C125-11 60 54 60 179v321h81V184c0-73 44-117 114-117 74 0 120 49 122 127z"/><glyph glyph-name="ubreve" unicode="ŭ" horiz-adv-x="533" d="M262 574c-90 0-151 53-157 138h56c5-54 45-88 101-88s95 34 100 88h57c-6-85-68-138-157-138zm114-74h81V0h-69v83c-27-59-84-94-159-94C125-11 60 54 60 179v321h81V184c0-73 44-117 114-117 74 0 120 49 122 127z"/><glyph glyph-name="uni01D4" unicode="ǔ" horiz-adv-x="533" d="M294 575h-65L104 710h69l88-102 90 102h69zm82-75h81V0h-69v83c-27-59-84-94-159-94C125-11 60 54 60 179v321h81V184c0-73 44-117 114-117 74 0 120 49 122 127z"/><glyph glyph-name="ucircumflex" unicode="û" horiz-adv-x="533" d="M261 676l-88-100h-69l125 133h65l126-133h-69zm115-176h81V0h-69v83c-27-59-84-94-159-94C125-11 60 54 60 179v321h81V184c0-73 44-117 114-117 74 0 120 49 122 127z"/><glyph glyph-name="udieresis" unicode="ü" horiz-adv-x="533" d="M168 613c-24 0-44 20-44 44s20 43 44 43 43-19 43-43-19-44-43-44zm188 0c-25 0-44 20-44 44s19 43 44 43c23 0 42-19 42-43s-19-44-42-44zm20-113h81V0h-69v83c-27-59-84-94-159-94C125-11 60 54 60 179v321h81V184c0-73 44-117 114-117 74 0 120 49 122 127z"/><glyph glyph-name="ugrave" unicode="ù" horiz-adv-x="533" d="M326 575h-69L146 710h93zm50-75h81V0h-69v83c-27-59-84-94-159-94C125-11 60 54 60 179v321h81V184c0-73 44-117 114-117 74 0 120 49 122 127z"/><glyph glyph-name="uhungarumlaut" unicode="ű" horiz-adv-x="533" d="M307 710L192 575h-66l99 135h82zm28-135h-65l97 135h83zm41-75h81V0h-69v83c-27-59-84-94-159-94C125-11 60 54 60 179v321h81V184c0-73 44-117 114-117 74 0 120 49 122 127z"/><glyph glyph-name="umacron" unicode="ū" horiz-adv-x="533" d="M402 678v-51H122v51h280zm-26-178h81V0h-69v83c-27-59-84-94-159-94C125-11 60 54 60 179v321h81V184c0-73 44-117 114-117 74 0 120 49 122 127z"/><glyph glyph-name="uogonek" unicode="ų" horiz-adv-x="533" d="M457 0c-53-28-83-59-83-95 0-29 17-42 63-42h19v-53h-27c-90 0-136 29-136 81 0 45 37 87 95 118v74c-27-59-84-94-159-94C125-11 60 54 60 179v321h81V184c0-73 44-117 114-117 74 0 120 49 122 127l-1 306h81V0z"/><glyph glyph-name="uring" unicode="ů" horiz-adv-x="533" d="M262 576c-60 0-98 37-98 97 0 59 38 96 98 96 59 0 97-36 97-96s-38-97-97-97zm0 161c-39 0-63-24-63-64s24-64 63-64 63 24 63 64-24 64-63 64zm114-237h81V0h-69v83c-27-59-84-94-159-94C125-11 60 54 60 179v321h81V184c0-73 44-117 114-117 74 0 120 49 122 127z"/><glyph glyph-name="utilde" unicode="ũ" horiz-adv-x="533" d="M192 655c-25 0-43-21-43-54H98c0 65 38 105 90 105 63 0 96-51 144-51 26 0 43 21 43 53h50c0-65-37-105-88-105-64 0-96 52-145 52zm184-155h81V0h-69v83c-27-59-84-94-159-94C125-11 60 54 60 179v321h81V184c0-73 44-117 114-117 74 0 120 49 122 127z"/><glyph glyph-name="v" unicode="v" horiz-adv-x="480" d="M387 500h88L296 0H184L5 500h90L241 73z"/><glyph glyph-name="w" unicode="w" horiz-adv-x="751" d="M657 500h89L601 0H482L374 414 268 0H150L5 500h91L210 65l115 435h102L542 67z"/><glyph glyph-name="wacute" unicode="ẃ" horiz-adv-x="751" d="M472 710L361 575h-69l87 135h93zm185-210h89L601 0H482L374 414 268 0H150L5 500h91L210 65l115 435h102L542 67z"/><glyph glyph-name="wcircumflex" unicode="ŵ" horiz-adv-x="751" d="M374 676l-88-100h-69l125 133h65l126-133h-69zm283-176h89L601 0H482L374 414 268 0H150L5 500h91L210 65l115 435h102L542 67z"/><glyph glyph-name="wdieresis" unicode="ẅ" horiz-adv-x="751" d="M281 613c-24 0-44 20-44 44s20 43 44 43 43-19 43-43-19-44-43-44zm188 0c-25 0-44 20-44 44s19 43 44 43c23 0 42-19 42-43s-19-44-42-44zm188-113h89L601 0H482L374 414 268 0H150L5 500h91L210 65l115 435h102L542 67z"/><glyph glyph-name="wgrave" unicode="ẁ" horiz-adv-x="751" d="M439 575h-69L259 710h93zm218-75h89L601 0H482L374 414 268 0H150L5 500h91L210 65l115 435h102L542 67z"/><glyph glyph-name="x" unicode="x" horiz-adv-x="471" d="M466 0h-97L234 208 99 0H6l175 257L17 500h97l123-195 123 195h94L290 257z"/><glyph glyph-name="y" unicode="y" horiz-adv-x="469" d="M377 500h87L231-190h-85L209 0h-37L5 500h91L230 60z"/><glyph glyph-name="yacute" unicode="ý" horiz-adv-x="469" d="M332 710L221 575h-69l87 135h93zm45-210h87L231-190h-85L209 0h-37L5 500h91L230 60z"/><glyph glyph-name="ycircumflex" unicode="ŷ" horiz-adv-x="469" d="M234 676l-88-100H77l125 133h65l126-133h-69zm143-176h87L231-190h-85L209 0h-37L5 500h91L230 60z"/><glyph glyph-name="ydieresis" unicode="ÿ" horiz-adv-x="469" d="M141 613c-24 0-44 20-44 44s20 43 44 43 43-19 43-43-19-44-43-44zm188 0c-25 0-44 20-44 44s19 43 44 43c23 0 42-19 42-43s-19-44-42-44zm48-113h87L231-190h-85L209 0h-37L5 500h91L230 60z"/><glyph glyph-name="ygrave" unicode="ỳ" horiz-adv-x="469" d="M299 575h-69L119 710h93zm78-75h87L231-190h-85L209 0h-37L5 500h91L230 60z"/><glyph glyph-name="z" unicode="z" horiz-adv-x="408" d="M119 72h273V0H15v70l269 358H25v72h362v-70z"/><glyph glyph-name="zacute" unicode="ź" horiz-adv-x="408" d="M306 710L195 575h-69l87 135h93zM119 72h273V0H15v70l269 358H25v72h362v-70z"/><glyph glyph-name="zcaron" unicode="ž" horiz-adv-x="408" d="M241 575h-65L51 710h69l88-102 90 102h69zM119 72h273V0H15v70l269 358H25v72h362v-70z"/><glyph glyph-name="zdotaccent" unicode="ż" horiz-adv-x="408" d="M209 602c-31 0-55 25-55 55 0 31 24 55 55 55 30 0 54-24 54-55 0-30-24-55-54-55zM119 72h273V0H15v70l269 358H25v72h362v-70z"/><glyph glyph-name="a.ss01" horiz-adv-x="554" d="M403 500h76V0h-76v74c-36-54-91-84-160-84C119-10 41 91 41 252s78 262 202 262c69 0 124-30 160-84v70zM262 66c83 0 136 73 136 186 0 114-53 186-136 186-84 0-136-72-136-186 0-113 52-186 136-186z"/><glyph glyph-name="aacute.ss01" horiz-adv-x="554" d="M371 709L260 574h-69l87 135h93zm32-209h76V0h-76v74c-36-54-91-84-160-84C119-10 41 91 41 252s78 262 202 262c69 0 124-30 160-84v70zM262 66c83 0 136 73 136 186 0 114-53 186-136 186-84 0-136-72-136-186 0-113 52-186 136-186z"/><glyph glyph-name="abreve.ss01" horiz-adv-x="554" d="M274 573c-90 0-151 53-157 138h56c5-54 45-88 101-88s95 34 100 88h57c-6-85-68-138-157-138zm129-73h76V0h-76v74c-36-54-91-84-160-84C119-10 41 91 41 252s78 262 202 262c69 0 124-30 160-84v70zM262 66c83 0 136 73 136 186 0 114-53 186-136 186-84 0-136-72-136-186 0-113 52-186 136-186z"/><glyph glyph-name="acircumflex.ss01" horiz-adv-x="554" d="M273 675l-88-100h-69l125 133h65l126-133h-69zm130-175h76V0h-76v74c-36-54-91-84-160-84C119-10 41 91 41 252s78 262 202 262c69 0 124-30 160-84v70zM262 66c83 0 136 73 136 186 0 114-53 186-136 186-84 0-136-72-136-186 0-113 52-186 136-186z"/><glyph glyph-name="adieresis.ss01" horiz-adv-x="554" d="M180 612c-24 0-44 20-44 44s20 43 44 43 43-19 43-43-19-44-43-44zm188 0c-25 0-44 20-44 44s19 43 44 43c23 0 42-19 42-43s-19-44-42-44zm35-112h76V0h-76v74c-36-54-91-84-160-84C119-10 41 91 41 252s78 262 202 262c69 0 124-30 160-84v70zM262 66c83 0 136 73 136 186 0 114-53 186-136 186-84 0-136-72-136-186 0-113 52-186 136-186z"/><glyph glyph-name="agrave.ss01" horiz-adv-x="554" d="M338 574h-69L158 709h93zm65-74h76V0h-76v74c-36-54-91-84-160-84C119-10 41 91 41 252s78 262 202 262c69 0 124-30 160-84v70zM262 66c83 0 136 73 136 186 0 114-53 186-136 186-84 0-136-72-136-186 0-113 52-186 136-186z"/><glyph glyph-name="amacron.ss01" horiz-adv-x="554" d="M414 677v-51H134v51h280zm-11-177h76V0h-76v74c-36-54-91-84-160-84C119-10 41 91 41 252s78 262 202 262c69 0 124-30 160-84v70zM262 66c83 0 136 73 136 186 0 114-53 186-136 186-84 0-136-72-136-186 0-113 52-186 136-186z"/><glyph glyph-name="aogonek.ss01" horiz-adv-x="554" d="M479 0c-53-28-83-59-83-95 0-29 17-42 63-42h19v-53h-27c-90 0-136 29-136 81 0 44 34 84 88 114v69c-36-54-91-84-160-84C119-10 41 91 41 252s78 262 202 262c69 0 124-30 160-84v70h76V0zM262 66c83 0 136 73 136 186 0 114-53 186-136 186-84 0-136-72-136-186 0-113 52-186 136-186z"/><glyph glyph-name="aring.ss01" horiz-adv-x="554" d="M274 575c-60 0-98 37-98 97 0 59 38 96 98 96 59 0 97-36 97-96s-38-97-97-97zm0 161c-39 0-63-24-63-64s24-64 63-64 63 24 63 64-24 64-63 64zm129-236h76V0h-76v74c-36-54-91-84-160-84C119-10 41 91 41 252s78 262 202 262c69 0 124-30 160-84v70zM262 66c83 0 136 73 136 186 0 114-53 186-136 186-84 0-136-72-136-186 0-113 52-186 136-186z"/><glyph glyph-name="atilde.ss01" horiz-adv-x="554" d="M204 654c-25 0-43-21-43-54h-51c0 65 38 105 90 105 63 0 96-51 144-51 26 0 43 21 43 53h50c0-65-37-105-88-105-64 0-96 52-145 52zm199-154h76V0h-76v74c-36-54-91-84-160-84C119-10 41 91 41 252s78 262 202 262c69 0 124-30 160-84v70zM262 66c83 0 136 73 136 186 0 114-53 186-136 186-84 0-136-72-136-186 0-113 52-186 136-186z"/><glyph glyph-name="ordfeminine" unicode="ª" horiz-adv-x="382" d="M199 690c89 0 144-50 144-129V330h-71v45c-22-34-63-54-114-54-74 0-120 39-120 102 0 68 53 111 137 111 33 0 65-6 89-17v43c0 41-27 66-70 66-32 0-55-18-63-50l-80 12c12 63 67 102 148 102zm-15-307c48 0 80 27 80 69v14c-22 10-48 18-73 18-42 0-71-21-71-53 0-30 24-48 64-48z"/><glyph glyph-name="ordmasculine" unicode="º" horiz-adv-x="409" d="M199 321C92 321 25 392 25 506c0 113 67 184 174 184 106 0 172-71 172-184 0-114-66-185-172-185zm0 70c54 0 87 44 87 115s-33 116-87 116c-55 0-89-45-89-116s34-115 89-115z"/><glyph glyph-name="uni0394" unicode="Δ" horiz-adv-x="634" d="M370 710L626 0H8l256 710h106zM120 65h394L317 637z"/><glyph glyph-name="uni03A9" unicode="Ω" horiz-adv-x="759" d="M562 76h144V0H432v76c108 24 171 154 171 290 0 176-85 279-222 279S158 541 158 366c0-131 63-263 168-290V0H54v76h147C117 140 69 251 69 374c0 213 121 351 313 351s311-138 311-351c0-124-48-235-131-298z"/><glyph glyph-name="uni03BC" unicode="μ" horiz-adv-x="533" d="M392 500h81V0h-70v75c-28-54-82-86-153-86-36 0-67 8-93 24v-203H76l-1 360v330h82V191c0-78 43-126 112-126 75 0 123 54 123 141v294z"/><glyph glyph-name="pi" unicode="π" horiz-adv-x="638" d="M589 63h28V-3h-53c-67 0-105 37-106 103v335H232l1-435h-81l-1 435H75v65h534v-65h-70l1-319c0-33 18-53 49-53z"/><glyph glyph-name="zero" unicode="0" horiz-adv-x="547" d="M276 696c143 0 233-137 233-354S419-11 276-11C132-11 42 125 42 342s90 354 234 354zm0-76c-92 0-149-108-149-278S184 65 276 65c91 0 148 107 148 277s-57 278-148 278z"/><glyph glyph-name="one" unicode="1" horiz-adv-x="548" d="M277 670h74V0h-85v595l-141-15v74z"/><glyph glyph-name="two" unicode="2" horiz-adv-x="548" d="M168 74h319V0H49v73c203 194 347 319 347 433 0 68-48 112-123 112-72 0-116-56-130-145l-83 14c16 124 95 207 217 207 125 0 204-77 204-190 0-127-127-249-313-430z"/><glyph glyph-name="three" unicode="3" horiz-adv-x="548" d="M351 340c87-19 144-76 144-161 0-115-87-190-214-190C159-11 78 59 52 176l81 13c23-79 74-124 144-124 78 0 133 45 133 116 0 74-60 118-155 118h-45v76h48c86 0 141 51 141 128 0 71-49 115-125 115-72 0-116-46-137-124l-82 13c25 117 97 187 221 187 127 0 208-71 208-182 0-84-51-150-133-172z"/><glyph glyph-name="four" unicode="4" horiz-adv-x="548" d="M511 234v-73H402V0h-82v161H21v73l289 444h92V234h109zm-408 0h217v337z"/><glyph glyph-name="five" unicode="5" horiz-adv-x="548" d="M292 444c125 0 204-85 204-221 0-144-88-235-229-235C149-12 69 59 56 171l83 13c9-73 62-120 133-120 85 0 139 60 139 155 0 92-52 149-137 149-65 0-118-34-137-86H60l15 402h393v-78H151l-9-229c35 43 88 67 150 67z"/><glyph glyph-name="six" unicode="6" horiz-adv-x="548" d="M296 438c140 0 203-110 203-226 0-114-63-223-226-223C82-11 47 134 47 298c0 298 111 396 243 396 108 0 169-64 194-172l-79-11c-15 63-48 107-118 107-106 0-151-111-158-263 33 57 97 83 167 83zM277 65c89 0 137 55 137 144 0 88-47 153-137 153-89 0-138-63-138-152 0-91 50-145 138-145z"/><glyph glyph-name="seven" unicode="7" horiz-adv-x="548" d="M65 684h432v-76L232 0h-92l269 608H65v76z"/><glyph glyph-name="eight" unicode="8" horiz-adv-x="548" d="M358 352c89-17 144-82 144-171 0-117-88-192-227-192C135-11 48 64 48 181c0 89 56 154 145 170-82 13-133 75-133 161 0 111 82 182 215 182 131 0 214-71 214-182 0-80-51-142-131-160zM145 505c0-74 50-119 130-119 79 0 129 45 129 119 0 68-50 113-129 113-80 0-130-45-130-113zM275 65c87 0 142 48 142 122 0 75-55 123-142 123-88 0-142-48-142-123 0-74 54-122 142-122z"/><glyph glyph-name="nine" unicode="9" horiz-adv-x="548" d="M268 694c195 0 231-143 231-303C499 82 390-11 261-11 149-11 84 49 53 159l82 11c20-61 53-105 126-105 108 0 151 117 156 276-30-69-96-97-172-97-135 0-198 110-198 231 0 110 66 219 221 219zm-1-374c92 0 139 63 139 155 0 88-50 144-138 144s-136-55-136-144 47-155 135-155z"/><glyph glyph-name="uni24FF" unicode="⓿" horiz-adv-x="827" d="M415-13C201-13 54 133 54 349c0 217 147 368 361 368 212 0 359-151 359-368 0-216-147-362-359-362zm-1 609c-115 0-187-95-187-245 0-149 72-243 187-243 114 0 186 94 186 243 0 150-72 245-186 245zm0-49c-77 0-124-75-124-196 0-119 47-195 124-195 75 0 122 76 122 195 0 121-47 196-122 196z"/><glyph glyph-name="uni2776" unicode="❶" horiz-adv-x="827" d="M415-13C201-13 54 133 54 349c0 217 147 368 361 368 212 0 359-151 359-368 0-216-147-362-359-362zm52 134v473h-56l-126-12v-54l118 10V121h64z"/><glyph glyph-name="uni2777" unicode="❷" horiz-adv-x="827" d="M415 717c212 0 359-151 359-367 0-217-147-363-359-363C201-13 54 133 54 350c0 216 147 367 361 367zm176-607v52H327c154 133 260 219 260 315 0 79-65 139-168 139-97 0-159-60-172-152l65-10c12 67 48 111 106 111 62 0 101-33 101-86 0-83-117-177-282-317v-52h354z"/><glyph glyph-name="uni2778" unicode="❸" horiz-adv-x="827" d="M415 717c212 0 359-151 359-367 0-217-147-363-359-363C201-13 54 133 54 350c0 216 147 367 361 367zm10-615c102 0 172 55 172 139 0 62-46 104-117 118 67 16 109 64 109 124 0 83-66 135-168 135-99 0-158-51-179-137l65-11c17 61 54 97 112 97 61 0 102-34 102-90 0-58-44-96-115-96h-39v-48h37c77 0 125-33 125-90 0-54-44-90-108-90-57 0-99 35-117 97l-65-11c21-86 87-137 186-137zm50 256v2c2 0 3-1 5-1-2 0-3-1-5-1z"/><glyph glyph-name="uni2779" unicode="❹" horiz-adv-x="827" d="M415-13C201-13 54 133 54 349c0 217 147 368 361 368 212 0 359-151 359-368 0-216-147-362-359-362zm34 139h62v115h88v48h-88v309h-68L208 289v-48h241V126zM265 289l184 241V289H265z"/><glyph glyph-name="uni277A" unicode="❺" horiz-adv-x="827" d="M415-13C201-13 54 133 54 350c0 216 147 367 361 367 212 0 359-151 359-367 0-217-147-363-359-363zm157 555v50H256l-12-279h54c17 43 63 70 119 70 71 0 117-43 117-113 0-71-46-116-120-116-62 0-106 35-114 92l-59-10c10-78 76-127 169-127 113 0 185 63 185 163 0 95-64 154-167 154-52 0-95-17-124-46l7 162h261z"/><glyph glyph-name="uni277B" unicode="❻" horiz-adv-x="827" d="M415 717c213 0 359-151 359-367 0-217-147-363-359-363C202-13 54 133 54 350c0 216 147 367 361 367zm1-609c130 0 182 83 182 166 0 84-51 155-164 155-61 0-117-19-142-66 3 119 40 207 133 207 61 0 90-38 105-90l56 7c-22 83-73 127-161 127-103 0-192-63-192-273 0-119 29-233 183-233zm3 276c75 0 118-44 118-112 0-70-43-119-118-119s-119 48-119 117c0 68 42 114 119 114z"/><glyph glyph-name="uni277C" unicode="❼" horiz-adv-x="827" d="M415-13C201-13 54 133 54 349c0 217 147 368 361 368 212 0 359-151 359-368 0-216-147-362-359-362zm173 603H243v-55h278L303 118h69l216 417v55z"/><glyph glyph-name="uni277D" unicode="❽" horiz-adv-x="827" d="M415-13C201-13 54 133 54 349c0 217 147 368 361 368 212 0 359-151 359-368 0-216-147-362-359-362zm-1 615c-99 0-170-51-170-126 0-58 42-98 106-111-71-15-117-59-117-118 0-79 74-133 181-133 106 0 182 53 182 133 0 59-48 103-118 118 63 13 105 53 105 111 0 75-69 126-169 126zm0-46c-64 0-109-34-109-85s44-87 109-87c66 0 108 36 108 87s-44 85-108 85zm0-215c-65 0-118-34-118-89 0-54 50-92 118-92s119 37 119 92c0 52-52 89-119 89z"/><glyph glyph-name="uni277E" unicode="❾" horiz-adv-x="827" d="M415 717c213 0 359-151 359-367 0-217-147-363-359-363C202-13 54 133 54 350c0 216 147 367 361 367zm-6-609c104 0 188 69 188 281 0 122-29 225-181 225-132 0-183-79-183-161 0-84 51-159 164-159 62 0 118 21 142 67-3-122-39-208-129-208-65 0-93 41-108 89l-56-6c24-86 80-128 163-128zm3 462c75 0 119-45 119-115s-42-117-118-117c-77 0-119 47-119 118 0 69 42 114 118 114z"/><glyph glyph-name="uni24EA" unicode="⓪" horiz-adv-x="827" d="M415-13C201-13 54 133 54 349c0 217 147 368 361 368 212 0 359-151 359-368 0-216-147-362-359-362zm0 37c189 0 320 131 320 326S604 680 415 680C223 680 93 545 93 350S223 24 415 24zm-1 572c114 0 186-95 186-245 0-149-72-243-186-243-115 0-187 94-187 243 0 150 72 245 187 245zm0-49c-77 0-124-75-124-196 0-119 47-195 124-195 75 0 122 76 122 195 0 121-47 196-122 196z"/><glyph glyph-name="uni2460" unicode="①" horiz-adv-x="827" d="M415 717c212 0 359-151 359-368 0-216-147-362-359-362C201-13 54 133 54 349c0 217 147 368 361 368zm0-693c189 0 320 131 320 326S604 680 415 680C223 680 93 545 93 350S223 24 415 24zM285 586l126 12h56V126h-64v416l-118-10v54z"/><glyph glyph-name="uni2461" unicode="②" horiz-adv-x="827" d="M415-13C202-13 54 133 54 349c0 217 148 368 361 368 212 0 359-151 359-368 0-216-146-362-359-362zm0 37c190 0 320 131 320 326S604 680 415 680C224 680 93 545 93 350S225 24 415 24zm-182 86h354v52H323c120 103 259 209 259 315 0 74-65 139-167 139-98 0-166-61-176-156l66-10c7 71 43 115 108 115 62 0 101-39 101-86 0-92-156-212-281-317v-52z"/><glyph glyph-name="uni2462" unicode="③" horiz-adv-x="827" d="M415 717c212 0 359-151 359-368 0-216-147-362-359-362C201-13 54 133 54 349c0 217 147 368 361 368zm0-693c189 0 320 131 320 326S604 680 415 680C223 680 93 545 93 350S223 24 415 24zm60 335c71-14 117-56 117-118 0-84-70-139-172-139-99 0-165 51-186 137l65 11c18-62 60-97 117-97 64 0 108 36 108 90 0 57-48 90-125 90h-37v48h38c72 0 116 38 116 96 0 56-41 90-102 90-58 0-95-36-112-97l-65 11c21 86 80 137 179 137 102 0 167-52 167-135 0-60-41-108-108-124z"/><glyph glyph-name="uni2463" unicode="④" horiz-adv-x="827" d="M415 717c212 0 359-151 359-368 0-216-147-362-359-362C201-13 54 133 54 349c0 217 147 368 361 368zm0-693c189 0 320 131 320 326S604 680 415 680C223 680 93 545 93 350S223 24 415 24zm96 574V289h88v-48h-88V126h-62v115H208v48l235 309h68zM264 289h185v241z"/><glyph glyph-name="uni2464" unicode="⑤" horiz-adv-x="827" d="M415-13C201-13 54 133 54 349c0 217 147 368 361 368 212 0 359-151 359-368 0-216-147-362-359-362zm0 37c189 0 320 131 320 326S604 680 415 680C223 680 93 545 93 350S223 24 415 24zm157 520v55H254l-12-294h62c15 44 55 72 110 72 70 0 113-45 113-117 0-74-45-120-114-120-62 0-99 38-108 95l-66-10c10-84 73-134 171-134 112 0 184 68 184 172 0 98-65 161-165 161-50 0-92-16-121-49l7 169h257z"/><glyph glyph-name="uni2465" unicode="⑥" horiz-adv-x="827" d="M415 717c212 0 359-151 359-368 0-216-147-362-359-362C201-13 54 133 54 349c0 217 147 368 361 368zm0-693c189 0 320 131 320 326S604 680 415 680C223 680 93 545 93 350S223 24 415 24zm20 403c112 0 163-73 163-153 0-81-53-159-179-159-157 0-186 102-186 215 0 210 89 273 192 273 87 0 138-42 160-119l-56-6c-14 46-44 81-104 81-92 0-129-85-133-199 25 47 81 67 143 67zm-16-268c75 0 118 44 118 115 0 62-43 108-117 108-78 0-120-47-120-115 0-63 44-108 119-108z"/><glyph glyph-name="uni2466" unicode="⑦" horiz-adv-x="827" d="M415 717c212 0 359-151 359-368 0-216-147-362-359-362C201-13 54 133 54 349c0 217 147 368 361 368zm0-693c189 0 320 131 320 326S604 680 415 680C223 680 93 545 93 350S223 24 415 24zM243 535v55h345v-55L372 118h-69l218 417H243z"/><glyph glyph-name="uni2467" unicode="⑧" horiz-adv-x="827" d="M415 717c212 0 359-151 359-368 0-216-147-362-359-362C201-13 54 133 54 349c0 217 147 368 361 368zm0-693c189 0 320 131 320 326S604 680 415 680C223 680 93 545 93 350S223 24 415 24zm63 344c69-15 117-58 117-117 0-81-76-133-182-133s-180 53-180 133c0 59 46 102 116 117-63 13-105 54-105 111 0 76 71 127 170 127s169-51 169-127c0-57-42-98-105-111zM305 475c0-52 43-86 109-86 65 0 108 34 108 86 0 50-45 84-108 84-64 0-109-34-109-84zm109-311c68 0 118 36 118 92 0 52-52 89-118 89-65 0-118-35-118-89 0-55 49-92 118-92z"/><glyph glyph-name="uni2468" unicode="⑨" horiz-adv-x="827" d="M415 717c212 0 359-151 359-368 0-216-147-362-359-362C201-13 54 133 54 349c0 217 147 368 361 368zm0-693c189 0 320 131 320 326S604 680 415 680C223 680 93 545 93 350S223 24 415 24zm-3 570c156 0 185-99 185-210 0-214-84-278-185-278-91 0-142 42-166 118l56 7c16-46 45-81 110-81 88 0 123 84 127 199-25-46-80-66-143-66-112 0-163 75-163 159 0 77 52 152 179 152zm-1-268c78 0 120 48 120 116 0 66-44 108-119 108-76 0-118-41-118-108s42-116 117-116z"/><glyph glyph-name="zero.lf" horiz-adv-x="587" d="M288 696c143 0 233-137 233-354S431-11 288-11C144-11 54 125 54 342s90 354 234 354zm0-76c-92 0-149-108-149-278S196 65 288 65c91 0 148 107 148 277s-57 278-148 278z"/><glyph glyph-name="one.lf" horiz-adv-x="361" d="M197 670h74V0h-85v595L45 580v74z"/><glyph glyph-name="two.lf" horiz-adv-x="554" d="M167 74h319V0H48v73c203 194 347 319 347 433 0 68-48 112-123 112-72 0-116-56-130-145l-83 14c16 124 95 207 217 207 125 0 204-77 204-190 0-127-127-249-313-430z"/><glyph glyph-name="three.lf" horiz-adv-x="561" d="M348 340c87-19 144-76 144-161 0-115-87-190-214-190C156-11 75 59 49 176l81 13c23-79 74-124 144-124 78 0 133 45 133 116 0 74-60 118-155 118h-45v76h48c86 0 141 51 141 128 0 71-49 115-125 115-72 0-116-46-137-124l-82 13c25 117 97 187 221 187 127 0 208-71 208-182 0-84-51-150-133-172z"/><glyph glyph-name="four.lf" horiz-adv-x="557" d="M508 234v-73H399V0h-82v161H18v73l289 444h92V234h109zm-408 0h217v337z"/><glyph glyph-name="five.lf" horiz-adv-x="565" d="M292 444c125 0 204-85 204-221 0-144-88-235-229-235C149-12 69 59 56 171l83 13c9-73 62-120 133-120 85 0 139 60 139 155 0 92-52 149-137 149-65 0-118-34-137-86H60l15 402h393v-78H151l-9-229c35 43 88 67 150 67z"/><glyph glyph-name="six.lf" horiz-adv-x="564" d="M296 438c140 0 203-110 203-226 0-114-63-223-226-223C82-11 47 134 47 298c0 298 111 396 243 396 108 0 169-64 194-172l-79-11c-15 63-48 107-118 107-106 0-151-111-158-263 33 57 97 83 167 83zM277 65c89 0 137 55 137 144 0 88-47 153-137 153-89 0-138-63-138-152 0-91 50-145 138-145z"/><glyph glyph-name="seven.lf" horiz-adv-x="502" d="M10 684h465v-76L199 0h-92l280 608H10v76z"/><glyph glyph-name="eight.lf" horiz-adv-x="569" d="M361 352c89-17 144-82 144-171 0-117-88-192-227-192C138-11 51 64 51 181c0 89 56 154 145 170-82 13-133 75-133 161 0 111 82 182 215 182 131 0 214-71 214-182 0-80-51-142-131-160zM148 505c0-74 50-119 130-119 79 0 129 45 129 119 0 68-50 113-129 113-80 0-130-45-130-113zM278 65c87 0 142 48 142 122 0 75-55 123-142 123-88 0-142-48-142-123 0-74 54-122 142-122z"/><glyph glyph-name="nine.lf" horiz-adv-x="564" d="M269 694c195 0 231-143 231-303C500 82 391-11 262-11 150-11 85 49 54 159l82 11c20-61 53-105 126-105 108 0 151 117 156 276-30-69-96-97-172-97-135 0-198 110-198 231 0 110 66 219 221 219zm-1-374c92 0 139 63 139 155 0 88-50 144-138 144s-136-55-136-144 47-155 135-155z"/><glyph glyph-name="zero.tf" horiz-adv-x="565" d="M276 696c143 0 233-137 233-354S419-11 276-11C132-11 42 125 42 342s90 354 234 354zm0-76c-92 0-149-108-149-278S184 65 276 65c91 0 148 107 148 277s-57 278-148 278z"/><glyph glyph-name="one.tf" horiz-adv-x="550" d="M338 76h152V0H93v76h160v524L96 585v69l169 17h73V76z"/><glyph glyph-name="two.tf" horiz-adv-x="565" d="M168 74h319V0H49v73c203 194 347 319 347 433 0 68-48 112-123 112-72 0-116-56-130-145l-83 14c16 124 95 207 217 207 125 0 204-77 204-190 0-127-127-249-313-430z"/><glyph glyph-name="three.tf" horiz-adv-x="565" d="M351 340c87-19 144-76 144-161 0-115-87-190-214-190C159-11 78 59 52 176l81 13c23-79 74-124 144-124 78 0 133 45 133 116 0 74-60 118-155 118h-45v76h48c86 0 141 51 141 128 0 71-49 115-125 115-72 0-116-46-137-124l-82 13c25 117 97 187 221 187 127 0 208-71 208-182 0-84-51-150-133-172z"/><glyph glyph-name="four.tf" horiz-adv-x="550" d="M521 234v-76H403V0h-82v158H21v76l289 449h93V234h118zm-410 0h210v331z"/><glyph glyph-name="five.tf" horiz-adv-x="565" d="M307 444c125 0 204-85 204-221 0-144-88-235-229-235C164-12 84 59 71 171l83 13c9-73 62-120 133-120 85 0 139 60 139 155 0 92-52 149-137 149-65 0-118-34-137-86H75l15 402h393v-78H166l-9-229c35 43 88 67 150 67z"/><glyph glyph-name="six.tf" horiz-adv-x="570" d="M310 440c143 0 209-112 209-231 0-111-70-220-232-220C84-11 47 132 47 292c0 309 117 402 254 402 110 0 175-60 203-170l-82-11c-17 61-51 105-122 105-119 0-167-118-171-279 30 72 101 101 181 101zM287 65c95 0 147 55 147 144 0 88-52 155-145 155-98 0-150-64-150-155 0-89 54-144 148-144z"/><glyph glyph-name="seven.tf" horiz-adv-x="550" d="M40 684h457v-76L206 0h-93l296 608H40v76z"/><glyph glyph-name="eight.tf" horiz-adv-x="565" d="M358 352c89-17 144-82 144-171 0-117-88-192-227-192C135-11 48 64 48 181c0 89 56 154 145 170-82 13-133 75-133 161 0 111 82 182 215 182 131 0 214-71 214-182 0-80-51-142-131-160zM145 505c0-74 50-119 130-119 79 0 129 45 129 119 0 68-50 113-129 113-80 0-130-45-130-113zM275 65c87 0 142 48 142 122 0 75-55 123-142 123-88 0-142-48-142-123 0-74 54-122 142-122z"/><glyph glyph-name="nine.tf" horiz-adv-x="554" d="M269 694c197 0 233-143 233-303C502 82 392-11 263-11 149-11 84 49 53 159l85 11c18-61 51-105 125-105 109 0 153 118 158 279-30-71-97-100-175-100-135 0-199 110-199 231 0 110 66 219 222 219zm0-374c92 0 141 63 141 155 0 87-51 143-140 143-90 0-138-55-138-143 0-89 48-155 137-155z"/><glyph glyph-name="zero.subs" horiz-adv-x="434" d="M224 304c117 0 190-95 190-247s-73-247-190-247C106-190 33-95 33 57s73 247 191 247zm0-59c-71 0-115-72-115-188s44-187 115-187c70 0 114 71 114 187s-44 188-114 188z"/><glyph glyph-name="one.subs" horiz-adv-x="297" d="M210 280h67v-470h-77v410l-114-9v57z"/><glyph glyph-name="two.subs" horiz-adv-x="416" d="M141-131h255v-59H39v58C200-3 314 85 314 162c0 45-36 74-93 74-54 0-87-39-98-100l-75 12c13 89 78 148 178 148 101 0 164-56 164-136 0-87-102-172-249-291z"/><glyph glyph-name="three.subs" horiz-adv-x="422" d="M286 56C356 42 402 2 402-55c0-82-70-135-174-135-99 0-166 50-187 134l74 12c18-55 56-86 109-86 60 0 101 30 101 76 0 51-45 81-120 81h-36v55h39c68 0 110 34 110 85 0 49-38 77-95 77-54 0-89-31-105-85l-74 12c19 83 80 133 181 133 103 0 169-50 169-129 0-57-42-101-108-119z"/><glyph glyph-name="four.subs" horiz-adv-x="434" d="M414-21v-57h-86v-112h-73v112H16v57l230 306h82V-21h86zM83-21h172v228z"/><glyph glyph-name="five.subs" horiz-adv-x="423" d="M239 130c101 0 164-59 164-155 0-101-72-166-186-166-97 0-163 50-173 128l74 13c8-51 48-83 102-83 66 0 107 40 107 105 0 63-40 101-104 101-51 0-92-23-106-59H47l12 283h321v-61H127l-6-147c29 26 69 41 118 41z"/><glyph glyph-name="six.subs" horiz-adv-x="426" d="M244 125c110 0 162-74 162-159 0-83-55-156-183-156C65-190 37-86 37 28c0 211 90 276 196 276 86 0 137-43 160-121l-71-9c-12 41-38 72-91 72-82 0-116-74-121-178 26 39 76 57 134 57zm-19-257c68 0 105 38 105 97 0 58-36 102-105 102-70 0-106-42-106-102 0-59 38-97 106-97z"/><glyph glyph-name="seven.subs" horiz-adv-x="424" d="M53 289h351v-67L195-190h-83l212 412H53v67z"/><glyph glyph-name="eight.subs" horiz-adv-x="428" d="M293 65C363 52 408 7 408-54c0-83-72-136-186-136S38-137 38-54C38 7 83 52 153 64 88 74 47 118 47 175c0 79 67 129 175 129s176-50 176-129c0-54-41-97-105-110zM122 169c0-48 39-78 100-78 62 0 101 30 101 78 0 47-39 77-101 77-61 0-100-30-100-77zm100-301c67 0 110 33 110 83s-43 82-110 82c-66 0-108-32-108-82s42-83 108-83z"/><glyph glyph-name="nine.subs" horiz-adv-x="426" d="M218 304c159 0 188-104 188-216 0-214-89-278-193-278-90 0-143 41-169 120l71 9c16-41 42-71 98-71 82 0 115 75 119 183-24-44-74-63-135-63C89-12 37 62 37 149c0 81 56 155 181 155zm-1-258c71 0 106 42 106 103 0 59-37 97-105 97s-105-37-105-97c0-59 36-103 104-103z"/><glyph glyph-name="zero.dnom" horiz-adv-x="344" d="M173 417c90 0 147-82 147-212S263-7 173-7C82-7 25 75 25 205s57 212 148 212zm0-49c-53 0-86-63-86-163s33-163 86-163 85 63 85 163-32 163-85 163z"/><glyph glyph-name="one.dnom" horiz-adv-x="245" d="M124 403h54V0h-62v354l-88-9v47z"/><glyph glyph-name="two.dnom" horiz-adv-x="344" d="M111 47h196V0H29v46c122 114 212 190 212 256 0 39-28 66-71 66-42 0-66-35-74-88l-60 10c10 75 60 126 138 126 79 0 129-47 129-116 0-76-79-147-192-253z"/><glyph glyph-name="three.dnom" horiz-adv-x="343" d="M223 204c54-13 88-46 88-96C311 38 257-7 176-7 100-7 47 36 31 107l60 10c13-48 42-75 82-75 44 0 76 27 76 68 0 44-34 70-91 70h-27v46h30c51 0 82 29 82 74 0 42-28 68-71 68-41 0-67-28-79-75l-60 11c15 69 63 112 141 112 80 0 131-43 131-110 0-48-31-87-82-102z"/><glyph glyph-name="four.dnom" horiz-adv-x="345" d="M322 144V98h-66V0h-60v98H12v46l177 263h67V144h66zm-257 0h131v198z"/><glyph glyph-name="five.dnom" horiz-adv-x="344" d="M186 267c78 0 127-51 127-132C313 47 257-7 167-7 92-7 41 35 33 103l61 10c6-44 36-72 77-72 49 0 80 34 80 91 0 54-30 88-79 88-37 0-68-20-79-52H36l9 242h250v-49H101l-5-130c22 23 53 36 90 36z"/><glyph glyph-name="six.dnom" horiz-adv-x="347" d="M194 263c84 0 124-64 124-136C318 56 275-7 176-7 54-7 31 82 31 180c0 180 70 236 153 236 67 0 107-37 124-104l-57-7c-11 36-29 63-70 63-61 0-87-64-90-156 19 35 57 51 103 51zM178 42c50 0 77 32 77 84 0 51-26 89-77 89-53 0-80-37-80-89s28-84 80-84z"/><glyph glyph-name="seven.dnom" horiz-adv-x="344" d="M41 410h272v-54L154 0H86l161 356H41v54z"/><glyph glyph-name="eight.dnom" horiz-adv-x="345" d="M228 212c54-11 88-50 88-103C316 38 261-7 172-7 84-7 29 38 29 109c0 53 34 92 88 102-50 9-80 47-80 95 0 68 51 110 135 110s137-42 137-110c0-46-31-83-81-94zM97 301c0-42 29-68 75-68 47 0 76 26 76 68 0 41-29 67-76 67-46 0-75-26-75-67zm75-259c50 0 83 28 83 71 0 44-33 72-83 72s-81-27-81-72c0-43 31-71 81-71z"/><glyph glyph-name="nine.dnom" horiz-adv-x="344" d="M169 416c124 0 146-88 146-184C315 48 246-7 165-7 95-7 53 29 34 96l58 7c12-35 30-61 73-61 62 0 88 67 90 159-19-39-56-56-104-56-82 0-123 65-123 139 0 69 45 132 141 132zm0-221c53 0 79 36 79 89 0 51-28 85-79 85s-78-33-78-85c0-51 26-89 78-89z"/><glyph glyph-name="zero.numr" horiz-adv-x="344" d="M173 687c90 0 147-82 147-212s-57-212-147-212c-91 0-148 82-148 212s57 212 148 212zm0-49c-53 0-86-63-86-163s33-163 86-163 85 63 85 163-32 163-85 163z"/><glyph glyph-name="one.numr" horiz-adv-x="245" d="M124 666h54V263h-62v354l-88-9v47z"/><glyph glyph-name="two.numr" horiz-adv-x="344" d="M111 310h196v-47H29v46c122 114 212 190 212 256 0 39-28 66-71 66-42 0-66-35-74-88l-60 10c10 75 60 126 138 126 79 0 129-47 129-116 0-76-79-147-192-253z"/><glyph glyph-name="three.numr" horiz-adv-x="343" d="M223 474c54-13 88-46 88-96 0-70-54-115-135-115-76 0-129 43-145 114l60 10c13-48 42-75 82-75 44 0 76 27 76 68 0 44-34 70-91 70h-27v46h30c51 0 82 29 82 74 0 42-28 68-71 68-41 0-67-28-79-75l-60 11c15 69 63 112 141 112 80 0 131-43 131-110 0-48-31-87-82-102z"/><glyph glyph-name="four.numr" horiz-adv-x="345" d="M322 407v-46h-66v-98h-60v98H12v46l177 263h67V407h66zm-257 0h131v198z"/><glyph glyph-name="five.numr" horiz-adv-x="344" d="M186 537c78 0 127-51 127-132 0-88-56-142-146-142-75 0-126 42-134 110l61 10c6-44 36-72 77-72 49 0 80 34 80 91 0 54-30 88-79 88-37 0-68-20-79-52H36l9 242h250v-49H101l-5-130c22 23 53 36 90 36z"/><glyph glyph-name="six.numr" horiz-adv-x="347" d="M194 533c84 0 124-64 124-136 0-71-43-134-142-134-122 0-145 89-145 187 0 180 70 236 153 236 67 0 107-37 124-104l-57-7c-11 36-29 63-70 63-61 0-87-64-90-156 19 35 57 51 103 51zm-16-221c50 0 77 32 77 84 0 51-26 89-77 89-53 0-80-37-80-89s28-84 80-84z"/><glyph glyph-name="seven.numr" horiz-adv-x="344" d="M41 673h272v-54L154 263H86l161 356H41v54z"/><glyph glyph-name="eight.numr" horiz-adv-x="345" d="M228 482c54-11 88-50 88-103 0-71-55-116-144-116-88 0-143 45-143 116 0 53 34 92 88 102-50 9-80 47-80 95 0 68 51 110 135 110s137-42 137-110c0-46-31-83-81-94zM97 571c0-42 29-68 75-68 47 0 76 26 76 68 0 41-29 67-76 67-46 0-75-26-75-67zm75-259c50 0 83 28 83 71 0 44-33 72-83 72s-81-27-81-72c0-43 31-71 81-71z"/><glyph glyph-name="nine.numr" horiz-adv-x="344" d="M169 686c124 0 146-88 146-184 0-184-69-239-150-239-70 0-112 36-131 103l58 7c12-35 30-61 73-61 62 0 88 67 90 159-19-39-56-56-104-56-82 0-123 65-123 139 0 69 45 132 141 132zm0-221c53 0 79 36 79 89 0 51-28 85-79 85s-78-33-78-85c0-51 26-89 78-89z"/><glyph glyph-name="uni00B9" unicode="¹" horiz-adv-x="297" d="M210 800h67V330h-77v410l-114-9v57z"/><glyph glyph-name="uni00B2" unicode="²" horiz-adv-x="416" d="M141 389h255v-59H39v58c161 129 275 217 275 294 0 45-36 74-93 74-54 0-87-39-98-100l-75 12c13 89 78 148 178 148 101 0 164-56 164-136 0-87-102-172-249-291z"/><glyph glyph-name="uni00B3" unicode="³" horiz-adv-x="422" d="M286 568c70-14 116-54 116-111 0-82-70-135-174-135-99 0-166 50-187 134l74 12c18-55 56-86 109-86 60 0 101 30 101 76 0 51-45 81-120 81h-36v55h39c68 0 110 34 110 85 0 49-38 77-95 77-54 0-89-31-105-85l-74 12c19 83 80 133 181 133 103 0 169-50 169-129 0-57-42-101-108-119z"/><glyph glyph-name="zero.sups" horiz-adv-x="434" d="M224 816c117 0 190-95 190-247s-73-247-190-247c-118 0-191 95-191 247s73 247 191 247zm0-59c-71 0-115-72-115-188s44-187 115-187c70 0 114 71 114 187s-44 188-114 188z"/><glyph glyph-name="one.sups" horiz-adv-x="297" d="M210 800h67V330h-77v410l-114-9v57z"/><glyph glyph-name="two.sups" horiz-adv-x="416" d="M141 389h255v-59H39v58c161 129 275 217 275 294 0 45-36 74-93 74-54 0-87-39-98-100l-75 12c13 89 78 148 178 148 101 0 164-56 164-136 0-87-102-172-249-291z"/><glyph glyph-name="three.sups" horiz-adv-x="422" d="M286 568c70-14 116-54 116-111 0-82-70-135-174-135-99 0-166 50-187 134l74 12c18-55 56-86 109-86 60 0 101 30 101 76 0 51-45 81-120 81h-36v55h39c68 0 110 34 110 85 0 49-38 77-95 77-54 0-89-31-105-85l-74 12c19 83 80 133 181 133 103 0 169-50 169-129 0-57-42-101-108-119z"/><glyph glyph-name="four.sups" horiz-adv-x="434" d="M414 499v-57h-86V330h-73v112H16v57l230 306h82V499h86zm-331 0h172v228z"/><glyph glyph-name="five.sups" horiz-adv-x="423" d="M239 642c101 0 164-59 164-155 0-101-72-166-186-166-97 0-163 50-173 128l74 13c8-51 48-83 102-83 66 0 107 40 107 105 0 63-40 101-104 101-51 0-92-23-106-59H47l12 283h321v-61H127l-6-147c29 26 69 41 118 41z"/><glyph glyph-name="six.sups" horiz-adv-x="426" d="M244 637c110 0 162-74 162-159 0-83-55-156-183-156C65 322 37 426 37 540c0 211 90 276 196 276 86 0 137-43 160-121l-71-9c-12 41-38 72-91 72-82 0-116-74-121-178 26 39 76 57 134 57zm-19-257c68 0 105 38 105 97 0 58-36 102-105 102-70 0-106-42-106-102 0-59 38-97 106-97z"/><glyph glyph-name="seven.sups" horiz-adv-x="424" d="M53 809h351v-67L195 330h-83l212 412H53v67z"/><glyph glyph-name="eight.sups" horiz-adv-x="428" d="M293 577c70-13 115-58 115-119 0-83-72-136-186-136S38 375 38 458c0 61 45 106 115 118-65 10-106 54-106 111 0 79 67 129 175 129s176-50 176-129c0-54-41-97-105-110zM122 681c0-48 39-78 100-78 62 0 101 30 101 78 0 47-39 77-101 77-61 0-100-30-100-77zm100-301c67 0 110 33 110 83s-43 82-110 82c-66 0-108-32-108-82s42-83 108-83z"/><glyph glyph-name="nine.sups" horiz-adv-x="426" d="M218 816c159 0 188-104 188-216 0-214-89-278-193-278-90 0-143 41-169 120l71 9c16-41 42-71 98-71 82 0 115 75 119 183-24-44-74-63-135-63-108 0-160 74-160 161 0 81 56 155 181 155zm-1-258c71 0 106 42 106 103 0 59-37 97-105 97s-105-37-105-97c0-59 36-103 104-103z"/><glyph glyph-name="fraction" unicode="⁄" horiz-adv-x="280" d="M-73-30l362 734h63L-10-30h-63z"/><glyph glyph-name="onehalf" unicode="½" horiz-adv-x="869" d="M534 704h63L235-30h-63zM178 263h-62v354l-88-9v47l96 11h54V263zM636 47h196V0H554v46c122 114 212 190 212 256 0 39-28 66-71 66-42 0-66-35-74-88l-60 10c10 75 60 126 138 126 79 0 129-47 129-116 0-76-79-147-192-253z"/><glyph glyph-name="onequarter" unicode="¼" horiz-adv-x="870" d="M534 704h63L235-30h-63zM178 263h-62v354l-88-9v47l96 11h54V263zm669-119V98h-66V0h-60v98H537v46l177 263h67V144h66zm-257 0h131v198z"/><glyph glyph-name="threequarters" unicode="¾" horiz-adv-x="968" d="M632 704h63L333-30h-63zM311 378c0-70-54-115-135-115-76 0-129 43-145 114l60 10c13-48 42-75 82-75 44 0 76 27 76 68 0 44-34 70-91 70h-27v46h30c51 0 82 29 82 74 0 42-28 68-71 68-41 0-67-28-79-75l-60 11c15 69 63 112 141 112 80 0 131-43 131-110 0-48-31-87-82-102 54-13 88-46 88-96zm634-234V98h-66V0h-60v98H635v46l177 263h67V144h66zm-257 0h131v198z"/><glyph glyph-name="oneeighth" unicode="⅛" horiz-adv-x="870" d="M534 704h63L235-30h-63zM178 263h-62v354l-88-9v47l96 11h54V263zm575-51c54-11 88-50 88-103C841 38 786-7 697-7c-88 0-143 45-143 116 0 53 34 92 88 102-50 9-80 47-80 95 0 68 51 110 135 110s137-42 137-110c0-46-31-83-81-94zm-131 89c0-42 29-68 75-68 47 0 76 26 76 68 0 41-29 67-76 67-46 0-75-26-75-67zm75-259c50 0 83 28 83 71 0 44-33 72-83 72s-81-27-81-72c0-43 31-71 81-71z"/><glyph glyph-name="threeeighths" unicode="⅜" horiz-adv-x="968" d="M632 704h63L333-30h-63zM311 378c0-70-54-115-135-115-76 0-129 43-145 114l60 10c13-48 42-75 82-75 44 0 76 27 76 68 0 44-34 70-91 70h-27v46h30c51 0 82 29 82 74 0 42-28 68-71 68-41 0-67-28-79-75l-60 11c15 69 63 112 141 112 80 0 131-43 131-110 0-48-31-87-82-102 54-13 88-46 88-96zm540-166c54-11 88-50 88-103C939 38 884-7 795-7c-88 0-143 45-143 116 0 53 34 92 88 102-50 9-80 47-80 95 0 68 51 110 135 110s137-42 137-110c0-46-31-83-81-94zm-131 89c0-42 29-68 75-68 47 0 76 26 76 68 0 41-29 67-76 67-46 0-75-26-75-67zm75-259c50 0 83 28 83 71 0 44-33 72-83 72s-81-27-81-72c0-43 31-71 81-71z"/><glyph glyph-name="fiveeighths" unicode="⅝" horiz-adv-x="969" d="M633 704h63L334-30h-63zM313 405c0-88-56-142-146-142-75 0-126 42-134 110l61 10c6-44 36-72 77-72 49 0 80 34 80 91 0 54-30 88-79 88-37 0-68-20-79-52H36l9 242h250v-49H101l-5-130c22 23 53 36 90 36 78 0 127-51 127-132zm539-193c54-11 88-50 88-103C940 38 885-7 796-7c-88 0-143 45-143 116 0 53 34 92 88 102-50 9-80 47-80 95 0 68 51 110 135 110s137-42 137-110c0-46-31-83-81-94zm-131 89c0-42 29-68 75-68 47 0 76 26 76 68 0 41-29 67-76 67-46 0-75-26-75-67zm75-259c50 0 83 28 83 71 0 44-33 72-83 72s-81-27-81-72c0-43 31-71 81-71z"/><glyph glyph-name="seveneighths" unicode="⅞" horiz-adv-x="969" d="M633 704h63L334-30h-63zm-320-31v-54L154 263H86l161 356H41v54h272zm539-461c54-11 88-50 88-103C940 38 885-7 796-7c-88 0-143 45-143 116 0 53 34 92 88 102-50 9-80 47-80 95 0 68 51 110 135 110s137-42 137-110c0-46-31-83-81-94zm-131 89c0-42 29-68 75-68 47 0 76 26 76 68 0 41-29 67-76 67-46 0-75-26-75-67zm75-259c50 0 83 28 83 71 0 44-33 72-83 72s-81-27-81-72c0-43 31-71 81-71z"/><glyph glyph-name="asterisk" unicode="*" horiz-adv-x="390" d="M360 570l-135-34 82-118-44-29-69 119-69-117-44 29 82 117-131 33 15 51 125-44-6 133h55l-5-133 128 44z"/><glyph glyph-name="backslash" unicode="\" horiz-adv-x="418" d="M114 730L388-85h-68L46 730h68z"/><glyph glyph-name="periodcentered" unicode="·" horiz-adv-x="260" d="M138 242c-35 0-63 28-63 63s28 63 63 63c34 0 62-28 62-63s-28-63-62-63z"/><glyph glyph-name="bullet" unicode="•" horiz-adv-x="386" d="M200 224c-76 0-125 47-125 122s49 122 125 122 126-47 126-122-50-122-126-122z"/><glyph glyph-name="colon" unicode=":" horiz-adv-x="260" d="M138 379c-35 0-63 28-63 63s28 63 63 63c34 0 62-28 62-63s-28-63-62-63zm0-390c-35 0-63 28-63 63s28 63 63 63c34 0 62-28 62-63s-28-63-62-63z"/><glyph glyph-name="comma" unicode="," horiz-adv-x="276" d="M154 105c34 0 62-27 62-62 0-25-8-32-82-190H75l53 134C107-3 92 18 92 43c0 35 27 62 62 62z"/><glyph glyph-name="ellipsis" unicode="…" horiz-adv-x="695" d="M138-11c-35 0-63 28-63 63s28 63 63 63c34 0 62-28 62-63s-28-63-62-63zm218 0c-35 0-63 28-63 63s28 63 63 63c34 0 62-28 62-63s-28-63-62-63zm217 0c-35 0-63 28-63 63s28 63 63 63c34 0 62-28 62-63s-28-63-62-63z"/><glyph glyph-name="exclam" unicode="!" horiz-adv-x="251" d="M172 175H94l-7 535h92zM134-11c-33 0-59 27-59 59s26 58 59 58c32 0 57-26 57-58s-25-59-57-59z"/><glyph glyph-name="exclamdown" unicode="¡" horiz-adv-x="251" d="M134 399c-32 0-59 26-59 58s27 58 59 58 57-26 57-58-25-58-57-58zM87-190l7 532h78l7-532H87z"/><glyph glyph-name="numbersign" unicode="#" horiz-adv-x="728" d="M635 422H524l-28-175h113l-10-57H487L458 0h-68l29 190H270L241 0h-67l28 190H83l10 57h118l27 175H119l9 57h120l30 195h67l-29-195h148l30 195h68l-30-195h113zM428 247l27 175H307l-28-175h149z"/><glyph glyph-name="period" unicode="." horiz-adv-x="260" d="M138-11c-35 0-63 28-63 63s28 63 63 63c34 0 62-28 62-63s-28-63-62-63z"/><glyph glyph-name="question" unicode="?" horiz-adv-x="537" d="M268 717c125 0 208-69 208-181 0-171-188-119-188-362h-85c0 249 184 226 184 358 0 69-51 105-117 105-75 0-121-50-136-126l-85 14c15 118 94 192 219 192zM248-12c-29 0-51 23-51 51s22 51 51 51c27 0 50-23 50-51s-23-51-50-51z"/><glyph glyph-name="questiondown" unicode="¿" horiz-adv-x="525" d="M277 521c29 0 51-23 51-51s-22-51-51-51c-27 0-50 23-50 51s23 51 50 51zm-20-729C132-208 49-139 49-27c0 171 188 119 188 362h85c0-249-184-226-184-358 0-69 51-105 117-105 75 0 121 50 136 126l85-14c-15-118-94-192-219-192z"/><glyph glyph-name="quotedbl" unicode="&quot;" horiz-adv-x="358" d="M145 448H83l-8 252h79zm143 0h-62l-8 252h79z"/><glyph glyph-name="quotesingle" unicode="'" horiz-adv-x="214" d="M145 448H83l-8 252h79z"/><glyph glyph-name="semicolon" unicode=";" horiz-adv-x="276" d="M154 371c-35 0-63 28-63 63s28 63 63 63c34 0 62-28 62-63s-28-63-62-63zm0-266c34 0 62-27 62-62 0-25-8-32-82-190H75l53 134C107-3 92 18 92 43c0 35 27 62 62 62z"/><glyph glyph-name="slash" unicode="/" horiz-adv-x="425" d="M316 730h68L110-85H42z"/><glyph glyph-name="underscore" unicode="_" horiz-adv-x="500" d="M500-88H0v48h500v-48z"/><glyph glyph-name="braceleft" unicode="{" horiz-adv-x="296" d="M180 446c0-72-26-123-76-138 50-16 76-66 76-138V57c0-60 37-98 98-99v-64h-7c-102 0-168 62-168 160v114c0 62-26 110-70 110v59c43 0 70 49 70 110v113c0 99 66 161 168 161h7v-64c-61-1-98-39-98-98V446z"/><glyph glyph-name="braceright" unicode="}" horiz-adv-x="313" d="M219 447c0-61 27-110 70-110v-59c-44 0-70-48-70-110V54c0-98-66-160-168-160h-7v64c61 1 98 39 98 99v113c0 72 26 122 76 138-50 15-76 66-76 138v113c0 59-37 97-98 98v64h7c102 0 168-62 168-161V447z"/><glyph glyph-name="bracketleft" unicode="[" horiz-adv-x="278" d="M256 658H150V-40h106v-64H73v825h183v-63z"/><glyph glyph-name="bracketright" unicode="]" horiz-adv-x="291" d="M77 721h183v-825H77v64h106v698H77v63z"/><glyph glyph-name="parenleft" unicode="(" horiz-adv-x="264" d="M231 721c-73-137-104-270-104-413 0-142 32-276 104-413h-80C75 50 43 176 43 308s32 258 108 413h80z"/><glyph glyph-name="parenright" unicode=")" horiz-adv-x="278" d="M57 721h80c76-155 108-281 108-413S213 50 137-105H57c72 137 104 271 104 413 0 143-31 276-104 413z"/><glyph glyph-name="emdash" unicode="—" horiz-adv-x="993" d="M972 250H22v58h950v-58z"/><glyph glyph-name="endash" unicode="–" horiz-adv-x="500" d="M480 250H20v58h460v-58z"/><glyph glyph-name="hyphen" unicode="-" horiz-adv-x="320" d="M20 250v58h280v-58H20z"/><glyph glyph-name="uni00AD" unicode="­" horiz-adv-x="290" d="M20 250v58h280v-58H20z"/><glyph glyph-name="uni2010" unicode="‐" horiz-adv-x="290" d="M20 250v58h280v-58H20z"/><glyph glyph-name="guillemotleft" unicode="«" horiz-adv-x="511" d="M274 444L154 254 274 64h-75L75 254l124 190h75zm177 0L331 254 451 64h-76L251 254l124 190h76z"/><glyph glyph-name="guillemotright" unicode="»" horiz-adv-x="511" d="M151 444l124-190L151 64H75l120 190L75 444h76zm176 0l124-190L327 64h-75l120 190-120 190h75z"/><glyph glyph-name="guilsinglleft" unicode="‹" horiz-adv-x="334" d="M274 444L154 254 274 64h-75L75 254l124 190h75z"/><glyph glyph-name="guilsinglright" unicode="›" horiz-adv-x="334" d="M150 444l124-190L150 64H75l120 190L75 444h75z"/><glyph glyph-name="quotedblbase" unicode="„" horiz-adv-x="425" d="M151 98c30 0 55-24 55-55 0-22-7-29-74-190H75L130-7c-20 8-34 27-34 50 0 31 25 55 55 55zm159 0c30 0 55-24 55-55 0-22-8-29-75-190h-56L289-8c-20 9-34 28-34 51 0 31 25 55 55 55z"/><glyph glyph-name="quotedblleft" unicode="“" horiz-adv-x="417" d="M150 710h56l-55-139c20-8 34-28 34-51 0-31-24-54-55-54-30 0-55 23-55 54 0 22 8 29 75 190zm153-140c20-8 34-27 34-50 0-31-25-54-55-54-31 0-55 23-55 54 0 22 7 29 73 190h58z"/><glyph glyph-name="quotedblright" unicode="”" horiz-adv-x="407" d="M141 710c30 0 55-24 55-54 0-23-6-29-64-190H75l47 139c-21 8-36 28-36 51 0 30 25 54 55 54zm152 0c30 0 55-24 55-54 0-23-7-29-65-190h-56l47 138c-22 8-36 28-36 52 0 30 24 54 55 54z"/><glyph glyph-name="quoteleft" unicode="‘" horiz-adv-x="266" d="M151 569c20-8 34-28 34-51 0-30-24-54-55-54-30 0-55 24-55 54 0 23 8 29 75 191h56z"/><glyph glyph-name="quoteright" unicode="’" horiz-adv-x="266" d="M151 712c30 0 55-25 55-55 0-23-7-29-74-190H75l55 140c-20 8-34 27-34 50 0 30 25 55 55 55z"/><glyph glyph-name="quotesinglbase" unicode="‚" horiz-adv-x="265" d="M151 98c30 0 54-24 54-55 0-22-7-29-73-190H75L129-7c-20 8-34 27-34 50 0 31 25 55 56 55z"/><glyph glyph-name="space" horiz-adv-x="210"/><glyph glyph-name="cent" unicode="¢" horiz-adv-x="540" d="M485 252C473 149 407 84 311 72v-93h-81v95C120 94 53 188 53 331c0 142 67 238 177 258v102h81V590c92-13 159-77 172-172l-81-13c-12 63-54 112-124 112-85 0-140-71-140-186 0-114 54-185 142-185 66 0 112 42 124 119z"/><glyph glyph-name="currency" unicode="¤" horiz-adv-x="536" d="M463 280c0-55-14-101-40-135l74-83-38-36-74 82c-31-21-70-33-116-33s-86 12-117 34L78 26 40 62l75 84c-24 34-38 80-38 134s13 99 38 133l-77 85 38 36 76-83c31 22 70 34 117 34 46 0 85-12 116-33l75 82 38-36-75-83c26-35 40-80 40-135zm-329 0c0-95 51-154 135-154 85 0 137 59 137 154s-52 155-137 155c-84 0-135-60-135-155z"/><glyph glyph-name="dollar" unicode="$" horiz-adv-x="540" d="M495 178C495 71 423 1 307-9v-98h-81V-6C113 13 47 93 36 204l89 11c8-90 62-145 154-145 78 0 125 37 125 100 0 190-356 86-356 328 0 105 73 169 178 181v99h81V678c103-16 162-90 176-190l-86-12c-11 77-63 128-140 128-75 0-120-41-120-100 0-172 358-73 358-326z"/><glyph glyph-name="Euro" unicode="€" horiz-adv-x="637" d="M511 200l83-14C578 70 490-11 367-11c-134 0-222 98-248 257H54v65h58c-1 13-1 26-1 40v15H54v66h62c21 174 112 281 254 281 117 0 201-72 216-186l-83-14c-9 75-62 121-134 121-91 0-150-76-168-202h227l-9-66H196v-16c0-13 0-26 1-39h223l-9-65H205c20-111 77-177 160-177 78 0 136 55 146 131z"/><glyph glyph-name="florin" unicode="ƒ" horiz-adv-x="551" d="M464 666c-59 0-92-30-101-78l-26-153h146v-62H327L255-57c-15-92-71-133-156-133H54v64h29c54 0 82 26 93 86l70 413H125v62h131l28 165c16 88 74 130 167 130h46v-64h-33z"/><glyph glyph-name="sterling" unicode="£" horiz-adv-x="555" d="M224 74h323V0H83v74h56v206H83v75h56v134c0 120 77 188 190 188 100 0 167-56 186-134l-86-14c-15 40-49 68-105 68-61 0-100-36-100-110V355h157v-75H224V74z"/><glyph glyph-name="uni20B9" unicode="₹" horiz-adv-x="625" d="M437 590c19-22 31-49 35-81h71l-27-63h-46c-13-71-62-121-137-140L503 0h-97L242 298h-90v65h105c66 0 109 31 123 83H83l26 63h274c-9 46-45 75-104 81H83l26 64h434l-27-64h-79z"/><glyph glyph-name="uni20BA" unicode="₺" horiz-adv-x="699" d="M532 331h85C617 113 502 0 299 0H154v263l-71-21v62l71 21v53l-71-21v62l71 21v260h81V465l225 68v-62l-225-68v-53l225 67v-63l-225-67V74h64c151 0 233 85 233 257z"/><glyph glyph-name="uni20BD" unicode="₽" horiz-adv-x="642" d="M391 700c143 0 230-74 230-196 0-123-85-195-230-195H235v-73h148v-67H235V0h-85v169H83v67h67v73H83v67h67v324h241zm-7-324c94 0 150 43 150 126 0 72-55 121-150 121H235V376h149z"/><glyph glyph-name="yen" unicode="¥" horiz-adv-x="591" d="M572 700L347 294h125v-66H335v-38h137v-66H335V0h-85v124H119v66h131v38H119v66h119L12 700h93l190-342 190 342h87z"/><glyph glyph-name="plus" unicode="+" horiz-adv-x="546" d="M468 347v-66H308V108h-70v173H78v66h160v172h70V347h160z"/><glyph glyph-name="minus" unicode="−" horiz-adv-x="531" d="M468 281H63v66h405v-66z"/><glyph glyph-name="multiply" unicode="×" horiz-adv-x="542" d="M475 485L315 316l160-168-45-45-159 167-158-167-46 46 160 169L67 486l45 45 159-167 158 167z"/><glyph glyph-name="divide" unicode="÷" horiz-adv-x="546" d="M281 431c-28 0-50 23-50 51s22 51 50 51 51-23 51-51-23-51-51-51zM75 284v63h411v-63H75zM281 95c-28 0-50 23-50 51s22 51 50 51 51-23 51-51-23-51-51-51z"/><glyph glyph-name="equal" unicode="=" horiz-adv-x="541" d="M475 366H66v60h409v-60zm0-158H66v59h409v-59z"/><glyph glyph-name="notequal" unicode="≠" horiz-adv-x="540" d="M480 366H340l-59-99h199v-59H246L164 69h-60l82 139H75v59h146l58 99H75v60h239l87 147h62l-87-147h104v-60z"/><glyph glyph-name="greater" unicode="&gt;" horiz-adv-x="501" d="M75 531l366-179v-71L75 100v67l313 150L75 464v67z"/><glyph glyph-name="less" unicode="&lt;" horiz-adv-x="501" d="M441 531v-67L128 317l313-150v-67L75 281v71z"/><glyph glyph-name="greaterequal" unicode="≥" horiz-adv-x="501" d="M75 560l366-176v-70L75 137v66l312 146L75 493v67zM75 0v66h366V0H75z"/><glyph glyph-name="lessequal" unicode="≤" horiz-adv-x="501" d="M441 560v-67L129 349l312-146v-66L75 314v70zM75 0v66h366V0H75z"/><glyph glyph-name="plusminus" unicode="±" horiz-adv-x="526" d="M306 382h160v-62H306V145h-70v175H76v62h160v175h70V382zM75 0v62h391V0H75z"/><glyph glyph-name="approxequal" unicode="≈" horiz-adv-x="555" d="M126 314H75c1 83 44 142 113 142 79 0 132-89 193-89 38 0 62 33 63 87h52c-2-85-46-138-111-138-78 0-129 87-192 87-40 0-64-32-67-89zm0-182l-51 1c1 83 44 141 113 141 79 0 132-88 193-88 38 0 62 33 63 87h52c-2-85-46-139-111-139-78 0-129 88-192 88-39 0-64-33-67-90z"/><glyph glyph-name="asciitilde" unicode="~" horiz-adv-x="637" d="M515 405h62c-2-99-54-165-132-165-94 0-153 103-229 103-47 0-76-40-78-106H75c2 101 53 169 135 169 94 0 157-102 229-102 45 0 74 38 76 101z"/><glyph glyph-name="logicalnot" unicode="¬" horiz-adv-x="544" d="M75 347h409V147h-73v134H75v66z"/><glyph glyph-name="infinity" unicode="∞" horiz-adv-x="638" d="M472 456c66 0 125-54 125-148 0-90-54-147-131-147-64 0-109 40-147 87-38-47-84-87-149-87-78 0-129 57-129 147 0 93 56 148 123 148s113-52 156-106c41 54 86 106 152 106zM175 224c41 0 74 33 106 75-36 49-68 93-112 93-37 0-63-32-63-83 0-53 29-85 69-85zm288 0c37 0 68 31 68 85 0 56-32 83-64 83-41 0-73-43-109-93 33-41 65-75 105-75z"/><glyph glyph-name="integral" unicode="∫" horiz-adv-x="350" d="M41-190v62h23c45 0 71 25 71 81v639c0 89 47 138 133 138h40v-62h-23c-44 0-69-25-69-81V-57c-3-86-51-133-134-133H41z"/><glyph glyph-name="product" unicode="∏" horiz-adv-x="797" d="M714 710v-74h-77v-746h-85v746H245v-746h-85v746H83v74h631z"/><glyph glyph-name="summation" unicode="∑" horiz-adv-x="572" d="M169-36h320v-74H83v74l188 343L83 636v74h400v-74H169l191-329z"/><glyph glyph-name="radical" unicode="√" horiz-adv-x="565" d="M475 710h82L306-120H192L83 290H8v62h134L251-57z"/><glyph glyph-name="partialdiff" unicode="∂" horiz-adv-x="533" d="M247 727c154 0 244-159 244-404 0-224-78-334-228-334C125-11 41 81 41 227c0 145 82 233 197 233 84 0 145-52 172-111-10 208-66 316-160 316-59 0-103-45-119-130l-81 13c21 113 99 179 197 179zm14-674c80 0 134 66 134 171s-55 176-136 176c-79 0-133-66-133-173S180 53 261 53z"/><glyph glyph-name="percent" unicode="%" horiz-adv-x="868" d="M232-30l365 734h62L295-30h-63zm-8 336c-91 0-149 73-149 189 0 118 58 191 149 191s149-73 149-191c0-116-58-189-149-189zm0 47c52 0 85 56 85 142 0 88-33 143-85 143s-84-55-84-143c0-86 32-142 84-142zM659-12c-91 0-149 74-149 190 0 117 58 191 149 191s149-74 149-191c0-116-58-190-149-190zm0 48c51 0 84 55 84 142 0 88-33 142-84 142-52 0-85-54-85-142 0-87 33-142 85-142z"/><glyph glyph-name="perthousand" unicode="‰" horiz-adv-x="1168" d="M204-30l369 734h61L265-30h-61zm11 355c-86 0-140 71-140 183 0 111 54 182 140 182s139-71 139-182c0-112-53-183-139-183zm0 44c49 0 81 53 81 139 0 85-32 138-81 138-50 0-81-53-81-138 0-86 31-139 81-139zM620-11c-86 0-140 71-140 183s54 183 140 183 139-71 139-183S706-11 620-11zm350 0c-86 0-140 71-140 183s54 183 140 183c85 0 138-71 138-183S1055-11 970-11zM620 33c49 0 80 54 80 139s-31 140-80 140c-51 0-82-55-82-140s31-139 82-139zm350 0c49 0 80 54 80 139s-31 140-80 140c-51 0-82-55-82-140s31-139 82-139z"/><glyph glyph-name="arrowup" unicode="↑" horiz-adv-x="679" d="M597 434l-48-49-171 177V0h-76v561L131 385l-48 49 258 264z"/><glyph glyph-name="uni2197" unicode="↗" horiz-adv-x="672" d="M224 597l365-2V222h-69v248L137 74l-54 55 383 398-242 1v69z"/><glyph glyph-name="arrowright" unicode="→" horiz-adv-x="848" d="M506 600l260-266L506 71l-48 48 173 177H83v78h548L458 552z"/><glyph glyph-name="uni2198" unicode="↘" horiz-adv-x="672" d="M521 463h68l-1-375-364 1v68h242L83 555l54 54 383-396z"/><glyph glyph-name="arrowdown" unicode="↓" horiz-adv-x="679" d="M549 293l48-48L339-20 83 245l48 48 170-178v563h76V117z"/><glyph glyph-name="uni2199" unicode="↙" horiz-adv-x="672" d="M589 549L204 151l243-1V82L83 83v373h68V207l383 397z"/><glyph glyph-name="arrowleft" unicode="←" horiz-adv-x="848" d="M766 376v-78H217l173-178-48-49L83 338l259 263 48-48-172-177h548z"/><glyph glyph-name="uni2196" unicode="↖" horiz-adv-x="672" d="M589 129l-55-55-383 396-1-250H83l2 376h362v-70H206z"/><glyph glyph-name="arrowboth" unicode="↔" horiz-adv-x="929" d="M587 600l259-265L587 71l-48 48 172 177H217l173-177-48-48L83 335l259 265 48-48-172-177h493L539 552z"/><glyph glyph-name="arrowupdn" unicode="↕" horiz-adv-x="679" d="M377 65l172 176 48-49L339-72 83 192l48 49L301 63v509L131 395l-48 48 256 264 258-264-48-48-171 175z"/><glyph glyph-name="lozenge" unicode="◊" horiz-adv-x="602" d="M342 710l206-356L342-2h-84L54 354l204 356h84zM300 67l166 287-166 287-165-287z"/><glyph glyph-name="at" unicode="@" horiz-adv-x="846" d="M526 502h81V222c0-35 13-63 50-63 39 0 70 57 70 161 0 205-106 302-283 302-203 0-320-120-320-319C124 95 235-20 419-20c99 0 187 28 242 87l31-57c-60-55-155-95-277-95C191-85 54 54 54 303c0 241 144 384 386 384 222 0 353-129 353-366 0-140-57-222-149-222-52 0-90 30-102 88-27-59-76-92-146-92-99 0-165 81-165 209 0 129 67 211 166 210 57-1 101-23 129-64v52zM420 164c58 0 96 46 101 122l1 33c-4 79-43 127-102 127-64 0-104-54-104-141 0-86 40-141 104-141z"/><glyph glyph-name="ampersand" unicode="&amp;" horiz-adv-x="702" d="M659 0H549c-31 32-61 63-89 91C396 27 323-11 235-11 114-11 41 63 41 171c0 89 51 164 148 214-56 72-83 127-83 180 0 89 73 150 175 150 90 0 160-47 179-156l-85-13c-11 61-44 90-94 90-54 0-86-34-86-75 0-78 100-187 260-350 33 46 64 99 97 156l71-41c-35-65-72-124-110-174 45-47 94-97 146-152zM246 68c60 0 111 31 158 81-66 68-121 125-164 175-74-38-110-93-110-147 0-66 43-109 116-109z"/><glyph glyph-name="paragraph" unicode="¶" horiz-adv-x="506" d="M423-190h-61v836h-72v-836h-60v500c-128 0-209 64-209 201 0 136 81 200 209 200h193v-901z"/><glyph glyph-name="section" unicode="§" horiz-adv-x="476" d="M439 256c0-74-34-114-74-144 23-25 38-58 38-104-1-96-70-153-167-153C132-144 71-82 57 16l81 12c11-69 47-110 102-110 53 0 88 38 89 84 4 143-296 100-296 319 0 74 34 115 73 145-22 25-36 58-36 102 0 98 73 153 168 153 103 0 160-65 172-162l-82-10c-8 69-43 109-96 109s-88-37-88-86c0-143 295-100 295-316zm-332 75c-3-106 116-126 204-177 31 21 53 49 55 90 7 107-124 126-213 183-24-21-45-53-46-96z"/><glyph glyph-name="copyright" unicode="©" horiz-adv-x="821" d="M411-13C199-13 54 133 54 349c0 217 145 368 357 368 211 0 357-151 357-368 0-216-146-362-357-362zm0 37c188 0 318 131 318 326S599 680 411 680C222 680 93 545 93 350S222 24 411 24zm0 572c103 0 175-64 183-162l-60-11c-8 73-55 121-124 121-87 0-143-76-143-194s55-191 143-191c70 0 120 47 129 122l60-10c-10-99-83-164-188-164-127 0-205 95-205 244s80 245 205 245z"/><glyph glyph-name="registered" unicode="®" horiz-adv-x="656" d="M336 743c153 0 261-110 261-268 0-159-108-265-261-265S75 316 75 475c0 158 108 268 261 268zm0-496c131 0 222 92 222 228 0 137-91 231-222 231s-222-94-222-231c0-136 91-228 222-228zm114 303c0-47-29-80-77-89l81-142h-43l-80 139h-64V319h-38v324h112c66 0 109-34 109-93zm-183 62V489h71c46 0 73 24 73 61 0 29-14 62-73 62h-71z"/><glyph glyph-name="uni2117" unicode="℗" horiz-adv-x="821" d="M411 717c211 0 357-151 357-368 0-216-146-362-357-362C199-13 54 133 54 349c0 217 145 368 357 368zm0-693c188 0 318 131 318 326S599 680 411 680C222 680 93 545 93 350S222 24 411 24zm34 559c100 0 161-54 161-140 0-87-61-141-161-141H336V112h-61v471h170zm-4-233c66 0 104 36 104 93 0 56-38 92-104 92H336V350h105z"/><glyph glyph-name="trademark" unicode="™" horiz-adv-x="766" d="M4 662v47h289v-47H174V346h-52v316H4zm649 47h67V346h-52l1 278-117-278h-54L382 626V346h-52v363h69l127-301z"/><glyph glyph-name="degree" unicode="°" horiz-adv-x="296" d="M152 710c70 0 114-45 114-115s-44-115-114-115S38 525 38 595s44 115 114 115zm0-39c-45 0-73-29-73-76s28-77 73-77c46 0 74 30 74 77s-28 76-74 76z"/><glyph glyph-name="bar" unicode="|" horiz-adv-x="248" d="M159-190H90v920h69v-920z"/><glyph glyph-name="brokenbar" unicode="¦" horiz-adv-x="248" d="M90 410v320h69V410H90zm69-280v-320H90v320h69z"/><glyph glyph-name="dagger" unicode="†" horiz-adv-x="539" d="M482 516v-72H312v-564h-85v564H57v72h170v195h85V516h170z"/><glyph glyph-name="daggerdbl" unicode="‡" horiz-adv-x="539" d="M482 444H312V166h170V93H312v-213h-85V93H57v73h170v278H57v72h170v195h85V516h170v-72z"/><glyph glyph-name="asciicircum" unicode="^" horiz-adv-x="607" d="M553 354h-81L303 642 135 354H54l207 356h83z"/><glyph glyph-name="uni0308" unicode="̈" d="M-273 613c-24 0-44 20-44 44s20 43 44 43 43-19 43-43-19-44-43-44zm188 0c-25 0-44 20-44 44s19 43 44 43c23 0 42-19 42-43s-19-44-42-44z"/><glyph glyph-name="uni0307" unicode="̇" d="M-89 601c-31 0-55 25-55 55 0 31 24 55 55 55 30 0 54-24 54-55 0-30-24-55-54-55z"/><glyph glyph-name="gravecomb" unicode="̀" d="M-137 710l87-135h-69l-111 135h93z"/><glyph glyph-name="acutecomb" unicode="́" d="M-142 710h93l-111-135h-69z"/><glyph glyph-name="uni030B" unicode="̋" d="M-307 575h-66l99 135h82zm143 0h-65l97 135h83z"/><glyph glyph-name="uni0302" unicode="̂" d="M-115 576l-90 100-88-100h-69l125 133h65l126-133h-69z"/><glyph glyph-name="uni030C" unicode="̌" d="M-115 710h69l-126-135h-65l-125 135h69l88-102z"/><glyph glyph-name="uni0306" unicode="̆" d="M-107 712h57c-6-85-68-138-157-138-90 0-151 53-157 138h56c5-54 45-88 101-88s95 34 100 88z"/><glyph glyph-name="uni030A" unicode="̊" d="M-147 769c59 0 97-36 97-96s-38-97-97-97c-60 0-98 37-98 97 0 59 38 96 98 96zm0-32c-39 0-63-24-63-64s24-64 63-64 63 24 63 64-24 64-63 64z"/><glyph glyph-name="tildecomb" unicode="̃" d="M-100 708h50c0-65-37-105-88-105-64 0-96 52-145 52-25 0-43-21-43-54h-51c0 65 38 105 90 105 63 0 96-51 144-51 26 0 43 21 43 53z"/><glyph glyph-name="uni0304" unicode="̄" d="M-50 627h-280v51h280v-51z"/><glyph glyph-name="uni0326" unicode="̦" d="M-120-45c28 0 49-21 49-49 0-19-9-43-54-152h-49l40 104c-21 7-36 25-35 48 0 29 22 49 49 49z"/><glyph glyph-name="uni0327" unicode="̧" d="M-159-47c59 0 95-27 95-71s-37-72-96-72c-30 0-57 7-88 23l11 30c34-16 50-20 67-20 34 0 49 16 49 41 0 26-20 40-57 40h-24l-1 23 39 73h39z"/><glyph glyph-name="uni0328" unicode="̨" d="M-109 10l67-10c-53-28-83-59-83-95 0-29 17-42 63-42h19v-53h-27c-90 0-136 29-136 81 0 46 38 88 97 119z"/><glyph glyph-name="uni0308.case" d="M-273 622c-24 0-44 19-44 43 0 25 20 43 44 43s43-18 43-43c0-24-19-43-43-43zm188 0c-25 0-44 19-44 43 0 25 19 43 44 43 23 0 42-18 42-43 0-24-19-43-42-43z"/><glyph glyph-name="uni0307.case" d="M-89 617c-31 0-55 25-55 56 0 30 24 54 55 54 30 0 54-24 54-54 0-31-24-56-54-56z"/><glyph glyph-name="gravecomb.case" d="M-128 710l77-119h-69l-101 119h93z"/><glyph glyph-name="acutecomb.case" d="M-139 710h90l-97-119h-69z"/><glyph glyph-name="uni030B.case" d="M-361 591l88 119h82l-104-119h-66zm144 0l86 119h82l-104-119h-64z"/><glyph glyph-name="uni0302.case" d="M-45 591h-68l-75 87-76-87h-67l113 119h61z"/><glyph glyph-name="uni030C.case" d="M-113 710h68l-112-119h-61l-113 119h67l76-87z"/><glyph glyph-name="uni0306.case" d="M-100 714h50c-5-75-60-123-140-123-81 0-137 48-142 123h50c5-48 41-78 92-78 50 0 86 30 90 78z"/><glyph glyph-name="uni030A.case" d="M-138 771c53 0 89-33 89-87s-36-88-89-88c-55 0-89 34-89 88s34 87 89 87zm0-31c-35 0-56-21-56-56s21-56 56-56c34 0 55 21 55 56s-21 56-55 56z"/><glyph glyph-name="tildecomb.case" d="M-96 714h46c0-62-35-100-84-100-61 0-93 49-140 49-25 0-41-19-41-52l-48 1c0 61 36 100 85 100 62 0 93-51 141-51 24 0 41 20 41 53z"/><glyph glyph-name="uni0304.case" d="M-50 627h-280v51h280v-51z"/><glyph glyph-name="uni0327.case" d="M-159-47c59 0 95-27 95-71s-37-72-96-72c-30 0-57 7-88 23l11 30c34-16 50-20 67-20 34 0 49 16 49 41 0 26-20 40-57 40h-24l-1 23 39 73h39z"/><glyph glyph-name="uni0328.case" d="M-109 10l67-10c-53-28-83-59-83-95 0-29 17-42 63-42h19v-53h-27c-90 0-136 29-136 81 0 46 38 88 97 119z"/><glyph glyph-name="acute" unicode="´" horiz-adv-x="600" d="M134 710h93L116 575H47z"/><glyph glyph-name="breve" unicode="˘" horiz-adv-x="600" d="M307 712h57c-6-85-68-138-157-138-90 0-151 53-157 138h56c5-54 45-88 101-88s95 34 100 88z"/><glyph glyph-name="caron" unicode="ˇ" horiz-adv-x="600" d="M293 710h69L236 575h-65L46 710h69l88-102z"/><glyph glyph-name="cedilla" unicode="¸" horiz-adv-x="600" d="M125-47c59 0 95-27 95-71s-37-72-96-72c-30 0-57 7-88 23l11 30c34-16 50-20 67-20 34 0 49 16 49 41 0 26-20 40-57 40H82l-1 23 39 73h39z"/><glyph glyph-name="circumflex" unicode="ˆ" horiz-adv-x="600" d="M293 576l-90 100-88-100H46l125 133h65l126-133h-69z"/><glyph glyph-name="dieresis" unicode="¨" horiz-adv-x="600" d="M86 613c-24 0-44 20-44 44s20 43 44 43 43-19 43-43-19-44-43-44zm188 0c-25 0-44 20-44 44s19 43 44 43c23 0 42-19 42-43s-19-44-42-44z"/><glyph glyph-name="dotaccent" unicode="˙" horiz-adv-x="600" d="M90 601c-31 0-55 25-55 55 0 31 24 55 55 55 30 0 54-24 54-55 0-30-24-55-54-55z"/><glyph glyph-name="grave" unicode="`" horiz-adv-x="600" d="M140 710l87-135h-69L47 710h93z"/><glyph glyph-name="hungarumlaut" unicode="˝" horiz-adv-x="600" d="M130 575H64l99 135h82zm143 0h-65l97 135h83z"/><glyph glyph-name="macron" unicode="¯" horiz-adv-x="600" d="M330 627H50v51h280v-51z"/><glyph glyph-name="ogonek" unicode="˛" horiz-adv-x="600" d="M147 10l67-10c-53-28-83-59-83-95 0-29 17-42 63-42h19v-53h-27c-90 0-136 29-136 81 0 46 38 88 97 119z"/><glyph glyph-name="ring" unicode="˚" horiz-adv-x="600" d="M147 769c59 0 97-36 97-96s-38-97-97-97c-60 0-98 37-98 97 0 59 38 96 98 96zm0-32c-39 0-63-24-63-64s24-64 63-64 63 24 63 64-24 64-63 64z"/><glyph glyph-name="tilde" unicode="˜" horiz-adv-x="600" d="M327 708h50c0-65-37-105-88-105-64 0-96 52-145 52-25 0-43-21-43-54H50c0 65 38 105 90 105 63 0 96-51 144-51 26 0 43 21 43 53z"/></font>
</defs>
</svg>
