<svg xmlns="http://www.w3.org/2000/svg"><defs><font id="paul_grotesklight" horiz-adv-x="1069"><font-face units-per-em="2048" ascent="1638" descent="-410"/><glyph unicode="ﬁ" horiz-adv-x="980" d="M27 942v82h161v211q0 120 66 190t180 70h92v-88h-73q-76 0-121-49.5T287 1223v-199h184v-82H287V0h-99v942H27zm659 408q0 32 21 53.5t55 21.5q31 0 52.5-21.5T836 1350q0-31-21.5-53.5T762 1274q-33 0-54.5 22.5T686 1350zM711 0v1024h100V0H711z"/><glyph unicode="ﬂ" horiz-adv-x="964" d="M27 942v82h161v211q0 120 66 190t180 70h92v-88h-73q-76 0-121-49.5T287 1223v-199h184v-82H287V0h-99v942H27zM694 0v1495h101V0H694z"/><glyph horiz-adv-x="0"/><glyph horiz-adv-x="682"/><glyph horiz-adv-x="430"/><glyph horiz-adv-x="430"/><glyph horiz-adv-x="430"/><glyph unicode="!" horiz-adv-x="464" d="M170 59q0 33 23.5 56.5T252 139q32 0 55-24t23-56q0-33-23-56t-55-23q-35 0-58.5 22.5T170 59zm25 1395h108l-6-1139h-96z"/><glyph unicode="&quot;" horiz-adv-x="651" d="M170 1434h100l-14-496h-74zm246 0h100l-14-496h-74z"/><glyph unicode="#" horiz-adv-x="1478" d="M188 418l13 71h258l61 402H260l14 70h254l66 419h86l-66-419h342l64 419h86l-64-419h248l-12-70h-246l-63-402h250l-13-71H958L893 0h-86l65 418H532L467 0h-86l65 418H188zm355 71h340l63 402H606z"/><glyph unicode="$" horiz-adv-x="1048" d="M76 426l104 14q6-169 101.5-265.5T539 78q143 0 225 70.5T846 342q0 70-25.5 122.5t-68.5 85-99 57.5-118 43.5-124 38T293 736t-99 65.5-68.5 97.5-25.5 139q0 158 101 253t270 104v207h98v-211q156-19 251-123t114-271l-103-16q-17 149-105.5 235.5T500 1303q-136 0-214.5-71T207 1042q0-63 25.5-110.5t69-77 99.5-52 118-41 123.5-39T760 672t99.5-70.5 69-105T954 348q0-161-103.5-259T569-16v-209h-98v213Q291 8 187.5 124.5T76 426z"/><glyph unicode="%" horiz-adv-x="1730" d="M170 1026q0 173 77 276t206 103 205.5-103 76.5-276-76.5-276T453 647 247 750t-77 276zm86 0q0-145 53-229t144-84q92 0 145 84t53 229-53 229-145 84q-91 0-144-84t-53-229zM473-61l752 1503h84L559-61h-86zm557 419q0 174 77 276.5T1313 737t205.5-102.5T1595 358q0-173-76.5-275.5T1313-20 1107 82.5 1030 358zm84 0q0-145 53.5-229T1313 45q91 0 143.5 84t52.5 229-52.5 229.5T1313 672q-92 0-145.5-84.5T1114 358z"/><glyph unicode="&amp;" horiz-adv-x="1380" d="M94 342q0 269 318 446-94 117-138.5 206.5T229 1169q0 129 92 212t238 83q133 0 220-74t108-214l-101-19q-17 103-76 158t-151 55q-102 0-163.5-58.5T334 1165q0-46 15-93.5t53.5-107 75.5-109T590.5 724t130-138.5T881 421q11-11 17-17.5t16-16.5l18-18q95 129 203 327l88-45q-116-215-224-354 170-174 283-297h-131Q990 169 938 223 723-18 471-18q-175 0-276 98.5T94 342zm107 4q0-121 73.5-195.5T481 76q204 0 389 217-41 43-113.5 118.5T646 527t-87.5 93.5T473 715Q201 559 201 346z"/><glyph unicode="'" horiz-adv-x="405" d="M170 1434h100l-14-496h-74z"/><glyph unicode="(" horiz-adv-x="485" d="M96 631q0 203 52.5 407T317 1477h95q-213-413-213-846t213-846h-95Q201 20 148.5 224T96 631z"/><glyph unicode=")" horiz-adv-x="497" d="M96-215q213 413 213 846T96 1477h94q116-236 169-439.5T412 631t-53-406.5T190-215H96z"/><glyph unicode="*" horiz-adv-x="747" d="M63 1200l21 68 256-86-6 272h74l-9-270 267 84 20-68-274-74 163-245-57-37-147 246-146-242-57 37 164 243z"/><glyph unicode="+" horiz-adv-x="1124" d="M168 606v82h350v371h86V688h352v-82H604V233h-86v373H168z"/><glyph unicode="," horiz-adv-x="518" d="M170-287L270-25q-25 9-40 30.5T215 55q0 34 24.5 58t59.5 24 59.5-24T383 55q0-9-1-16t-5-20-9-25-16.5-39-23.5-55-34.5-80T248-287h-78z"/><glyph unicode="-" horiz-adv-x="655" d="M41 535v73h573v-73H41z"/><glyph unicode="." horiz-adv-x="473" d="M170 63q0 34 25.5 59t60.5 25q34 0 58-25t24-59q0-35-24-59t-58-24q-36 0-61 24t-25 59z"/><glyph unicode="/" horiz-adv-x="839" d="M94-174l563 1669h88L182-174H94z"/><glyph unicode="0" d="M92 700q0 332 121 527.5T539 1423t325.5-195.5T985 700q0-331-120-524.5T539-18 212.5 175.5 92 700zm103 0q0-289 93-457.5T539 74t251 168.5T883 700q0 290-93 460.5T539 1331t-251-170.5T195 700z"/><glyph unicode="1" d="M283 1253v88l290 33h93V0H563v1284z"/><glyph unicode="2" d="M104 0v86q307 305 375 378 224 235 297 386 51 105 51 199 0 129-78.5 204.5T535 1329q-124 0-205-91T229 989l-100 17q22 191 132 303t280 112q179 0 284-102.5T930 1044q0-55-15.5-112t-41-111T803 702.5 711.5 581 594 446.5 459.5 303 304 143q-34-35-52-53h694V0H104z"/><glyph unicode="3" d="M111 346l96 14q38-138 125.5-212T545 74q138 0 225.5 77.5T858 358q0 134-94 209.5T508 643h-94v94h96q149 0 236.5 83t87.5 222q0 132-81 209.5T537 1329q-250 0-322-291l-100 17q85 366 424 366 181 0 289-99.5T936 1053q0-134-73-231T664 694q137-27 217-114t80-222q0-170-115-273T549-18q-170 0-283.5 94.5T111 346z"/><glyph unicode="4" d="M45 371v88l606 930h107V459h233v-88H758V0H657v371H45zm107 88h505v780z"/><glyph unicode="5" d="M121 350l100 17q13-136 96.5-216.5T526 70q152 0 240 100.5T854 444q0 169-85.5 267T535 809q-114 0-200-61T217 584h-92l31 817h747v-94H250l-21-568q51 77 135.5 119.5T551 901q187 0 296-121.5T956 449q0-217-117.5-344.5T522-23Q355-23 247.5 78T121 350z"/><glyph unicode="6" d="M98 590q0 185 24.5 329t66 237.5 101.5 154 126.5 85.5 144.5 25q300 0 375-348l-94-12q-31 132-96.5 200T559 1329q-93 0-162-49.5t-110.5-141-63-207.5T199 670q47 116 144 172.5T559 899q83 0 151.5-27T825 800t77.5-106.5 46-128T963 428q0-66-13.5-127.5T904 180 824 78 701.5 8.5 535-18q-106 0-185 32T223.5 99 147 232.5t-39 165T98 590zm117-164q0-167 85.5-259.5T539 74t237 92 84 260q0 170-85 275.5T541 807q-151 0-238.5-105.5T215 426z"/><glyph unicode="7" d="M129 1309v92h840v-92L397 0H285l577 1309H129z"/><glyph unicode="8" d="M102 369q0 139 79.5 232T397 717q-123 19-194.5 109.5T131 1055q0 169 109.5 267.5T537 1421q188 0 298.5-98.5T946 1055q0-126-72-217T680 719q136-23 215.5-117T975 369q0-178-118.5-282.5T537-18Q337-18 219.5 86.5T102 369zm103 6q0-138 89.5-219.5T537 74q155 0 245 81.5T872 375q0 135-90 214t-245 79q-154 0-243-79t-89-214zm28 674q0-133 82-211t222-78q141 0 224 78t83 211q0 129-83 204.5T537 1329q-140 0-222-75.5T233 1049z"/><glyph unicode="9" d="M98 975q0 66 14 127.5t46.5 119.5 80.5 101.5 121.5 69.5 163.5 26q77 0 140-16.5t108.5-45 79-72.5 55-93 34-112.5T958 954t5-137q0-188-24-333.5t-65-239T774 91 650 6.5 508-18q-161 0-257.5 87T111 324l98 14q37-130 104.5-197T506 74q93 0 163 51.5t111 145 61.5 214T864 754q-42-129-140.5-190.5T500 502q-82 0-149.5 27T237 601.5 159 708t-46.5 128T98 975zm103 0q0-169 86-275t233-106q153 0 240.5 104.5T848 975q0 167-86 260.5T524 1329q-153 0-238-93t-85-261z"/><glyph unicode=":" horiz-adv-x="473" d="M170 63q0 34 25.5 59t60.5 25q34 0 58-25t24-59q0-35-24-59t-58-24q-36 0-61 24t-25 59zm0 850q0 34 25.5 59t60.5 25q34 0 58-25t24-59q0-35-24-59.5T256 829q-35 0-60.5 24.5T170 913z"/><glyph unicode=";" horiz-adv-x="520" d="M170-287L270-25q-25 9-40 30.5T215 55q0 34 24.5 58t59.5 24 59.5-24T383 55q0-9-1-16t-5-20-9-25-16.5-39-23.5-55-34.5-80T248-287h-78zm45 1184q0 34 25.5 59t60.5 25q34 0 58-25t24-59q0-35-24-59.5T301 813q-35 0-60.5 24.5T215 897z"/><glyph unicode="&lt;" horiz-adv-x="1060" d="M170 602v92l756 385v-88L238 647l688-346v-88z"/><glyph unicode="=" horiz-adv-x="1101" d="M139 467v76h824v-76H139zm0 287v77h824v-77H139z"/><glyph unicode="&gt;" horiz-adv-x="1060" d="M170 213v88l688 346-688 344v88l756-385v-92z"/><glyph unicode="?" horiz-adv-x="1046" d="M104 1077q25 178 136 280.5T522 1460q184 0 293-96t109-260q0-72-22-128t-57.5-93.5-78-72.5-85-77-78-93.5T546 505t-22-190H424q0 110 22 197.5t56.5 143 77 100 84.5 80 76.5 71 56.5 84 22 109.5q0 124-81 195t-216 71q-124 0-206.5-82.5T209 1059zM403 51q0 31 21.5 51.5T477 123q30 0 51-21t21-51q0-31-21.5-52.5T477-23q-31 0-52.5 21.5T403 51z"/><glyph unicode="@" horiz-adv-x="1714" d="M123 623q0 366 200.5 568T885 1393q339 0 522.5-185.5T1591 674q0-218-79-340.5T1298 211q-82 0-132 49.5T1104 406q-39-96-113.5-148.5T813 205q-150 0-240 116t-90 312 90.5 312T815 1061q191-3 275-170v145h98V461q0-174 123-174 88 0 142 102t54 283q0 315-160 477t-456 162q-323 0-501.5-183.5T211 616t168.5-508T848-72q315 0 502 193l41-72q-95-92-234-146.5T842-152q-337 0-528 203.5T123 623zm463 10q0-158 68-251t184-93q107 0 172.5 80.5T1085 590l2 74q-7 146-73.5 229.5T838 977q-116 0-184-93t-68-251z"/><glyph unicode="A" horiz-adv-x="1243" d="M18 0l541 1434h119L1225 0h-111L950 444H291L129 0H18zm306 535h594l-300 806z"/><glyph unicode="B" horiz-adv-x="1163" d="M188 0v1434h402q198 0 312-95t114-258q0-125-69.5-214.5T758 748q143-22 227-119t84-244q0-177-119.5-281T629 0H188zm103 92h338q152 0 243 82t91 219q0 141-99 223t-270 82H291V92zm0 699h301q147 0 234 77t87 205q0 126-85.5 197T594 1341H291V791z"/><glyph unicode="C" horiz-adv-x="1351" d="M123 723q0 337 159 536t435 199q213 0 354-123t170-352l-104-16q-25 196-140.5 296.5T713 1364q-225 0-355.5-174T227 721q0-297 131.5-471T713 76q174 0 292 106t146 291l102-16q-31-231-178-353T717-18q-272 0-433 199.5T123 723z"/><glyph unicode="D" horiz-adv-x="1413" d="M188 0v1434h381q331 0 526-193t195-522q0-331-194.5-525T569 0H188zm103 92h276q286 0 451.5 168.5T1184 719q0 288-165.5 456T569 1343H291V92z"/><glyph unicode="E" horiz-adv-x="1062" d="M188 0v1434h781v-93H291V774h596v-92H291V92h698V0H188z"/><glyph unicode="F" horiz-adv-x="1026" d="M188 0v1434h781v-93H291V723h600v-90H291V0H188z"/><glyph unicode="G" horiz-adv-x="1402" d="M123 711q0 348 160 550.5T715 1464q130 0 241.5-46t196-148.5T1264 1020l-103-14q-35 176-157 270t-285 94q-228 0-360-177T227 713q0-298 131-467.5T729 76q207 0 330.5 130T1190 586H752v90h546v-39q0-321-154-488T727-18q-288 0-446 193.5T123 711z"/><glyph unicode="H" horiz-adv-x="1355" d="M188 0v1434h103V786h774v648h102V0h-102v694H291V0H188z"/><glyph unicode="I" horiz-adv-x="479" d="M188 0v1434h103V0H188z"/><glyph unicode="J" horiz-adv-x="591" d="M6 0v92h129q104 0 158.5 57T348 315v1119h103V293q0-138-78-215.5T162 0H6z"/><glyph unicode="K" horiz-adv-x="1171" d="M188 0v1434h101V682l667 752h121L530 809 1143 0h-127L457 735 289 545V0H188z"/><glyph unicode="L" horiz-adv-x="980" d="M188 0v1434h103V92h672V0H188z"/><glyph unicode="M" horiz-adv-x="1697" d="M188 0v1434h125L850 113l536 1319h123V0h-100l2 1268-170-451L899 0H799L455 821l-168 443V0h-99z"/><glyph unicode="N" horiz-adv-x="1421" d="M188 0v1434h127l594-930 226-373v1303h98V0h-127L504 932l-219 368V0h-97z"/><glyph unicode="O" horiz-adv-x="1480" d="M123 725q0 341 166 540t452 199 451.5-198T1358 725q0-342-166-542.5T741-18q-284 0-451 201T123 725zm104 0q0-297 139.5-473T741 76q236 0 374 175.5T1253 725t-138.5 471.5T741 1370q-236 0-375-174.5T227 725z"/><glyph unicode="P" horiz-adv-x="1128" d="M188 0v1434h451q204 0 323-109t119-295q0-188-119-297.5T639 623H291V0H188zm103 715h338q160 0 254 84.5t94 230.5q0 143-94 227t-254 84H291V715z"/><glyph unicode="Q" horiz-adv-x="1484" d="M123 725q0 341 166 540t452 199 451.5-198T1358 725q0-284-117.5-474T915 4q28-90 141.5-143.5T1335-193v-90q-216 0-355.5 73.5T821-14q-54-4-80-4-284 0-451 201T123 725zm104 0q0-297 139.5-473T741 76q236 0 374 175.5T1253 725t-138.5 471.5T741 1370q-236 0-375-174.5T227 725z"/><glyph unicode="R" horiz-adv-x="1177" d="M188 0v1434h459q204 0 324.5-106.5T1092 1040q0-170-106.5-274.5T696 649L1112 0H991L578 647H291V0H188zm103 739h348q160 0 253 81t93 220q0 138-93.5 219.5T639 1341H291V739z"/><glyph unicode="S" horiz-adv-x="1148" d="M76 424l100 14q25-173 137-267.5T610 76q163 0 255.5 72T958 354q0 71-28.5 125.5t-77 90-111.5 63T609 682t-138.5 44.5T338 780t-111.5 71.5-77 102.5-28.5 142q0 119 61.5 203.5T342 1423t221 39q199 0 322.5-103t154.5-284l-98-18q-31 149-127.5 230T567 1368q-147 0-243.5-72.5T227 1098q0-57 23.5-103t63.5-75.5 94-56T522 819t124-40.5T770 734t114-56.5 94-76 63.5-103.5 23.5-138q0-180-123-279T608-18q-230 0-368.5 118T76 424z"/><glyph unicode="T" horiz-adv-x="1048" d="M12 1341v93h1024v-93H575V0H473v1341H12z"/><glyph unicode="U" horiz-adv-x="1318" d="M170 483v951h102V481q0-187 104-296T659 76t283.5 109T1047 481v953h102V483q0-232-132-366.5T659-18 301.5 116.5 170 483z"/><glyph unicode="V" horiz-adv-x="1187" d="M18 1434h113L594 96l465 1338h110L662 0H526z"/><glyph unicode="W" horiz-adv-x="1878" d="M18 1434h109L502 100l377 1334h120L1376 98l375 1336h107L1438 0h-123L938 1315 561 0H440z"/><glyph unicode="X" horiz-adv-x="1210" d="M29 0l499 731-479 703h123l436-643 436 643h119L684 731 1184 0h-123L604 668 147 0H29z"/><glyph unicode="Y" horiz-adv-x="1120" d="M18 1434h115l430-748 430 748h107L612 582V0H510v582z"/><glyph unicode="Z" horiz-adv-x="1001" d="M18 0v90l801 1251H49v93h895v-91L145 92h836V0H18z"/><glyph unicode="[" horiz-adv-x="507" d="M158-213v1690h307v-80H252V-133h213v-80H158z"/><glyph unicode="\" horiz-adv-x="788" d="M76 1495h88L727-174h-88z"/><glyph unicode="]" horiz-adv-x="520" d="M96-133h213v1530H96v80h307V-213H96v80z"/><glyph unicode="^" horiz-adv-x="1200" d="M123 725l424 729h102l428-729h-98l-381 649-377-649h-98z"/><glyph unicode="_" horiz-adv-x="1024" d="M0-80h1024v-65H0v65z"/><glyph unicode="`" horiz-adv-x="1228" d="M98 1454h117l174-268h-90z"/><glyph unicode="a" horiz-adv-x="1005" d="M94 268q0 142 102 227t275 85q178 0 307-80v178q0 132-74.5 209.5T500 965q-108 0-178-55t-89-154l-98 14q21 129 118 206t249 77q172 0 273.5-101T877 678V0h-93v139Q735 62 642 21T434-20q-158 0-249 77T94 268zm103 8q0-97 69-152.5T459 68q147 0 233 76t86 206v64q-128 84-295 84-132 0-209-59.5T197 276z"/><glyph unicode="b" horiz-adv-x="1114" d="M170 0v1495h100V840q53 102 141.5 157.5T614 1053q188 0 297-144t109-391q0-246-109.5-390T614-16q-119 0-209 58.5T264 211V0h-94zm100 518q0-204 87.5-324T594 74t236.5 120T918 518t-87.5 324.5T594 963 357.5 842.5 270 518z"/><glyph unicode="c" horiz-adv-x="985" d="M94 516q0 247 116 392t312 145q162 0 272.5-96.5T922 702l-97-14q-15 121-95 197t-202 76q-152 0-241.5-120T197 516q0-203 89-320.5T530 78q123 0 202.5 74T827 358l99-12Q911 180 802.5 83T528-14q-200 0-317 142.5T94 516z"/><glyph unicode="d" horiz-adv-x="1114" d="M94 518q0 247 109 391t297 144q114 0 202.5-55.5T844 840v655h100V0h-94v211Q799 101 709 42.5T500-16q-187 0-296.5 144T94 518zm103 0q0-204 87-324T520 74t236.5 120T844 518t-87.5 324.5T520 963 284 842.5 197 518z"/><glyph unicode="e" horiz-adv-x="1044" d="M94 524q0 243 120 386t323 143q202 0 319-145t117-398H197q5-199 103-318.5T565 72q116 0 196.5 61.5T866 309l97-14Q933 142 823.5 62T559-18q-213 0-339 146T94 524zm105 68h667q-12 172-99.5 271.5T537 963q-145 0-234.5-99T199 592z"/><glyph unicode="f" horiz-adv-x="540" d="M27 942v82h161v211q0 120 66 190t180 70h92v-88h-73q-76 0-121-49.5T287 1223v-199h184v-82H287V0h-99v942H27z"/><glyph unicode="g" horiz-adv-x="1067" d="M94 522q0 245 110.5 388T504 1053q117 0 207-59t141-167l-2 197h94V29q0-192-112-305T528-389q-159 0-263 79T133-92l96 14q28-107 105.5-165T528-301q146 0 231 89t85 241v174Q791 101 703.5 45.5T502-10q-188 0-298 144T94 522zm103 0q0-203 87-322.5T520 80t236.5 119.5T844 522t-87.5 322T520 963 284 844t-87-322z"/><glyph unicode="h" horiz-adv-x="1077" d="M170 0v1495h100V881q43 83 125 127.5t191 44.5q162 0 259-105.5T942 664V0h-98v649q0 142-75.5 227T567 961q-136 0-216.5-94T270 616V0H170z"/><glyph unicode="i" horiz-adv-x="440" d="M145 1350q0 32 21.5 53.5T221 1425q31 0 52.5-21.5T295 1350q0-31-21.5-53.5T221 1274q-33 0-54.5 22.5T145 1350zM170 0v1024h100V0H170z"/><glyph unicode="j" horiz-adv-x="391" d="M-68-303h64q74 0 117 54.5T156-100v1124h98V-113q0-129-64-202.5T16-389h-84v86zm199 1653q0 32 21.5 53.5T207 1425q31 0 52.5-21.5T281 1350q0-31-21.5-53.5T207 1274q-33 0-54.5 22.5T131 1350z"/><glyph unicode="k" horiz-adv-x="927" d="M170 0v1495h98V514l475 510h121L485 616 924 0H807L412 551 268 395V0h-98z"/><glyph unicode="l" horiz-adv-x="440" d="M170 0v1495h100V0H170z"/><glyph unicode="m" horiz-adv-x="1687" d="M170 0v1024h94l-2-156q41 89 120 137t185 48q113 0 194-55t118-154q40 97 126 153t201 56q159 0 251.5-105t92.5-284V0h-98v664q0 137-70.5 217T1192 961q-129 0-206-89.5T909 629V0h-98v664q0 138-70 217.5T549 961q-128 0-203.5-89.5T270 629V0H170z"/><glyph unicode="n" horiz-adv-x="1077" d="M170 0v1024h94l-2-160q43 91 126.5 140t195.5 49q164 0 261-105.5T942 662V0h-98v662q0 137-76.5 218T563 961q-135 0-214-90.5T270 629V0H170z"/><glyph unicode="o" horiz-adv-x="1095" d="M94 518q0 246 122.5 390.5T549 1053q209 0 330.5-144.5T1001 518q0-248-121.5-392T549-18q-211 0-333 144T94 518zm103 0q0-206 94.5-326T549 72q161 0 255.5 120.5T899 518q0 204-94.5 324.5T549 963q-162 0-257-120.5T197 518z"/><glyph unicode="p" horiz-adv-x="1114" d="M170-389v1413h94l-2-199q51 109 140.5 168.5T608 1053q192 0 302-143.5T1020 518 910 126 608-18q-113 0-199 55.5T270 197v-586H170zm100 907q0-204 87.5-324T594 74t236.5 120T918 518t-87.5 324.5T594 963 357.5 842.5 270 518z"/><glyph unicode="q" horiz-adv-x="1114" d="M94 518q0 248 110 391.5T506 1053q116 0 205.5-59.5T852 825l-2 199h94V-389H844v586Q791 93 705 37.5T506-18q-192 0-302 144T94 518zm103 0q0-204 87-324T520 74t236.5 120T844 518t-87.5 324.5T520 963 284 842.5 197 518z"/><glyph unicode="r" horiz-adv-x="673" d="M170 0v1024h94l-2-193q42 102 126.5 159t199.5 57h39v-97h-37q-148 0-234-103.5T270 563V0H170z"/><glyph unicode="s" horiz-adv-x="944" d="M94 303l96 12q16-123 97.5-184T487 70q117 0 185.5 54T741 264q0 60-34.5 102t-89 66.5-121 44-133 42.5-121 53.5-89 84.5T119 786q0 125 94 196t246 71q148 0 241.5-72.5T815 768l-92-14q-15 103-83.5 157T457 965q-109 0-173.5-45.5T219 793q0-50 27-88t71-60 100-43 114.5-36.5 114.5-41T746 468t71-83 27-119q0-131-96.5-207.5T487-18q-161 0-270 80.5T94 303z"/><glyph unicode="t" horiz-adv-x="622" d="M41 936v88h152l26 223h74v-223h266v-88H293V266q0-83 41-130.5T444 88h131V0H414Q313 0 254 65.5T195 242l-2 694H41z"/><glyph unicode="u" horiz-adv-x="1058" d="M135 365v659h101V362q0-133 72.5-210.5T506 74q131 0 208 86.5T791 395v629h98V0h-88l2 186Q765 89 680 35.5T477-18Q318-18 226.5 82.5T135 365z"/><glyph unicode="v" horiz-adv-x="923" d="M10 1024h109L463 88l344 936h106L528 0H393z"/><glyph unicode="w" horiz-adv-x="1464" d="M10 1024h111L395 90l275 934h127l274-936 272 936h111L1143 0H999L731 918 465 0H322z"/><glyph unicode="x" horiz-adv-x="909" d="M16 0l371 526-348 498h121l295-438 299 438h116L522 526 893 0H772L453 465 133 0H16z"/><glyph unicode="y" horiz-adv-x="890" d="M10 1024h113L440 72l334 952h107L383-389H279L414 0h-45z"/><glyph unicode="z" horiz-adv-x="811" d="M35 0v84l604 852H55v88h713v-84L162 88h614V0H35z"/><glyph unicode="{" horiz-adv-x="559" d="M66 592v76q65 0 105 67t40 170v256q0 146 84.5 231t226.5 85h10v-80q-105-1-166-64.5T305 1161V905q0-233-149-276 149-40 149-275V98q0-107 60.5-170.5T532-137v-80h-10q-142 0-226.5 84.5T211 96v256q0 105-39.5 172.5T66 592z"/><glyph unicode="|" horiz-adv-x="477" d="M195-389v1884h86V-389h-86z"/><glyph unicode="}" horiz-adv-x="575" d="M51-137q106 1 167 64.5T279 98v256q0 235 149 275-149 43-149 276v256q0 107-61 171t-167 65v80h10q142 0 227-85.5t85-230.5V905q0-103 40-170t105-67v-76q-66 0-105.5-67.5T373 352V96q0-144-85-228.5T61-217H51v80z"/><glyph unicode="~" horiz-adv-x="1316" d="M170 502q5 145 71.5 233T424 823q55 0 112.5-24.5t105-59.5 93.5-69.5 96-59 95-24.5q77 0 124.5 63t51.5 170h80q-5-142-71-227.5T934 506q-55 0-111.5 24.5t-103.5 59-93.5 69.5-97.5 59.5-98 24.5q-79 0-126-64t-52-177h-82z"/><glyph unicode="¡" horiz-adv-x="464" d="M170 975q0 32 24 56t58 24q32 0 55-24t23-56q0-34-23-57t-55-23q-34 0-58 23t-24 57zm27-1364l6 1134h96l6-1134H197z"/><glyph unicode="¢" horiz-adv-x="1075" d="M123 676q0 226 98 367.5T489 1208v207h99v-205q149-11 248-105.5T950 862l-96-14q-15 121-95 196.5T557 1120q-153 0-242.5-119.5T225 676q0-203 89.5-320.5T559 238q123 0 202.5 74T856 518l98-12q-15-159-114-255.5T588 145V-41h-99v191q-171 25-268.5 164T123 676z"/><glyph unicode="£" horiz-adv-x="1095" d="M188 0v90h123v518H190v92h121v318q0 174 96 269t255 95q136 0 225.5-67.5T999 1139l-104-19q-15 75-79.5 121.5T655 1288q-112 0-176.5-70T414 1012V700h323v-92H414V90h661V0H188z"/><glyph unicode="¤" horiz-adv-x="1042" d="M59 1034l52 47 155-174q103 86 256 86t254-84l156 172 49-47-156-174q88-111 88-287 0-178-92-290l156-170-49-47-154 170q-102-82-252-82-153 0-254 84L113 66l-50 47 158 174q-88 111-88 286 0 172 86 285zm150-461q0-163 83.5-257.5T522 221q147 0 231.5 94.5T838 573t-84.5 258T522 926q-146 0-229.5-95T209 573z"/><glyph unicode="¥" horiz-adv-x="1148" d="M27 1434h114l430-748 430 748h107L623 586h288v-82H621v-92h290v-82H621V0H518v330H221v82h297v92H221v82h295z"/><glyph unicode="¦" horiz-adv-x="477" d="M195 266h86v-655h-86v655zm0 574v655h86V840h-86z"/><glyph unicode="§" horiz-adv-x="919" d="M76 670q0 185 157 295-86 86-86 213 1 134 89 213t225 79q137-1 218-87t95-236l-98-12q-13 122-70.5 188T455 1391q-95 1-155-57.5T240 1184q-1-52 19-93.5t54.5-71 79.5-55 94.5-48 99-47T681 813t79.5-70.5 54.5-95T834 522q0-184-158-295 86-83 86-215-1-134-87.5-214.5T451-281q-141 1-228 87T119 43l100 12q15-123 76-188.5T455-201q95-1 155 57.5T672 6q1 65-31.5 114.5t-85 82-116.5 62-128 63T194 403t-86 110.5T76 670zm92 10q-2-69 24.5-122.5t77-91 101-63.5 121-59.5T604 283q134 84 139 227 2 59-18 107.5t-53 80-82.5 61.5-95.5 50.5-103.5 49T295 913q-124-86-127-233z"/><glyph unicode="¨" horiz-adv-x="1228" d="M82 1352q0 27 19 46t46 19 45.5-19 18.5-46q0-28-18-47t-46-19-46.5 19-18.5 47zm354 0q0 27 18.5 46t47.5 19q26 0 44.5-19.5T565 1352q0-28-18.5-47t-44.5-19q-29 0-47.5 19t-18.5 47z"/><glyph unicode="©" horiz-adv-x="1714" d="M123 717q0 164 54 303.5t149.5 238 233 154T858 1468t297.5-55.5 232-154 149.5-238 54-303.5q0-332-203.5-538T858-27q-216 0-383 93T215.5 328.5 123 717zm59 0q0-308 187.5-498T858 29q300 0 487 190t187 498q0 203-85 361.5T1208.5 1325 858 1413q-300 0-488-194T182 717zm252 0q0 235 115 374.5T858 1231q156 0 256.5-90T1227 901l-80-14q-11 126-89.5 201T856 1163q-155 0-248.5-122.5T514 713q0-201 92-320t248-119q125 0 208.5 75t96.5 202l80-12q-17-152-120.5-243T856 205q-195 0-308.5 139T434 717z"/><glyph unicode="ª" horiz-adv-x="741" d="M86 864q0 101 72.5 160t197.5 59q117 0 203-47v115q0 85-48.5 133.5T379 1333q-67 0-111.5-36t-56.5-99l-96 14q14 94 85 147.5t185 53.5q126 0 199-70.5t73-191.5V676h-90v104q-36-57-99-89t-144-32q-109 0-173.5 55.5T86 864zm98 8q0-61 45.5-98T352 737q95 0 151 50.5T559 924v41q-87 53-186 53-86 0-137.5-40T184 872z"/><glyph unicode="«" horiz-adv-x="952" d="M170 520l254 389h92L268 520l248-389h-92zm299 0l254 389h94L567 520l250-389h-94z"/><glyph unicode="¬" horiz-adv-x="1130" d="M170 602v82h825V336h-92v266H170z"/><glyph unicode="­" horiz-adv-x="593" d="M41 535v73h573v-73H41z"/><glyph unicode="®" horiz-adv-x="1355" d="M170 973q0 236 146 386t378 150 378.5-150T1219 973q0-237-146-384T694 442q-232 0-378 147T170 973zm59 0q0-213 128.5-344T694 498t336.5 131T1159 973q0 214-129 347.5T694 1454t-336-133.5T229 973zm252-324v680h226q100 0 158.5-50.5T924 1139q0-75-45-123t-125-60l178-307h-64L688 954H539V649h-58zm58 352h163q75 0 119.5 37.5T866 1139q0 26-7 48t-23.5 44-50.5 34.5-83 12.5H539v-277z"/><glyph unicode="¯" horiz-adv-x="1228" d="M102 1309v67h508v-67H102z"/><glyph unicode="°" horiz-adv-x="593" d="M86 1235q0 100 60 159.5t161 59.5 160-59.5 59-159.5-59-159.5-160-59.5-161 59.5T86 1235zm59 0q0-75 44-118.5t118-43.5q73 0 115.5 43.5T465 1235t-42.5 118.5T307 1397q-74 0-118-43.5T145 1235z"/><glyph unicode="±" horiz-adv-x="1095" d="M170 0v78h791V0H170zm2 643v78h350v373h86V721h353v-78H608V268h-86v375H172z"/><glyph unicode="²" horiz-adv-x="806" d="M82 676v72q274 232 352 306 175 166 212 277 13 38 13 74 0 88-61.5 139T432 1595q-95 0-157.5-62T193 1362l-89 14q19 135 107.5 215t226.5 80q146 0 231-73t85-195q0-66-29.5-130.5t-116-155.5T461 970 244 779q-22-19-33-29h555v-74H82z"/><glyph unicode="³" horiz-adv-x="819" d="M88 922l90 14q31-95 99-147t163-52q107 0 175.5 53T684 930q0 92-73 143t-201 51h-76v70h78q116 0 184 57t68 152q0 89-62.5 140.5T434 1595q-191 0-250-198l-90 12q30 126 115.5 194t226.5 68q147 0 234.5-70t87.5-190q0-91-59-159t-160-91q110-19 174.5-80T778 928q0-120-93-193t-241-73q-139 0-231.5 67.5T88 922z"/><glyph unicode="´" horiz-adv-x="1228" d="M98 1186l174 268h117l-201-268H98z"/><glyph unicode="¶" horiz-adv-x="968" d="M47 1057q0 204 112 301.5t316 97.5h305V-389h-80v1761H555V-389h-80V657q-204 0-316 98.5T47 1057z"/><glyph unicode="·" horiz-adv-x="473" d="M170 608q0 34 25.5 59t60.5 25q34 0 58-25t24-59q0-35-24-59.5T256 524q-35 0-60.5 24.5T170 608z"/><glyph unicode="¸" horiz-adv-x="1228" d="M68-342l18 47q84-43 145-43 59 0 94 26t35 70q0 46-37 70.5T217-147h-53v34l69 131h58l-60-118h13q88 0 139-39t51-105q0-67-52-106t-140-39-174 47z"/><glyph unicode="¹" horiz-adv-x="546" d="M184 1542v74l238 22h84V676h-94v889z"/><glyph unicode="º" horiz-adv-x="802" d="M61 1038q0 172 89 273.5T391 1413q151 0 239.5-101.5T719 1038q0-173-88.5-274.5T391 662q-152 0-241 101.5T61 1038zm103 0q0-134 61-213.5T391 745q103 0 164 79.5t61 213.5q0 133-61 212t-164 79q-105 0-166-78.5T164 1038z"/><glyph unicode="»" horiz-adv-x="952" d="M170 131l250 389-250 389h94l254-389-254-389h-94zm301 0l248 389-248 389h92l254-389-254-389h-92z"/><glyph unicode="¼" horiz-adv-x="1673" d="M82 1280v63l182 21h72V539h-82v759zM342-61l741 1503h86L428-61h-86zm686 278v66l365 551h88V283h139v-66h-139V0h-82v217h-371zm76 66h295v452z"/><glyph unicode="½" horiz-adv-x="1658" d="M82 1280v63l182 21h72V539h-82v759zM342-61l741 1503h86L428-61h-86zm721 61v61q213 208 260 259 144 153 169 252 7 27 7 53 0 73-45.5 117T1331 786q-71 0-116.5-53T1157 588l-80 12q14 117 82.5 184.5T1337 852q112 0 178-62t66-167q0-38-10.5-75t-38.5-82-52.5-78.5-79-92T1312 202 1203 92l-29-29h415V0h-526z"/><glyph unicode="¾" horiz-adv-x="1824" d="M66 762l79 12q22-80 72-124t121-44q78 0 128 45t50 119q0 77-55 121.5T311 936h-55v61h59q86 0 136.5 48.5T502 1174q0 76-46.5 119.5T332 1337q-140 0-182-170l-80 15q24 105 90.5 163t173.5 58q114 0 182-60t68-161q0-78-45-136.5T418 967q84-18 132-68.5T598 768q0-105-71.5-167T340 539q-107 0-178 58.5T66 762zM494-61l741 1503h86L580-61h-86zm686 278v66l364 551h88V283h140v-66h-140V0h-82v217h-370zm75 66h295v452z"/><glyph unicode="¿" horiz-adv-x="1028" d="M104-61q0 72 22 128t57.5 93.5 78 72.5 85 76.5 78 93T482 537t22 190h100q0-110-22-197.5t-56.5-143-77-100T364 207t-76.5-70.5-56.5-84T209-57q0-125 81-196t216-71q124 0 206.5 83T819-16l105-19q-25-178-136-280.5T506-418q-183 0-292.5 96.5T104-61zM479 991q0 31 21.5 52.5T551 1065q31 0 52.5-21.5T625 991q0-30-21.5-50.5T551 920q-30 0-51 20.5T479 991z"/><glyph unicode="À" horiz-adv-x="1243" d="M18 0l541 1434h119L1225 0h-111L950 444H291L129 0H18zm306 535h594l-300 806zm92 1200h116l160-242h-92z"/><glyph unicode="Á" horiz-adv-x="1243" d="M18 0l541 1434h119L1225 0h-111L950 444H291L129 0H18zm306 535h594l-300 806zm219 958l157 242h115l-182-242h-90z"/><glyph unicode="Â" horiz-adv-x="1243" d="M18 0l541 1434h119L1225 0h-111L950 444H291L129 0H18zm306 535h594l-300 806zm22 958l234 242h79l232-242h-92l-181 195-180-195h-92z"/><glyph unicode="Ã" horiz-adv-x="1243" d="M18 0l541 1434h119L1225 0h-111L950 444H291L129 0H18zm295 1511q0 83 43.5 133t110.5 50q43 0 86-17.5t72-39 67.5-39T766 1581q40 0 65 31t25 86h68q0-83-43.5-132.5T770 1516q-43 0-86 17.5t-72 38.5-67.5 38.5T471 1628q-40 0-65-31t-25-86h-68zm11-976h594l-300 806z"/><glyph unicode="Ä" horiz-adv-x="1243" d="M18 0l541 1434h119L1225 0h-111L950 444H291L129 0H18zm306 535h594l-300 806zm53 1105q0 26 18.5 45t46.5 19q27 0 45.5-18.5T506 1640q0-28-18-46.5t-46-18.5-46.5 18.5T377 1640zm354 0q0 27 18.5 45.5T797 1704q26 0 44.5-19t18.5-45q0-28-18.5-46.5T797 1575q-29 0-47.5 18.5T731 1640z"/><glyph unicode="Å" horiz-adv-x="1243" d="M18 0l541 1434h119L1225 0h-111L950 444H291L129 0H18zm306 535h594l-300 806zm122 1136q0 76 47 121t125 45q76 0 122-45t46-121-46-121-122-45q-78 0-125 45t-47 121zm56 0q0-54 31-85.5t85-31.5q53 0 84 31.5t31 85.5-31 85.5-84 31.5q-54 0-85-31.5t-31-85.5z"/><glyph unicode="Æ" horiz-adv-x="1738" d="M18 0l670 1434h954v-93H965V774h596v-92H965V92h698V0H862v446H344L137 0H18zm365 532h479v811H758z"/><glyph unicode="Ç" horiz-adv-x="1351" d="M123 723q0 337 159 536t435 199q213 0 354-123t170-352l-104-16q-25 196-140.5 296.5T713 1364q-225 0-355.5-174T227 721q0-297 131.5-471T713 76q174 0 292 106t146 291l102-16q-30-220-163-340T760-16l-41-84h12q88 0 139.5-39T922-244q0-67-52.5-106T729-389t-174 47l18 47q84-43 146-43 59 0 94 26t35 70q0 46-37 70.5T705-147h-54v34l49 95q-265 6-421 205T123 723z"/><glyph unicode="È" horiz-adv-x="1062" d="M188 0v1434h781v-93H291V774h596v-92H291V92h698V0H188zm177 1735h116l160-242h-92z"/><glyph unicode="É" horiz-adv-x="1062" d="M188 0v1434h781v-93H291V774h596v-92H291V92h698V0H188zm304 1493l157 242h115l-182-242h-90z"/><glyph unicode="Ê" horiz-adv-x="1062" d="M188 0v1434h781v-93H291V774h596v-92H291V92h698V0H188zm107 1493l233 242h80l232-242h-92l-181 195-180-195h-92z"/><glyph unicode="Ë" horiz-adv-x="1062" d="M188 0v1434h781v-93H291V774h596v-92H291V92h698V0H188zm138 1640q0 26 19 45t46 19 45.5-18.5T455 1640q0-28-18-46.5t-46-18.5-46.5 18.5T326 1640zm354 0q0 27 18 45.5t47 18.5q26 0 45-19t19-45q0-28-18.5-46.5T745 1575q-29 0-47 18.5t-18 46.5z"/><glyph unicode="Ì" horiz-adv-x="479" d="M37 1735h117l159-242h-92zM188 0v1434h103V0H188z"/><glyph unicode="Í" horiz-adv-x="479" d="M164 1493l158 242h114l-182-242h-90zM188 0v1434h103V0H188z"/><glyph unicode="Î" horiz-adv-x="479" d="M-33 1493l234 242h80l231-242h-92l-180 195-181-195h-92zM188 0v1434h103V0H188z"/><glyph unicode="Ï" horiz-adv-x="479" d="M-2 1640q0 26 19 45t46 19 45.5-18.5T127 1640q0-28-18-46.5T63 1575t-46.5 18.5T-2 1640zM188 0v1434h103V0H188zm164 1640q0 27 18.5 45.5T418 1704q26 0 44.5-19t18.5-45q0-28-18.5-46.5T418 1575q-29 0-47.5 18.5T352 1640z"/><glyph unicode="Ð" horiz-adv-x="1427" d="M31 702v72h157v660h381q331 0 526-193t195-522q0-331-194.5-525T569 0H188v702H31zM291 92h276q286 0 451.5 168.5T1184 719q0 288-165.5 456T569 1343H291V774h260v-72H291V92z"/><glyph unicode="Ñ" horiz-adv-x="1421" d="M188 0v1434h127l594-930 226-373v1303h98V0h-127L504 932l-219 368V0h-97zm220 1511q0 83 43 133t110 50q43 0 86-17.5t72-39 67.5-39T860 1581q40 0 65 31t25 86h68q0-83-43.5-132.5T864 1516q-43 0-86 17.5t-72 38.5-67.5 38.5T565 1628q-40 0-65-31t-25-86h-67z"/><glyph unicode="Ò" horiz-adv-x="1480" d="M123 725q0 341 166 540t452 199 451.5-198T1358 725q0-342-166-542.5T741-18q-284 0-451 201T123 725zm104 0q0-297 139.5-473T741 76q236 0 374 175.5T1253 725t-138.5 471.5T741 1370q-236 0-375-174.5T227 725zm312 1040h116l160-241h-92z"/><glyph unicode="Ó" horiz-adv-x="1480" d="M123 725q0 341 166 540t452 199 451.5-198T1358 725q0-342-166-542.5T741-18q-284 0-451 201T123 725zm104 0q0-297 139.5-473T741 76q236 0 374 175.5T1253 725t-138.5 471.5T741 1370q-236 0-375-174.5T227 725zm439 799l157 241h115l-182-241h-90z"/><glyph unicode="Ô" horiz-adv-x="1480" d="M123 725q0 341 166 540t452 199 451.5-198T1358 725q0-342-166-542.5T741-18q-284 0-451 201T123 725zm104 0q0-297 139.5-473T741 76q236 0 374 175.5T1253 725t-138.5 471.5T741 1370q-236 0-375-174.5T227 725zm242 799l233 241h80l232-241h-92l-181 194-180-194h-92z"/><glyph unicode="Õ" horiz-adv-x="1480" d="M123 725q0 341 166 540t452 199 451.5-198T1358 725q0-342-166-542.5T741-18q-284 0-451 201T123 725zm104 0q0-297 139.5-473T741 76q236 0 374 175.5T1253 725t-138.5 471.5T741 1370q-236 0-375-174.5T227 725zm209 817q0 83 43.5 132.5T590 1724q43 0 86-17.5t72-38.5 67.5-38.5T889 1612q40 0 65 31t25 86h68q0-83-43.5-133T893 1546q-43 0-86 17.5t-72 39-67.5 39T594 1659q-40 0-65-31t-25-86h-68z"/><glyph unicode="Ö" horiz-adv-x="1480" d="M123 725q0 341 166 540t452 199 451.5-198T1358 725q0-342-166-542.5T741-18q-284 0-451 201T123 725zm104 0q0-297 139.5-473T741 76q236 0 374 175.5T1253 725t-138.5 471.5T741 1370q-236 0-375-174.5T227 725zm273 946q0 27 19 45.5t46 18.5 45.5-18.5T629 1671q0-28-18-46.5t-46-18.5-46.5 18.5T500 1671zm354 0q0 27 18.5 45.5T920 1735q26 0 44.5-19t18.5-45q0-28-18.5-46.5T920 1606q-29 0-47.5 18.5T854 1671z"/><glyph unicode="×" horiz-adv-x="1118" d="M174 305l328 346-328 344 57 58 328-344 326 344 59-60-330-346 330-344-57-57-328 344-326-344z"/><glyph unicode="Ø" horiz-adv-x="1480" d="M123 725q0 341 166 540t452 199q231 0 381-129l107 142 65-52-110-149q174-196 174-551 0-342-166-542.5T741-18q-245 0-407 153L203-41l-68 53 141 189Q123 399 123 725zm104 0q0-264 113-438l723 966q-129 117-322 117-236 0-375-174.5T227 725zm168-506Q532 76 741 76q236 0 374 175.5T1253 725q0 292-133 467z"/><glyph unicode="Ù" horiz-adv-x="1318" d="M170 483v951h102V481q0-187 104-296T659 76t283.5 109T1047 481v953h102V483q0-232-132-366.5T659-18 301.5 116.5 170 483zm287 1252h116l160-242h-92z"/><glyph unicode="Ú" horiz-adv-x="1318" d="M170 483v951h102V481q0-187 104-296T659 76t283.5 109T1047 481v953h102V483q0-232-132-366.5T659-18 301.5 116.5 170 483zm414 1010l157 242h115l-182-242h-90z"/><glyph unicode="Û" horiz-adv-x="1318" d="M170 483v951h102V481q0-187 104-296T659 76t283.5 109T1047 481v953h102V483q0-232-132-366.5T659-18 301.5 116.5 170 483zm217 1010l234 242h79l232-242h-92l-181 195-180-195h-92z"/><glyph unicode="Ü" horiz-adv-x="1318" d="M170 483v951h102V481q0-187 104-296T659 76t283.5 109T1047 481v953h102V483q0-232-132-366.5T659-18 301.5 116.5 170 483zm248 1157q0 26 19 45t46 19 45.5-18.5T547 1640q0-28-18-46.5t-46-18.5-46.5 18.5T418 1640zm354 0q0 27 18.5 45.5T838 1704q26 0 44.5-19t18.5-45q0-28-18.5-46.5T838 1575q-29 0-47.5 18.5T772 1640z"/><glyph unicode="Ý" horiz-adv-x="1120" d="M18 1434h115l430-748 430 748h107L612 582V0H510v582zm467 59l158 242h115l-183-242h-90z"/><glyph unicode="Þ" horiz-adv-x="1153" d="M188 0v1442h103v-289h366q206 0 327.5-110.5T1106 745q0-189-121-299T657 336H291V0H188zm103 424h360q163 0 255.5 86T999 745q0 147-93 233.5T651 1065H291V424z"/><glyph unicode="ß" horiz-adv-x="1079" d="M170 0v1126q0 166 100 267.5T535 1495q173 0 280-106t107-275q0-125-66-219T682 772q137-25 220-127t83-244q0-181-127-291T522 0H416v92h100q165 0 266 87t101 233q0 137-90.5 222T555 719H444v92h111q107 0 185.5 85.5T819 1104q0 134-79 216.5T532 1403q-118 0-190-77t-72-202V0H170z"/><glyph unicode="à" horiz-adv-x="1005" d="M94 268q0 142 102 227t275 85q178 0 307-80v178q0 132-74.5 209.5T500 965q-108 0-178-55t-89-154l-98 14q21 129 118 206t249 77q172 0 273.5-101T877 678V0h-93v139Q735 62 642 21T434-20q-158 0-249 77T94 268zm103 8q0-97 69-152.5T459 68q147 0 233 76t86 206v64q-128 84-295 84-132 0-209-59.5T197 276zm122 1178h117l174-268h-90z"/><glyph unicode="á" horiz-adv-x="1005" d="M94 268q0 142 102 227t275 85q178 0 307-80v178q0 132-74.5 209.5T500 965q-108 0-178-55t-89-154l-98 14q21 129 118 206t249 77q172 0 273.5-101T877 678V0h-93v139Q735 62 642 21T434-20q-158 0-249 77T94 268zm103 8q0-97 69-152.5T459 68q147 0 233 76t86 206v64q-128 84-295 84-132 0-209-59.5T197 276zm174 910l174 268h117l-201-268h-90z"/><glyph unicode="â" horiz-adv-x="1005" d="M94 268q0 142 102 227t275 85q178 0 307-80v178q0 132-74.5 209.5T500 965q-108 0-178-55t-89-154l-98 14q21 129 118 206t249 77q172 0 273.5-101T877 678V0h-93v139Q735 62 642 21T434-20q-158 0-249 77T94 268zm103 8q0-97 69-152.5T459 68q147 0 233 76t86 206v64q-128 84-295 84-132 0-209-59.5T197 276zm10 914l256 264h82l258-264h-94l-203 217-205-217h-94z"/><glyph unicode="ã" horiz-adv-x="1005" d="M94 268q0 142 102 227t275 85q178 0 307-80v178q0 132-74.5 209.5T500 965q-108 0-178-55t-89-154l-98 14q21 129 118 206t249 77q172 0 273.5-101T877 678V0h-93v139Q735 62 642 21T434-20q-158 0-249 77T94 268zm99 989q0 85 44 136t113 51q44 0 87.5-18t73.5-39.5 68.5-39.5 73.5-18q41 0 66.5 32t25.5 87h70q0-86-44.5-136T657 1262q-44 0-87.5 17.5T497 1318t-68 38.5-75 17.5q-40 0-66-32t-26-85h-69zm4-981q0-97 69-152.5T459 68q147 0 233 76t86 206v64q-128 84-295 84-132 0-209-59.5T197 276z"/><glyph unicode="ä" horiz-adv-x="1005" d="M94 268q0 142 102 227t275 85q178 0 307-80v178q0 132-74.5 209.5T500 965q-108 0-178-55t-89-154l-98 14q21 129 118 206t249 77q172 0 273.5-101T877 678V0h-93v139Q735 62 642 21T434-20q-158 0-249 77T94 268zm103 8q0-97 69-152.5T459 68q147 0 233 76t86 206v64q-128 84-295 84-132 0-209-59.5T197 276zm65 1076q0 26 19 45.5t47 19.5q27 0 45-19t18-46q0-28-18-47t-45-19q-28 0-47 19t-19 47zm354 0q0 27 18.5 46t47.5 19q26 0 44.5-19.5T745 1352q0-28-18.5-47t-44.5-19q-29 0-47.5 19t-18.5 47z"/><glyph unicode="å" horiz-adv-x="1005" d="M94 268q0 142 102 227t275 85q178 0 307-80v178q0 132-74.5 209.5T500 965q-108 0-178-55t-89-154l-98 14q21 129 118 206t249 77q172 0 273.5-101T877 678V0h-93v139Q735 62 642 21T434-20q-158 0-249 77T94 268zm103 8q0-97 69-152.5T459 68q147 0 233 76t86 206v64q-128 84-295 84-132 0-209-59.5T197 276zm118 1104q0 85 51.5 135t137.5 50q85 0 135.5-49.5T690 1380t-50.5-135-135.5-49q-86 0-137.5 49.5T315 1380zm56 0q0-62 35.5-97.5T504 1247t97.5 35.5T637 1380t-35.5 97.5T504 1513t-97.5-35.5T371 1380z"/><glyph unicode="æ" horiz-adv-x="1703" d="M94 268q0 141 103 226.5T469 580q177 0 311-80v178q0 132-75 209.5T502 965q-109 0-181.5-55.5T233 756l-98 14q20 129 119 206t248 77q131 0 221.5-62.5T848 817q52 111 144.5 173.5T1206 1053q198 0 313-145t115-398H883q6-204 98.5-321T1231 72q115 0 194 63.5t99 175.5l96-16q-26-148-131.5-230.5T1227-18q-133 0-230.5 66T846 236Q806 118 695.5 49T434-20q-157 0-248.5 77.5T94 268zm103 8q0-97 69-151.5T459 70q146 0 233.5 75.5T780 350v62q-132 86-297 86-131 0-208.5-59T197 276zm688 316h641q-11 172-96 271.5T1206 963q-134 0-221.5-102T885 592z"/><glyph unicode="ç" horiz-adv-x="985" d="M94 516q0 247 116 392t312 145q162 0 272.5-96.5T922 702l-97-14q-15 121-95 197t-202 76q-152 0-241.5-120T197 516q0-203 89-320.5T530 78q123 0 202.5 74T827 358l99-12q-13-147-100.5-240T600-8l-45-92h12q88 0 139.5-39T758-244q0-67-52.5-106T565-389t-174 47l19 47q84-43 145-43 59 0 94 26t35 70q0 46-37 70.5T541-147h-54v34l54 99h-13q-200 0-317 142.5T94 516z"/><glyph unicode="è" horiz-adv-x="1044" d="M94 524q0 243 120 386t323 143q202 0 319-145t117-398H197q5-199 103-318.5T565 72q116 0 196.5 61.5T866 309l97-14Q933 142 823.5 62T559-18q-213 0-339 146T94 524zm105 68h667q-12 172-99.5 271.5T537 963q-145 0-234.5-99T199 592zm143 862h117l174-268h-90z"/><glyph unicode="é" horiz-adv-x="1044" d="M94 524q0 243 120 386t323 143q202 0 319-145t117-398H197q5-199 103-318.5T565 72q116 0 196.5 61.5T866 309l97-14Q933 142 823.5 62T559-18q-213 0-339 146T94 524zm105 68h667q-12 172-99.5 271.5T537 963q-145 0-234.5-99T199 592zm194 594l174 268h117l-201-268h-90z"/><glyph unicode="ê" horiz-adv-x="1044" d="M94 524q0 243 120 386t323 143q202 0 319-145t117-398H197q5-199 103-318.5T565 72q116 0 196.5 61.5T866 309l97-14Q933 142 823.5 62T559-18q-213 0-339 146T94 524zm105 68h667q-12 172-99.5 271.5T537 963q-145 0-234.5-99T199 592zm30 598l256 264h82l258-264h-94l-203 217-204-217h-95z"/><glyph unicode="ë" horiz-adv-x="1044" d="M94 524q0 243 120 386t323 143q202 0 319-145t117-398H197q5-199 103-318.5T565 72q116 0 196.5 61.5T866 309l97-14Q933 142 823.5 62T559-18q-213 0-339 146T94 524zm105 68h667q-12 172-99.5 271.5T537 963q-145 0-234.5-99T199 592zm86 760q0 27 19 46t46 19 45.5-19 18.5-46q0-28-18-47t-46-19-46.5 19-18.5 47zm354 0q0 27 18.5 46t47.5 19q26 0 44.5-19.5T768 1352q0-28-18.5-47t-44.5-19q-29 0-47.5 19t-18.5 47z"/><glyph unicode="ì" horiz-adv-x="440" d="M37 1454h117l174-268h-90zM170 0v1024h100V0H170z"/><glyph unicode="í" horiz-adv-x="440" d="M88 1186l174 268h117l-201-268H88zM170 0v1024h100V0H170z"/><glyph unicode="î" horiz-adv-x="440" d="M-76 1190l256 264h82l258-264h-94l-203 217-205-217h-94zM170 0v1024h100V0H170z"/><glyph unicode="ï" horiz-adv-x="440" d="M-20 1352q0 27 19 46t46 19 45.5-19 18.5-46q0-28-18-47t-46-19-46.5 19-18.5 47zM170 0v1024h100V0H170zm164 1352q0 27 18 46t47 19q26 0 45-19.5t19-45.5q0-28-19-47t-45-19q-29 0-47 19t-18 47z"/><glyph unicode="ð" horiz-adv-x="1095" d="M94 494q0 234 118.5 370.5T530 1001q172 0 287-124-105 185-311 378l-221-114-23 47 203 104q-78 70-121 105l59 76q49-42 150-134l235 123 23-49-217-113q100-96 171-182t126-182 82.5-200.5T1001 516q0-251-122-392.5T545-18q-207 0-329 138T94 494zm103 0q0-193 93.5-304.5T547 78t257.5 111.5T899 494q0 195-94.5 307T547 913 290.5 801 197 494z"/><glyph unicode="ñ" horiz-adv-x="1077" d="M170 0v1024h94l-2-160q43 91 126.5 140t195.5 49q164 0 261-105.5T942 662V0h-98v662q0 137-76.5 218T563 961q-135 0-214-90.5T270 629V0H170zm68 1257q0 85 44 136t113 51q44 0 87.5-18t73.5-39.5 68.5-39.5 73.5-18q41 0 67 32.5t26 86.5h69q0-86-44.5-136T702 1262q-44 0-87.5 17.5T542 1318t-68 38.5-75 17.5q-40 0-66-32t-26-85h-69z"/><glyph unicode="ò" horiz-adv-x="1095" d="M94 518q0 246 122.5 390.5T549 1053q209 0 330.5-144.5T1001 518q0-248-121.5-392T549-18q-211 0-333 144T94 518zm103 0q0-206 94.5-326T549 72q161 0 255.5 120.5T899 518q0 204-94.5 324.5T549 963q-162 0-257-120.5T197 518zm165 936h117l174-268h-90z"/><glyph unicode="ó" horiz-adv-x="1095" d="M94 518q0 246 122.5 390.5T549 1053q209 0 330.5-144.5T1001 518q0-248-121.5-392T549-18q-211 0-333 144T94 518zm103 0q0-206 94.5-326T549 72q161 0 255.5 120.5T899 518q0 204-94.5 324.5T549 963q-162 0-257-120.5T197 518zm217 668l174 268h117l-201-268h-90z"/><glyph unicode="ô" horiz-adv-x="1095" d="M94 518q0 246 122.5 390.5T549 1053q209 0 330.5-144.5T1001 518q0-248-121.5-392T549-18q-211 0-333 144T94 518zm103 0q0-206 94.5-326T549 72q161 0 255.5 120.5T899 518q0 204-94.5 324.5T549 963q-162 0-257-120.5T197 518zm53 672l256 264h82l258-264h-94l-203 217-205-217h-94z"/><glyph unicode="õ" horiz-adv-x="1095" d="M94 518q0 246 122.5 390.5T549 1053q209 0 330.5-144.5T1001 518q0-248-121.5-392T549-18q-211 0-333 144T94 518zm103 0q0-206 94.5-326T549 72q161 0 255.5 120.5T899 518q0 204-94.5 324.5T549 963q-162 0-257-120.5T197 518zm39 739q0 85 44 136t113 51q44 0 87.5-18t73.5-39.5 68.5-39.5 73.5-18q41 0 66.5 32t25.5 87h70q0-86-44.5-136T700 1262q-44 0-87.5 17.5T540 1318t-68 38.5-75 17.5q-40 0-66-32t-26-85h-69z"/><glyph unicode="ö" horiz-adv-x="1095" d="M94 518q0 246 122.5 390.5T549 1053q209 0 330.5-144.5T1001 518q0-248-121.5-392T549-18q-211 0-333 144T94 518zm103 0q0-206 94.5-326T549 72q161 0 255.5 120.5T899 518q0 204-94.5 324.5T549 963q-162 0-257-120.5T197 518zm108 834q0 26 19.5 45.5T371 1417t45-19 18-46q0-28-18-47t-45-19q-28 0-47 19t-19 47zm354 0q0 27 18.5 46t47.5 19q26 0 44.5-19.5T788 1352q0-28-18.5-47t-44.5-19q-29 0-47.5 19t-18.5 47z"/><glyph unicode="÷" horiz-adv-x="1132" d="M170 606v78h827v-78H170zm342-293q0 31 21.5 51.5T586 385q30 0 50.5-20.5T657 313t-21-52-50-21q-31 0-52.5 21T512 313zm0 662q0 29 21.5 50.5T586 1047q29 0 50-21.5t21-50.5q0-32-21-54t-50-22q-31 0-52.5 22T512 975z"/><glyph unicode="ø" horiz-adv-x="1107" d="M94 518q0 246 122.5 390.5T549 1053q174 0 287-101l116 166 54-39-123-174q118-146 118-387 0-248-121.5-392T549-18q-151 0-258 75L197-78l-56 39 99 139Q94 246 94 518zm103 0q0-215 102-336l481 688q-93 93-231 93-162 0-257-120.5T197 518zm147-379q86-67 205-67 161 0 255.5 120.5T899 518q0 182-78 303z"/><glyph unicode="ù" horiz-adv-x="1058" d="M135 365v659h101V362q0-133 72.5-210.5T506 74q131 0 208 86.5T791 395v629h98V0h-88l2 186Q765 89 680 35.5T477-18Q318-18 226.5 82.5T135 365zm201 1089h117l174-268h-90z"/><glyph unicode="ú" horiz-adv-x="1058" d="M135 365v659h101V362q0-133 72.5-210.5T506 74q131 0 208 86.5T791 395v629h98V0h-88l2 186Q765 89 680 35.5T477-18Q318-18 226.5 82.5T135 365zm252 821l174 268h117l-201-268h-90z"/><glyph unicode="û" horiz-adv-x="1058" d="M135 365v659h101V362q0-133 72.5-210.5T506 74q131 0 208 86.5T791 395v629h98V0h-88l2 186Q765 89 680 35.5T477-18Q318-18 226.5 82.5T135 365zm88 825l256 264h82l258-264h-94l-203 217-205-217h-94z"/><glyph unicode="ü" horiz-adv-x="1058" d="M135 365v659h101V362q0-133 72.5-210.5T506 74q131 0 208 86.5T791 395v629h98V0h-88l2 186Q765 89 680 35.5T477-18Q318-18 226.5 82.5T135 365zm144 987q0 27 19 46t46 19 45.5-19 18.5-46q0-28-18-47t-46-19-46.5 19-18.5 47zm354 0q0 27 18 46t47 19q26 0 45-19.5t19-45.5q0-28-19-47t-45-19q-29 0-47 19t-18 47z"/><glyph unicode="ý" horiz-adv-x="890" d="M10 1024h113L440 72l334 952h107L383-389H279L414 0h-45zm303 162l174 268h117l-201-268h-90z"/><glyph unicode="þ" horiz-adv-x="1101" d="M170-389v1868h100l-2-641q51 104 136.5 159.5T602 1053q189 0 297.5-143.5T1008 518 899.5 126 602-18q-109 0-194.5 55T270 193v-582H170zm100 907q0-204 86-324T588 74t231.5 120T905 518t-85.5 323.5T588 961 356 841.5 270 518z"/><glyph unicode="ÿ" horiz-adv-x="890" d="M10 1024h113L440 72l334 952h107L383-389H279L414 0h-45zm195 328q0 27 19 46t46 19 45.5-19 18.5-46q0-28-18-47t-46-19-46.5 19-18.5 47zm354 0q0 27 18.5 46t47.5 19q26 0 44.5-19.5T688 1352q0-28-18.5-47t-44.5-19q-29 0-47.5 19t-18.5 47z"/><glyph unicode="Œ" horiz-adv-x="2013" d="M123 725q0 341 151 540t410 199q154 0 270-78.5t183-224.5v273h780v-93h-678V774h596v-92h-596V92h698V0h-800v291q-67-146-183-225.5T684-14q-259 0-410 199.5T123 725zm104 0q0-297 123.5-472T684 78q209 0 331 174.5T1137 725q0 300-121.5 473.5T684 1372q-211 0-334-174.5T227 725z"/><glyph unicode="œ" horiz-adv-x="1849" d="M94 518q0 247 122.5 391T547 1053q144 0 247.5-73.5T948 772q48 131 150 206t241 75q203 0 321-145t118-398h-774q6-204 101.5-321T1364 72q119 0 201 63.5T1667 311l96-16q-26-148-135-230.5T1358-18q-146 0-251 75.5T952 272Q904 133 799.5 57.5T547-18q-208 0-330.5 144T94 518zm103 0q0-205 94.5-325.5T547 72q162 0 256 120t94 326-94 325.5T547 963q-161 0-255.5-120T197 518zm809 74h665q-12 173-100 272t-232 99q-140 0-230.5-102T1006 592z"/><glyph unicode="Ÿ" horiz-adv-x="1120" d="M18 1434h115l430-748 430 748h107L612 582V0H510v582zm301 206q0 26 19 45t47 19q27 0 45.5-18.5T449 1640q0-28-18-46.5t-46-18.5-47 18.5-19 46.5zm355 0q0 27 18 45.5t47 18.5q26 0 45-19t19-45q0-28-18.5-46.5T739 1575q-29 0-47 18.5t-18 46.5z"/><glyph unicode="ˆ" horiz-adv-x="1228" d="M90 1190l256 264h82l258-264h-94l-203 217-205-217H90z"/><glyph unicode="˜" horiz-adv-x="1228" d="M102 1257q0 85 44.5 136t113.5 51q44 0 87.5-18t73.5-39.5 68.5-39.5 73.5-18q41 0 66.5 32t25.5 87h70q0-86-44.5-136T567 1262q-44 0-87.5 17.5T407 1318t-68 38.5-75 17.5q-40 0-66-32t-26-85h-70z"/><glyph horiz-adv-x="918"/><glyph horiz-adv-x="1837"/><glyph horiz-adv-x="918"/><glyph horiz-adv-x="1837"/><glyph horiz-adv-x="612"/><glyph horiz-adv-x="459"/><glyph horiz-adv-x="306"/><glyph horiz-adv-x="306"/><glyph horiz-adv-x="229"/><glyph horiz-adv-x="367"/><glyph horiz-adv-x="102"/><glyph unicode="‐" horiz-adv-x="655" d="M41 535v73h573v-73H41z"/><glyph unicode="‑" horiz-adv-x="655" d="M41 535v73h573v-73H41z"/><glyph unicode="‒" horiz-adv-x="655" d="M41 535v73h573v-73H41z"/><glyph unicode="–" horiz-adv-x="1024" d="M41 535v73h942v-73H41z"/><glyph unicode="—" horiz-adv-x="2031" d="M43 535v73h1946v-73H43z"/><glyph unicode="‘" horiz-adv-x="509" d="M170 1110q0 8 1 14.5t4.5 19 8.5 25 16 39 23 55.5 33 81 43 108h74l-103-270q24-6 39-26t15-46q0-32-23-54t-55-22q-31 0-53.5 22t-22.5 54z"/><glyph unicode="’" horiz-adv-x="509" d="M170 1038l102 269q-53 21-53 73 0 32 23 54t55 22 54-22 22-54q0-7-1-13.5t-2.5-14-6.5-21-10.5-27.5-16-41-22-54.5-30.5-75-38-95.5h-76z"/><glyph unicode="‚" horiz-adv-x="507" d="M170-287L272-18q-53 21-53 73 0 31 23 53.5t55 22.5q31 0 53.5-22.5T373 55q0-8-1-14.5t-2.5-14-6.5-21T352.5-22t-16-40.5-22-54T284-191t-38-96h-76z"/><glyph unicode="“" horiz-adv-x="765" d="M170 1112q0 9 1 15.5t4.5 19 8.5 25 16 39.5 23 55.5 33 80 43 107.5h74l-103-268q25-7 39.5-27.5T324 1112q0-31-23-53.5t-55-22.5q-31 0-53.5 22.5T170 1112zm256 0q0 8 1 14.5t2.5 14 6.5 21 10.5 27.5 16 40.5 22 54T515 1358t38 96h76l-103-268q24-8 39-28t15-46q0-31-23-53.5t-55-22.5q-31 0-53.5 22.5T426 1112z"/><glyph unicode="”" horiz-adv-x="745" d="M170 1036l84 269q-25 8-40 27.5t-15 45.5q0 32 22.5 54t54.5 22 54-22 22-54q0-7-1-13.5t-2-14-5-21-8.5-27.5-14-41-18.5-54.5-25-75-32-95.5h-76zm256 0l84 269q-25 8-40 27.5t-15 45.5q0 32 22.5 54t54.5 22q31 0 53.5-22t22.5-54q0-8-1-15t-4-19-7-24.5-13-39.5-19-56-27-80.5-35-107.5h-76z"/><glyph unicode="„" horiz-adv-x="776" d="M170-287L272-18q-53 21-53 73 0 31 23 53.5t55 22.5 54-22.5T373 55q0-8-1-14.5t-2.5-14-6.5-21T352.5-22t-16-40.5-22-54T284-191t-38-96h-76zm266 0L539-18q-24 8-39 27.5T485 55q0 31 23 53.5t55 22.5q31 0 53.5-22.5T639 55q0-9-1-15.5t-4.5-19-8.5-25T609.5-44 587-99.5t-32.5-80T512-287h-76z"/><glyph unicode="•" horiz-adv-x="745" d="M170 709q0 98 60 156.5T389 924q100 0 160.5-58.5T610 709t-60.5-156.5T389 494q-99 0-159 58.5T170 709z"/><glyph unicode="…" horiz-adv-x="1239" d="M170 63q0 34 25.5 59t60.5 25q34 0 58-25t24-59q0-35-24-59t-58-24q-36 0-61 24t-25 59zm383 0q0 34 25.5 59t60.5 25q34 0 58-25t24-59q0-35-24-59t-58-24q-36 0-61 24t-25 59zm381 0q0 34 25.5 59t60.5 25q34 0 58-25t24-59q0-35-24-59t-58-24q-36 0-61 24t-25 59z"/><glyph horiz-adv-x="367"/><glyph unicode="‹" horiz-adv-x="653" d="M170 520l254 389h92L268 520l248-389h-92z"/><glyph unicode="›" horiz-adv-x="653" d="M172 131l248 389-248 389h92l254-389-254-389h-92z"/><glyph horiz-adv-x="459"/><glyph unicode="€" horiz-adv-x="1263" d="M123 537v81h113q-5 82-5 101v53H123v82h115q25 284 154.5 444T737 1458q160 0 269-91t137-265l-101-17q-20 134-103 206.5T733 1364q-165 0-267-135T340 854h534l-14-82H334v-55q0-37 4-99h522l-16-81H344q30-218 128-339.5T723 76q134 0 229.5 88T1065 391l100-16q-23-176-142.5-284.5T727-18q-200 0-325.5 147T242 537H123z"/><glyph unicode="™" horiz-adv-x="1513" d="M6 1382v66h576v-66H330V721h-72v661H6zm653-661v727h95l282-641 283 641h94V721h-72v610l-266-610h-76l-266 610V721h-74z"/><glyph unicode="◼" horiz-adv-x="1024" d="M0 0v1024h1024V0H0z"/></font>
</defs>
</svg>
