<svg viewBox="0 0 52 31" xmlns="http://www.w3.org/2000/svg" xmlns:xlink="http://www.w3.org/1999/xlink"><defs><path id="a" d="M0 .02h16.065v4.62H0z"/><path id="c" d="M.033.022H13.78v6.264H.033z"/></defs><g fill="none" fill-rule="evenodd"><rect fill="#E9E9E9" width="52" height="31" rx="8"/><g transform="translate(14.5 20.5)"><mask id="b" fill="#fff"><use xlink:href="#a"/></mask><path d="M14.79 1.578c-.093.597-.554.597-1 .597h-.254l.178-1.115a.14.14 0 0 1 .139-.117h.116c.304 0 .59 0 .738.17.089.103.116.255.082.465zM14.594.02h-1.682a.233.233 0 0 0-.231.195l-.68 4.266a.14.14 0 0 0 .138.16h.863c.08 0 .15-.058.162-.137l.193-1.209a.233.233 0 0 1 .23-.195h.533c1.108 0 1.748-.53 1.915-1.582.075-.46.003-.82-.215-1.073-.239-.278-.663-.425-1.226-.425z" fill="#238EC2" mask="url(#b)"/><path d="M2.79 1.578c-.092.597-.554.597-1 .597h-.254l.178-1.115a.14.14 0 0 1 .139-.117h.116c.304 0 .59 0 .739.17.088.103.115.255.082.465zM2.595.02H.913a.233.233 0 0 0-.23.195L.001 4.48a.14.14 0 0 0 .138.16h.804a.233.233 0 0 0 .23-.195l.184-1.151a.233.233 0 0 1 .231-.195h.532c1.109 0 1.748-.53 1.915-1.582.075-.46.003-.82-.214-1.073C3.582.167 3.158.02 2.595.02z" fill="#253667" mask="url(#b)"/></g><path d="M20.942 22.867a.87.87 0 0 1-.883.74c-.226 0-.408-.073-.524-.21-.116-.135-.16-.328-.123-.544a.872.872 0 0 1 .876-.745c.222 0 .402.073.521.21.12.14.167.335.133.549zm1.09-1.508h-.782a.136.136 0 0 0-.135.114l-.034.216-.055-.078c-.17-.244-.546-.325-.923-.325-.864 0-1.602.648-1.745 1.558-.075.454.031.888.29 1.19.24.279.58.395.985.395.696 0 1.083-.444 1.083-.444l-.035.216a.135.135 0 0 0 .134.156h.704c.112 0 .207-.08.224-.19l.423-2.653a.135.135 0 0 0-.135-.155z" fill="#253667"/><path d="M33.209 22.867a.87.87 0 0 1-.883.74c-.227 0-.408-.073-.525-.21-.115-.135-.159-.328-.122-.544a.872.872 0 0 1 .876-.745c.222 0 .402.073.521.21.12.14.167.335.133.549zm1.09-1.508h-.783a.136.136 0 0 0-.134.114l-.035.216-.054-.078c-.17-.244-.547-.325-.924-.325-.863 0-1.601.648-1.745 1.558-.074.454.032.888.291 1.19.239.279.58.395.985.395.696 0 1.082-.444 1.082-.444l-.035.216a.135.135 0 0 0 .135.156h.704c.111 0 .206-.08.224-.19l.422-2.653a.135.135 0 0 0-.134-.155z" fill="#238EC2"/><g transform="translate(22.934 19.714)"><mask id="d" fill="#fff"><use xlink:href="#c"/></mask><path d="M3.865 1.713h-.827a.235.235 0 0 0-.197.111l-1.14 1.788-.483-1.718a.241.241 0 0 0-.229-.181H.177c-.098 0-.167.103-.136.202l.91 2.844-.856 1.286c-.067.101.001.24.117.24h.826c.078 0 .151-.04.196-.109l2.748-4.224c.066-.1-.002-.239-.117-.239" fill="#253667" mask="url(#d)"/><path d="M12.702.15l-.705 4.775c-.013.092.054.176.142.176h.708a.244.244 0 0 0 .236-.215l.695-4.688c.014-.093-.053-.176-.141-.176h-.794c-.07 0-.13.054-.141.128" fill="#238EC2" mask="url(#d)"/></g><path d="M30.998 7.593c.165-1.1-.001-1.849-.572-2.527C29.797 4.32 28.66 4 27.208 4h-4.217a.612.612 0 0 0-.596.53l-1.756 11.608a.373.373 0 0 0 .357.436H23.6l-.18 1.187c-.03.2.118.382.313.382h2.195c.26 0 .48-.197.521-.465l.022-.116.413-2.732.027-.151a.535.535 0 0 1 .521-.465h.328c2.127 0 3.791-.9 4.278-3.503.203-1.088.098-1.996-.44-2.635a2.103 2.103 0 0 0-.6-.483" fill="#238EC2"/><path d="M31.305 7.593c.17-1.1-.001-1.849-.59-2.527C30.07 4.32 28.9 4 27.404 4h-4.342a.624.624 0 0 0-.614.53L20.64 16.135a.376.376 0 0 0 .368.436h2.68l.674-4.321-.02.135a.621.621 0 0 1 .61-.53h1.275c2.503 0 4.462-1.03 5.034-4.005.017-.088.032-.174.045-.257" fill="#20274F"/><path d="M25.085 7.607a.55.55 0 0 1 .537-.464h3.404c.403 0 .779.026 1.123.083a4.93 4.93 0 0 1 .557.125l.128.04c.17.057.326.124.47.202.171-1.1 0-1.849-.588-2.527C30.069 4.32 28.899 4 27.403 4h-4.342a.624.624 0 0 0-.614.53l-1.808 11.605a.376.376 0 0 0 .368.436h2.68l1.398-8.964" fill="#253667"/></g></svg>