<svg width="26" height="26" xmlns="http://www.w3.org/2000/svg"><g stroke="#FFF" fill="none" fill-rule="evenodd"><path d="M4.965 3.424A12.45 12.45 0 0 1 13 .5c2.454 0 4.743.707 6.674 1.929m1.267 20.225A12.449 12.449 0 0 1 13 25.5C6.096 25.5.5 19.904.5 13c0-2.965 1.032-5.689 2.757-7.832" stroke-linecap="round" stroke-linejoin="round"/><path d="M19.674 2.429a9.989 9.989 0 0 1 2.606 2.197 12.61 12.61 0 0 1 2.658 4.656c.365 1.174.562 2.423.562 3.718 0 1.294-.197 2.542-.562 3.716a12.537 12.537 0 0 1-2.29 4.232" stroke-linecap="round" stroke-linejoin="round"/><path d="M3.26 13c-.016-.586-.059-4.438 3.028-7.26.506-.463 2.795-2.451 6.283-2.424 2.752.02 3.911.82 4.588 1.31" stroke-width=".544" stroke-linecap="round" stroke-linejoin="round"/><path d="M4.478 12.536c.018-.546.171-3.522 2.646-5.765.462-.419 2.425-2.1 5.391-2.08 2.072.013 2.809.383 3.449.788M21.96 13A8.961 8.961 0 0 1 13 21.961" stroke-width=".544" stroke-linecap="round" stroke-linejoin="round"/><path d="M19.736 8.202a1.338 1.338 0 0 0-1.89.106l-5.53 6.052-2.692-2.407a1.338 1.338 0 0 0-1.783 1.995l3.486 3.116c.074.066.153.121.236.168a1.338 1.338 0 0 0 1.878-.115l6.4-7.026a1.338 1.338 0 0 0-.105-1.889z" stroke-width=".544" fill="#FFF"/></g></svg>