<svg width="32" height="44" xmlns="http://www.w3.org/2000/svg"><g fill="none" fill-rule="evenodd"><path d="M1.057 32.346l.209-28.99a2.243 2.243 0 0 1 .498-1.592A2.23 2.23 0 0 1 3.124 1c5.111.055 10.222.11 15.333.163l3.156 3.356 4.96 5.58m1.844 1.689l2.59 3.02.331 25.26c.018.158.11 1.085-.564 1.892-.697.835-1.671.89-1.826.896l-24.828.066c-.147.026-1.256.202-2.19-.597C1 41.531.998 40.418 1 40.267l.028-3.897" stroke="#6038CD" stroke-width="1.08" stroke-linecap="round" stroke-linejoin="round"/><path d="M24.05 17.948c-.737-.748-1.993-.613-2.71.156l-4.76 5.105a.822.822 0 0 1-1.14.052l-1.835-1.635c-.66-.589-1.638-.612-2.25-.106a2.21 2.21 0 0 0-1.063 1.364c-.247.958.542 1.907.733 2.15l.001.001.24.238c.055.053.984.696 1.21.725.117.016-.567-.517-.502-.534a.623.623 0 0 0 .323-.316.545.545 0 0 0 .02-.3c-.06-.25-.301-.335-.504-.5-.334-.27-.593-.776-.513-1.204.081-.436.492-.686.635-.765a.753.753 0 0 1 .977.024l1.836 1.636a1.87 1.87 0 0 0 2.593-.12l4.874-5.228a.758.758 0 0 1 1.306.455.749.749 0 0 1-.191.566l-6.698 7.445a.748.748 0 0 1-.537.25c-.202.008-.402-.068-.597-.253-.568-.426-1.607-1.21-2.176-1.636-.026-.027-1.068-1.06-1.372-1.01a.604.604 0 0 0-.296.145c-.071.103-.172.286-.133.483.049.244.289.377.411.457.582.381 2.566 2.08 2.888 2.35.155.128.329.283.6.385.31.117.63.12.648.12h.063a1.783 1.783 0 0 0 1.275-.594l6.698-7.446c.333-.371.494-.849.455-1.346a1.777 1.777 0 0 0-.508-1.114" fill="#5D38CB"/><path d="M25.088 22.088c.026.078.066.207.108.368 0 0 .21.904.21 1.903 0 4.975-4.187 9.008-9.351 9.008-5.164 0-9.35-4.033-9.35-9.008 0-5.47 5.206-8.89 9.35-9.008 1.94-.055 3.512.617 4.466 1.142" stroke="#FF4638" stroke-width="1.08" stroke-linecap="round" stroke-linejoin="round"/></g></svg>