<svg width="46" height="38" xmlns="http://www.w3.org/2000/svg"><g fill="none" fill-rule="evenodd"><path d="M1 22.939V9.754C1 4.919 3.88 1 7.434 1h30.754c3.553 0 6.434 3.92 6.434 8.754m0 5.269V27.82c0 4.834-2.88 8.754-6.434 8.754H7.434C3.881 36.575 1 32.655 1 27.82" stroke="#6038CD" stroke-width="1.041" stroke-linecap="round" stroke-linejoin="round"/><path d="M7.263 13.32V9.142c0-.178.145-.323.323-.323h1.685c.178 0 .323.145.323.323v.007c0 .291.35.427.557.223.522-.515 1.245-.796 2.122-.796 1.896 0 3.113 1.357 3.113 3.461v5.156a.323.323 0 0 1-.323.323h-1.997a.323.323 0 0 1-.324-.323v-4.947c0-.922-.556-1.513-1.391-1.513-.87 0-1.444.66-1.461 1.67l.016 4.79a.323.323 0 0 1-.323.323H7.586a.323.323 0 0 1-.323-.323V14.91m8.123 9.345v4.177a.323.323 0 0 1-.323.323h-1.685a.323.323 0 0 1-.322-.323v-.006c0-.291-.35-.428-.557-.223-.522.514-1.245.796-2.122.796-1.896 0-3.114-1.357-3.114-3.462v-5.156c0-.178.145-.323.323-.323h1.998c.178 0 .323.145.323.323v4.948c0 .921.557 1.513 1.392 1.513.87 0 1.443-.661 1.46-1.67l-.016-4.79c0-.178.145-.324.324-.324h1.996c.179 0 .323.145.323.323v2.283" stroke="#6038CD" stroke-width="1.041" stroke-linecap="round" stroke-linejoin="round"/><path d="M35.425 28.445H23.86a3.875 3.875 0 0 1-3.875-3.875V13.004A3.875 3.875 0 0 1 23.86 9.13h11.565a3.875 3.875 0 0 1 3.876 3.875V24.57a3.875 3.875 0 0 1-3.876 3.875z" stroke="#FF4638" stroke-width="1.041" stroke-linecap="round" stroke-linejoin="round"/><path d="M34.04 25.931h-8.794a2.747 2.747 0 0 1-2.747-2.747V14.39a2.747 2.747 0 0 1 2.747-2.747h8.794a2.747 2.747 0 0 1 2.747 2.747v8.794a2.747 2.747 0 0 1-2.747 2.747z" stroke="#FF4638" stroke-width="1.041" stroke-linecap="round" stroke-linejoin="round"/><path d="M31.889 23.21h-4.492a2.176 2.176 0 0 1-2.177-2.177v-4.492c0-1.202.975-2.176 2.177-2.176h4.492c1.202 0 2.176.974 2.176 2.176v4.492a2.177 2.177 0 0 1-2.176 2.177z" stroke="#FF4638" stroke-width="1.041" stroke-linecap="round" stroke-linejoin="round"/><path d="M30.604 20.998h-1.923c-.69 0-1.25-.56-1.25-1.25v-1.922c0-.69.56-1.25 1.25-1.25h1.923c.69 0 1.25.56 1.25 1.25v1.923c0 .69-.56 1.25-1.25 1.25" fill="#FF4638"/></g></svg>