<svg width="52" height="34" xmlns="http://www.w3.org/2000/svg"><g stroke-width=".983" fill="none" fill-rule="evenodd" stroke-linecap="round" stroke-linejoin="round"><path d="M21.122 19.034c-1.328 1.482-2.216 1.938-2.649 2.104-.079.03-.141.048-.2.066-.78.24-1.746.012-2.372-.629-.682-.698-.677-1.596-.673-1.753.026-1.073.787-1.843.684-1.92-.114-.085-.754 1.093-1.699 1.125-.518.018-.936-.316-1.466-.74-.509-.404-.92-.733-1.07-1.245-.318-1.092.775-2.27.629-2.372-.132-.093-.746 1.073-1.699 1.125-.67.036-1.212-.49-1.467-.74-.057-.055-.792-.79-.925-1.854-.238-1.891 1.554-3.793 3.375-4.41.46-.156 1.875-.635 2.768.122.63.534.66 1.402.673 1.753.06 1.727-1.458 2.693-1.494 2.713h-.003c-.02-.011.371-.708 1.662-1.356.249-.124 1.498-.495 2.316.177.68.557.706 1.535.673 1.754-.273 1.805-1.167 2.442-1.191 2.422-.024-.019.412-.705 1.809-1.12.163-.05.853-.145 1.411.286.78.603.615 1.735.607 1.785" stroke="#6038CD"/><path d="M25.498 13.711c-1.457.096-2.18 1.99-2.027 3.232.027.22.141 1.147.837 1.498.664.334 1.426-.076 1.798-.276.351-.189 1.894-1.018 1.733-2.462-.129-1.157-1.28-2.062-2.341-1.992z" stroke="#FF4638"/><path d="M3.155 14.8c.55 3.198 2.64 5.123 4.385 4.958 1.394-.132 2.863-1.612 2.678-2.695-.144-.846-1.196-.864-2.856-2.1-2.458-1.828-2.59-3.604-3.597-3.541-1.229.076-2.48 2.817-2.545 5.434-.083 3.392 2.198 4.796 1.334 7.181-.51 1.407-1.45 1.41-1.546 2.352-.254 2.495 5.858 7.164 11.16 6.174 2.854-.533 6.207-2.977 12.01-9.822m5.154-4.103c.569.653 1.17 1.283 1.83 1.843 1.242 1.052 1.736 1.123 1.975 1.136.813.046 1.697-.407 2.151-1.18.494-.841.273-1.712.232-1.864-.283-1.035-1.206-1.6-1.125-1.699.09-.11.995.88 1.919.684.507-.107.834-.532 1.247-1.07.396-.515.717-.933.739-1.466.047-1.136-1.297-2.017-1.18-2.151.106-.122.981.862 1.92.684.67-.128 1.07-.782 1.246-1.07.649-1.066.414-2.223.38-2.376-.413-1.894-2.575-2.986-4.262-3.117-.526-.041-1.983-.154-2.659.782-.483.67-.304 1.52-.231 1.864.356 1.69 2.06 2.264 2.1 2.274h.004c.017-.015-.531-.599-1.94-.917-.27-.061-1.572-.12-2.206.728-.525.704-.316 1.66-.231 1.864.698 1.687 1.718 2.09 1.738 2.065.018-.024-.57-.586-2.025-.653-.171-.008-.864.065-1.302.617-.224.283-.295.494-.272.674.07.543.642.836.67.85" stroke="#6038CD"/><path d="M46.274 11.77c.234 3.236-1.332 5.608-3.066 5.866-1.37.205-3.106-.839-3.247-1.973-.14-1.122 1.383-1.476 3.041-4.024 1.237-1.9 1.146-2.866 1.87-3.002 1.195-.224 3.077 2.116 3.774 4.665.895 3.272-.982 5.183.43 7.291.832 1.243 1.746 1.02 2.065 1.912.845 2.36-3.966 8.36-9.35 8.673-3.103.18-7.263-2.829-15.582-8.845-.02-.015-.382-.297-.87-.684-.511-.404-1.031-.813-1.504-1.253-.884-.822-1.602-1.753-1.78-2.972-.054-.37-.047-1.136.45-2.084" stroke="#6038CD"/><path stroke="#FF4638" d="M23.973 0l.004 8.102m7.567-4.021L27.307 7.76M15.5 3.323l5.112 4.41"/></g></svg>