<svg width="16" height="16" xmlns="http://www.w3.org/2000/svg" xmlns:xlink="http://www.w3.org/1999/xlink"><defs><path d="M13.584 2.769c-.86.772-1.791 1.796-2.792 3.075-1.31 1.677-2.313 3.244-3.004 4.701l-.555.376c-.46.32-.774.558-.939.713-.065-.236-.208-.62-.428-1.157l-.21-.487c-.3-.701-.58-1.22-.837-1.555-.258-.335-.547-.558-.868-.668.541-.571 1.037-.856 1.487-.856.386 0 .814.523 1.285 1.57l.232.524c.846-1.426 1.932-2.813 3.26-4.159 1.005-1.022 1.994-1.862 2.965-2.523a7.68 7.68 0 1 0 .403.446" id="a"/></defs><use fill="#fff" xlink:href="#a" fill-rule="evenodd"/></svg>