<svg xmlns="http://www.w3.org/2000/svg" width="33" height="62"><defs><clipPath id="a"><path data-name="Clip 20" d="M0 0h33v62H0z" fill="none"/></clipPath></defs><g data-name="Group 22 Copy"><path data-name="Fill 1" d="M8.454 27a.454.454 0 0 0 .454-.454v-3.424a1.215 1.215 0 0 1 1.214-1.214h3.424a.454.454 0 0 0 0-.908h-3.424A2.124 2.124 0 0 0 8 23.122v3.424a.454.454 0 0 0 .454.454" fill="#fff"/><path data-name="Fill 3" d="M13.55 39.092H10.1a1.21 1.21 0 0 1-1.2-1.214v-3.424a.45.45 0 1 0-.9 0v3.424A2.115 2.115 0 0 0 10.1 40h3.45a.454.454 0 0 0 0-.908" fill="#fff"/><path data-name="Fill 5" d="M26.542 34a.458.458 0 0 0-.458.458v3.4a1.226 1.226 0 0 1-1.225 1.226h-3.401a.458.458 0 0 0 0 .916h3.4A2.143 2.143 0 0 0 27 37.859v-3.401a.458.458 0 0 0-.458-.458" fill="#fff"/><path data-name="Fill 7" d="M24.878 21h-3.424a.45.45 0 1 0 0 .9h3.424a1.21 1.21 0 0 1 1.214 1.2v3.45a.454.454 0 0 0 .908 0V23.1a2.115 2.115 0 0 0-2.122-2.1" fill="#fff"/><path data-name="Fill 9" d="M20 33.457a.452.452 0 0 0-.817-.272 4.1 4.1 0 0 1-2.683.9 4.1 4.1 0 0 1-2.683-.9.452.452 0 0 0-.817.272c0 .218.129.357.384.553a4.321 4.321 0 0 0 .667.416A5.4 5.4 0 0 0 16.5 35a5.4 5.4 0 0 0 2.449-.575 4.33 4.33 0 0 0 .667-.416c.255-.195.384-.334.384-.552" fill="#fff"/><path data-name="Fill 11" d="M18.529 32a.51.51 0 0 0 .471-.542.51.51 0 0 0-.471-.542.638.638 0 0 1-.588-.677v-3.697a.51.51 0 0 0-.47-.542.51.51 0 0 0-.471.542v3.7A1.66 1.66 0 0 0 18.529 32" fill="#fff"/><path data-name="Fill 13" d="M22 27.493v-.986a.5.5 0 0 0-.5-.507.5.5 0 0 0-.5.507v.985a.5.5 0 0 0 .5.508.5.5 0 0 0 .5-.507" fill="#fff"/><path data-name="Fill 15" d="M12 26.507v.985a.5.5 0 0 0 .5.508.5.5 0 0 0 .5-.507v-.986a.5.5 0 0 0-.5-.507.5.5 0 0 0-.5.507" fill="#fff"/><path data-name="Fill 17" d="M17.5 3a.5.5 0 1 0-.5-.5.5.5 0 0 0 .5.5" fill="#fff"/><g data-name="Group 21"><path data-name="Clip 20" d="M0 0h33v62H0z" fill="none"/><g data-name="Group 21" clip-path="url(#a)"><path data-name="Fill 19" d="M27.329 62H5.671A5.7 5.7 0 0 1 0 56.275V5.725A5.7 5.7 0 0 1 5.671 0h21.658A5.7 5.7 0 0 1 33 5.725v50.55A5.7 5.7 0 0 1 27.329 62zM5.671 2.168a3.544 3.544 0 0 0-3.523 3.557v50.55a3.543 3.543 0 0 0 3.523 3.556h21.658a3.543 3.543 0 0 0 3.523-3.556V5.725a3.544 3.544 0 0 0-3.523-3.557h-2.852a1.956 1.956 0 0 1-1.948 1.89H10.472a1.955 1.955 0 0 1-1.948-1.89zM16.5 1.232a.838.838 0 1 0 .83.838.835.835 0 0 0-.83-.838z" fill="#fff"/></g></g></g></svg>