<svg xmlns="http://www.w3.org/2000/svg" xmlns:xlink="http://www.w3.org/1999/xlink" width="29" height="30"><defs><path id="a" d="M0 .385h28.623v29.21H0z"/></defs><g fill="none" fill-rule="evenodd"><g transform="translate(0 .02)"><mask id="b" fill="#fff"><use xlink:href="#a"/></mask><path fill="#FEFEFE" d="M14.311 1.324c-3.577 0-6.94 1.421-9.47 4.002C2.313 7.907.922 11.34.922 14.99c0 3.65 1.391 7.082 3.92 9.663 2.53 2.581 5.893 4.003 9.47 4.003 3.577 0 6.94-1.422 9.47-4.003 2.529-2.581 3.922-6.013 3.922-9.663 0-3.65-1.393-7.083-3.923-9.664-2.529-2.58-5.892-4.002-9.469-4.002m0 28.27c-3.822 0-7.417-1.519-10.12-4.277C1.49 22.558 0 18.891 0 14.99S1.489 7.42 4.192 4.663C6.894 1.904 10.489.385 14.312.385c3.822 0 7.416 1.52 10.12 4.278 2.702 2.758 4.19 6.426 4.19 10.327 0 3.9-1.488 7.568-4.19 10.327-2.704 2.758-6.298 4.278-10.12 4.278" mask="url(#b)"/></g><path fill="#FEFEFE" d="M18.77 18.012c-.127 0-.217.036-.272.113-.055.073-.082.197-.082.369v.415h.7v-.415c0-.172-.028-.296-.083-.369-.054-.077-.143-.113-.264-.113m-2.73-.015a.37.37 0 0 0-.168.04.595.595 0 0 0-.163.125v2.562a.685.685 0 0 0 .187.144c.06.03.124.044.192.044.096 0 .167-.028.212-.087.045-.057.07-.15.07-.283V18.42a.507.507 0 0 0-.084-.315c-.057-.073-.14-.108-.246-.108"/><path fill="#FEFEFE" d="M20.44 14.811c-.652-.662-6.132-.671-6.132-.671s-5.48.008-6.131.67c-.652.665-.654 3.943-.654 3.961 0 .025.002 3.297.654 3.962.651.662 6.131.676 6.131.676s5.481-.014 6.131-.676c.654-.666.66-3.962.66-3.962 0-.017-.007-3.295-.66-3.96zm-8.737 1.933h-.923v4.761h-.893v-4.761h-.923v-.81H11.7v.81h.002zm2.608 4.76h-.79v-.451a1.706 1.706 0 0 1-.459.38.936.936 0 0 1-.46.132c-.183 0-.319-.06-.413-.184-.091-.123-.138-.305-.138-.55v-3.437h.79v3.152c0 .098.017.168.05.212.034.044.088.065.162.065a.43.43 0 0 0 .222-.087c.089-.058.17-.131.246-.22v-3.122h.79v4.11zm2.873-.849c0 .291-.062.514-.186.67-.123.154-.304.232-.539.232a.903.903 0 0 1-.413-.09 1.012 1.012 0 0 1-.339-.278v.316h-.8v-5.571h.8v1.793c.108-.125.22-.221.34-.285a.761.761 0 0 1 .365-.098c.251 0 .442.088.574.262.133.175.198.432.198.768v2.281zm2.746-1.105h-1.514v.772c0 .217.026.367.077.45.054.085.142.126.269.126.13 0 .222-.036.275-.107.052-.07.08-.226.08-.469v-.187h.814v.211c0 .422-.098.739-.298.953-.197.213-.494.319-.888.319-.354 0-.635-.113-.838-.339-.203-.225-.307-.535-.307-.932v-1.845c0-.355.114-.648.337-.871.224-.225.512-.337.867-.337.363 0 .642.104.836.312.195.207.291.506.291.896v1.048zm-1.164-7.134h-.892v-.5a1.874 1.874 0 0 1-.513.421c-.177.096-.35.145-.516.145-.208 0-.362-.068-.466-.203-.104-.135-.156-.336-.156-.607V7.89h.89v3.47c0 .108.02.186.057.233.037.049.098.073.181.073a.503.503 0 0 0 .249-.096c.1-.063.192-.145.274-.244V7.89h.892v4.527zm-3.62-4.313c-.236-.219-.539-.329-.908-.329-.404 0-.728.104-.967.312-.24.207-.36.486-.36.838v2.346c0 .386.118.691.35.92.235.226.548.34.937.34.406 0 .723-.11.956-.33.23-.22.345-.524.345-.911v-2.34a1.11 1.11 0 0 0-.353-.846zm-.556 3.254c0 .12-.035.216-.106.286a.396.396 0 0 1-.287.104c-.119 0-.21-.034-.272-.102a.41.41 0 0 1-.096-.288V8.89a.31.31 0 0 1 .102-.24.384.384 0 0 1 .266-.09c.117 0 .212.029.285.09.072.06.108.141.108.24v2.467zM10.483 6.28H9.472l1.194 3.705v2.431h1.004V9.87l1.168-3.59h-1.02l-.62 2.452h-.063z"/></g></svg>